<?xml version="1.0" encoding="utf-8" standalone="no"?>
<!DOCTYPE svg PUBLIC "-//W3C//DTD SVG 1.1//EN"
  "http://www.w3.org/Graphics/SVG/1.1/DTD/svg11.dtd">
<svg xmlns:xlink="http://www.w3.org/1999/xlink" width="576pt" height="288pt" viewBox="0 0 576 288" xmlns="http://www.w3.org/2000/svg" version="1.1">
 <metadata>
  <rdf:RDF xmlns:dc="http://purl.org/dc/elements/1.1/" xmlns:cc="http://creativecommons.org/ns#" xmlns:rdf="http://www.w3.org/1999/02/22-rdf-syntax-ns#">
   <cc:Work>
    <dc:type rdf:resource="http://purl.org/dc/dcmitype/StillImage"/>
    <dc:date>2024-03-03T16:53:39.496216</dc:date>
    <dc:format>image/svg+xml</dc:format>
    <dc:creator>
     <cc:Agent>
      <dc:title>Matplotlib v3.7.2, https://matplotlib.org/</dc:title>
     </cc:Agent>
    </dc:creator>
   </cc:Work>
  </rdf:RDF>
 </metadata>
 <defs>
  <style type="text/css">*{stroke-linejoin: round; stroke-linecap: butt}</style>
 </defs>
 <g id="figure_1">
  <g id="patch_1">
   <path d="M 0 288 
L 576 288 
L 576 0 
L 0 0 
z
" style="fill: #ffffff"/>
  </g>
  <g id="axes_1">
   <g id="patch_2">
    <path d="M 406.08 145.44 
C 406.08 130.879372 403.211874 116.460327 397.639763 103.008061 
C 392.067651 89.555795 383.899919 77.331919 373.604 67.036 
C 363.308081 56.740081 351.084205 48.572349 337.631939 43.000237 
C 324.179673 37.428126 309.760628 34.56 295.2 34.56 
C 280.639372 34.56 266.220327 37.428126 252.768061 43.000237 
C 239.315795 48.572349 227.091919 56.740081 216.796 67.036 
C 206.500081 77.331919 198.332349 89.555795 192.760237 103.008061 
C 187.188126 116.460327 184.32 130.879372 184.32 145.44 
C 184.32 160.000628 187.188126 174.419673 192.760237 187.871939 
C 198.332349 201.324205 206.500081 213.548081 216.796 223.844 
C 227.091919 234.139919 239.315795 242.307651 252.768061 247.879763 
C 266.220327 253.451874 280.639372 256.32 295.2 256.32 
C 309.760628 256.32 324.179673 253.451874 337.631939 247.879763 
C 351.084205 242.307651 363.308081 234.139919 373.604 223.844 
C 383.899919 213.548081 392.067651 201.324205 397.639763 187.871939 
C 403.211874 174.419673 406.08 160.000628 406.08 145.44 
M 295.2 145.44 
C 295.2 145.44 295.2 145.44 295.2 145.44 
C 295.2 145.44 295.2 145.44 295.2 145.44 
C 295.2 145.44 295.2 145.44 295.2 145.44 
C 295.2 145.44 295.2 145.44 295.2 145.44 
C 295.2 145.44 295.2 145.44 295.2 145.44 
C 295.2 145.44 295.2 145.44 295.2 145.44 
C 295.2 145.44 295.2 145.44 295.2 145.44 
C 295.2 145.44 295.2 145.44 295.2 145.44 
C 295.2 145.44 295.2 145.44 295.2 145.44 
C 295.2 145.44 295.2 145.44 295.2 145.44 
C 295.2 145.44 295.2 145.44 295.2 145.44 
C 295.2 145.44 295.2 145.44 295.2 145.44 
C 295.2 145.44 295.2 145.44 295.2 145.44 
C 295.2 145.44 295.2 145.44 295.2 145.44 
C 295.2 145.44 295.2 145.44 295.2 145.44 
C 295.2 145.44 295.2 145.44 295.2 145.44 
z
" style="fill: #ffffff"/>
   </g>
   <g id="matplotlib.axis_1">
    <g id="xtick_1">
     <g id="line2d_1">
      <path d="M 295.2 145.44 
L 295.2 34.56 
" clip-path="url(#ped933be56f)" style="fill: none; stroke-dasharray: 2.96,1.28; stroke-dashoffset: 0; stroke: #b0b0b0; stroke-width: 0.8"/>
     </g>
     <g id="text_1">
      <!-- 0° -->
      <g transform="translate(288.3825 23.87125) scale(0.12 -0.12)">
       <defs>
        <path id="DejaVuSans-30" d="M 2034 4250 
Q 1547 4250 1301 3770 
Q 1056 3291 1056 2328 
Q 1056 1369 1301 889 
Q 1547 409 2034 409 
Q 2525 409 2770 889 
Q 3016 1369 3016 2328 
Q 3016 3291 2770 3770 
Q 2525 4250 2034 4250 
z
M 2034 4750 
Q 2819 4750 3233 4129 
Q 3647 3509 3647 2328 
Q 3647 1150 3233 529 
Q 2819 -91 2034 -91 
Q 1250 -91 836 529 
Q 422 1150 422 2328 
Q 422 3509 836 4129 
Q 1250 4750 2034 4750 
z
" transform="scale(0.015625)"/>
        <path id="DejaVuSans-b0" d="M 1600 4347 
Q 1350 4347 1178 4173 
Q 1006 4000 1006 3750 
Q 1006 3503 1178 3333 
Q 1350 3163 1600 3163 
Q 1850 3163 2022 3333 
Q 2194 3503 2194 3750 
Q 2194 3997 2020 4172 
Q 1847 4347 1600 4347 
z
M 1600 4750 
Q 1800 4750 1984 4673 
Q 2169 4597 2303 4453 
Q 2447 4313 2519 4134 
Q 2591 3956 2591 3750 
Q 2591 3338 2302 3052 
Q 2013 2766 1594 2766 
Q 1172 2766 890 3047 
Q 609 3328 609 3750 
Q 609 4169 896 4459 
Q 1184 4750 1600 4750 
z
" transform="scale(0.015625)"/>
       </defs>
       <use xlink:href="#DejaVuSans-30"/>
       <use xlink:href="#DejaVuSans-b0" x="63.623047"/>
      </g>
     </g>
    </g>
    <g id="xtick_2">
     <g id="line2d_2">
      <path d="M 295.2 145.44 
L 216.796 67.036 
" clip-path="url(#ped933be56f)" style="fill: none; stroke-dasharray: 2.96,1.28; stroke-dashoffset: 0; stroke: #b0b0b0; stroke-width: 0.8"/>
     </g>
     <g id="text_2">
      <!-- 45° -->
      <g transform="translate(196.261505 60.447755) scale(0.12 -0.12)">
       <defs>
        <path id="DejaVuSans-34" d="M 2419 4116 
L 825 1625 
L 2419 1625 
L 2419 4116 
z
M 2253 4666 
L 3047 4666 
L 3047 1625 
L 3713 1625 
L 3713 1100 
L 3047 1100 
L 3047 0 
L 2419 0 
L 2419 1100 
L 313 1100 
L 313 1709 
L 2253 4666 
z
" transform="scale(0.015625)"/>
        <path id="DejaVuSans-35" d="M 691 4666 
L 3169 4666 
L 3169 4134 
L 1269 4134 
L 1269 2991 
Q 1406 3038 1543 3061 
Q 1681 3084 1819 3084 
Q 2600 3084 3056 2656 
Q 3513 2228 3513 1497 
Q 3513 744 3044 326 
Q 2575 -91 1722 -91 
Q 1428 -91 1123 -41 
Q 819 9 494 109 
L 494 744 
Q 775 591 1075 516 
Q 1375 441 1709 441 
Q 2250 441 2565 725 
Q 2881 1009 2881 1497 
Q 2881 1984 2565 2268 
Q 2250 2553 1709 2553 
Q 1456 2553 1204 2497 
Q 953 2441 691 2322 
L 691 4666 
z
" transform="scale(0.015625)"/>
       </defs>
       <use xlink:href="#DejaVuSans-34"/>
       <use xlink:href="#DejaVuSans-35" x="63.623047"/>
       <use xlink:href="#DejaVuSans-b0" x="127.246094"/>
      </g>
     </g>
    </g>
    <g id="xtick_3">
     <g id="line2d_3">
      <path d="M 295.2 145.44 
L 184.32 145.44 
" clip-path="url(#ped933be56f)" style="fill: none; stroke-dasharray: 2.96,1.28; stroke-dashoffset: 0; stroke: #b0b0b0; stroke-width: 0.8"/>
     </g>
     <g id="text_3">
      <!-- 90° -->
      <g transform="translate(159.685 148.75125) scale(0.12 -0.12)">
       <defs>
        <path id="DejaVuSans-39" d="M 703 97 
L 703 672 
Q 941 559 1184 500 
Q 1428 441 1663 441 
Q 2288 441 2617 861 
Q 2947 1281 2994 2138 
Q 2813 1869 2534 1725 
Q 2256 1581 1919 1581 
Q 1219 1581 811 2004 
Q 403 2428 403 3163 
Q 403 3881 828 4315 
Q 1253 4750 1959 4750 
Q 2769 4750 3195 4129 
Q 3622 3509 3622 2328 
Q 3622 1225 3098 567 
Q 2575 -91 1691 -91 
Q 1453 -91 1209 -44 
Q 966 3 703 97 
z
M 1959 2075 
Q 2384 2075 2632 2365 
Q 2881 2656 2881 3163 
Q 2881 3666 2632 3958 
Q 2384 4250 1959 4250 
Q 1534 4250 1286 3958 
Q 1038 3666 1038 3163 
Q 1038 2656 1286 2365 
Q 1534 2075 1959 2075 
z
" transform="scale(0.015625)"/>
       </defs>
       <use xlink:href="#DejaVuSans-39"/>
       <use xlink:href="#DejaVuSans-30" x="63.623047"/>
       <use xlink:href="#DejaVuSans-b0" x="127.246094"/>
      </g>
     </g>
    </g>
    <g id="xtick_4">
     <g id="line2d_4">
      <path d="M 295.2 145.44 
L 216.796 223.844 
" clip-path="url(#ped933be56f)" style="fill: none; stroke-dasharray: 2.96,1.28; stroke-dashoffset: 0; stroke: #b0b0b0; stroke-width: 0.8"/>
     </g>
     <g id="text_4">
      <!-- 135° -->
      <g transform="translate(192.444005 237.054745) scale(0.12 -0.12)">
       <defs>
        <path id="DejaVuSans-31" d="M 794 531 
L 1825 531 
L 1825 4091 
L 703 3866 
L 703 4441 
L 1819 4666 
L 2450 4666 
L 2450 531 
L 3481 531 
L 3481 0 
L 794 0 
L 794 531 
z
" transform="scale(0.015625)"/>
        <path id="DejaVuSans-33" d="M 2597 2516 
Q 3050 2419 3304 2112 
Q 3559 1806 3559 1356 
Q 3559 666 3084 287 
Q 2609 -91 1734 -91 
Q 1441 -91 1130 -33 
Q 819 25 488 141 
L 488 750 
Q 750 597 1062 519 
Q 1375 441 1716 441 
Q 2309 441 2620 675 
Q 2931 909 2931 1356 
Q 2931 1769 2642 2001 
Q 2353 2234 1838 2234 
L 1294 2234 
L 1294 2753 
L 1863 2753 
Q 2328 2753 2575 2939 
Q 2822 3125 2822 3475 
Q 2822 3834 2567 4026 
Q 2313 4219 1838 4219 
Q 1578 4219 1281 4162 
Q 984 4106 628 3988 
L 628 4550 
Q 988 4650 1302 4700 
Q 1616 4750 1894 4750 
Q 2613 4750 3031 4423 
Q 3450 4097 3450 3541 
Q 3450 3153 3228 2886 
Q 3006 2619 2597 2516 
z
" transform="scale(0.015625)"/>
       </defs>
       <use xlink:href="#DejaVuSans-31"/>
       <use xlink:href="#DejaVuSans-33" x="63.623047"/>
       <use xlink:href="#DejaVuSans-35" x="127.246094"/>
       <use xlink:href="#DejaVuSans-b0" x="190.869141"/>
      </g>
     </g>
    </g>
    <g id="xtick_5">
     <g id="line2d_5">
      <path d="M 295.2 145.44 
L 295.2 256.32 
" clip-path="url(#ped933be56f)" style="fill: none; stroke-dasharray: 2.96,1.28; stroke-dashoffset: 0; stroke: #b0b0b0; stroke-width: 0.8"/>
     </g>
     <g id="text_5">
      <!-- 180° -->
      <g transform="translate(280.7475 273.63125) scale(0.12 -0.12)">
       <defs>
        <path id="DejaVuSans-38" d="M 2034 2216 
Q 1584 2216 1326 1975 
Q 1069 1734 1069 1313 
Q 1069 891 1326 650 
Q 1584 409 2034 409 
Q 2484 409 2743 651 
Q 3003 894 3003 1313 
Q 3003 1734 2745 1975 
Q 2488 2216 2034 2216 
z
M 1403 2484 
Q 997 2584 770 2862 
Q 544 3141 544 3541 
Q 544 4100 942 4425 
Q 1341 4750 2034 4750 
Q 2731 4750 3128 4425 
Q 3525 4100 3525 3541 
Q 3525 3141 3298 2862 
Q 3072 2584 2669 2484 
Q 3125 2378 3379 2068 
Q 3634 1759 3634 1313 
Q 3634 634 3220 271 
Q 2806 -91 2034 -91 
Q 1263 -91 848 271 
Q 434 634 434 1313 
Q 434 1759 690 2068 
Q 947 2378 1403 2484 
z
M 1172 3481 
Q 1172 3119 1398 2916 
Q 1625 2713 2034 2713 
Q 2441 2713 2670 2916 
Q 2900 3119 2900 3481 
Q 2900 3844 2670 4047 
Q 2441 4250 2034 4250 
Q 1625 4250 1398 4047 
Q 1172 3844 1172 3481 
z
" transform="scale(0.015625)"/>
       </defs>
       <use xlink:href="#DejaVuSans-31"/>
       <use xlink:href="#DejaVuSans-38" x="63.623047"/>
       <use xlink:href="#DejaVuSans-30" x="127.246094"/>
       <use xlink:href="#DejaVuSans-b0" x="190.869141"/>
      </g>
     </g>
    </g>
    <g id="xtick_6">
     <g id="line2d_6">
      <path d="M 295.2 145.44 
L 373.604 223.844 
" clip-path="url(#ped933be56f)" style="fill: none; stroke-dasharray: 2.96,1.28; stroke-dashoffset: 0; stroke: #b0b0b0; stroke-width: 0.8"/>
     </g>
     <g id="text_6">
      <!-- 225° -->
      <g transform="translate(369.050995 237.054745) scale(0.12 -0.12)">
       <defs>
        <path id="DejaVuSans-32" d="M 1228 531 
L 3431 531 
L 3431 0 
L 469 0 
L 469 531 
Q 828 903 1448 1529 
Q 2069 2156 2228 2338 
Q 2531 2678 2651 2914 
Q 2772 3150 2772 3378 
Q 2772 3750 2511 3984 
Q 2250 4219 1831 4219 
Q 1534 4219 1204 4116 
Q 875 4013 500 3803 
L 500 4441 
Q 881 4594 1212 4672 
Q 1544 4750 1819 4750 
Q 2544 4750 2975 4387 
Q 3406 4025 3406 3419 
Q 3406 3131 3298 2873 
Q 3191 2616 2906 2266 
Q 2828 2175 2409 1742 
Q 1991 1309 1228 531 
z
" transform="scale(0.015625)"/>
       </defs>
       <use xlink:href="#DejaVuSans-32"/>
       <use xlink:href="#DejaVuSans-32" x="63.623047"/>
       <use xlink:href="#DejaVuSans-35" x="127.246094"/>
       <use xlink:href="#DejaVuSans-b0" x="190.869141"/>
      </g>
     </g>
    </g>
    <g id="xtick_7">
     <g id="line2d_7">
      <path d="M 295.2 145.44 
L 406.08 145.44 
" clip-path="url(#ped933be56f)" style="fill: none; stroke-dasharray: 2.96,1.28; stroke-dashoffset: 0; stroke: #b0b0b0; stroke-width: 0.8"/>
     </g>
     <g id="text_7">
      <!-- 270° -->
      <g transform="translate(405.6275 148.75125) scale(0.12 -0.12)">
       <defs>
        <path id="DejaVuSans-37" d="M 525 4666 
L 3525 4666 
L 3525 4397 
L 1831 0 
L 1172 0 
L 2766 4134 
L 525 4134 
L 525 4666 
z
" transform="scale(0.015625)"/>
       </defs>
       <use xlink:href="#DejaVuSans-32"/>
       <use xlink:href="#DejaVuSans-37" x="63.623047"/>
       <use xlink:href="#DejaVuSans-30" x="127.246094"/>
       <use xlink:href="#DejaVuSans-b0" x="190.869141"/>
      </g>
     </g>
    </g>
    <g id="xtick_8">
     <g id="line2d_8">
      <path d="M 295.2 145.44 
L 373.604 67.036 
" clip-path="url(#ped933be56f)" style="fill: none; stroke-dasharray: 2.96,1.28; stroke-dashoffset: 0; stroke: #b0b0b0; stroke-width: 0.8"/>
     </g>
     <g id="text_8">
      <!-- 315° -->
      <g transform="translate(369.050995 60.447755) scale(0.12 -0.12)">
       <use xlink:href="#DejaVuSans-33"/>
       <use xlink:href="#DejaVuSans-31" x="63.623047"/>
       <use xlink:href="#DejaVuSans-35" x="127.246094"/>
       <use xlink:href="#DejaVuSans-b0" x="190.869141"/>
      </g>
     </g>
    </g>
   </g>
   <g id="matplotlib.axis_2">
    <g id="ytick_1">
     <g id="line2d_9">
      <path d="M 295.2 123.264 
C 292.287874 123.264 289.404065 123.837625 286.713612 124.952047 
C 284.023159 126.06647 281.578384 127.700016 279.5192 129.7592 
C 277.460016 131.818384 275.82647 134.263159 274.712047 136.953612 
C 273.597625 139.644065 273.024 142.527874 273.024 145.44 
C 273.024 148.352126 273.597625 151.235935 274.712047 153.926388 
C 275.82647 156.616841 277.460016 159.061616 279.5192 161.1208 
C 281.578384 163.179984 284.023159 164.81353 286.713612 165.927953 
C 289.404065 167.042375 292.287874 167.616 295.2 167.616 
C 298.112126 167.616 300.995935 167.042375 303.686388 165.927953 
C 306.376841 164.81353 308.821616 163.179984 310.8808 161.1208 
C 312.939984 159.061616 314.57353 156.616841 315.687953 153.926388 
C 316.802375 151.235935 317.376 148.352126 317.376 145.44 
C 317.376 142.527874 316.802375 139.644065 315.687953 136.953612 
C 314.57353 134.263159 312.939984 131.818384 310.8808 129.7592 
C 308.821616 127.700016 306.376841 126.06647 303.686388 124.952047 
C 300.995935 123.837625 298.112126 123.264 295.2 123.264 
" clip-path="url(#ped933be56f)" style="fill: none; stroke-dasharray: 2.96,1.28; stroke-dashoffset: 0; stroke: #b0b0b0; stroke-width: 0.8"/>
     </g>
     <g id="text_9">
      <!-- −20 -->
      <g transform="translate(286.713612 122.456422) scale(0.12 -0.12)">
       <defs>
        <path id="DejaVuSans-2212" d="M 678 2272 
L 4684 2272 
L 4684 1741 
L 678 1741 
L 678 2272 
z
" transform="scale(0.015625)"/>
       </defs>
       <use xlink:href="#DejaVuSans-2212"/>
       <use xlink:href="#DejaVuSans-32" x="83.789062"/>
       <use xlink:href="#DejaVuSans-30" x="147.412109"/>
      </g>
     </g>
    </g>
    <g id="ytick_2">
     <g id="line2d_10">
      <path d="M 295.2 101.088 
C 289.375749 101.088 283.608131 102.235251 278.227224 104.464095 
C 272.846318 106.692939 267.956768 109.960032 263.8384 114.0784 
C 259.720032 118.196768 256.452939 123.086318 254.224095 128.467224 
C 251.995251 133.848131 250.848 139.615749 250.848 145.44 
C 250.848 151.264251 251.995251 157.031869 254.224095 162.412776 
C 256.452939 167.793682 259.720032 172.683232 263.8384 176.8016 
C 267.956768 180.919968 272.846318 184.187061 278.227224 186.415905 
C 283.608131 188.644749 289.375749 189.792 295.2 189.792 
C 301.024251 189.792 306.791869 188.644749 312.172776 186.415905 
C 317.553682 184.187061 322.443232 180.919968 326.5616 176.8016 
C 330.679968 172.683232 333.947061 167.793682 336.175905 162.412776 
C 338.404749 157.031869 339.552 151.264251 339.552 145.44 
C 339.552 139.615749 338.404749 133.848131 336.175905 128.467224 
C 333.947061 123.086318 330.679968 118.196768 326.5616 114.0784 
C 322.443232 109.960032 317.553682 106.692939 312.172776 104.464095 
C 306.791869 102.235251 301.024251 101.088 295.2 101.088 
" clip-path="url(#ped933be56f)" style="fill: none; stroke-dasharray: 2.96,1.28; stroke-dashoffset: 0; stroke: #b0b0b0; stroke-width: 0.8"/>
     </g>
     <g id="text_10">
      <!-- −15 -->
      <g transform="translate(278.227224 101.96847) scale(0.12 -0.12)">
       <use xlink:href="#DejaVuSans-2212"/>
       <use xlink:href="#DejaVuSans-31" x="83.789062"/>
       <use xlink:href="#DejaVuSans-35" x="147.412109"/>
      </g>
     </g>
    </g>
    <g id="ytick_3">
     <g id="line2d_11">
      <path d="M 295.2 78.912 
C 286.463623 78.912 277.812196 80.632876 269.740837 83.976142 
C 261.669477 87.319409 254.335151 92.220049 248.1576 98.3976 
C 241.980049 104.575151 237.079409 111.909477 233.736142 119.980837 
C 230.392876 128.052196 228.672 136.703623 228.672 145.44 
C 228.672 154.176377 230.392876 162.827804 233.736142 170.899163 
C 237.079409 178.970523 241.980049 186.304849 248.1576 192.4824 
C 254.335151 198.659951 261.669477 203.560591 269.740837 206.903858 
C 277.812196 210.247124 286.463623 211.968 295.2 211.968 
C 303.936377 211.968 312.587804 210.247124 320.659163 206.903858 
C 328.730523 203.560591 336.064849 198.659951 342.2424 192.4824 
C 348.419951 186.304849 353.320591 178.970523 356.663858 170.899163 
C 360.007124 162.827804 361.728 154.176377 361.728 145.44 
C 361.728 136.703623 360.007124 128.052196 356.663858 119.980837 
C 353.320591 111.909477 348.419951 104.575151 342.2424 98.3976 
C 336.064849 92.220049 328.730523 87.319409 320.659163 83.976142 
C 312.587804 80.632876 303.936377 78.912 295.2 78.912 
" clip-path="url(#ped933be56f)" style="fill: none; stroke-dasharray: 2.96,1.28; stroke-dashoffset: 0; stroke: #b0b0b0; stroke-width: 0.8"/>
     </g>
     <g id="text_11">
      <!-- −10 -->
      <g transform="translate(269.740837 81.480517) scale(0.12 -0.12)">
       <use xlink:href="#DejaVuSans-2212"/>
       <use xlink:href="#DejaVuSans-31" x="83.789062"/>
       <use xlink:href="#DejaVuSans-30" x="147.412109"/>
      </g>
     </g>
    </g>
    <g id="ytick_4">
     <g id="line2d_12">
      <path d="M 295.2 56.736 
C 283.551497 56.736 272.016262 59.030501 261.254449 63.48819 
C 250.492636 67.945879 240.713535 74.480065 232.4768 82.7168 
C 224.240065 90.953535 217.705879 100.732636 213.24819 111.494449 
C 208.790501 122.256262 206.496 133.791497 206.496 145.44 
C 206.496 157.088503 208.790501 168.623738 213.24819 179.385551 
C 217.705879 190.147364 224.240065 199.926465 232.4768 208.1632 
C 240.713535 216.399935 250.492636 222.934121 261.254449 227.39181 
C 272.016262 231.849499 283.551497 234.144 295.2 234.144 
C 306.848503 234.144 318.383738 231.849499 329.145551 227.39181 
C 339.907364 222.934121 349.686465 216.399935 357.9232 208.1632 
C 366.159935 199.926465 372.694121 190.147364 377.15181 179.385551 
C 381.609499 168.623738 383.904 157.088503 383.904 145.44 
C 383.904 133.791497 381.609499 122.256262 377.15181 111.494449 
C 372.694121 100.732636 366.159935 90.953535 357.9232 82.7168 
C 349.686465 74.480065 339.907364 67.945879 329.145551 63.48819 
C 318.383738 59.030501 306.848503 56.736 295.2 56.736 
" clip-path="url(#ped933be56f)" style="fill: none; stroke-dasharray: 2.96,1.28; stroke-dashoffset: 0; stroke: #b0b0b0; stroke-width: 0.8"/>
     </g>
     <g id="text_12">
      <!-- −5 -->
      <g transform="translate(261.254449 60.992565) scale(0.12 -0.12)">
       <use xlink:href="#DejaVuSans-2212"/>
       <use xlink:href="#DejaVuSans-35" x="83.789062"/>
      </g>
     </g>
    </g>
    <g id="ytick_5">
     <g id="line2d_13">
      <path d="M 295.2 34.56 
C 280.639372 34.56 266.220327 37.428126 252.768061 43.000237 
C 239.315795 48.572349 227.091919 56.740081 216.796 67.036 
C 206.500081 77.331919 198.332349 89.555795 192.760237 103.008061 
C 187.188126 116.460327 184.32 130.879372 184.32 145.44 
C 184.32 160.000628 187.188126 174.419673 192.760237 187.871939 
C 198.332349 201.324205 206.500081 213.548081 216.796 223.844 
C 227.091919 234.139919 239.315795 242.307651 252.768061 247.879763 
C 266.220327 253.451874 280.639372 256.32 295.2 256.32 
C 309.760628 256.32 324.179673 253.451874 337.631939 247.879763 
C 351.084205 242.307651 363.308081 234.139919 373.604 223.844 
C 383.899919 213.548081 392.067651 201.324205 397.639763 187.871939 
C 403.211874 174.419673 406.08 160.000628 406.08 145.44 
C 406.08 130.879372 403.211874 116.460327 397.639763 103.008061 
C 392.067651 89.555795 383.899919 77.331919 373.604 67.036 
C 363.308081 56.740081 351.084205 48.572349 337.631939 43.000237 
C 324.179673 37.428126 309.760628 34.56 295.2 34.56 
" clip-path="url(#ped933be56f)" style="fill: none; stroke-dasharray: 2.96,1.28; stroke-dashoffset: 0; stroke: #b0b0b0; stroke-width: 0.8"/>
     </g>
     <g id="text_13">
      <!-- 0 -->
      <g transform="translate(252.768061 40.504612) scale(0.12 -0.12)">
       <use xlink:href="#DejaVuSans-30"/>
      </g>
     </g>
    </g>
   </g>
   <g id="line2d_14">
    <path d="M 295.2 256.32 
L 297.984204 256.196646 
L 300.753301 255.82635 
L 303.492062 255.208401 
L 306.18501 254.341559 
L 308.816283 253.223975 
L 311.369461 251.853069 
L 313.827379 250.225354 
L 316.171876 248.336201 
L 318.383482 246.179508 
L 320.441015 243.747263 
L 322.321031 241.028925 
L 323.99708 238.010577 
L 325.438665 234.673709 
L 326.609745 230.99345 
L 327.466516 226.935916 
L 327.760425 224.751651 
L 327.954017 222.454098 
L 328.037795 220.034247 
L 328.000705 217.481208 
L 327.829727 214.7817 
L 327.509321 211.919352 
L 327.020657 208.873733 
L 326.340535 205.618973 
L 325.439817 202.121755 
L 324.281081 198.33829 
L 322.814992 194.209604 
L 320.974411 189.653844 
L 318.664338 184.553043 
L 315.743501 178.728748 
L 311.987555 171.892954 
L 307.006077 163.536674 
L 300.01907 152.62778 
M 299.318436 150.818904 
L 307.355388 160.908953 
L 313.53776 168.182475 
L 318.634141 173.767011 
L 323.017514 178.218084 
L 326.896492 181.851273 
L 330.399161 184.863475 
L 333.609545 187.38605 
L 336.585573 189.511159 
L 339.36875 191.306067 
L 341.989747 192.82145 
L 344.471811 194.096501 
L 346.832939 195.162213 
L 349.087311 196.043553 
L 351.246278 196.760972 
L 355.313173 197.769308 
L 359.089557 198.294038 
L 362.61453 198.413837 
L 365.916372 198.188769 
L 369.016149 197.666072 
L 371.929963 196.883843 
L 374.670424 195.873465 
L 377.247629 194.661262 
L 379.669838 193.269667 
L 381.943949 191.71805 
L 384.07583 190.023333 
L 386.070565 188.200442 
L 387.932632 186.262654 
L 389.666022 184.221866 
L 391.274343 182.088803 
L 393.459425 178.737214 
L 395.380385 175.228931 
L 397.046007 171.58961 
L 398.464024 167.841946 
L 399.641157 164.006192 
L 400.583118 160.100612 
L 401.294583 156.141868 
L 401.779156 152.145392 
L 402.039328 148.125731 
L 402.076452 144.09688 
L 401.890722 140.072618 
L 401.481171 136.066832 
L 400.845683 132.093846 
L 399.981022 128.168761 
L 398.882864 124.30779 
L 397.545839 120.528619 
L 395.96356 116.850792 
L 394.128636 113.296138 
L 392.032639 109.889259 
L 390.485604 107.71376 
L 388.815178 105.62556 
L 387.017922 103.634863 
L 385.090048 101.752955 
L 383.027334 99.992396 
L 380.825018 98.367248 
L 378.477649 96.893386 
L 375.97888 95.588891 
L 373.321182 94.474576 
L 370.495445 93.574697 
L 367.490416 92.917938 
L 364.291888 92.538791 
L 360.881499 92.479555 
L 357.234926 92.793317 
L 353.319046 93.548541 
L 351.246278 94.119028 
L 349.087311 94.836447 
L 346.832939 95.717787 
L 344.471811 96.783499 
L 341.989747 98.05855 
L 339.36875 99.573933 
L 336.585573 101.368841 
L 333.609545 103.49395 
L 330.399161 106.016525 
L 326.896492 109.028727 
L 323.017514 112.661916 
L 318.634141 117.112989 
L 313.53776 122.697525 
L 307.355388 129.971047 
L 299.318436 140.061096 
M 300.01907 138.25222 
L 307.006077 127.343326 
L 311.987555 118.987046 
L 315.743501 112.151252 
L 318.664338 106.326957 
L 320.974411 101.226156 
L 322.814992 96.670396 
L 324.281081 92.54171 
L 325.439817 88.758245 
L 326.340535 85.261027 
L 327.020657 82.006267 
L 327.509321 78.960648 
L 327.829727 76.0983 
L 328.000705 73.398792 
L 328.037795 70.845753 
L 327.954017 68.425902 
L 327.466516 63.944084 
L 326.609745 59.88655 
L 325.438665 56.206291 
L 323.99708 52.869423 
L 322.321031 49.851075 
L 320.441015 47.132737 
L 318.383482 44.700492 
L 316.171876 42.543799 
L 313.827379 40.654646 
L 311.369461 39.026931 
L 308.816283 37.656025 
L 306.18501 36.538441 
L 303.492062 35.671599 
L 300.753301 35.05365 
L 297.984204 34.683354 
L 295.2 34.56 
L 292.415796 34.683354 
L 289.646699 35.05365 
L 286.907938 35.671599 
L 284.21499 36.538441 
L 281.583717 37.656025 
L 279.030539 39.026931 
L 276.572621 40.654646 
L 274.228124 42.543799 
L 272.016518 44.700492 
L 269.958985 47.132737 
L 268.078969 49.851075 
L 266.40292 52.869423 
L 264.961335 56.206291 
L 263.790255 59.88655 
L 262.933484 63.944084 
L 262.639575 66.128349 
L 262.445983 68.425902 
L 262.362205 70.845753 
L 262.399295 73.398792 
L 262.570273 76.0983 
L 262.890679 78.960648 
L 263.379343 82.006267 
L 264.059465 85.261027 
L 264.960183 88.758245 
L 266.118919 92.54171 
L 267.585008 96.670396 
L 269.425589 101.226156 
L 271.735662 106.326957 
L 274.656499 112.151252 
L 278.412445 118.987046 
L 283.393923 127.343326 
L 290.38093 138.25222 
M 291.081564 140.061096 
L 283.044612 129.971047 
L 276.86224 122.697525 
L 271.765859 117.112989 
L 267.382486 112.661916 
L 263.503508 109.028727 
L 260.000839 106.016525 
L 256.790455 103.49395 
L 253.814427 101.368841 
L 251.03125 99.573933 
L 248.410253 98.05855 
L 245.928189 96.783499 
L 243.567061 95.717787 
L 241.312689 94.836447 
L 239.153722 94.119028 
L 235.086827 93.110692 
L 231.310443 92.585962 
L 227.78547 92.466163 
L 224.483628 92.691231 
L 221.383851 93.213928 
L 218.470037 93.996157 
L 215.729576 95.006535 
L 213.152371 96.218738 
L 210.730162 97.610333 
L 208.456051 99.16195 
L 206.32417 100.856667 
L 204.329435 102.679558 
L 202.467368 104.617346 
L 200.733978 106.658134 
L 199.125657 108.791197 
L 196.940575 112.142786 
L 195.019615 115.651069 
L 193.353993 119.29039 
L 191.935976 123.038054 
L 190.758843 126.873808 
L 189.816882 130.779388 
L 189.105417 134.738132 
L 188.620844 138.734608 
L 188.360672 142.754269 
L 188.323548 146.78312 
L 188.509278 150.807382 
L 188.918829 154.813168 
L 189.554317 158.786154 
L 190.418978 162.711239 
L 191.517136 166.57221 
L 192.854161 170.351381 
L 194.43644 174.029208 
L 196.271364 177.583862 
L 198.367361 180.990741 
L 199.914396 183.16624 
L 201.584822 185.25444 
L 203.382078 187.245137 
L 205.309952 189.127045 
L 207.372666 190.887604 
L 209.574982 192.512752 
L 211.922351 193.986614 
L 214.42112 195.291109 
L 217.078818 196.405424 
L 219.904555 197.305303 
L 222.909584 197.962062 
L 226.108112 198.341209 
L 229.518501 198.400445 
L 233.165074 198.086683 
L 237.080954 197.331459 
L 239.153722 196.760972 
L 241.312689 196.043553 
L 243.567061 195.162213 
L 245.928189 194.096501 
L 248.410253 192.82145 
L 251.03125 191.306067 
L 253.814427 189.511159 
L 256.790455 187.38605 
L 260.000839 184.863475 
L 263.503508 181.851273 
L 267.382486 178.218084 
L 271.765859 173.767011 
L 276.86224 168.182475 
L 283.044612 160.908953 
L 291.081564 150.818904 
M 290.38093 152.62778 
L 283.393923 163.536674 
L 278.412445 171.892954 
L 274.656499 178.728748 
L 271.735662 184.553043 
L 269.425589 189.653844 
L 267.585008 194.209604 
L 266.118919 198.33829 
L 264.960183 202.121755 
L 264.059465 205.618973 
L 263.379343 208.873733 
L 262.890679 211.919352 
L 262.570273 214.7817 
L 262.399295 217.481208 
L 262.362205 220.034247 
L 262.445983 222.454098 
L 262.933484 226.935916 
L 263.790255 230.99345 
L 264.961335 234.673709 
L 266.40292 238.010577 
L 268.078969 241.028925 
L 269.958985 243.747263 
L 272.016518 246.179508 
L 274.228124 248.336201 
L 276.572621 250.225354 
L 279.030539 251.853069 
L 281.583717 253.223975 
L 284.21499 254.341559 
L 286.907938 255.208401 
L 289.646699 255.82635 
L 292.415796 256.196646 
L 295.2 256.32 
L 295.2 256.32 
" clip-path="url(#ped933be56f)" style="fill: none; stroke: #1f77b4; stroke-width: 2; stroke-linecap: square"/>
   </g>
   <g id="line2d_15">
    <path d="M 295.2 256.32 
L 297.983159 256.155054 
L 300.74494 255.660145 
L 303.463858 254.835048 
L 306.118211 253.679337 
L 308.685951 252.192294 
L 311.144534 250.372795 
L 313.470737 248.219121 
L 315.640431 245.728725 
L 317.628275 242.897898 
L 319.407329 239.721321 
L 320.948514 236.191445 
L 322.219885 232.297637 
L 323.185599 228.024953 
L 323.804429 223.352368 
L 323.968887 220.85725 
L 324.027562 218.250111 
L 323.972616 215.525193 
L 323.79521 212.675549 
L 323.485274 209.692753 
L 323.031195 206.566519 
L 322.419405 203.28418 
L 321.63383 199.829998 
L 320.65512 196.184185 
L 319.459569 192.321531 
L 318.017545 188.20939 
L 316.291151 183.804662 
L 314.230586 179.049069 
L 311.768265 173.86147 
L 308.808752 168.124624 
L 305.210357 161.660812 
L 300.748335 154.182776 
M 298.688314 149.656648 
L 302.029879 153.48782 
L 304.834954 156.508131 
L 309.303167 160.841696 
L 312.687076 163.599069 
L 315.283327 165.272525 
L 317.2597 166.155437 
L 318.719443 166.439282 
L 319.730159 166.257813 
L 320.082234 166.024374 
L 320.338314 165.709579 
L 320.577156 164.870388 
L 320.471308 163.80068 
L 320.039572 162.550091 
L 319.296678 161.160415 
L 318.254418 159.667584 
L 316.922359 158.103025 
L 315.308281 156.494621 
L 313.418404 154.867393 
L 311.257444 153.244004 
L 308.828508 151.645125 
L 306.132826 150.08972 
L 303.169285 148.595263 
L 299.933719 147.177918 
L 296.417873 145.852701 
M 296.417873 145.027299 
L 299.933719 143.702082 
L 303.169285 142.284737 
L 306.132826 140.79028 
L 308.828508 139.234875 
L 311.257444 137.635996 
L 313.418404 136.012607 
L 315.308281 134.385379 
L 316.922359 132.776975 
L 318.254418 131.212416 
L 319.296678 129.719585 
L 320.039572 128.329909 
L 320.471308 127.07932 
L 320.577156 126.009612 
L 320.338314 125.170421 
L 320.082234 124.855626 
L 319.730159 124.622187 
L 319.277644 124.480094 
L 318.719443 124.440718 
L 318.049304 124.517139 
L 317.2597 124.724563 
L 315.283327 125.607475 
L 312.687076 127.280931 
L 311.107926 128.499779 
L 309.303167 130.038304 
L 307.231433 131.964654 
L 304.834954 134.371869 
L 302.029879 137.39218 
L 298.688314 141.223352 
M 300.748335 136.697224 
L 305.210357 129.219188 
L 308.808752 122.755376 
L 311.768265 117.01853 
L 314.230586 111.830931 
L 316.291151 107.075338 
L 318.017545 102.67061 
L 319.459569 98.558469 
L 320.65512 94.695815 
L 321.63383 91.050002 
L 322.419405 87.59582 
L 323.031195 84.313481 
L 323.485274 81.187247 
L 323.79521 78.204451 
L 323.972616 75.354807 
L 324.027562 72.629889 
L 323.804429 67.527632 
L 323.185599 62.855047 
L 322.219885 58.582363 
L 320.948514 54.688555 
L 319.407329 51.158679 
L 317.628275 47.982102 
L 315.640431 45.151275 
L 313.470737 42.660879 
L 311.144534 40.507205 
L 308.685951 38.687706 
L 306.118211 37.200663 
L 303.463858 36.044952 
L 300.74494 35.219855 
L 297.983159 34.724946 
L 296.592914 34.601236 
M 293.807086 34.601236 
L 291.03194 34.931145 
L 288.288894 35.591109 
L 285.599526 36.581444 
L 282.985697 37.902709 
L 280.46968 39.555807 
L 278.074334 41.542134 
L 275.823301 43.863787 
L 273.741275 46.523846 
L 271.854339 49.526761 
L 270.190426 52.878875 
L 268.77994 56.589152 
L 267.656622 60.6702 
L 266.858785 65.139735 
L 266.431113 70.02275 
L 266.372438 72.629889 
L 266.427384 75.354807 
L 266.60479 78.204451 
L 266.914726 81.187247 
L 267.368805 84.313481 
L 267.980595 87.59582 
L 268.76617 91.050002 
L 269.74488 94.695815 
L 270.940431 98.558469 
L 272.382455 102.67061 
L 274.108849 107.075338 
L 276.169414 111.830931 
L 278.631735 117.01853 
L 281.591248 122.755376 
L 285.189643 129.219188 
L 289.651665 136.697224 
M 291.711686 141.223352 
L 288.370121 137.39218 
L 285.565046 134.371869 
L 281.096833 130.038304 
L 277.712924 127.280931 
L 275.116673 125.607475 
L 273.1403 124.724563 
L 271.680557 124.440718 
L 270.669841 124.622187 
L 270.317766 124.855626 
L 270.061686 125.170421 
L 269.822844 126.009612 
L 269.928692 127.07932 
L 270.360428 128.329909 
L 271.103322 129.719585 
L 272.145582 131.212416 
L 273.477641 132.776975 
L 275.091719 134.385379 
L 276.981596 136.012607 
L 279.142556 137.635996 
L 281.571492 139.234875 
L 284.267174 140.79028 
L 287.230715 142.284737 
L 290.466281 143.702082 
L 293.982127 145.027299 
M 293.982127 145.852701 
L 290.466281 147.177918 
L 287.230715 148.595263 
L 284.267174 150.08972 
L 281.571492 151.645125 
L 279.142556 153.244004 
L 276.981596 154.867393 
L 275.091719 156.494621 
L 273.477641 158.103025 
L 272.145582 159.667584 
L 271.103322 161.160415 
L 270.360428 162.550091 
L 269.928692 163.80068 
L 269.822844 164.870388 
L 270.061686 165.709579 
L 270.317766 166.024374 
L 270.669841 166.257813 
L 271.122356 166.399906 
L 271.680557 166.439282 
L 272.350696 166.362861 
L 273.1403 166.155437 
L 275.116673 165.272525 
L 277.712924 163.599069 
L 279.292074 162.380221 
L 281.096833 160.841696 
L 283.168567 158.915346 
L 285.565046 156.508131 
L 288.370121 153.48782 
L 291.711686 149.656648 
M 289.651665 154.182776 
L 285.189643 161.660812 
L 281.591248 168.124624 
L 278.631735 173.86147 
L 276.169414 179.049069 
L 274.108849 183.804662 
L 272.382455 188.20939 
L 270.940431 192.321531 
L 269.74488 196.184185 
L 268.76617 199.829998 
L 267.980595 203.28418 
L 267.368805 206.566519 
L 266.914726 209.692753 
L 266.60479 212.675549 
L 266.427384 215.525193 
L 266.372438 218.250111 
L 266.595571 223.352368 
L 267.214401 228.024953 
L 268.180115 232.297637 
L 269.451486 236.191445 
L 270.992671 239.721321 
L 272.771725 242.897898 
L 274.759569 245.728725 
L 276.929263 248.219121 
L 279.255466 250.372795 
L 281.714049 252.192294 
L 284.281789 253.679337 
L 286.936142 254.835048 
L 289.65506 255.660145 
L 292.416841 256.155054 
L 295.2 256.32 
L 295.2 256.32 
" clip-path="url(#ped933be56f)" style="fill: none; stroke: #ff7f0e; stroke-width: 2; stroke-linecap: square"/>
   </g>
   <g id="patch_3">
    <path d="M 295.2 34.56 
C 280.639372 34.56 266.220327 37.428126 252.768061 43.000237 
C 239.315795 48.572349 227.091919 56.740081 216.796 67.036 
C 206.500081 77.331919 198.332349 89.555795 192.760237 103.008061 
C 187.188126 116.460327 184.32 130.879372 184.32 145.44 
C 184.32 160.000628 187.188126 174.419673 192.760237 187.871939 
C 198.332349 201.324205 206.500081 213.548081 216.796 223.844 
C 227.091919 234.139919 239.315795 242.307651 252.768061 247.879763 
C 266.220327 253.451874 280.639372 256.32 295.2 256.32 
C 309.760628 256.32 324.179673 253.451874 337.631939 247.879763 
C 351.084205 242.307651 363.308081 234.139919 373.604 223.844 
C 383.899919 213.548081 392.067651 201.324205 397.639763 187.871939 
C 403.211874 174.419673 406.08 160.000628 406.08 145.44 
C 406.08 130.879372 403.211874 116.460327 397.639763 103.008061 
C 392.067651 89.555795 383.899919 77.331919 373.604 67.036 
C 363.308081 56.740081 351.084205 48.572349 337.631939 43.000237 
C 324.179673 37.428126 309.760628 34.56 295.2 34.56 
" style="fill: none; stroke: #000000; stroke-width: 0.8; stroke-linejoin: miter; stroke-linecap: square"/>
   </g>
   <g id="legend_1">
    <g id="patch_4">
     <path d="M 285.96 80.64 
L 397.68 80.64 
Q 400.08 80.64 400.08 78.24 
L 400.08 42.96 
Q 400.08 40.56 397.68 40.56 
L 285.96 40.56 
Q 283.56 40.56 283.56 42.96 
L 283.56 78.24 
Q 283.56 80.64 285.96 80.64 
z
" style="fill: #ffffff; opacity: 0.8; stroke: #cccccc; stroke-linejoin: miter"/>
    </g>
    <g id="line2d_16">
     <path d="M 288.36 50.28 
L 300.36 50.28 
L 312.36 50.28 
" style="fill: none; stroke: #1f77b4; stroke-width: 2; stroke-linecap: square"/>
    </g>
    <g id="text_14">
     <!-- $E_\theta$ ($E$-plane) -->
     <g transform="translate(321.96 54.48) scale(0.12 -0.12)">
      <defs>
       <path id="DejaVuSans-Oblique-45" d="M 1081 4666 
L 4031 4666 
L 3928 4134 
L 1606 4134 
L 1338 2753 
L 3566 2753 
L 3463 2222 
L 1234 2222 
L 909 531 
L 3284 531 
L 3181 0 
L 172 0 
L 1081 4666 
z
" transform="scale(0.015625)"/>
       <path id="DejaVuSans-Oblique-3b8" d="M 2913 2219 
L 925 2219 
Q 791 1284 928 888 
Q 1100 400 1566 400 
Q 2034 400 2391 891 
Q 2703 1322 2913 2219 
z
M 3009 2750 
Q 3094 3638 2984 3950 
Q 2813 4444 2353 4444 
Q 1875 4444 1525 3956 
Q 1250 3563 1034 2750 
L 3009 2750 
z
M 2444 4913 
Q 3194 4913 3494 4250 
Q 3794 3591 3566 2422 
Q 3341 1256 2781 594 
Q 2225 -72 1475 -72 
Q 722 -72 425 594 
Q 128 1256 353 2422 
Q 581 3591 1134 4250 
Q 1691 4913 2444 4913 
z
" transform="scale(0.015625)"/>
       <path id="DejaVuSans-20" transform="scale(0.015625)"/>
       <path id="DejaVuSans-28" d="M 1984 4856 
Q 1566 4138 1362 3434 
Q 1159 2731 1159 2009 
Q 1159 1288 1364 580 
Q 1569 -128 1984 -844 
L 1484 -844 
Q 1016 -109 783 600 
Q 550 1309 550 2009 
Q 550 2706 781 3412 
Q 1013 4119 1484 4856 
L 1984 4856 
z
" transform="scale(0.015625)"/>
       <path id="DejaVuSans-2d" d="M 313 2009 
L 1997 2009 
L 1997 1497 
L 313 1497 
L 313 2009 
z
" transform="scale(0.015625)"/>
       <path id="DejaVuSans-70" d="M 1159 525 
L 1159 -1331 
L 581 -1331 
L 581 3500 
L 1159 3500 
L 1159 2969 
Q 1341 3281 1617 3432 
Q 1894 3584 2278 3584 
Q 2916 3584 3314 3078 
Q 3713 2572 3713 1747 
Q 3713 922 3314 415 
Q 2916 -91 2278 -91 
Q 1894 -91 1617 61 
Q 1341 213 1159 525 
z
M 3116 1747 
Q 3116 2381 2855 2742 
Q 2594 3103 2138 3103 
Q 1681 3103 1420 2742 
Q 1159 2381 1159 1747 
Q 1159 1113 1420 752 
Q 1681 391 2138 391 
Q 2594 391 2855 752 
Q 3116 1113 3116 1747 
z
" transform="scale(0.015625)"/>
       <path id="DejaVuSans-6c" d="M 603 4863 
L 1178 4863 
L 1178 0 
L 603 0 
L 603 4863 
z
" transform="scale(0.015625)"/>
       <path id="DejaVuSans-61" d="M 2194 1759 
Q 1497 1759 1228 1600 
Q 959 1441 959 1056 
Q 959 750 1161 570 
Q 1363 391 1709 391 
Q 2188 391 2477 730 
Q 2766 1069 2766 1631 
L 2766 1759 
L 2194 1759 
z
M 3341 1997 
L 3341 0 
L 2766 0 
L 2766 531 
Q 2569 213 2275 61 
Q 1981 -91 1556 -91 
Q 1019 -91 701 211 
Q 384 513 384 1019 
Q 384 1609 779 1909 
Q 1175 2209 1959 2209 
L 2766 2209 
L 2766 2266 
Q 2766 2663 2505 2880 
Q 2244 3097 1772 3097 
Q 1472 3097 1187 3025 
Q 903 2953 641 2809 
L 641 3341 
Q 956 3463 1253 3523 
Q 1550 3584 1831 3584 
Q 2591 3584 2966 3190 
Q 3341 2797 3341 1997 
z
" transform="scale(0.015625)"/>
       <path id="DejaVuSans-6e" d="M 3513 2113 
L 3513 0 
L 2938 0 
L 2938 2094 
Q 2938 2591 2744 2837 
Q 2550 3084 2163 3084 
Q 1697 3084 1428 2787 
Q 1159 2491 1159 1978 
L 1159 0 
L 581 0 
L 581 3500 
L 1159 3500 
L 1159 2956 
Q 1366 3272 1645 3428 
Q 1925 3584 2291 3584 
Q 2894 3584 3203 3211 
Q 3513 2838 3513 2113 
z
" transform="scale(0.015625)"/>
       <path id="DejaVuSans-65" d="M 3597 1894 
L 3597 1613 
L 953 1613 
Q 991 1019 1311 708 
Q 1631 397 2203 397 
Q 2534 397 2845 478 
Q 3156 559 3463 722 
L 3463 178 
Q 3153 47 2828 -22 
Q 2503 -91 2169 -91 
Q 1331 -91 842 396 
Q 353 884 353 1716 
Q 353 2575 817 3079 
Q 1281 3584 2069 3584 
Q 2775 3584 3186 3129 
Q 3597 2675 3597 1894 
z
M 3022 2063 
Q 3016 2534 2758 2815 
Q 2500 3097 2075 3097 
Q 1594 3097 1305 2825 
Q 1016 2553 972 2059 
L 3022 2063 
z
" transform="scale(0.015625)"/>
       <path id="DejaVuSans-29" d="M 513 4856 
L 1013 4856 
Q 1481 4119 1714 3412 
Q 1947 2706 1947 2009 
Q 1947 1309 1714 600 
Q 1481 -109 1013 -844 
L 513 -844 
Q 928 -128 1133 580 
Q 1338 1288 1338 2009 
Q 1338 2731 1133 3434 
Q 928 4138 513 4856 
z
" transform="scale(0.015625)"/>
      </defs>
      <use xlink:href="#DejaVuSans-Oblique-45" transform="translate(0 0.015625)"/>
      <use xlink:href="#DejaVuSans-Oblique-3b8" transform="translate(63.183594 -16.390625) scale(0.7)"/>
      <use xlink:href="#DejaVuSans-20" transform="translate(108.745117 0.015625)"/>
      <use xlink:href="#DejaVuSans-28" transform="translate(140.532227 0.015625)"/>
      <use xlink:href="#DejaVuSans-Oblique-45" transform="translate(179.545898 0.015625)"/>
      <use xlink:href="#DejaVuSans-2d" transform="translate(242.729492 0.015625)"/>
      <use xlink:href="#DejaVuSans-70" transform="translate(278.813477 0.015625)"/>
      <use xlink:href="#DejaVuSans-6c" transform="translate(342.290039 0.015625)"/>
      <use xlink:href="#DejaVuSans-61" transform="translate(370.073242 0.015625)"/>
      <use xlink:href="#DejaVuSans-6e" transform="translate(431.352539 0.015625)"/>
      <use xlink:href="#DejaVuSans-65" transform="translate(494.731445 0.015625)"/>
      <use xlink:href="#DejaVuSans-29" transform="translate(556.254883 0.015625)"/>
     </g>
    </g>
    <g id="line2d_17">
     <path d="M 288.36 67.92 
L 300.36 67.92 
L 312.36 67.92 
" style="fill: none; stroke: #ff7f0e; stroke-width: 2; stroke-linecap: square"/>
    </g>
    <g id="text_15">
     <!-- $E_\phi$ ($H$-plane) -->
     <g transform="translate(321.96 72.12) scale(0.12 -0.12)">
      <defs>
       <path id="DejaVuSans-Oblique-3d5" d="M 2991 4863 
L 2738 3572 
Q 3363 3572 3684 3094 
Q 4016 2606 3850 1747 
Q 3681 888 3159 400 
Q 2653 -78 2028 -78 
L 1784 -1331 
L 1213 -1331 
L 1456 -78 
Q 834 -78 509 400 
Q 178 888 347 1747 
Q 513 2606 1034 3094 
Q 1544 3572 2166 3572 
L 2419 4863 
L 2991 4863 
z
M 2128 434 
Q 2481 434 2784 756 
Q 3116 1116 3244 1747 
Q 3369 2372 3169 2738 
Q 2991 3059 2638 3059 
L 2128 434 
z
M 1556 434 
L 2066 3059 
Q 1716 3059 1413 2738 
Q 1072 2372 953 1747 
Q 834 1116 1028 756 
Q 1203 434 1556 434 
z
" transform="scale(0.015625)"/>
       <path id="DejaVuSans-Oblique-48" d="M 1081 4666 
L 1716 4666 
L 1344 2753 
L 3634 2753 
L 4006 4666 
L 4641 4666 
L 3731 0 
L 3097 0 
L 3531 2222 
L 1241 2222 
L 806 0 
L 172 0 
L 1081 4666 
z
" transform="scale(0.015625)"/>
      </defs>
      <use xlink:href="#DejaVuSans-Oblique-45" transform="translate(0 0.015625)"/>
      <use xlink:href="#DejaVuSans-Oblique-3d5" transform="translate(63.183594 -16.390625) scale(0.7)"/>
      <use xlink:href="#DejaVuSans-20" transform="translate(112.094727 0.015625)"/>
      <use xlink:href="#DejaVuSans-28" transform="translate(143.881836 0.015625)"/>
      <use xlink:href="#DejaVuSans-Oblique-48" transform="translate(182.895508 0.015625)"/>
      <use xlink:href="#DejaVuSans-2d" transform="translate(258.09082 0.015625)"/>
      <use xlink:href="#DejaVuSans-70" transform="translate(294.174805 0.015625)"/>
      <use xlink:href="#DejaVuSans-6c" transform="translate(357.651367 0.015625)"/>
      <use xlink:href="#DejaVuSans-61" transform="translate(385.43457 0.015625)"/>
      <use xlink:href="#DejaVuSans-6e" transform="translate(446.713867 0.015625)"/>
      <use xlink:href="#DejaVuSans-65" transform="translate(510.092773 0.015625)"/>
      <use xlink:href="#DejaVuSans-29" transform="translate(571.616211 0.015625)"/>
     </g>
    </g>
   </g>
  </g>
 </g>
 <defs>
  <clipPath id="ped933be56f">
   <path d="M 406.08 145.44 
C 406.08 130.879372 403.211874 116.460327 397.639763 103.008061 
C 392.067651 89.555795 383.899919 77.331919 373.604 67.036 
C 363.308081 56.740081 351.084205 48.572349 337.631939 43.000237 
C 324.179673 37.428126 309.760628 34.56 295.2 34.56 
C 280.639372 34.56 266.220327 37.428126 252.768061 43.000237 
C 239.315795 48.572349 227.091919 56.740081 216.796 67.036 
C 206.500081 77.331919 198.332349 89.555795 192.760237 103.008061 
C 187.188126 116.460327 184.32 130.879372 184.32 145.44 
C 184.32 160.000628 187.188126 174.419673 192.760237 187.871939 
C 198.332349 201.324205 206.500081 213.548081 216.796 223.844 
C 227.091919 234.139919 239.315795 242.307651 252.768061 247.879763 
C 266.220327 253.451874 280.639372 256.32 295.2 256.32 
C 309.760628 256.32 324.179673 253.451874 337.631939 247.879763 
C 351.084205 242.307651 363.308081 234.139919 373.604 223.844 
C 383.899919 213.548081 392.067651 201.324205 397.639763 187.871939 
C 403.211874 174.419673 406.08 160.000628 406.08 145.44 
M 295.2 145.44 
C 295.2 145.44 295.2 145.44 295.2 145.44 
C 295.2 145.44 295.2 145.44 295.2 145.44 
C 295.2 145.44 295.2 145.44 295.2 145.44 
C 295.2 145.44 295.2 145.44 295.2 145.44 
C 295.2 145.44 295.2 145.44 295.2 145.44 
C 295.2 145.44 295.2 145.44 295.2 145.44 
C 295.2 145.44 295.2 145.44 295.2 145.44 
C 295.2 145.44 295.2 145.44 295.2 145.44 
C 295.2 145.44 295.2 145.44 295.2 145.44 
C 295.2 145.44 295.2 145.44 295.2 145.44 
C 295.2 145.44 295.2 145.44 295.2 145.44 
C 295.2 145.44 295.2 145.44 295.2 145.44 
C 295.2 145.44 295.2 145.44 295.2 145.44 
C 295.2 145.44 295.2 145.44 295.2 145.44 
C 295.2 145.44 295.2 145.44 295.2 145.44 
C 295.2 145.44 295.2 145.44 295.2 145.44 
z
"/>
  </clipPath>
 </defs>
</svg>
