<?xml version="1.0" encoding="utf-8" standalone="no"?>
<!DOCTYPE svg PUBLIC "-//W3C//DTD SVG 1.1//EN"
  "http://www.w3.org/Graphics/SVG/1.1/DTD/svg11.dtd">
<svg xmlns:xlink="http://www.w3.org/1999/xlink" width="327.160625pt" height="214.108813pt" viewBox="0 0 327.160625 214.108813" xmlns="http://www.w3.org/2000/svg" version="1.1">
 <metadata>
  <rdf:RDF xmlns:dc="http://purl.org/dc/elements/1.1/" xmlns:cc="http://creativecommons.org/ns#" xmlns:rdf="http://www.w3.org/1999/02/22-rdf-syntax-ns#">
   <cc:Work>
    <dc:type rdf:resource="http://purl.org/dc/dcmitype/StillImage"/>
    <dc:date>2024-03-03T16:53:36.379557</dc:date>
    <dc:format>image/svg+xml</dc:format>
    <dc:creator>
     <cc:Agent>
      <dc:title>Matplotlib v3.7.2, https://matplotlib.org/</dc:title>
     </cc:Agent>
    </dc:creator>
   </cc:Work>
  </rdf:RDF>
 </metadata>
 <defs>
  <style type="text/css">*{stroke-linejoin: round; stroke-linecap: butt}</style>
 </defs>
 <g id="figure_1">
  <g id="patch_1">
   <path d="M 0 214.108813 
L 327.160625 214.108813 
L 327.160625 0 
L 0 0 
z
" style="fill: #ffffff"/>
  </g>
  <g id="axes_1">
   <g id="patch_2">
    <path d="M 55.645625 172.535063 
L 312.325625 172.535063 
L 312.325625 11.759063 
L 55.645625 11.759063 
z
" style="fill: #ffffff"/>
   </g>
   <g id="matplotlib.axis_1">
    <g id="xtick_1">
     <g id="line2d_1">
      <defs>
       <path id="mcd24e9af40" d="M 0 0 
L 0 3.5 
" style="stroke: #000000; stroke-width: 0.8"/>
      </defs>
      <g>
       <use xlink:href="#mcd24e9af40" x="55.645625" y="172.535063" style="stroke: #000000; stroke-width: 0.8"/>
      </g>
     </g>
     <g id="text_1">
      <!-- −90 -->
      <g transform="translate(42.982812 188.653188) scale(0.12 -0.12)">
       <defs>
        <path id="DejaVuSans-2212" d="M 678 2272 
L 4684 2272 
L 4684 1741 
L 678 1741 
L 678 2272 
z
" transform="scale(0.015625)"/>
        <path id="DejaVuSans-39" d="M 703 97 
L 703 672 
Q 941 559 1184 500 
Q 1428 441 1663 441 
Q 2288 441 2617 861 
Q 2947 1281 2994 2138 
Q 2813 1869 2534 1725 
Q 2256 1581 1919 1581 
Q 1219 1581 811 2004 
Q 403 2428 403 3163 
Q 403 3881 828 4315 
Q 1253 4750 1959 4750 
Q 2769 4750 3195 4129 
Q 3622 3509 3622 2328 
Q 3622 1225 3098 567 
Q 2575 -91 1691 -91 
Q 1453 -91 1209 -44 
Q 966 3 703 97 
z
M 1959 2075 
Q 2384 2075 2632 2365 
Q 2881 2656 2881 3163 
Q 2881 3666 2632 3958 
Q 2384 4250 1959 4250 
Q 1534 4250 1286 3958 
Q 1038 3666 1038 3163 
Q 1038 2656 1286 2365 
Q 1534 2075 1959 2075 
z
" transform="scale(0.015625)"/>
        <path id="DejaVuSans-30" d="M 2034 4250 
Q 1547 4250 1301 3770 
Q 1056 3291 1056 2328 
Q 1056 1369 1301 889 
Q 1547 409 2034 409 
Q 2525 409 2770 889 
Q 3016 1369 3016 2328 
Q 3016 3291 2770 3770 
Q 2525 4250 2034 4250 
z
M 2034 4750 
Q 2819 4750 3233 4129 
Q 3647 3509 3647 2328 
Q 3647 1150 3233 529 
Q 2819 -91 2034 -91 
Q 1250 -91 836 529 
Q 422 1150 422 2328 
Q 422 3509 836 4129 
Q 1250 4750 2034 4750 
z
" transform="scale(0.015625)"/>
       </defs>
       <use xlink:href="#DejaVuSans-2212"/>
       <use xlink:href="#DejaVuSans-39" x="83.789062"/>
       <use xlink:href="#DejaVuSans-30" x="147.412109"/>
      </g>
     </g>
    </g>
    <g id="xtick_2">
     <g id="line2d_2">
      <g>
       <use xlink:href="#mcd24e9af40" x="98.425625" y="172.535063" style="stroke: #000000; stroke-width: 0.8"/>
      </g>
     </g>
     <g id="text_2">
      <!-- −60 -->
      <g transform="translate(85.762812 188.653188) scale(0.12 -0.12)">
       <defs>
        <path id="DejaVuSans-36" d="M 2113 2584 
Q 1688 2584 1439 2293 
Q 1191 2003 1191 1497 
Q 1191 994 1439 701 
Q 1688 409 2113 409 
Q 2538 409 2786 701 
Q 3034 994 3034 1497 
Q 3034 2003 2786 2293 
Q 2538 2584 2113 2584 
z
M 3366 4563 
L 3366 3988 
Q 3128 4100 2886 4159 
Q 2644 4219 2406 4219 
Q 1781 4219 1451 3797 
Q 1122 3375 1075 2522 
Q 1259 2794 1537 2939 
Q 1816 3084 2150 3084 
Q 2853 3084 3261 2657 
Q 3669 2231 3669 1497 
Q 3669 778 3244 343 
Q 2819 -91 2113 -91 
Q 1303 -91 875 529 
Q 447 1150 447 2328 
Q 447 3434 972 4092 
Q 1497 4750 2381 4750 
Q 2619 4750 2861 4703 
Q 3103 4656 3366 4563 
z
" transform="scale(0.015625)"/>
       </defs>
       <use xlink:href="#DejaVuSans-2212"/>
       <use xlink:href="#DejaVuSans-36" x="83.789062"/>
       <use xlink:href="#DejaVuSans-30" x="147.412109"/>
      </g>
     </g>
    </g>
    <g id="xtick_3">
     <g id="line2d_3">
      <g>
       <use xlink:href="#mcd24e9af40" x="141.205625" y="172.535063" style="stroke: #000000; stroke-width: 0.8"/>
      </g>
     </g>
     <g id="text_3">
      <!-- −30 -->
      <g transform="translate(128.542812 188.653188) scale(0.12 -0.12)">
       <defs>
        <path id="DejaVuSans-33" d="M 2597 2516 
Q 3050 2419 3304 2112 
Q 3559 1806 3559 1356 
Q 3559 666 3084 287 
Q 2609 -91 1734 -91 
Q 1441 -91 1130 -33 
Q 819 25 488 141 
L 488 750 
Q 750 597 1062 519 
Q 1375 441 1716 441 
Q 2309 441 2620 675 
Q 2931 909 2931 1356 
Q 2931 1769 2642 2001 
Q 2353 2234 1838 2234 
L 1294 2234 
L 1294 2753 
L 1863 2753 
Q 2328 2753 2575 2939 
Q 2822 3125 2822 3475 
Q 2822 3834 2567 4026 
Q 2313 4219 1838 4219 
Q 1578 4219 1281 4162 
Q 984 4106 628 3988 
L 628 4550 
Q 988 4650 1302 4700 
Q 1616 4750 1894 4750 
Q 2613 4750 3031 4423 
Q 3450 4097 3450 3541 
Q 3450 3153 3228 2886 
Q 3006 2619 2597 2516 
z
" transform="scale(0.015625)"/>
       </defs>
       <use xlink:href="#DejaVuSans-2212"/>
       <use xlink:href="#DejaVuSans-33" x="83.789062"/>
       <use xlink:href="#DejaVuSans-30" x="147.412109"/>
      </g>
     </g>
    </g>
    <g id="xtick_4">
     <g id="line2d_4">
      <g>
       <use xlink:href="#mcd24e9af40" x="183.985625" y="172.535063" style="stroke: #000000; stroke-width: 0.8"/>
      </g>
     </g>
     <g id="text_4">
      <!-- 0 -->
      <g transform="translate(180.168125 188.653188) scale(0.12 -0.12)">
       <use xlink:href="#DejaVuSans-30"/>
      </g>
     </g>
    </g>
    <g id="xtick_5">
     <g id="line2d_5">
      <g>
       <use xlink:href="#mcd24e9af40" x="226.765625" y="172.535063" style="stroke: #000000; stroke-width: 0.8"/>
      </g>
     </g>
     <g id="text_5">
      <!-- 30 -->
      <g transform="translate(219.130625 188.653188) scale(0.12 -0.12)">
       <use xlink:href="#DejaVuSans-33"/>
       <use xlink:href="#DejaVuSans-30" x="63.623047"/>
      </g>
     </g>
    </g>
    <g id="xtick_6">
     <g id="line2d_6">
      <g>
       <use xlink:href="#mcd24e9af40" x="269.545625" y="172.535063" style="stroke: #000000; stroke-width: 0.8"/>
      </g>
     </g>
     <g id="text_6">
      <!-- 60 -->
      <g transform="translate(261.910625 188.653188) scale(0.12 -0.12)">
       <use xlink:href="#DejaVuSans-36"/>
       <use xlink:href="#DejaVuSans-30" x="63.623047"/>
      </g>
     </g>
    </g>
    <g id="xtick_7">
     <g id="line2d_7">
      <g>
       <use xlink:href="#mcd24e9af40" x="312.325625" y="172.535063" style="stroke: #000000; stroke-width: 0.8"/>
      </g>
     </g>
     <g id="text_7">
      <!-- 90 -->
      <g transform="translate(304.690625 188.653188) scale(0.12 -0.12)">
       <use xlink:href="#DejaVuSans-39"/>
       <use xlink:href="#DejaVuSans-30" x="63.623047"/>
      </g>
     </g>
    </g>
    <g id="text_8">
     <!-- $\theta \,$ [deg] -->
     <g transform="translate(161.425625 204.388813) scale(0.12 -0.12)">
      <defs>
       <path id="DejaVuSans-Oblique-3b8" d="M 2913 2219 
L 925 2219 
Q 791 1284 928 888 
Q 1100 400 1566 400 
Q 2034 400 2391 891 
Q 2703 1322 2913 2219 
z
M 3009 2750 
Q 3094 3638 2984 3950 
Q 2813 4444 2353 4444 
Q 1875 4444 1525 3956 
Q 1250 3563 1034 2750 
L 3009 2750 
z
M 2444 4913 
Q 3194 4913 3494 4250 
Q 3794 3591 3566 2422 
Q 3341 1256 2781 594 
Q 2225 -72 1475 -72 
Q 722 -72 425 594 
Q 128 1256 353 2422 
Q 581 3591 1134 4250 
Q 1691 4913 2444 4913 
z
" transform="scale(0.015625)"/>
       <path id="DejaVuSans-20" transform="scale(0.015625)"/>
       <path id="DejaVuSans-5b" d="M 550 4863 
L 1875 4863 
L 1875 4416 
L 1125 4416 
L 1125 -397 
L 1875 -397 
L 1875 -844 
L 550 -844 
L 550 4863 
z
" transform="scale(0.015625)"/>
       <path id="DejaVuSans-64" d="M 2906 2969 
L 2906 4863 
L 3481 4863 
L 3481 0 
L 2906 0 
L 2906 525 
Q 2725 213 2448 61 
Q 2172 -91 1784 -91 
Q 1150 -91 751 415 
Q 353 922 353 1747 
Q 353 2572 751 3078 
Q 1150 3584 1784 3584 
Q 2172 3584 2448 3432 
Q 2725 3281 2906 2969 
z
M 947 1747 
Q 947 1113 1208 752 
Q 1469 391 1925 391 
Q 2381 391 2643 752 
Q 2906 1113 2906 1747 
Q 2906 2381 2643 2742 
Q 2381 3103 1925 3103 
Q 1469 3103 1208 2742 
Q 947 2381 947 1747 
z
" transform="scale(0.015625)"/>
       <path id="DejaVuSans-65" d="M 3597 1894 
L 3597 1613 
L 953 1613 
Q 991 1019 1311 708 
Q 1631 397 2203 397 
Q 2534 397 2845 478 
Q 3156 559 3463 722 
L 3463 178 
Q 3153 47 2828 -22 
Q 2503 -91 2169 -91 
Q 1331 -91 842 396 
Q 353 884 353 1716 
Q 353 2575 817 3079 
Q 1281 3584 2069 3584 
Q 2775 3584 3186 3129 
Q 3597 2675 3597 1894 
z
M 3022 2063 
Q 3016 2534 2758 2815 
Q 2500 3097 2075 3097 
Q 1594 3097 1305 2825 
Q 1016 2553 972 2059 
L 3022 2063 
z
" transform="scale(0.015625)"/>
       <path id="DejaVuSans-67" d="M 2906 1791 
Q 2906 2416 2648 2759 
Q 2391 3103 1925 3103 
Q 1463 3103 1205 2759 
Q 947 2416 947 1791 
Q 947 1169 1205 825 
Q 1463 481 1925 481 
Q 2391 481 2648 825 
Q 2906 1169 2906 1791 
z
M 3481 434 
Q 3481 -459 3084 -895 
Q 2688 -1331 1869 -1331 
Q 1566 -1331 1297 -1286 
Q 1028 -1241 775 -1147 
L 775 -588 
Q 1028 -725 1275 -790 
Q 1522 -856 1778 -856 
Q 2344 -856 2625 -561 
Q 2906 -266 2906 331 
L 2906 616 
Q 2728 306 2450 153 
Q 2172 0 1784 0 
Q 1141 0 747 490 
Q 353 981 353 1791 
Q 353 2603 747 3093 
Q 1141 3584 1784 3584 
Q 2172 3584 2450 3431 
Q 2728 3278 2906 2969 
L 2906 3500 
L 3481 3500 
L 3481 434 
z
" transform="scale(0.015625)"/>
       <path id="DejaVuSans-5d" d="M 1947 4863 
L 1947 -844 
L 622 -844 
L 622 -397 
L 1369 -397 
L 1369 4416 
L 622 4416 
L 622 4863 
L 1947 4863 
z
" transform="scale(0.015625)"/>
      </defs>
      <use xlink:href="#DejaVuSans-Oblique-3b8" transform="translate(0 0.234375)"/>
      <use xlink:href="#DejaVuSans-20" transform="translate(77.417317 0.234375)"/>
      <use xlink:href="#DejaVuSans-5b" transform="translate(109.204426 0.234375)"/>
      <use xlink:href="#DejaVuSans-64" transform="translate(148.218098 0.234375)"/>
      <use xlink:href="#DejaVuSans-65" transform="translate(211.694661 0.234375)"/>
      <use xlink:href="#DejaVuSans-67" transform="translate(273.218098 0.234375)"/>
      <use xlink:href="#DejaVuSans-5d" transform="translate(336.694661 0.234375)"/>
     </g>
    </g>
   </g>
   <g id="matplotlib.axis_2">
    <g id="ytick_1">
     <g id="line2d_8">
      <defs>
       <path id="m339500c858" d="M 0 0 
L -3.5 0 
" style="stroke: #000000; stroke-width: 0.8"/>
      </defs>
      <g>
       <use xlink:href="#m339500c858" x="55.645625" y="172.535063" style="stroke: #000000; stroke-width: 0.8"/>
      </g>
     </g>
     <g id="text_9">
      <!-- −50 -->
      <g transform="translate(23.32 177.094125) scale(0.12 -0.12)">
       <defs>
        <path id="DejaVuSans-35" d="M 691 4666 
L 3169 4666 
L 3169 4134 
L 1269 4134 
L 1269 2991 
Q 1406 3038 1543 3061 
Q 1681 3084 1819 3084 
Q 2600 3084 3056 2656 
Q 3513 2228 3513 1497 
Q 3513 744 3044 326 
Q 2575 -91 1722 -91 
Q 1428 -91 1123 -41 
Q 819 9 494 109 
L 494 744 
Q 775 591 1075 516 
Q 1375 441 1709 441 
Q 2250 441 2565 725 
Q 2881 1009 2881 1497 
Q 2881 1984 2565 2268 
Q 2250 2553 1709 2553 
Q 1456 2553 1204 2497 
Q 953 2441 691 2322 
L 691 4666 
z
" transform="scale(0.015625)"/>
       </defs>
       <use xlink:href="#DejaVuSans-2212"/>
       <use xlink:href="#DejaVuSans-35" x="83.789062"/>
       <use xlink:href="#DejaVuSans-30" x="147.412109"/>
      </g>
     </g>
    </g>
    <g id="ytick_2">
     <g id="line2d_9">
      <g>
       <use xlink:href="#m339500c858" x="55.645625" y="140.379863" style="stroke: #000000; stroke-width: 0.8"/>
      </g>
     </g>
     <g id="text_10">
      <!-- −40 -->
      <g transform="translate(23.32 144.938925) scale(0.12 -0.12)">
       <defs>
        <path id="DejaVuSans-34" d="M 2419 4116 
L 825 1625 
L 2419 1625 
L 2419 4116 
z
M 2253 4666 
L 3047 4666 
L 3047 1625 
L 3713 1625 
L 3713 1100 
L 3047 1100 
L 3047 0 
L 2419 0 
L 2419 1100 
L 313 1100 
L 313 1709 
L 2253 4666 
z
" transform="scale(0.015625)"/>
       </defs>
       <use xlink:href="#DejaVuSans-2212"/>
       <use xlink:href="#DejaVuSans-34" x="83.789062"/>
       <use xlink:href="#DejaVuSans-30" x="147.412109"/>
      </g>
     </g>
    </g>
    <g id="ytick_3">
     <g id="line2d_10">
      <g>
       <use xlink:href="#m339500c858" x="55.645625" y="108.224663" style="stroke: #000000; stroke-width: 0.8"/>
      </g>
     </g>
     <g id="text_11">
      <!-- −30 -->
      <g transform="translate(23.32 112.783725) scale(0.12 -0.12)">
       <use xlink:href="#DejaVuSans-2212"/>
       <use xlink:href="#DejaVuSans-33" x="83.789062"/>
       <use xlink:href="#DejaVuSans-30" x="147.412109"/>
      </g>
     </g>
    </g>
    <g id="ytick_4">
     <g id="line2d_11">
      <g>
       <use xlink:href="#m339500c858" x="55.645625" y="76.069463" style="stroke: #000000; stroke-width: 0.8"/>
      </g>
     </g>
     <g id="text_12">
      <!-- −20 -->
      <g transform="translate(23.32 80.628525) scale(0.12 -0.12)">
       <defs>
        <path id="DejaVuSans-32" d="M 1228 531 
L 3431 531 
L 3431 0 
L 469 0 
L 469 531 
Q 828 903 1448 1529 
Q 2069 2156 2228 2338 
Q 2531 2678 2651 2914 
Q 2772 3150 2772 3378 
Q 2772 3750 2511 3984 
Q 2250 4219 1831 4219 
Q 1534 4219 1204 4116 
Q 875 4013 500 3803 
L 500 4441 
Q 881 4594 1212 4672 
Q 1544 4750 1819 4750 
Q 2544 4750 2975 4387 
Q 3406 4025 3406 3419 
Q 3406 3131 3298 2873 
Q 3191 2616 2906 2266 
Q 2828 2175 2409 1742 
Q 1991 1309 1228 531 
z
" transform="scale(0.015625)"/>
       </defs>
       <use xlink:href="#DejaVuSans-2212"/>
       <use xlink:href="#DejaVuSans-32" x="83.789062"/>
       <use xlink:href="#DejaVuSans-30" x="147.412109"/>
      </g>
     </g>
    </g>
    <g id="ytick_5">
     <g id="line2d_12">
      <g>
       <use xlink:href="#m339500c858" x="55.645625" y="43.914262" style="stroke: #000000; stroke-width: 0.8"/>
      </g>
     </g>
     <g id="text_13">
      <!-- −10 -->
      <g transform="translate(23.32 48.473325) scale(0.12 -0.12)">
       <defs>
        <path id="DejaVuSans-31" d="M 794 531 
L 1825 531 
L 1825 4091 
L 703 3866 
L 703 4441 
L 1819 4666 
L 2450 4666 
L 2450 531 
L 3481 531 
L 3481 0 
L 794 0 
L 794 531 
z
" transform="scale(0.015625)"/>
       </defs>
       <use xlink:href="#DejaVuSans-2212"/>
       <use xlink:href="#DejaVuSans-31" x="83.789062"/>
       <use xlink:href="#DejaVuSans-30" x="147.412109"/>
      </g>
     </g>
    </g>
    <g id="ytick_6">
     <g id="line2d_13">
      <g>
       <use xlink:href="#m339500c858" x="55.645625" y="11.759062" style="stroke: #000000; stroke-width: 0.8"/>
      </g>
     </g>
     <g id="text_14">
      <!-- 0 -->
      <g transform="translate(41.010625 16.318125) scale(0.12 -0.12)">
       <use xlink:href="#DejaVuSans-30"/>
      </g>
     </g>
    </g>
    <g id="text_15">
     <!-- Normalized $|E_\theta|$ [dB] -->
     <g transform="translate(16.44 153.287063) rotate(-90) scale(0.12 -0.12)">
      <defs>
       <path id="DejaVuSans-4e" d="M 628 4666 
L 1478 4666 
L 3547 763 
L 3547 4666 
L 4159 4666 
L 4159 0 
L 3309 0 
L 1241 3903 
L 1241 0 
L 628 0 
L 628 4666 
z
" transform="scale(0.015625)"/>
       <path id="DejaVuSans-6f" d="M 1959 3097 
Q 1497 3097 1228 2736 
Q 959 2375 959 1747 
Q 959 1119 1226 758 
Q 1494 397 1959 397 
Q 2419 397 2687 759 
Q 2956 1122 2956 1747 
Q 2956 2369 2687 2733 
Q 2419 3097 1959 3097 
z
M 1959 3584 
Q 2709 3584 3137 3096 
Q 3566 2609 3566 1747 
Q 3566 888 3137 398 
Q 2709 -91 1959 -91 
Q 1206 -91 779 398 
Q 353 888 353 1747 
Q 353 2609 779 3096 
Q 1206 3584 1959 3584 
z
" transform="scale(0.015625)"/>
       <path id="DejaVuSans-72" d="M 2631 2963 
Q 2534 3019 2420 3045 
Q 2306 3072 2169 3072 
Q 1681 3072 1420 2755 
Q 1159 2438 1159 1844 
L 1159 0 
L 581 0 
L 581 3500 
L 1159 3500 
L 1159 2956 
Q 1341 3275 1631 3429 
Q 1922 3584 2338 3584 
Q 2397 3584 2469 3576 
Q 2541 3569 2628 3553 
L 2631 2963 
z
" transform="scale(0.015625)"/>
       <path id="DejaVuSans-6d" d="M 3328 2828 
Q 3544 3216 3844 3400 
Q 4144 3584 4550 3584 
Q 5097 3584 5394 3201 
Q 5691 2819 5691 2113 
L 5691 0 
L 5113 0 
L 5113 2094 
Q 5113 2597 4934 2840 
Q 4756 3084 4391 3084 
Q 3944 3084 3684 2787 
Q 3425 2491 3425 1978 
L 3425 0 
L 2847 0 
L 2847 2094 
Q 2847 2600 2669 2842 
Q 2491 3084 2119 3084 
Q 1678 3084 1418 2786 
Q 1159 2488 1159 1978 
L 1159 0 
L 581 0 
L 581 3500 
L 1159 3500 
L 1159 2956 
Q 1356 3278 1631 3431 
Q 1906 3584 2284 3584 
Q 2666 3584 2933 3390 
Q 3200 3197 3328 2828 
z
" transform="scale(0.015625)"/>
       <path id="DejaVuSans-61" d="M 2194 1759 
Q 1497 1759 1228 1600 
Q 959 1441 959 1056 
Q 959 750 1161 570 
Q 1363 391 1709 391 
Q 2188 391 2477 730 
Q 2766 1069 2766 1631 
L 2766 1759 
L 2194 1759 
z
M 3341 1997 
L 3341 0 
L 2766 0 
L 2766 531 
Q 2569 213 2275 61 
Q 1981 -91 1556 -91 
Q 1019 -91 701 211 
Q 384 513 384 1019 
Q 384 1609 779 1909 
Q 1175 2209 1959 2209 
L 2766 2209 
L 2766 2266 
Q 2766 2663 2505 2880 
Q 2244 3097 1772 3097 
Q 1472 3097 1187 3025 
Q 903 2953 641 2809 
L 641 3341 
Q 956 3463 1253 3523 
Q 1550 3584 1831 3584 
Q 2591 3584 2966 3190 
Q 3341 2797 3341 1997 
z
" transform="scale(0.015625)"/>
       <path id="DejaVuSans-6c" d="M 603 4863 
L 1178 4863 
L 1178 0 
L 603 0 
L 603 4863 
z
" transform="scale(0.015625)"/>
       <path id="DejaVuSans-69" d="M 603 3500 
L 1178 3500 
L 1178 0 
L 603 0 
L 603 3500 
z
M 603 4863 
L 1178 4863 
L 1178 4134 
L 603 4134 
L 603 4863 
z
" transform="scale(0.015625)"/>
       <path id="DejaVuSans-7a" d="M 353 3500 
L 3084 3500 
L 3084 2975 
L 922 459 
L 3084 459 
L 3084 0 
L 275 0 
L 275 525 
L 2438 3041 
L 353 3041 
L 353 3500 
z
" transform="scale(0.015625)"/>
       <path id="DejaVuSans-7c" d="M 1344 4891 
L 1344 -1509 
L 813 -1509 
L 813 4891 
L 1344 4891 
z
" transform="scale(0.015625)"/>
       <path id="DejaVuSans-Oblique-45" d="M 1081 4666 
L 4031 4666 
L 3928 4134 
L 1606 4134 
L 1338 2753 
L 3566 2753 
L 3463 2222 
L 1234 2222 
L 909 531 
L 3284 531 
L 3181 0 
L 172 0 
L 1081 4666 
z
" transform="scale(0.015625)"/>
       <path id="DejaVuSans-42" d="M 1259 2228 
L 1259 519 
L 2272 519 
Q 2781 519 3026 730 
Q 3272 941 3272 1375 
Q 3272 1813 3026 2020 
Q 2781 2228 2272 2228 
L 1259 2228 
z
M 1259 4147 
L 1259 2741 
L 2194 2741 
Q 2656 2741 2882 2914 
Q 3109 3088 3109 3444 
Q 3109 3797 2882 3972 
Q 2656 4147 2194 4147 
L 1259 4147 
z
M 628 4666 
L 2241 4666 
Q 2963 4666 3353 4366 
Q 3744 4066 3744 3513 
Q 3744 3084 3544 2831 
Q 3344 2578 2956 2516 
Q 3422 2416 3680 2098 
Q 3938 1781 3938 1306 
Q 3938 681 3513 340 
Q 3088 0 2303 0 
L 628 0 
L 628 4666 
z
" transform="scale(0.015625)"/>
      </defs>
      <use xlink:href="#DejaVuSans-4e" transform="translate(0 0.578125)"/>
      <use xlink:href="#DejaVuSans-6f" transform="translate(74.804688 0.578125)"/>
      <use xlink:href="#DejaVuSans-72" transform="translate(135.986328 0.578125)"/>
      <use xlink:href="#DejaVuSans-6d" transform="translate(177.099609 0.578125)"/>
      <use xlink:href="#DejaVuSans-61" transform="translate(274.511719 0.578125)"/>
      <use xlink:href="#DejaVuSans-6c" transform="translate(335.791016 0.578125)"/>
      <use xlink:href="#DejaVuSans-69" transform="translate(363.574219 0.578125)"/>
      <use xlink:href="#DejaVuSans-7a" transform="translate(391.357422 0.578125)"/>
      <use xlink:href="#DejaVuSans-65" transform="translate(443.847656 0.578125)"/>
      <use xlink:href="#DejaVuSans-64" transform="translate(505.371094 0.578125)"/>
      <use xlink:href="#DejaVuSans-20" transform="translate(568.847656 0.578125)"/>
      <use xlink:href="#DejaVuSans-7c" transform="translate(600.634766 0.578125)"/>
      <use xlink:href="#DejaVuSans-Oblique-45" transform="translate(634.326172 0.578125)"/>
      <use xlink:href="#DejaVuSans-Oblique-3b8" transform="translate(697.509766 -15.828125) scale(0.7)"/>
      <use xlink:href="#DejaVuSans-7c" transform="translate(743.071289 0.578125)"/>
      <use xlink:href="#DejaVuSans-20" transform="translate(776.762695 0.578125)"/>
      <use xlink:href="#DejaVuSans-5b" transform="translate(808.549805 0.578125)"/>
      <use xlink:href="#DejaVuSans-64" transform="translate(847.563477 0.578125)"/>
      <use xlink:href="#DejaVuSans-42" transform="translate(911.040039 0.578125)"/>
      <use xlink:href="#DejaVuSans-5d" transform="translate(979.643555 0.578125)"/>
     </g>
    </g>
   </g>
   <g id="line2d_14">
    <path d="M 55.645625 14.652665 
L 62.062625 14.765157 
L 68.222945 15.097247 
L 73.869905 15.625411 
L 79.003505 16.331498 
L 83.623745 17.193617 
L 87.730625 18.180939 
L 91.580825 19.336286 
L 95.174345 20.656956 
L 98.511185 22.1357 
L 101.591345 23.759983 
L 104.414825 25.511235 
L 106.981625 27.364058 
L 109.291745 29.285384 
L 111.601865 31.495258 
L 113.655305 33.751473 
L 115.708745 36.34277 
L 117.505505 38.947142 
L 119.302265 41.942885 
L 120.842345 44.900387 
L 122.382425 48.315834 
L 123.922505 52.327096 
L 125.205905 56.275565 
L 126.489305 60.978665 
L 127.516025 65.493292 
L 128.542745 70.966468 
L 129.569465 77.88386 
L 130.339505 84.576935 
L 131.109545 93.488316 
L 131.622905 101.608699 
L 132.136265 113.179727 
L 132.392945 121.499755 
L 132.649625 133.43964 
L 132.906305 154.806827 
L 133.162985 207.472986 
L 133.419665 147.349531 
L 133.933025 118.859227 
L 134.446385 105.007317 
L 135.216425 92.067222 
L 135.986465 83.218813 
L 137.013185 74.549325 
L 138.039905 67.912836 
L 139.066625 62.534663 
L 140.350025 56.988843 
L 141.633425 52.355673 
L 143.173505 47.651878 
L 144.713585 43.63683 
L 146.510345 39.605225 
L 148.307105 36.116597 
L 150.360545 32.651154 
L 152.413985 29.633345 
L 154.467425 26.983627 
L 156.777545 24.372156 
L 159.087665 22.095332 
L 161.397785 20.109664 
L 163.964585 18.205454 
L 166.531385 16.586922 
L 169.098185 15.228802 
L 171.664985 14.112026 
L 174.231785 13.222245 
L 176.798585 12.548816 
L 179.622065 12.048921 
L 182.445545 11.79509 
L 185.269025 11.784079 
L 188.092505 12.015749 
L 190.659305 12.439375 
L 193.226105 13.070535 
L 195.792905 13.916299 
L 198.359705 14.986659 
L 200.926505 16.295153 
L 203.493305 17.859807 
L 206.060105 19.704495 
L 208.370225 21.630203 
L 210.680345 23.839012 
L 212.990465 26.371647 
L 215.043905 28.93895 
L 217.097345 31.858322 
L 219.150785 35.202758 
L 220.947545 38.558838 
L 222.744305 42.420998 
L 224.284385 46.246686 
L 225.824465 50.697588 
L 227.107865 55.043037 
L 228.391265 60.184584 
L 229.417985 65.096843 
L 230.444705 71.038216 
L 231.471425 78.555109 
L 232.241465 85.873084 
L 233.011505 95.759276 
L 233.524865 105.007317 
L 234.038225 118.859227 
L 234.294905 129.632901 
L 234.551585 147.349531 
L 234.808265 207.472986 
L 235.064945 154.806827 
L 235.321625 133.43964 
L 235.834985 113.179727 
L 236.348345 101.608699 
L 237.118385 90.182956 
L 237.888425 82.156326 
L 238.915145 74.2005 
L 239.941865 68.086628 
L 240.968585 63.136579 
L 242.251985 58.052029 
L 243.535385 53.830341 
L 245.075465 49.578163 
L 246.615545 45.982295 
L 248.412305 42.408398 
L 250.209065 39.349099 
L 252.005825 36.693922 
L 254.059265 34.055665 
L 256.112705 31.761118 
L 258.422825 29.515696 
L 260.732945 27.564846 
L 263.299745 25.68457 
L 266.123225 23.908105 
L 268.946705 22.387848 
L 272.026865 20.97493 
L 275.363705 19.687751 
L 278.957225 18.53918 
L 282.807425 17.537149 
L 287.170985 16.638657 
L 291.791225 15.913696 
L 296.924825 15.331957 
L 302.571785 14.916005 
L 308.732105 14.687699 
L 312.325625 14.652665 
L 312.325625 14.652665 
" clip-path="url(#pde91944994)" style="fill: none; stroke: #1f77b4; stroke-width: 2; stroke-linecap: square"/>
   </g>
   <g id="line2d_15">
    <path d="M 56.055913 215.108813 
L 56.415665 196.006158 
L 56.929025 181.727984 
L 57.699065 168.574187 
L 58.469105 159.640866 
L 59.495825 150.907428 
L 60.522545 144.212964 
L 61.805945 137.543638 
L 63.089345 132.082057 
L 64.629425 126.57857 
L 66.169505 121.867039 
L 67.966265 117.075308 
L 70.019705 112.268144 
L 72.329825 107.478875 
L 74.896625 102.724291 
L 77.463425 98.42525 
L 80.286905 94.11517 
L 83.367065 89.831696 
L 86.447225 85.932955 
L 89.527385 82.392624 
L 92.607545 79.203346 
L 95.431025 76.593907 
L 98.254505 74.299461 
L 100.821305 72.505979 
L 103.131425 71.150066 
L 105.441545 70.062277 
L 107.494985 69.343973 
L 109.291745 68.928629 
L 111.088505 68.735167 
L 112.628585 68.766704 
L 114.168665 69.003197 
L 115.708745 69.471878 
L 117.248825 70.20746 
L 118.532225 71.056556 
L 119.815625 72.156168 
L 121.099025 73.550593 
L 122.382425 75.299067 
L 123.665825 77.483394 
L 124.692545 79.621952 
L 125.719265 82.199794 
L 126.745985 85.341773 
L 127.772705 89.238721 
L 128.799425 94.204173 
L 129.569465 98.955476 
L 130.339505 105.058409 
L 131.109545 113.388004 
L 131.622905 121.125169 
L 132.136265 132.31669 
L 132.392945 140.448356 
L 132.649625 152.200808 
L 132.906305 173.381487 
L 133.110391 215.108813 
M 133.208752 215.108813 
L 133.419665 165.553961 
L 133.933025 136.697136 
L 134.446385 122.482414 
L 135.216425 109.005054 
L 135.986465 99.627726 
L 137.013185 90.265992 
L 138.039905 82.952092 
L 139.323305 75.54866 
L 140.606705 69.409789 
L 142.146785 63.175578 
L 143.686865 57.825436 
L 145.483625 52.405148 
L 147.280385 47.661739 
L 149.333825 42.889423 
L 151.387265 38.676233 
L 153.440705 34.927083 
L 155.750825 31.181205 
L 158.060945 27.869629 
L 160.371065 24.94268 
L 162.681185 22.363475 
L 164.991305 20.104095 
L 167.301425 18.143123 
L 169.611545 16.463981 
L 171.921665 15.053809 
L 174.231785 13.902668 
L 176.541905 13.002983 
L 178.852025 12.349153 
L 181.162145 11.937273 
L 183.472265 11.76495 
L 183.728945 11.760534 
M 184.242305 11.760534 
L 186.552425 11.906325 
L 188.862545 12.291497 
L 191.172665 12.91828 
L 193.482785 13.790403 
L 195.792905 14.91327 
L 198.103025 16.294218 
L 200.413145 17.942898 
L 202.723265 19.871814 
L 205.033385 22.097079 
L 207.343505 24.639507 
L 209.653625 27.526187 
L 211.963745 30.79285 
L 214.273865 34.487499 
L 216.327305 38.183806 
L 218.380745 42.334493 
L 220.434185 47.030392 
L 222.230945 51.690051 
L 224.027705 57.002422 
L 225.567785 62.229967 
L 227.107865 68.295914 
L 228.391265 74.23554 
L 229.674665 81.34225 
L 230.701385 88.285621 
L 231.728105 97.025912 
L 232.498145 105.561972 
L 233.268185 117.301618 
L 233.781545 128.745998 
L 234.294905 147.653607 
L 234.551585 165.553961 
L 234.762498 215.108813 
M 234.860859 215.108813 
L 235.064945 173.381487 
L 235.321625 152.200808 
L 235.834985 132.31669 
L 236.348345 121.125169 
L 237.118385 110.275644 
L 237.888425 102.833585 
L 238.658465 97.24879 
L 239.685185 91.560768 
L 240.711905 87.180154 
L 241.738625 83.690342 
L 242.765345 80.849298 
L 244.048745 77.98206 
L 245.332145 75.697928 
L 246.615545 73.869733 
L 247.898945 72.409825 
L 249.182345 71.255191 
L 250.465745 70.358991 
L 252.005825 69.574868 
L 253.545905 69.064355 
L 255.085985 68.791227 
L 256.626065 68.72717 
L 258.422825 68.886831 
L 260.219585 69.27194 
L 262.273025 69.959162 
L 264.326465 70.884246 
L 266.636585 72.18275 
L 268.946705 73.731159 
L 271.513505 75.722104 
L 274.336985 78.219097 
L 277.160465 81.020991 
L 280.240625 84.415047 
L 283.320785 88.162485 
L 286.400945 92.280936 
L 289.224425 96.416652 
L 292.047905 100.956066 
L 294.614705 105.514558 
L 296.924825 110.070057 
L 298.978265 114.595966 
L 300.775025 119.050698 
L 302.571785 124.140462 
L 304.111865 129.212343 
L 305.395265 134.152042 
L 306.678665 140.035505 
L 307.705385 145.748069 
L 308.732105 152.854114 
L 309.502145 159.640866 
L 310.272185 168.574187 
L 310.785545 176.628254 
L 311.298905 187.966488 
L 311.812265 207.334094 
L 311.915337 215.108813 
L 311.915337 215.108813 
" clip-path="url(#pde91944994)" style="fill: none; stroke: #ff7f0e; stroke-width: 2; stroke-linecap: square"/>
   </g>
   <g id="patch_3">
    <path d="M 55.645625 172.535063 
L 55.645625 11.759062 
" style="fill: none; stroke: #000000; stroke-width: 0.8; stroke-linejoin: miter; stroke-linecap: square"/>
   </g>
   <g id="patch_4">
    <path d="M 312.325625 172.535063 
L 312.325625 11.759062 
" style="fill: none; stroke: #000000; stroke-width: 0.8; stroke-linejoin: miter; stroke-linecap: square"/>
   </g>
   <g id="patch_5">
    <path d="M 55.645625 172.535063 
L 312.325625 172.535063 
" style="fill: none; stroke: #000000; stroke-width: 0.8; stroke-linejoin: miter; stroke-linecap: square"/>
   </g>
   <g id="patch_6">
    <path d="M 55.645625 11.759063 
L 312.325625 11.759063 
" style="fill: none; stroke: #000000; stroke-width: 0.8; stroke-linejoin: miter; stroke-linecap: square"/>
   </g>
   <g id="legend_1">
    <g id="patch_7">
     <path d="M 141.445625 166.535063 
L 226.525625 166.535063 
Q 228.925625 166.535063 228.925625 164.135063 
L 228.925625 130.055063 
Q 228.925625 127.655063 226.525625 127.655063 
L 141.445625 127.655063 
Q 139.045625 127.655063 139.045625 130.055063 
L 139.045625 164.135063 
Q 139.045625 166.535063 141.445625 166.535063 
z
" style="fill: #ffffff; opacity: 0.8; stroke: #cccccc; stroke-linejoin: miter"/>
    </g>
    <g id="line2d_16">
     <path d="M 143.845625 137.375063 
L 155.845625 137.375063 
L 167.845625 137.375063 
" style="fill: none; stroke: #1f77b4; stroke-width: 2; stroke-linecap: square"/>
    </g>
    <g id="text_16">
     <!-- $E$-plane -->
     <g transform="translate(177.445625 141.575063) scale(0.12 -0.12)">
      <defs>
       <path id="DejaVuSans-2d" d="M 313 2009 
L 1997 2009 
L 1997 1497 
L 313 1497 
L 313 2009 
z
" transform="scale(0.015625)"/>
       <path id="DejaVuSans-70" d="M 1159 525 
L 1159 -1331 
L 581 -1331 
L 581 3500 
L 1159 3500 
L 1159 2969 
Q 1341 3281 1617 3432 
Q 1894 3584 2278 3584 
Q 2916 3584 3314 3078 
Q 3713 2572 3713 1747 
Q 3713 922 3314 415 
Q 2916 -91 2278 -91 
Q 1894 -91 1617 61 
Q 1341 213 1159 525 
z
M 3116 1747 
Q 3116 2381 2855 2742 
Q 2594 3103 2138 3103 
Q 1681 3103 1420 2742 
Q 1159 2381 1159 1747 
Q 1159 1113 1420 752 
Q 1681 391 2138 391 
Q 2594 391 2855 752 
Q 3116 1113 3116 1747 
z
" transform="scale(0.015625)"/>
       <path id="DejaVuSans-6e" d="M 3513 2113 
L 3513 0 
L 2938 0 
L 2938 2094 
Q 2938 2591 2744 2837 
Q 2550 3084 2163 3084 
Q 1697 3084 1428 2787 
Q 1159 2491 1159 1978 
L 1159 0 
L 581 0 
L 581 3500 
L 1159 3500 
L 1159 2956 
Q 1366 3272 1645 3428 
Q 1925 3584 2291 3584 
Q 2894 3584 3203 3211 
Q 3513 2838 3513 2113 
z
" transform="scale(0.015625)"/>
      </defs>
      <use xlink:href="#DejaVuSans-Oblique-45" transform="translate(0 0.015625)"/>
      <use xlink:href="#DejaVuSans-2d" transform="translate(63.183594 0.015625)"/>
      <use xlink:href="#DejaVuSans-70" transform="translate(99.267578 0.015625)"/>
      <use xlink:href="#DejaVuSans-6c" transform="translate(162.744141 0.015625)"/>
      <use xlink:href="#DejaVuSans-61" transform="translate(190.527344 0.015625)"/>
      <use xlink:href="#DejaVuSans-6e" transform="translate(251.806641 0.015625)"/>
      <use xlink:href="#DejaVuSans-65" transform="translate(315.185547 0.015625)"/>
     </g>
    </g>
    <g id="line2d_17">
     <path d="M 143.845625 155.015063 
L 155.845625 155.015063 
L 167.845625 155.015063 
" style="fill: none; stroke: #ff7f0e; stroke-width: 2; stroke-linecap: square"/>
    </g>
    <g id="text_17">
     <!-- $H$-plane -->
     <g transform="translate(177.445625 159.215063) scale(0.12 -0.12)">
      <defs>
       <path id="DejaVuSans-Oblique-48" d="M 1081 4666 
L 1716 4666 
L 1344 2753 
L 3634 2753 
L 4006 4666 
L 4641 4666 
L 3731 0 
L 3097 0 
L 3531 2222 
L 1241 2222 
L 806 0 
L 172 0 
L 1081 4666 
z
" transform="scale(0.015625)"/>
      </defs>
      <use xlink:href="#DejaVuSans-Oblique-48" transform="translate(0 0.015625)"/>
      <use xlink:href="#DejaVuSans-2d" transform="translate(75.195312 0.015625)"/>
      <use xlink:href="#DejaVuSans-70" transform="translate(111.279297 0.015625)"/>
      <use xlink:href="#DejaVuSans-6c" transform="translate(174.755859 0.015625)"/>
      <use xlink:href="#DejaVuSans-61" transform="translate(202.539062 0.015625)"/>
      <use xlink:href="#DejaVuSans-6e" transform="translate(263.818359 0.015625)"/>
      <use xlink:href="#DejaVuSans-65" transform="translate(327.197266 0.015625)"/>
     </g>
    </g>
   </g>
  </g>
 </g>
 <defs>
  <clipPath id="pde91944994">
   <rect x="55.645625" y="11.759062" width="256.68" height="160.776"/>
  </clipPath>
 </defs>
</svg>
