<?xml version="1.0" encoding="utf-8" standalone="no"?>
<!DOCTYPE svg PUBLIC "-//W3C//DTD SVG 1.1//EN"
  "http://www.w3.org/Graphics/SVG/1.1/DTD/svg11.dtd">
<svg xmlns:xlink="http://www.w3.org/1999/xlink" width="576pt" height="288pt" viewBox="0 0 576 288" xmlns="http://www.w3.org/2000/svg" version="1.1">
 <metadata>
  <rdf:RDF xmlns:dc="http://purl.org/dc/elements/1.1/" xmlns:cc="http://creativecommons.org/ns#" xmlns:rdf="http://www.w3.org/1999/02/22-rdf-syntax-ns#">
   <cc:Work>
    <dc:type rdf:resource="http://purl.org/dc/dcmitype/StillImage"/>
    <dc:date>2024-03-03T16:47:44.453644</dc:date>
    <dc:format>image/svg+xml</dc:format>
    <dc:creator>
     <cc:Agent>
      <dc:title>Matplotlib v3.7.2, https://matplotlib.org/</dc:title>
     </cc:Agent>
    </dc:creator>
   </cc:Work>
  </rdf:RDF>
 </metadata>
 <defs>
  <style type="text/css">*{stroke-linejoin: round; stroke-linecap: butt}</style>
 </defs>
 <g id="figure_1">
  <g id="patch_1">
   <path d="M 0 288 
L 576 288 
L 576 0 
L 0 0 
z
" style="fill: #ffffff"/>
  </g>
  <g id="axes_1">
   <g id="patch_2">
    <path d="M 406.08 145.44 
C 406.08 130.879372 403.211874 116.460327 397.639763 103.008061 
C 392.067651 89.555795 383.899919 77.331919 373.604 67.036 
C 363.308081 56.740081 351.084205 48.572349 337.631939 43.000237 
C 324.179673 37.428126 309.760628 34.56 295.2 34.56 
C 280.639372 34.56 266.220327 37.428126 252.768061 43.000237 
C 239.315795 48.572349 227.091919 56.740081 216.796 67.036 
C 206.500081 77.331919 198.332349 89.555795 192.760237 103.008061 
C 187.188126 116.460327 184.32 130.879372 184.32 145.44 
C 184.32 160.000628 187.188126 174.419673 192.760237 187.871939 
C 198.332349 201.324205 206.500081 213.548081 216.796 223.844 
C 227.091919 234.139919 239.315795 242.307651 252.768061 247.879763 
C 266.220327 253.451874 280.639372 256.32 295.2 256.32 
C 309.760628 256.32 324.179673 253.451874 337.631939 247.879763 
C 351.084205 242.307651 363.308081 234.139919 373.604 223.844 
C 383.899919 213.548081 392.067651 201.324205 397.639763 187.871939 
C 403.211874 174.419673 406.08 160.000628 406.08 145.44 
M 295.2 145.44 
C 295.2 145.44 295.2 145.44 295.2 145.44 
C 295.2 145.44 295.2 145.44 295.2 145.44 
C 295.2 145.44 295.2 145.44 295.2 145.44 
C 295.2 145.44 295.2 145.44 295.2 145.44 
C 295.2 145.44 295.2 145.44 295.2 145.44 
C 295.2 145.44 295.2 145.44 295.2 145.44 
C 295.2 145.44 295.2 145.44 295.2 145.44 
C 295.2 145.44 295.2 145.44 295.2 145.44 
C 295.2 145.44 295.2 145.44 295.2 145.44 
C 295.2 145.44 295.2 145.44 295.2 145.44 
C 295.2 145.44 295.2 145.44 295.2 145.44 
C 295.2 145.44 295.2 145.44 295.2 145.44 
C 295.2 145.44 295.2 145.44 295.2 145.44 
C 295.2 145.44 295.2 145.44 295.2 145.44 
C 295.2 145.44 295.2 145.44 295.2 145.44 
C 295.2 145.44 295.2 145.44 295.2 145.44 
z
" style="fill: #ffffff"/>
   </g>
   <g id="matplotlib.axis_1">
    <g id="xtick_1">
     <g id="line2d_1">
      <path d="M 295.2 145.44 
L 295.2 34.56 
" clip-path="url(#p2a45d4e40d)" style="fill: none; stroke-dasharray: 2.96,1.28; stroke-dashoffset: 0; stroke: #b0b0b0; stroke-width: 0.8"/>
     </g>
     <g id="text_1">
      <!-- 0° -->
      <g transform="translate(288.3825 23.87125) scale(0.12 -0.12)">
       <defs>
        <path id="DejaVuSans-30" d="M 2034 4250 
Q 1547 4250 1301 3770 
Q 1056 3291 1056 2328 
Q 1056 1369 1301 889 
Q 1547 409 2034 409 
Q 2525 409 2770 889 
Q 3016 1369 3016 2328 
Q 3016 3291 2770 3770 
Q 2525 4250 2034 4250 
z
M 2034 4750 
Q 2819 4750 3233 4129 
Q 3647 3509 3647 2328 
Q 3647 1150 3233 529 
Q 2819 -91 2034 -91 
Q 1250 -91 836 529 
Q 422 1150 422 2328 
Q 422 3509 836 4129 
Q 1250 4750 2034 4750 
z
" transform="scale(0.015625)"/>
        <path id="DejaVuSans-b0" d="M 1600 4347 
Q 1350 4347 1178 4173 
Q 1006 4000 1006 3750 
Q 1006 3503 1178 3333 
Q 1350 3163 1600 3163 
Q 1850 3163 2022 3333 
Q 2194 3503 2194 3750 
Q 2194 3997 2020 4172 
Q 1847 4347 1600 4347 
z
M 1600 4750 
Q 1800 4750 1984 4673 
Q 2169 4597 2303 4453 
Q 2447 4313 2519 4134 
Q 2591 3956 2591 3750 
Q 2591 3338 2302 3052 
Q 2013 2766 1594 2766 
Q 1172 2766 890 3047 
Q 609 3328 609 3750 
Q 609 4169 896 4459 
Q 1184 4750 1600 4750 
z
" transform="scale(0.015625)"/>
       </defs>
       <use xlink:href="#DejaVuSans-30"/>
       <use xlink:href="#DejaVuSans-b0" x="63.623047"/>
      </g>
     </g>
    </g>
    <g id="xtick_2">
     <g id="line2d_2">
      <path d="M 295.2 145.44 
L 216.796 67.036 
" clip-path="url(#p2a45d4e40d)" style="fill: none; stroke-dasharray: 2.96,1.28; stroke-dashoffset: 0; stroke: #b0b0b0; stroke-width: 0.8"/>
     </g>
     <g id="text_2">
      <!-- 45° -->
      <g transform="translate(196.261505 60.447755) scale(0.12 -0.12)">
       <defs>
        <path id="DejaVuSans-34" d="M 2419 4116 
L 825 1625 
L 2419 1625 
L 2419 4116 
z
M 2253 4666 
L 3047 4666 
L 3047 1625 
L 3713 1625 
L 3713 1100 
L 3047 1100 
L 3047 0 
L 2419 0 
L 2419 1100 
L 313 1100 
L 313 1709 
L 2253 4666 
z
" transform="scale(0.015625)"/>
        <path id="DejaVuSans-35" d="M 691 4666 
L 3169 4666 
L 3169 4134 
L 1269 4134 
L 1269 2991 
Q 1406 3038 1543 3061 
Q 1681 3084 1819 3084 
Q 2600 3084 3056 2656 
Q 3513 2228 3513 1497 
Q 3513 744 3044 326 
Q 2575 -91 1722 -91 
Q 1428 -91 1123 -41 
Q 819 9 494 109 
L 494 744 
Q 775 591 1075 516 
Q 1375 441 1709 441 
Q 2250 441 2565 725 
Q 2881 1009 2881 1497 
Q 2881 1984 2565 2268 
Q 2250 2553 1709 2553 
Q 1456 2553 1204 2497 
Q 953 2441 691 2322 
L 691 4666 
z
" transform="scale(0.015625)"/>
       </defs>
       <use xlink:href="#DejaVuSans-34"/>
       <use xlink:href="#DejaVuSans-35" x="63.623047"/>
       <use xlink:href="#DejaVuSans-b0" x="127.246094"/>
      </g>
     </g>
    </g>
    <g id="xtick_3">
     <g id="line2d_3">
      <path d="M 295.2 145.44 
L 184.32 145.44 
" clip-path="url(#p2a45d4e40d)" style="fill: none; stroke-dasharray: 2.96,1.28; stroke-dashoffset: 0; stroke: #b0b0b0; stroke-width: 0.8"/>
     </g>
     <g id="text_3">
      <!-- 90° -->
      <g transform="translate(159.685 148.75125) scale(0.12 -0.12)">
       <defs>
        <path id="DejaVuSans-39" d="M 703 97 
L 703 672 
Q 941 559 1184 500 
Q 1428 441 1663 441 
Q 2288 441 2617 861 
Q 2947 1281 2994 2138 
Q 2813 1869 2534 1725 
Q 2256 1581 1919 1581 
Q 1219 1581 811 2004 
Q 403 2428 403 3163 
Q 403 3881 828 4315 
Q 1253 4750 1959 4750 
Q 2769 4750 3195 4129 
Q 3622 3509 3622 2328 
Q 3622 1225 3098 567 
Q 2575 -91 1691 -91 
Q 1453 -91 1209 -44 
Q 966 3 703 97 
z
M 1959 2075 
Q 2384 2075 2632 2365 
Q 2881 2656 2881 3163 
Q 2881 3666 2632 3958 
Q 2384 4250 1959 4250 
Q 1534 4250 1286 3958 
Q 1038 3666 1038 3163 
Q 1038 2656 1286 2365 
Q 1534 2075 1959 2075 
z
" transform="scale(0.015625)"/>
       </defs>
       <use xlink:href="#DejaVuSans-39"/>
       <use xlink:href="#DejaVuSans-30" x="63.623047"/>
       <use xlink:href="#DejaVuSans-b0" x="127.246094"/>
      </g>
     </g>
    </g>
    <g id="xtick_4">
     <g id="line2d_4">
      <path d="M 295.2 145.44 
L 216.796 223.844 
" clip-path="url(#p2a45d4e40d)" style="fill: none; stroke-dasharray: 2.96,1.28; stroke-dashoffset: 0; stroke: #b0b0b0; stroke-width: 0.8"/>
     </g>
     <g id="text_4">
      <!-- 135° -->
      <g transform="translate(192.444005 237.054745) scale(0.12 -0.12)">
       <defs>
        <path id="DejaVuSans-31" d="M 794 531 
L 1825 531 
L 1825 4091 
L 703 3866 
L 703 4441 
L 1819 4666 
L 2450 4666 
L 2450 531 
L 3481 531 
L 3481 0 
L 794 0 
L 794 531 
z
" transform="scale(0.015625)"/>
        <path id="DejaVuSans-33" d="M 2597 2516 
Q 3050 2419 3304 2112 
Q 3559 1806 3559 1356 
Q 3559 666 3084 287 
Q 2609 -91 1734 -91 
Q 1441 -91 1130 -33 
Q 819 25 488 141 
L 488 750 
Q 750 597 1062 519 
Q 1375 441 1716 441 
Q 2309 441 2620 675 
Q 2931 909 2931 1356 
Q 2931 1769 2642 2001 
Q 2353 2234 1838 2234 
L 1294 2234 
L 1294 2753 
L 1863 2753 
Q 2328 2753 2575 2939 
Q 2822 3125 2822 3475 
Q 2822 3834 2567 4026 
Q 2313 4219 1838 4219 
Q 1578 4219 1281 4162 
Q 984 4106 628 3988 
L 628 4550 
Q 988 4650 1302 4700 
Q 1616 4750 1894 4750 
Q 2613 4750 3031 4423 
Q 3450 4097 3450 3541 
Q 3450 3153 3228 2886 
Q 3006 2619 2597 2516 
z
" transform="scale(0.015625)"/>
       </defs>
       <use xlink:href="#DejaVuSans-31"/>
       <use xlink:href="#DejaVuSans-33" x="63.623047"/>
       <use xlink:href="#DejaVuSans-35" x="127.246094"/>
       <use xlink:href="#DejaVuSans-b0" x="190.869141"/>
      </g>
     </g>
    </g>
    <g id="xtick_5">
     <g id="line2d_5">
      <path d="M 295.2 145.44 
L 295.2 256.32 
" clip-path="url(#p2a45d4e40d)" style="fill: none; stroke-dasharray: 2.96,1.28; stroke-dashoffset: 0; stroke: #b0b0b0; stroke-width: 0.8"/>
     </g>
     <g id="text_5">
      <!-- 180° -->
      <g transform="translate(280.7475 273.63125) scale(0.12 -0.12)">
       <defs>
        <path id="DejaVuSans-38" d="M 2034 2216 
Q 1584 2216 1326 1975 
Q 1069 1734 1069 1313 
Q 1069 891 1326 650 
Q 1584 409 2034 409 
Q 2484 409 2743 651 
Q 3003 894 3003 1313 
Q 3003 1734 2745 1975 
Q 2488 2216 2034 2216 
z
M 1403 2484 
Q 997 2584 770 2862 
Q 544 3141 544 3541 
Q 544 4100 942 4425 
Q 1341 4750 2034 4750 
Q 2731 4750 3128 4425 
Q 3525 4100 3525 3541 
Q 3525 3141 3298 2862 
Q 3072 2584 2669 2484 
Q 3125 2378 3379 2068 
Q 3634 1759 3634 1313 
Q 3634 634 3220 271 
Q 2806 -91 2034 -91 
Q 1263 -91 848 271 
Q 434 634 434 1313 
Q 434 1759 690 2068 
Q 947 2378 1403 2484 
z
M 1172 3481 
Q 1172 3119 1398 2916 
Q 1625 2713 2034 2713 
Q 2441 2713 2670 2916 
Q 2900 3119 2900 3481 
Q 2900 3844 2670 4047 
Q 2441 4250 2034 4250 
Q 1625 4250 1398 4047 
Q 1172 3844 1172 3481 
z
" transform="scale(0.015625)"/>
       </defs>
       <use xlink:href="#DejaVuSans-31"/>
       <use xlink:href="#DejaVuSans-38" x="63.623047"/>
       <use xlink:href="#DejaVuSans-30" x="127.246094"/>
       <use xlink:href="#DejaVuSans-b0" x="190.869141"/>
      </g>
     </g>
    </g>
    <g id="xtick_6">
     <g id="line2d_6">
      <path d="M 295.2 145.44 
L 373.604 223.844 
" clip-path="url(#p2a45d4e40d)" style="fill: none; stroke-dasharray: 2.96,1.28; stroke-dashoffset: 0; stroke: #b0b0b0; stroke-width: 0.8"/>
     </g>
     <g id="text_6">
      <!-- 225° -->
      <g transform="translate(369.050995 237.054745) scale(0.12 -0.12)">
       <defs>
        <path id="DejaVuSans-32" d="M 1228 531 
L 3431 531 
L 3431 0 
L 469 0 
L 469 531 
Q 828 903 1448 1529 
Q 2069 2156 2228 2338 
Q 2531 2678 2651 2914 
Q 2772 3150 2772 3378 
Q 2772 3750 2511 3984 
Q 2250 4219 1831 4219 
Q 1534 4219 1204 4116 
Q 875 4013 500 3803 
L 500 4441 
Q 881 4594 1212 4672 
Q 1544 4750 1819 4750 
Q 2544 4750 2975 4387 
Q 3406 4025 3406 3419 
Q 3406 3131 3298 2873 
Q 3191 2616 2906 2266 
Q 2828 2175 2409 1742 
Q 1991 1309 1228 531 
z
" transform="scale(0.015625)"/>
       </defs>
       <use xlink:href="#DejaVuSans-32"/>
       <use xlink:href="#DejaVuSans-32" x="63.623047"/>
       <use xlink:href="#DejaVuSans-35" x="127.246094"/>
       <use xlink:href="#DejaVuSans-b0" x="190.869141"/>
      </g>
     </g>
    </g>
    <g id="xtick_7">
     <g id="line2d_7">
      <path d="M 295.2 145.44 
L 406.08 145.44 
" clip-path="url(#p2a45d4e40d)" style="fill: none; stroke-dasharray: 2.96,1.28; stroke-dashoffset: 0; stroke: #b0b0b0; stroke-width: 0.8"/>
     </g>
     <g id="text_7">
      <!-- 270° -->
      <g transform="translate(405.6275 148.75125) scale(0.12 -0.12)">
       <defs>
        <path id="DejaVuSans-37" d="M 525 4666 
L 3525 4666 
L 3525 4397 
L 1831 0 
L 1172 0 
L 2766 4134 
L 525 4134 
L 525 4666 
z
" transform="scale(0.015625)"/>
       </defs>
       <use xlink:href="#DejaVuSans-32"/>
       <use xlink:href="#DejaVuSans-37" x="63.623047"/>
       <use xlink:href="#DejaVuSans-30" x="127.246094"/>
       <use xlink:href="#DejaVuSans-b0" x="190.869141"/>
      </g>
     </g>
    </g>
    <g id="xtick_8">
     <g id="line2d_8">
      <path d="M 295.2 145.44 
L 373.604 67.036 
" clip-path="url(#p2a45d4e40d)" style="fill: none; stroke-dasharray: 2.96,1.28; stroke-dashoffset: 0; stroke: #b0b0b0; stroke-width: 0.8"/>
     </g>
     <g id="text_8">
      <!-- 315° -->
      <g transform="translate(369.050995 60.447755) scale(0.12 -0.12)">
       <use xlink:href="#DejaVuSans-33"/>
       <use xlink:href="#DejaVuSans-31" x="63.623047"/>
       <use xlink:href="#DejaVuSans-35" x="127.246094"/>
       <use xlink:href="#DejaVuSans-b0" x="190.869141"/>
      </g>
     </g>
    </g>
   </g>
   <g id="matplotlib.axis_2">
    <g id="ytick_1">
     <g id="line2d_9">
      <path d="M 295.2 123.264 
C 292.287874 123.264 289.404065 123.837625 286.713612 124.952047 
C 284.023159 126.06647 281.578384 127.700016 279.5192 129.7592 
C 277.460016 131.818384 275.82647 134.263159 274.712047 136.953612 
C 273.597625 139.644065 273.024 142.527874 273.024 145.44 
C 273.024 148.352126 273.597625 151.235935 274.712047 153.926388 
C 275.82647 156.616841 277.460016 159.061616 279.5192 161.1208 
C 281.578384 163.179984 284.023159 164.81353 286.713612 165.927953 
C 289.404065 167.042375 292.287874 167.616 295.2 167.616 
C 298.112126 167.616 300.995935 167.042375 303.686388 165.927953 
C 306.376841 164.81353 308.821616 163.179984 310.8808 161.1208 
C 312.939984 159.061616 314.57353 156.616841 315.687953 153.926388 
C 316.802375 151.235935 317.376 148.352126 317.376 145.44 
C 317.376 142.527874 316.802375 139.644065 315.687953 136.953612 
C 314.57353 134.263159 312.939984 131.818384 310.8808 129.7592 
C 308.821616 127.700016 306.376841 126.06647 303.686388 124.952047 
C 300.995935 123.837625 298.112126 123.264 295.2 123.264 
" clip-path="url(#p2a45d4e40d)" style="fill: none; stroke-dasharray: 2.96,1.28; stroke-dashoffset: 0; stroke: #b0b0b0; stroke-width: 0.8"/>
     </g>
     <g id="text_9">
      <!-- −20 -->
      <g transform="translate(286.713612 122.456422) scale(0.12 -0.12)">
       <defs>
        <path id="DejaVuSans-2212" d="M 678 2272 
L 4684 2272 
L 4684 1741 
L 678 1741 
L 678 2272 
z
" transform="scale(0.015625)"/>
       </defs>
       <use xlink:href="#DejaVuSans-2212"/>
       <use xlink:href="#DejaVuSans-32" x="83.789062"/>
       <use xlink:href="#DejaVuSans-30" x="147.412109"/>
      </g>
     </g>
    </g>
    <g id="ytick_2">
     <g id="line2d_10">
      <path d="M 295.2 101.088 
C 289.375749 101.088 283.608131 102.235251 278.227224 104.464095 
C 272.846318 106.692939 267.956768 109.960032 263.8384 114.0784 
C 259.720032 118.196768 256.452939 123.086318 254.224095 128.467224 
C 251.995251 133.848131 250.848 139.615749 250.848 145.44 
C 250.848 151.264251 251.995251 157.031869 254.224095 162.412776 
C 256.452939 167.793682 259.720032 172.683232 263.8384 176.8016 
C 267.956768 180.919968 272.846318 184.187061 278.227224 186.415905 
C 283.608131 188.644749 289.375749 189.792 295.2 189.792 
C 301.024251 189.792 306.791869 188.644749 312.172776 186.415905 
C 317.553682 184.187061 322.443232 180.919968 326.5616 176.8016 
C 330.679968 172.683232 333.947061 167.793682 336.175905 162.412776 
C 338.404749 157.031869 339.552 151.264251 339.552 145.44 
C 339.552 139.615749 338.404749 133.848131 336.175905 128.467224 
C 333.947061 123.086318 330.679968 118.196768 326.5616 114.0784 
C 322.443232 109.960032 317.553682 106.692939 312.172776 104.464095 
C 306.791869 102.235251 301.024251 101.088 295.2 101.088 
" clip-path="url(#p2a45d4e40d)" style="fill: none; stroke-dasharray: 2.96,1.28; stroke-dashoffset: 0; stroke: #b0b0b0; stroke-width: 0.8"/>
     </g>
     <g id="text_10">
      <!-- −15 -->
      <g transform="translate(278.227224 101.96847) scale(0.12 -0.12)">
       <use xlink:href="#DejaVuSans-2212"/>
       <use xlink:href="#DejaVuSans-31" x="83.789062"/>
       <use xlink:href="#DejaVuSans-35" x="147.412109"/>
      </g>
     </g>
    </g>
    <g id="ytick_3">
     <g id="line2d_11">
      <path d="M 295.2 78.912 
C 286.463623 78.912 277.812196 80.632876 269.740837 83.976142 
C 261.669477 87.319409 254.335151 92.220049 248.1576 98.3976 
C 241.980049 104.575151 237.079409 111.909477 233.736142 119.980837 
C 230.392876 128.052196 228.672 136.703623 228.672 145.44 
C 228.672 154.176377 230.392876 162.827804 233.736142 170.899163 
C 237.079409 178.970523 241.980049 186.304849 248.1576 192.4824 
C 254.335151 198.659951 261.669477 203.560591 269.740837 206.903858 
C 277.812196 210.247124 286.463623 211.968 295.2 211.968 
C 303.936377 211.968 312.587804 210.247124 320.659163 206.903858 
C 328.730523 203.560591 336.064849 198.659951 342.2424 192.4824 
C 348.419951 186.304849 353.320591 178.970523 356.663858 170.899163 
C 360.007124 162.827804 361.728 154.176377 361.728 145.44 
C 361.728 136.703623 360.007124 128.052196 356.663858 119.980837 
C 353.320591 111.909477 348.419951 104.575151 342.2424 98.3976 
C 336.064849 92.220049 328.730523 87.319409 320.659163 83.976142 
C 312.587804 80.632876 303.936377 78.912 295.2 78.912 
" clip-path="url(#p2a45d4e40d)" style="fill: none; stroke-dasharray: 2.96,1.28; stroke-dashoffset: 0; stroke: #b0b0b0; stroke-width: 0.8"/>
     </g>
     <g id="text_11">
      <!-- −10 -->
      <g transform="translate(269.740837 81.480517) scale(0.12 -0.12)">
       <use xlink:href="#DejaVuSans-2212"/>
       <use xlink:href="#DejaVuSans-31" x="83.789062"/>
       <use xlink:href="#DejaVuSans-30" x="147.412109"/>
      </g>
     </g>
    </g>
    <g id="ytick_4">
     <g id="line2d_12">
      <path d="M 295.2 56.736 
C 283.551497 56.736 272.016262 59.030501 261.254449 63.48819 
C 250.492636 67.945879 240.713535 74.480065 232.4768 82.7168 
C 224.240065 90.953535 217.705879 100.732636 213.24819 111.494449 
C 208.790501 122.256262 206.496 133.791497 206.496 145.44 
C 206.496 157.088503 208.790501 168.623738 213.24819 179.385551 
C 217.705879 190.147364 224.240065 199.926465 232.4768 208.1632 
C 240.713535 216.399935 250.492636 222.934121 261.254449 227.39181 
C 272.016262 231.849499 283.551497 234.144 295.2 234.144 
C 306.848503 234.144 318.383738 231.849499 329.145551 227.39181 
C 339.907364 222.934121 349.686465 216.399935 357.9232 208.1632 
C 366.159935 199.926465 372.694121 190.147364 377.15181 179.385551 
C 381.609499 168.623738 383.904 157.088503 383.904 145.44 
C 383.904 133.791497 381.609499 122.256262 377.15181 111.494449 
C 372.694121 100.732636 366.159935 90.953535 357.9232 82.7168 
C 349.686465 74.480065 339.907364 67.945879 329.145551 63.48819 
C 318.383738 59.030501 306.848503 56.736 295.2 56.736 
" clip-path="url(#p2a45d4e40d)" style="fill: none; stroke-dasharray: 2.96,1.28; stroke-dashoffset: 0; stroke: #b0b0b0; stroke-width: 0.8"/>
     </g>
     <g id="text_12">
      <!-- −5 -->
      <g transform="translate(261.254449 60.992565) scale(0.12 -0.12)">
       <use xlink:href="#DejaVuSans-2212"/>
       <use xlink:href="#DejaVuSans-35" x="83.789062"/>
      </g>
     </g>
    </g>
    <g id="ytick_5">
     <g id="line2d_13">
      <path d="M 295.2 34.56 
C 280.639372 34.56 266.220327 37.428126 252.768061 43.000237 
C 239.315795 48.572349 227.091919 56.740081 216.796 67.036 
C 206.500081 77.331919 198.332349 89.555795 192.760237 103.008061 
C 187.188126 116.460327 184.32 130.879372 184.32 145.44 
C 184.32 160.000628 187.188126 174.419673 192.760237 187.871939 
C 198.332349 201.324205 206.500081 213.548081 216.796 223.844 
C 227.091919 234.139919 239.315795 242.307651 252.768061 247.879763 
C 266.220327 253.451874 280.639372 256.32 295.2 256.32 
C 309.760628 256.32 324.179673 253.451874 337.631939 247.879763 
C 351.084205 242.307651 363.308081 234.139919 373.604 223.844 
C 383.899919 213.548081 392.067651 201.324205 397.639763 187.871939 
C 403.211874 174.419673 406.08 160.000628 406.08 145.44 
C 406.08 130.879372 403.211874 116.460327 397.639763 103.008061 
C 392.067651 89.555795 383.899919 77.331919 373.604 67.036 
C 363.308081 56.740081 351.084205 48.572349 337.631939 43.000237 
C 324.179673 37.428126 309.760628 34.56 295.2 34.56 
" clip-path="url(#p2a45d4e40d)" style="fill: none; stroke-dasharray: 2.96,1.28; stroke-dashoffset: 0; stroke: #b0b0b0; stroke-width: 0.8"/>
     </g>
     <g id="text_13">
      <!-- 0 -->
      <g transform="translate(252.768061 40.504612) scale(0.12 -0.12)">
       <use xlink:href="#DejaVuSans-30"/>
      </g>
     </g>
    </g>
   </g>
   <g id="line2d_14">
    <path d="M 295.2 256.32 
L 299.377634 256.202673 
L 303.540619 255.851198 
L 307.674383 255.26709 
L 311.7645 254.452863 
L 315.796766 253.412029 
L 319.757276 252.149074 
L 323.632493 250.669445 
L 327.409327 248.979526 
L 331.075206 247.086613 
L 334.618149 244.998881 
L 338.026847 242.72535 
L 341.290728 240.275845 
L 344.400042 237.660954 
L 347.345931 234.891976 
L 350.120506 231.980869 
L 352.716928 228.940191 
L 355.129486 225.783029 
L 357.353673 222.522933 
L 359.386269 219.173829 
L 361.225423 215.749934 
L 362.870726 212.26565 
L 364.323297 208.735458 
L 365.585848 205.173792 
L 366.662752 201.5949 
L 367.560099 198.01269 
L 368.491068 193.25431 
L 369.140467 188.543513 
L 369.537287 183.906972 
L 369.715706 179.367356 
L 369.690978 173.855549 
L 369.408504 167.506116 
L 368.242602 147.276147 
L 368.280262 141.763488 
L 368.586329 135.230694 
L 369.690978 117.024451 
L 369.715706 111.512644 
L 369.537287 106.973028 
L 369.140467 102.336487 
L 368.491068 97.62569 
L 367.560099 92.86731 
L 366.662752 89.2851 
L 365.585848 85.706208 
L 364.323297 82.144542 
L 362.870726 78.61435 
L 361.225423 75.130066 
L 359.386269 71.706171 
L 357.353673 68.357067 
L 355.129486 65.096971 
L 352.716928 61.939809 
L 350.120506 58.899131 
L 347.345931 55.988024 
L 344.400042 53.219046 
L 341.290728 50.604155 
L 338.026847 48.15465 
L 334.618149 45.881119 
L 331.075206 43.793387 
L 327.409327 41.900474 
L 323.632493 40.210555 
L 319.757276 38.730926 
L 315.796766 37.467971 
L 311.7645 36.427137 
L 307.674383 35.61291 
L 303.540619 35.028802 
L 299.377634 34.677327 
L 295.2 34.56 
L 291.022366 34.677327 
L 286.859381 35.028802 
L 282.725617 35.61291 
L 278.6355 36.427137 
L 274.603234 37.467971 
L 270.642724 38.730926 
L 266.767507 40.210555 
L 262.990673 41.900474 
L 259.324794 43.793387 
L 255.781851 45.881119 
L 252.373153 48.15465 
L 249.109272 50.604155 
L 245.999958 53.219046 
L 243.054069 55.988024 
L 240.279494 58.899131 
L 237.683072 61.939809 
L 235.270514 65.096971 
L 233.046327 68.357067 
L 231.013731 71.706171 
L 229.174577 75.130066 
L 227.529274 78.61435 
L 226.076703 82.144542 
L 224.814152 85.706208 
L 223.737248 89.2851 
L 222.839901 92.86731 
L 221.908932 97.62569 
L 221.259533 102.336487 
L 220.862713 106.973028 
L 220.684294 111.512644 
L 220.709022 117.024451 
L 220.991496 123.373884 
L 222.157398 143.603853 
L 222.119738 149.116512 
L 221.813671 155.649306 
L 220.709022 173.855549 
L 220.684294 179.367356 
L 220.862713 183.906972 
L 221.259533 188.543513 
L 221.908932 193.25431 
L 222.839901 198.01269 
L 223.737248 201.5949 
L 224.814152 205.173792 
L 226.076703 208.735458 
L 227.529274 212.26565 
L 229.174577 215.749934 
L 231.013731 219.173829 
L 233.046327 222.522933 
L 235.270514 225.783029 
L 237.683072 228.940191 
L 240.279494 231.980869 
L 243.054069 234.891976 
L 245.999958 237.660954 
L 249.109272 240.275845 
L 252.373153 242.72535 
L 255.781851 244.998881 
L 259.324794 247.086613 
L 262.990673 248.979526 
L 266.767507 250.669445 
L 270.642724 252.149074 
L 274.603234 253.412029 
L 278.6355 254.452863 
L 282.725617 255.26709 
L 286.859381 255.851198 
L 291.022366 256.202673 
L 295.2 256.32 
L 295.2 256.32 
" clip-path="url(#p2a45d4e40d)" style="fill: none; stroke: #1f77b4; stroke-width: 2; stroke-linecap: square"/>
   </g>
   <g id="line2d_15">
    <path d="M 295.2 256.32 
L 299.376117 256.162466 
L 303.528495 255.690699 
L 307.633505 254.907193 
L 311.667743 253.816094 
L 315.608133 252.423179 
L 319.432041 250.735827 
L 323.117377 248.762985 
L 326.642696 246.515126 
L 329.987296 244.004195 
L 333.131313 241.24356 
L 336.055806 238.247938 
L 338.742839 235.033333 
L 341.175558 231.616955 
L 343.33825 228.017136 
L 345.216407 224.253246 
L 346.796763 220.345592 
L 347.678918 217.671033 
L 348.42013 214.948416 
L 349.017422 212.184322 
L 349.468072 209.385451 
L 349.769604 206.558601 
L 349.919786 203.710654 
L 349.916616 200.848562 
L 349.758309 197.979327 
L 349.443278 195.109985 
L 348.970112 192.24759 
L 348.337539 189.399195 
L 347.544392 186.571834 
L 346.589555 183.772505 
L 345.471904 181.008153 
L 344.190229 178.285652 
L 342.743133 175.61179 
L 341.128916 172.993255 
L 339.345418 170.436622 
L 337.389828 167.948348 
L 335.258438 165.534763 
L 332.946332 163.202076 
L 330.446983 160.956387 
L 327.751718 158.803709 
L 324.849029 156.750006 
L 321.723622 154.80126 
L 318.355123 152.963556 
L 314.71626 151.243217 
L 310.770225 149.647 
L 306.466744 148.18237 
L 301.735983 146.857906 
L 296.478655 145.683917 
M 296.478655 145.196083 
L 301.735983 144.022094 
L 306.466744 142.69763 
L 310.770225 141.233 
L 314.71626 139.636783 
L 318.355123 137.916444 
L 321.723622 136.07874 
L 324.849029 134.129994 
L 327.751718 132.076291 
L 330.446983 129.923613 
L 332.946332 127.677924 
L 335.258438 125.345237 
L 337.389828 122.931652 
L 339.345418 120.443378 
L 341.128916 117.886745 
L 342.743133 115.26821 
L 344.190229 112.594348 
L 345.471904 109.871847 
L 346.589555 107.107495 
L 347.544392 104.308166 
L 348.337539 101.480805 
L 348.970112 98.63241 
L 349.443278 95.770015 
L 349.758309 92.900673 
L 349.916616 90.031438 
L 349.919786 87.169346 
L 349.769604 84.321399 
L 349.468072 81.494549 
L 349.017422 78.695678 
L 348.42013 75.931584 
L 347.678918 73.208967 
L 346.796763 70.534408 
L 345.216407 66.626754 
L 343.33825 62.862864 
L 341.175558 59.263045 
L 338.742839 55.846667 
L 336.055806 52.632062 
L 333.131313 49.63644 
L 329.987296 46.875805 
L 326.642696 44.364874 
L 323.117377 42.117015 
L 319.432041 40.144173 
L 315.608133 38.456821 
L 311.667743 37.063906 
L 307.633505 35.972807 
L 303.528495 35.189301 
L 299.376117 34.717534 
L 296.593212 34.577511 
M 293.806788 34.577511 
L 289.635949 34.839964 
L 285.496744 35.416003 
L 281.412738 36.302581 
L 277.407239 37.495007 
L 273.503185 38.986966 
L 269.723043 40.770552 
L 266.088699 42.836304 
L 262.621359 45.173253 
L 259.341457 47.768971 
L 256.268558 50.609636 
L 253.421277 53.680091 
L 250.817197 56.963923 
L 248.4728 60.443539 
L 246.403401 64.100248 
L 244.6231 67.91436 
L 243.144738 71.865273 
L 242.332667 74.564677 
L 241.663058 77.308863 
L 241.138762 80.091189 
L 240.762377 82.904905 
L 240.536255 85.743169 
L 240.462514 88.599061 
L 240.543042 91.465602 
L 240.779524 94.335772 
L 241.173456 97.202522 
L 241.726174 100.058797 
L 242.438893 102.897553 
L 243.312746 105.71177 
L 244.348846 108.494474 
L 245.548349 111.238755 
L 246.912544 113.93778 
L 248.442963 116.584807 
L 250.141515 119.173206 
L 252.010658 121.696458 
L 254.053618 124.148172 
L 256.274661 126.522077 
L 258.679453 128.812021 
L 261.275517 131.011952 
L 264.072844 133.115887 
L 267.084699 135.117863 
L 270.328724 137.01186 
L 273.828474 138.791694 
L 277.615592 140.450852 
L 281.73302 141.982267 
L 286.239864 143.377977 
L 291.219112 144.628632 
L 293.921345 145.196083 
M 293.921345 145.683917 
L 288.664017 146.857906 
L 283.933256 148.18237 
L 279.629775 149.647 
L 275.68374 151.243217 
L 272.044877 152.963556 
L 268.676378 154.80126 
L 265.550971 156.750006 
L 262.648282 158.803709 
L 259.953017 160.956387 
L 257.453668 163.202076 
L 255.141562 165.534763 
L 253.010172 167.948348 
L 251.054582 170.436622 
L 249.271084 172.993255 
L 247.656867 175.61179 
L 246.209771 178.285652 
L 244.928096 181.008153 
L 243.810445 183.772505 
L 242.855608 186.571834 
L 242.062461 189.399195 
L 241.429888 192.24759 
L 240.956722 195.109985 
L 240.641691 197.979327 
L 240.483384 200.848562 
L 240.480214 203.710654 
L 240.630396 206.558601 
L 240.931928 209.385451 
L 241.382578 212.184322 
L 241.97987 214.948416 
L 242.721082 217.671033 
L 243.603237 220.345592 
L 245.183593 224.253246 
L 247.06175 228.017136 
L 249.224442 231.616955 
L 251.657161 235.033333 
L 254.344194 238.247938 
L 257.268687 241.24356 
L 260.412704 244.004195 
L 263.757304 246.515126 
L 267.282623 248.762985 
L 270.967959 250.735827 
L 274.791867 252.423179 
L 278.732257 253.816094 
L 282.766495 254.907193 
L 286.871505 255.690699 
L 291.023883 256.162466 
L 295.2 256.32 
L 295.2 256.32 
" clip-path="url(#p2a45d4e40d)" style="fill: none; stroke: #ff7f0e; stroke-width: 2; stroke-linecap: square"/>
   </g>
   <g id="patch_3">
    <path d="M 295.2 34.56 
C 280.639372 34.56 266.220327 37.428126 252.768061 43.000237 
C 239.315795 48.572349 227.091919 56.740081 216.796 67.036 
C 206.500081 77.331919 198.332349 89.555795 192.760237 103.008061 
C 187.188126 116.460327 184.32 130.879372 184.32 145.44 
C 184.32 160.000628 187.188126 174.419673 192.760237 187.871939 
C 198.332349 201.324205 206.500081 213.548081 216.796 223.844 
C 227.091919 234.139919 239.315795 242.307651 252.768061 247.879763 
C 266.220327 253.451874 280.639372 256.32 295.2 256.32 
C 309.760628 256.32 324.179673 253.451874 337.631939 247.879763 
C 351.084205 242.307651 363.308081 234.139919 373.604 223.844 
C 383.899919 213.548081 392.067651 201.324205 397.639763 187.871939 
C 403.211874 174.419673 406.08 160.000628 406.08 145.44 
C 406.08 130.879372 403.211874 116.460327 397.639763 103.008061 
C 392.067651 89.555795 383.899919 77.331919 373.604 67.036 
C 363.308081 56.740081 351.084205 48.572349 337.631939 43.000237 
C 324.179673 37.428126 309.760628 34.56 295.2 34.56 
" style="fill: none; stroke: #000000; stroke-width: 0.8; stroke-linejoin: miter; stroke-linecap: square"/>
   </g>
   <g id="legend_1">
    <g id="patch_4">
     <path d="M 285.96 80.64 
L 397.68 80.64 
Q 400.08 80.64 400.08 78.24 
L 400.08 42.96 
Q 400.08 40.56 397.68 40.56 
L 285.96 40.56 
Q 283.56 40.56 283.56 42.96 
L 283.56 78.24 
Q 283.56 80.64 285.96 80.64 
z
" style="fill: #ffffff; opacity: 0.8; stroke: #cccccc; stroke-linejoin: miter"/>
    </g>
    <g id="line2d_16">
     <path d="M 288.36 50.28 
L 300.36 50.28 
L 312.36 50.28 
" style="fill: none; stroke: #1f77b4; stroke-width: 2; stroke-linecap: square"/>
    </g>
    <g id="text_14">
     <!-- $E_\theta$ ($E$-plane) -->
     <g transform="translate(321.96 54.48) scale(0.12 -0.12)">
      <defs>
       <path id="DejaVuSans-Oblique-45" d="M 1081 4666 
L 4031 4666 
L 3928 4134 
L 1606 4134 
L 1338 2753 
L 3566 2753 
L 3463 2222 
L 1234 2222 
L 909 531 
L 3284 531 
L 3181 0 
L 172 0 
L 1081 4666 
z
" transform="scale(0.015625)"/>
       <path id="DejaVuSans-Oblique-3b8" d="M 2913 2219 
L 925 2219 
Q 791 1284 928 888 
Q 1100 400 1566 400 
Q 2034 400 2391 891 
Q 2703 1322 2913 2219 
z
M 3009 2750 
Q 3094 3638 2984 3950 
Q 2813 4444 2353 4444 
Q 1875 4444 1525 3956 
Q 1250 3563 1034 2750 
L 3009 2750 
z
M 2444 4913 
Q 3194 4913 3494 4250 
Q 3794 3591 3566 2422 
Q 3341 1256 2781 594 
Q 2225 -72 1475 -72 
Q 722 -72 425 594 
Q 128 1256 353 2422 
Q 581 3591 1134 4250 
Q 1691 4913 2444 4913 
z
" transform="scale(0.015625)"/>
       <path id="DejaVuSans-20" transform="scale(0.015625)"/>
       <path id="DejaVuSans-28" d="M 1984 4856 
Q 1566 4138 1362 3434 
Q 1159 2731 1159 2009 
Q 1159 1288 1364 580 
Q 1569 -128 1984 -844 
L 1484 -844 
Q 1016 -109 783 600 
Q 550 1309 550 2009 
Q 550 2706 781 3412 
Q 1013 4119 1484 4856 
L 1984 4856 
z
" transform="scale(0.015625)"/>
       <path id="DejaVuSans-2d" d="M 313 2009 
L 1997 2009 
L 1997 1497 
L 313 1497 
L 313 2009 
z
" transform="scale(0.015625)"/>
       <path id="DejaVuSans-70" d="M 1159 525 
L 1159 -1331 
L 581 -1331 
L 581 3500 
L 1159 3500 
L 1159 2969 
Q 1341 3281 1617 3432 
Q 1894 3584 2278 3584 
Q 2916 3584 3314 3078 
Q 3713 2572 3713 1747 
Q 3713 922 3314 415 
Q 2916 -91 2278 -91 
Q 1894 -91 1617 61 
Q 1341 213 1159 525 
z
M 3116 1747 
Q 3116 2381 2855 2742 
Q 2594 3103 2138 3103 
Q 1681 3103 1420 2742 
Q 1159 2381 1159 1747 
Q 1159 1113 1420 752 
Q 1681 391 2138 391 
Q 2594 391 2855 752 
Q 3116 1113 3116 1747 
z
" transform="scale(0.015625)"/>
       <path id="DejaVuSans-6c" d="M 603 4863 
L 1178 4863 
L 1178 0 
L 603 0 
L 603 4863 
z
" transform="scale(0.015625)"/>
       <path id="DejaVuSans-61" d="M 2194 1759 
Q 1497 1759 1228 1600 
Q 959 1441 959 1056 
Q 959 750 1161 570 
Q 1363 391 1709 391 
Q 2188 391 2477 730 
Q 2766 1069 2766 1631 
L 2766 1759 
L 2194 1759 
z
M 3341 1997 
L 3341 0 
L 2766 0 
L 2766 531 
Q 2569 213 2275 61 
Q 1981 -91 1556 -91 
Q 1019 -91 701 211 
Q 384 513 384 1019 
Q 384 1609 779 1909 
Q 1175 2209 1959 2209 
L 2766 2209 
L 2766 2266 
Q 2766 2663 2505 2880 
Q 2244 3097 1772 3097 
Q 1472 3097 1187 3025 
Q 903 2953 641 2809 
L 641 3341 
Q 956 3463 1253 3523 
Q 1550 3584 1831 3584 
Q 2591 3584 2966 3190 
Q 3341 2797 3341 1997 
z
" transform="scale(0.015625)"/>
       <path id="DejaVuSans-6e" d="M 3513 2113 
L 3513 0 
L 2938 0 
L 2938 2094 
Q 2938 2591 2744 2837 
Q 2550 3084 2163 3084 
Q 1697 3084 1428 2787 
Q 1159 2491 1159 1978 
L 1159 0 
L 581 0 
L 581 3500 
L 1159 3500 
L 1159 2956 
Q 1366 3272 1645 3428 
Q 1925 3584 2291 3584 
Q 2894 3584 3203 3211 
Q 3513 2838 3513 2113 
z
" transform="scale(0.015625)"/>
       <path id="DejaVuSans-65" d="M 3597 1894 
L 3597 1613 
L 953 1613 
Q 991 1019 1311 708 
Q 1631 397 2203 397 
Q 2534 397 2845 478 
Q 3156 559 3463 722 
L 3463 178 
Q 3153 47 2828 -22 
Q 2503 -91 2169 -91 
Q 1331 -91 842 396 
Q 353 884 353 1716 
Q 353 2575 817 3079 
Q 1281 3584 2069 3584 
Q 2775 3584 3186 3129 
Q 3597 2675 3597 1894 
z
M 3022 2063 
Q 3016 2534 2758 2815 
Q 2500 3097 2075 3097 
Q 1594 3097 1305 2825 
Q 1016 2553 972 2059 
L 3022 2063 
z
" transform="scale(0.015625)"/>
       <path id="DejaVuSans-29" d="M 513 4856 
L 1013 4856 
Q 1481 4119 1714 3412 
Q 1947 2706 1947 2009 
Q 1947 1309 1714 600 
Q 1481 -109 1013 -844 
L 513 -844 
Q 928 -128 1133 580 
Q 1338 1288 1338 2009 
Q 1338 2731 1133 3434 
Q 928 4138 513 4856 
z
" transform="scale(0.015625)"/>
      </defs>
      <use xlink:href="#DejaVuSans-Oblique-45" transform="translate(0 0.015625)"/>
      <use xlink:href="#DejaVuSans-Oblique-3b8" transform="translate(63.183594 -16.390625) scale(0.7)"/>
      <use xlink:href="#DejaVuSans-20" transform="translate(108.745117 0.015625)"/>
      <use xlink:href="#DejaVuSans-28" transform="translate(140.532227 0.015625)"/>
      <use xlink:href="#DejaVuSans-Oblique-45" transform="translate(179.545898 0.015625)"/>
      <use xlink:href="#DejaVuSans-2d" transform="translate(242.729492 0.015625)"/>
      <use xlink:href="#DejaVuSans-70" transform="translate(278.813477 0.015625)"/>
      <use xlink:href="#DejaVuSans-6c" transform="translate(342.290039 0.015625)"/>
      <use xlink:href="#DejaVuSans-61" transform="translate(370.073242 0.015625)"/>
      <use xlink:href="#DejaVuSans-6e" transform="translate(431.352539 0.015625)"/>
      <use xlink:href="#DejaVuSans-65" transform="translate(494.731445 0.015625)"/>
      <use xlink:href="#DejaVuSans-29" transform="translate(556.254883 0.015625)"/>
     </g>
    </g>
    <g id="line2d_17">
     <path d="M 288.36 67.92 
L 300.36 67.92 
L 312.36 67.92 
" style="fill: none; stroke: #ff7f0e; stroke-width: 2; stroke-linecap: square"/>
    </g>
    <g id="text_15">
     <!-- $E_\phi$ ($H$-plane) -->
     <g transform="translate(321.96 72.12) scale(0.12 -0.12)">
      <defs>
       <path id="DejaVuSans-Oblique-3d5" d="M 2991 4863 
L 2738 3572 
Q 3363 3572 3684 3094 
Q 4016 2606 3850 1747 
Q 3681 888 3159 400 
Q 2653 -78 2028 -78 
L 1784 -1331 
L 1213 -1331 
L 1456 -78 
Q 834 -78 509 400 
Q 178 888 347 1747 
Q 513 2606 1034 3094 
Q 1544 3572 2166 3572 
L 2419 4863 
L 2991 4863 
z
M 2128 434 
Q 2481 434 2784 756 
Q 3116 1116 3244 1747 
Q 3369 2372 3169 2738 
Q 2991 3059 2638 3059 
L 2128 434 
z
M 1556 434 
L 2066 3059 
Q 1716 3059 1413 2738 
Q 1072 2372 953 1747 
Q 834 1116 1028 756 
Q 1203 434 1556 434 
z
" transform="scale(0.015625)"/>
       <path id="DejaVuSans-Oblique-48" d="M 1081 4666 
L 1716 4666 
L 1344 2753 
L 3634 2753 
L 4006 4666 
L 4641 4666 
L 3731 0 
L 3097 0 
L 3531 2222 
L 1241 2222 
L 806 0 
L 172 0 
L 1081 4666 
z
" transform="scale(0.015625)"/>
      </defs>
      <use xlink:href="#DejaVuSans-Oblique-45" transform="translate(0 0.015625)"/>
      <use xlink:href="#DejaVuSans-Oblique-3d5" transform="translate(63.183594 -16.390625) scale(0.7)"/>
      <use xlink:href="#DejaVuSans-20" transform="translate(112.094727 0.015625)"/>
      <use xlink:href="#DejaVuSans-28" transform="translate(143.881836 0.015625)"/>
      <use xlink:href="#DejaVuSans-Oblique-48" transform="translate(182.895508 0.015625)"/>
      <use xlink:href="#DejaVuSans-2d" transform="translate(258.09082 0.015625)"/>
      <use xlink:href="#DejaVuSans-70" transform="translate(294.174805 0.015625)"/>
      <use xlink:href="#DejaVuSans-6c" transform="translate(357.651367 0.015625)"/>
      <use xlink:href="#DejaVuSans-61" transform="translate(385.43457 0.015625)"/>
      <use xlink:href="#DejaVuSans-6e" transform="translate(446.713867 0.015625)"/>
      <use xlink:href="#DejaVuSans-65" transform="translate(510.092773 0.015625)"/>
      <use xlink:href="#DejaVuSans-29" transform="translate(571.616211 0.015625)"/>
     </g>
    </g>
   </g>
  </g>
 </g>
 <defs>
  <clipPath id="p2a45d4e40d">
   <path d="M 406.08 145.44 
C 406.08 130.879372 403.211874 116.460327 397.639763 103.008061 
C 392.067651 89.555795 383.899919 77.331919 373.604 67.036 
C 363.308081 56.740081 351.084205 48.572349 337.631939 43.000237 
C 324.179673 37.428126 309.760628 34.56 295.2 34.56 
C 280.639372 34.56 266.220327 37.428126 252.768061 43.000237 
C 239.315795 48.572349 227.091919 56.740081 216.796 67.036 
C 206.500081 77.331919 198.332349 89.555795 192.760237 103.008061 
C 187.188126 116.460327 184.32 130.879372 184.32 145.44 
C 184.32 160.000628 187.188126 174.419673 192.760237 187.871939 
C 198.332349 201.324205 206.500081 213.548081 216.796 223.844 
C 227.091919 234.139919 239.315795 242.307651 252.768061 247.879763 
C 266.220327 253.451874 280.639372 256.32 295.2 256.32 
C 309.760628 256.32 324.179673 253.451874 337.631939 247.879763 
C 351.084205 242.307651 363.308081 234.139919 373.604 223.844 
C 383.899919 213.548081 392.067651 201.324205 397.639763 187.871939 
C 403.211874 174.419673 406.08 160.000628 406.08 145.44 
M 295.2 145.44 
C 295.2 145.44 295.2 145.44 295.2 145.44 
C 295.2 145.44 295.2 145.44 295.2 145.44 
C 295.2 145.44 295.2 145.44 295.2 145.44 
C 295.2 145.44 295.2 145.44 295.2 145.44 
C 295.2 145.44 295.2 145.44 295.2 145.44 
C 295.2 145.44 295.2 145.44 295.2 145.44 
C 295.2 145.44 295.2 145.44 295.2 145.44 
C 295.2 145.44 295.2 145.44 295.2 145.44 
C 295.2 145.44 295.2 145.44 295.2 145.44 
C 295.2 145.44 295.2 145.44 295.2 145.44 
C 295.2 145.44 295.2 145.44 295.2 145.44 
C 295.2 145.44 295.2 145.44 295.2 145.44 
C 295.2 145.44 295.2 145.44 295.2 145.44 
C 295.2 145.44 295.2 145.44 295.2 145.44 
C 295.2 145.44 295.2 145.44 295.2 145.44 
C 295.2 145.44 295.2 145.44 295.2 145.44 
z
"/>
  </clipPath>
 </defs>
</svg>
