<?xml version="1.0" encoding="utf-8" standalone="no"?>
<!DOCTYPE svg PUBLIC "-//W3C//DTD SVG 1.1//EN"
  "http://www.w3.org/Graphics/SVG/1.1/DTD/svg11.dtd">
<svg xmlns:xlink="http://www.w3.org/1999/xlink" width="576pt" height="288pt" viewBox="0 0 576 288" xmlns="http://www.w3.org/2000/svg" version="1.1">
 <metadata>
  <rdf:RDF xmlns:dc="http://purl.org/dc/elements/1.1/" xmlns:cc="http://creativecommons.org/ns#" xmlns:rdf="http://www.w3.org/1999/02/22-rdf-syntax-ns#">
   <cc:Work>
    <dc:type rdf:resource="http://purl.org/dc/dcmitype/StillImage"/>
    <dc:date>2024-03-03T16:52:24.489372</dc:date>
    <dc:format>image/svg+xml</dc:format>
    <dc:creator>
     <cc:Agent>
      <dc:title>Matplotlib v3.7.2, https://matplotlib.org/</dc:title>
     </cc:Agent>
    </dc:creator>
   </cc:Work>
  </rdf:RDF>
 </metadata>
 <defs>
  <style type="text/css">*{stroke-linejoin: round; stroke-linecap: butt}</style>
 </defs>
 <g id="figure_1">
  <g id="patch_1">
   <path d="M 0 288 
L 576 288 
L 576 0 
L 0 0 
z
" style="fill: #ffffff"/>
  </g>
  <g id="axes_1">
   <g id="patch_2">
    <path d="M 406.08 145.44 
C 406.08 130.879372 403.211874 116.460327 397.639763 103.008061 
C 392.067651 89.555795 383.899919 77.331919 373.604 67.036 
C 363.308081 56.740081 351.084205 48.572349 337.631939 43.000237 
C 324.179673 37.428126 309.760628 34.56 295.2 34.56 
C 280.639372 34.56 266.220327 37.428126 252.768061 43.000237 
C 239.315795 48.572349 227.091919 56.740081 216.796 67.036 
C 206.500081 77.331919 198.332349 89.555795 192.760237 103.008061 
C 187.188126 116.460327 184.32 130.879372 184.32 145.44 
C 184.32 160.000628 187.188126 174.419673 192.760237 187.871939 
C 198.332349 201.324205 206.500081 213.548081 216.796 223.844 
C 227.091919 234.139919 239.315795 242.307651 252.768061 247.879763 
C 266.220327 253.451874 280.639372 256.32 295.2 256.32 
C 309.760628 256.32 324.179673 253.451874 337.631939 247.879763 
C 351.084205 242.307651 363.308081 234.139919 373.604 223.844 
C 383.899919 213.548081 392.067651 201.324205 397.639763 187.871939 
C 403.211874 174.419673 406.08 160.000628 406.08 145.44 
M 295.2 145.44 
C 295.2 145.44 295.2 145.44 295.2 145.44 
C 295.2 145.44 295.2 145.44 295.2 145.44 
C 295.2 145.44 295.2 145.44 295.2 145.44 
C 295.2 145.44 295.2 145.44 295.2 145.44 
C 295.2 145.44 295.2 145.44 295.2 145.44 
C 295.2 145.44 295.2 145.44 295.2 145.44 
C 295.2 145.44 295.2 145.44 295.2 145.44 
C 295.2 145.44 295.2 145.44 295.2 145.44 
C 295.2 145.44 295.2 145.44 295.2 145.44 
C 295.2 145.44 295.2 145.44 295.2 145.44 
C 295.2 145.44 295.2 145.44 295.2 145.44 
C 295.2 145.44 295.2 145.44 295.2 145.44 
C 295.2 145.44 295.2 145.44 295.2 145.44 
C 295.2 145.44 295.2 145.44 295.2 145.44 
C 295.2 145.44 295.2 145.44 295.2 145.44 
C 295.2 145.44 295.2 145.44 295.2 145.44 
z
" style="fill: #ffffff"/>
   </g>
   <g id="matplotlib.axis_1">
    <g id="xtick_1">
     <g id="line2d_1">
      <path d="M 295.2 145.44 
L 295.2 34.56 
" clip-path="url(#p20df5e5e2c)" style="fill: none; stroke-dasharray: 2.96,1.28; stroke-dashoffset: 0; stroke: #b0b0b0; stroke-width: 0.8"/>
     </g>
     <g id="text_1">
      <!-- 0° -->
      <g transform="translate(288.3825 23.87125) scale(0.12 -0.12)">
       <defs>
        <path id="DejaVuSans-30" d="M 2034 4250 
Q 1547 4250 1301 3770 
Q 1056 3291 1056 2328 
Q 1056 1369 1301 889 
Q 1547 409 2034 409 
Q 2525 409 2770 889 
Q 3016 1369 3016 2328 
Q 3016 3291 2770 3770 
Q 2525 4250 2034 4250 
z
M 2034 4750 
Q 2819 4750 3233 4129 
Q 3647 3509 3647 2328 
Q 3647 1150 3233 529 
Q 2819 -91 2034 -91 
Q 1250 -91 836 529 
Q 422 1150 422 2328 
Q 422 3509 836 4129 
Q 1250 4750 2034 4750 
z
" transform="scale(0.015625)"/>
        <path id="DejaVuSans-b0" d="M 1600 4347 
Q 1350 4347 1178 4173 
Q 1006 4000 1006 3750 
Q 1006 3503 1178 3333 
Q 1350 3163 1600 3163 
Q 1850 3163 2022 3333 
Q 2194 3503 2194 3750 
Q 2194 3997 2020 4172 
Q 1847 4347 1600 4347 
z
M 1600 4750 
Q 1800 4750 1984 4673 
Q 2169 4597 2303 4453 
Q 2447 4313 2519 4134 
Q 2591 3956 2591 3750 
Q 2591 3338 2302 3052 
Q 2013 2766 1594 2766 
Q 1172 2766 890 3047 
Q 609 3328 609 3750 
Q 609 4169 896 4459 
Q 1184 4750 1600 4750 
z
" transform="scale(0.015625)"/>
       </defs>
       <use xlink:href="#DejaVuSans-30"/>
       <use xlink:href="#DejaVuSans-b0" x="63.623047"/>
      </g>
     </g>
    </g>
    <g id="xtick_2">
     <g id="line2d_2">
      <path d="M 295.2 145.44 
L 216.796 67.036 
" clip-path="url(#p20df5e5e2c)" style="fill: none; stroke-dasharray: 2.96,1.28; stroke-dashoffset: 0; stroke: #b0b0b0; stroke-width: 0.8"/>
     </g>
     <g id="text_2">
      <!-- 45° -->
      <g transform="translate(196.261505 60.447755) scale(0.12 -0.12)">
       <defs>
        <path id="DejaVuSans-34" d="M 2419 4116 
L 825 1625 
L 2419 1625 
L 2419 4116 
z
M 2253 4666 
L 3047 4666 
L 3047 1625 
L 3713 1625 
L 3713 1100 
L 3047 1100 
L 3047 0 
L 2419 0 
L 2419 1100 
L 313 1100 
L 313 1709 
L 2253 4666 
z
" transform="scale(0.015625)"/>
        <path id="DejaVuSans-35" d="M 691 4666 
L 3169 4666 
L 3169 4134 
L 1269 4134 
L 1269 2991 
Q 1406 3038 1543 3061 
Q 1681 3084 1819 3084 
Q 2600 3084 3056 2656 
Q 3513 2228 3513 1497 
Q 3513 744 3044 326 
Q 2575 -91 1722 -91 
Q 1428 -91 1123 -41 
Q 819 9 494 109 
L 494 744 
Q 775 591 1075 516 
Q 1375 441 1709 441 
Q 2250 441 2565 725 
Q 2881 1009 2881 1497 
Q 2881 1984 2565 2268 
Q 2250 2553 1709 2553 
Q 1456 2553 1204 2497 
Q 953 2441 691 2322 
L 691 4666 
z
" transform="scale(0.015625)"/>
       </defs>
       <use xlink:href="#DejaVuSans-34"/>
       <use xlink:href="#DejaVuSans-35" x="63.623047"/>
       <use xlink:href="#DejaVuSans-b0" x="127.246094"/>
      </g>
     </g>
    </g>
    <g id="xtick_3">
     <g id="line2d_3">
      <path d="M 295.2 145.44 
L 184.32 145.44 
" clip-path="url(#p20df5e5e2c)" style="fill: none; stroke-dasharray: 2.96,1.28; stroke-dashoffset: 0; stroke: #b0b0b0; stroke-width: 0.8"/>
     </g>
     <g id="text_3">
      <!-- 90° -->
      <g transform="translate(159.685 148.75125) scale(0.12 -0.12)">
       <defs>
        <path id="DejaVuSans-39" d="M 703 97 
L 703 672 
Q 941 559 1184 500 
Q 1428 441 1663 441 
Q 2288 441 2617 861 
Q 2947 1281 2994 2138 
Q 2813 1869 2534 1725 
Q 2256 1581 1919 1581 
Q 1219 1581 811 2004 
Q 403 2428 403 3163 
Q 403 3881 828 4315 
Q 1253 4750 1959 4750 
Q 2769 4750 3195 4129 
Q 3622 3509 3622 2328 
Q 3622 1225 3098 567 
Q 2575 -91 1691 -91 
Q 1453 -91 1209 -44 
Q 966 3 703 97 
z
M 1959 2075 
Q 2384 2075 2632 2365 
Q 2881 2656 2881 3163 
Q 2881 3666 2632 3958 
Q 2384 4250 1959 4250 
Q 1534 4250 1286 3958 
Q 1038 3666 1038 3163 
Q 1038 2656 1286 2365 
Q 1534 2075 1959 2075 
z
" transform="scale(0.015625)"/>
       </defs>
       <use xlink:href="#DejaVuSans-39"/>
       <use xlink:href="#DejaVuSans-30" x="63.623047"/>
       <use xlink:href="#DejaVuSans-b0" x="127.246094"/>
      </g>
     </g>
    </g>
    <g id="xtick_4">
     <g id="line2d_4">
      <path d="M 295.2 145.44 
L 216.796 223.844 
" clip-path="url(#p20df5e5e2c)" style="fill: none; stroke-dasharray: 2.96,1.28; stroke-dashoffset: 0; stroke: #b0b0b0; stroke-width: 0.8"/>
     </g>
     <g id="text_4">
      <!-- 135° -->
      <g transform="translate(192.444005 237.054745) scale(0.12 -0.12)">
       <defs>
        <path id="DejaVuSans-31" d="M 794 531 
L 1825 531 
L 1825 4091 
L 703 3866 
L 703 4441 
L 1819 4666 
L 2450 4666 
L 2450 531 
L 3481 531 
L 3481 0 
L 794 0 
L 794 531 
z
" transform="scale(0.015625)"/>
        <path id="DejaVuSans-33" d="M 2597 2516 
Q 3050 2419 3304 2112 
Q 3559 1806 3559 1356 
Q 3559 666 3084 287 
Q 2609 -91 1734 -91 
Q 1441 -91 1130 -33 
Q 819 25 488 141 
L 488 750 
Q 750 597 1062 519 
Q 1375 441 1716 441 
Q 2309 441 2620 675 
Q 2931 909 2931 1356 
Q 2931 1769 2642 2001 
Q 2353 2234 1838 2234 
L 1294 2234 
L 1294 2753 
L 1863 2753 
Q 2328 2753 2575 2939 
Q 2822 3125 2822 3475 
Q 2822 3834 2567 4026 
Q 2313 4219 1838 4219 
Q 1578 4219 1281 4162 
Q 984 4106 628 3988 
L 628 4550 
Q 988 4650 1302 4700 
Q 1616 4750 1894 4750 
Q 2613 4750 3031 4423 
Q 3450 4097 3450 3541 
Q 3450 3153 3228 2886 
Q 3006 2619 2597 2516 
z
" transform="scale(0.015625)"/>
       </defs>
       <use xlink:href="#DejaVuSans-31"/>
       <use xlink:href="#DejaVuSans-33" x="63.623047"/>
       <use xlink:href="#DejaVuSans-35" x="127.246094"/>
       <use xlink:href="#DejaVuSans-b0" x="190.869141"/>
      </g>
     </g>
    </g>
    <g id="xtick_5">
     <g id="line2d_5">
      <path d="M 295.2 145.44 
L 295.2 256.32 
" clip-path="url(#p20df5e5e2c)" style="fill: none; stroke-dasharray: 2.96,1.28; stroke-dashoffset: 0; stroke: #b0b0b0; stroke-width: 0.8"/>
     </g>
     <g id="text_5">
      <!-- 180° -->
      <g transform="translate(280.7475 273.63125) scale(0.12 -0.12)">
       <defs>
        <path id="DejaVuSans-38" d="M 2034 2216 
Q 1584 2216 1326 1975 
Q 1069 1734 1069 1313 
Q 1069 891 1326 650 
Q 1584 409 2034 409 
Q 2484 409 2743 651 
Q 3003 894 3003 1313 
Q 3003 1734 2745 1975 
Q 2488 2216 2034 2216 
z
M 1403 2484 
Q 997 2584 770 2862 
Q 544 3141 544 3541 
Q 544 4100 942 4425 
Q 1341 4750 2034 4750 
Q 2731 4750 3128 4425 
Q 3525 4100 3525 3541 
Q 3525 3141 3298 2862 
Q 3072 2584 2669 2484 
Q 3125 2378 3379 2068 
Q 3634 1759 3634 1313 
Q 3634 634 3220 271 
Q 2806 -91 2034 -91 
Q 1263 -91 848 271 
Q 434 634 434 1313 
Q 434 1759 690 2068 
Q 947 2378 1403 2484 
z
M 1172 3481 
Q 1172 3119 1398 2916 
Q 1625 2713 2034 2713 
Q 2441 2713 2670 2916 
Q 2900 3119 2900 3481 
Q 2900 3844 2670 4047 
Q 2441 4250 2034 4250 
Q 1625 4250 1398 4047 
Q 1172 3844 1172 3481 
z
" transform="scale(0.015625)"/>
       </defs>
       <use xlink:href="#DejaVuSans-31"/>
       <use xlink:href="#DejaVuSans-38" x="63.623047"/>
       <use xlink:href="#DejaVuSans-30" x="127.246094"/>
       <use xlink:href="#DejaVuSans-b0" x="190.869141"/>
      </g>
     </g>
    </g>
    <g id="xtick_6">
     <g id="line2d_6">
      <path d="M 295.2 145.44 
L 373.604 223.844 
" clip-path="url(#p20df5e5e2c)" style="fill: none; stroke-dasharray: 2.96,1.28; stroke-dashoffset: 0; stroke: #b0b0b0; stroke-width: 0.8"/>
     </g>
     <g id="text_6">
      <!-- 225° -->
      <g transform="translate(369.050995 237.054745) scale(0.12 -0.12)">
       <defs>
        <path id="DejaVuSans-32" d="M 1228 531 
L 3431 531 
L 3431 0 
L 469 0 
L 469 531 
Q 828 903 1448 1529 
Q 2069 2156 2228 2338 
Q 2531 2678 2651 2914 
Q 2772 3150 2772 3378 
Q 2772 3750 2511 3984 
Q 2250 4219 1831 4219 
Q 1534 4219 1204 4116 
Q 875 4013 500 3803 
L 500 4441 
Q 881 4594 1212 4672 
Q 1544 4750 1819 4750 
Q 2544 4750 2975 4387 
Q 3406 4025 3406 3419 
Q 3406 3131 3298 2873 
Q 3191 2616 2906 2266 
Q 2828 2175 2409 1742 
Q 1991 1309 1228 531 
z
" transform="scale(0.015625)"/>
       </defs>
       <use xlink:href="#DejaVuSans-32"/>
       <use xlink:href="#DejaVuSans-32" x="63.623047"/>
       <use xlink:href="#DejaVuSans-35" x="127.246094"/>
       <use xlink:href="#DejaVuSans-b0" x="190.869141"/>
      </g>
     </g>
    </g>
    <g id="xtick_7">
     <g id="line2d_7">
      <path d="M 295.2 145.44 
L 406.08 145.44 
" clip-path="url(#p20df5e5e2c)" style="fill: none; stroke-dasharray: 2.96,1.28; stroke-dashoffset: 0; stroke: #b0b0b0; stroke-width: 0.8"/>
     </g>
     <g id="text_7">
      <!-- 270° -->
      <g transform="translate(405.6275 148.75125) scale(0.12 -0.12)">
       <defs>
        <path id="DejaVuSans-37" d="M 525 4666 
L 3525 4666 
L 3525 4397 
L 1831 0 
L 1172 0 
L 2766 4134 
L 525 4134 
L 525 4666 
z
" transform="scale(0.015625)"/>
       </defs>
       <use xlink:href="#DejaVuSans-32"/>
       <use xlink:href="#DejaVuSans-37" x="63.623047"/>
       <use xlink:href="#DejaVuSans-30" x="127.246094"/>
       <use xlink:href="#DejaVuSans-b0" x="190.869141"/>
      </g>
     </g>
    </g>
    <g id="xtick_8">
     <g id="line2d_8">
      <path d="M 295.2 145.44 
L 373.604 67.036 
" clip-path="url(#p20df5e5e2c)" style="fill: none; stroke-dasharray: 2.96,1.28; stroke-dashoffset: 0; stroke: #b0b0b0; stroke-width: 0.8"/>
     </g>
     <g id="text_8">
      <!-- 315° -->
      <g transform="translate(369.050995 60.447755) scale(0.12 -0.12)">
       <use xlink:href="#DejaVuSans-33"/>
       <use xlink:href="#DejaVuSans-31" x="63.623047"/>
       <use xlink:href="#DejaVuSans-35" x="127.246094"/>
       <use xlink:href="#DejaVuSans-b0" x="190.869141"/>
      </g>
     </g>
    </g>
   </g>
   <g id="matplotlib.axis_2">
    <g id="ytick_1">
     <g id="line2d_9">
      <path d="M 295.2 123.264 
C 292.287874 123.264 289.404065 123.837625 286.713612 124.952047 
C 284.023159 126.06647 281.578384 127.700016 279.5192 129.7592 
C 277.460016 131.818384 275.82647 134.263159 274.712047 136.953612 
C 273.597625 139.644065 273.024 142.527874 273.024 145.44 
C 273.024 148.352126 273.597625 151.235935 274.712047 153.926388 
C 275.82647 156.616841 277.460016 159.061616 279.5192 161.1208 
C 281.578384 163.179984 284.023159 164.81353 286.713612 165.927953 
C 289.404065 167.042375 292.287874 167.616 295.2 167.616 
C 298.112126 167.616 300.995935 167.042375 303.686388 165.927953 
C 306.376841 164.81353 308.821616 163.179984 310.8808 161.1208 
C 312.939984 159.061616 314.57353 156.616841 315.687953 153.926388 
C 316.802375 151.235935 317.376 148.352126 317.376 145.44 
C 317.376 142.527874 316.802375 139.644065 315.687953 136.953612 
C 314.57353 134.263159 312.939984 131.818384 310.8808 129.7592 
C 308.821616 127.700016 306.376841 126.06647 303.686388 124.952047 
C 300.995935 123.837625 298.112126 123.264 295.2 123.264 
" clip-path="url(#p20df5e5e2c)" style="fill: none; stroke-dasharray: 2.96,1.28; stroke-dashoffset: 0; stroke: #b0b0b0; stroke-width: 0.8"/>
     </g>
     <g id="text_9">
      <!-- −20 -->
      <g transform="translate(286.713612 122.456422) scale(0.12 -0.12)">
       <defs>
        <path id="DejaVuSans-2212" d="M 678 2272 
L 4684 2272 
L 4684 1741 
L 678 1741 
L 678 2272 
z
" transform="scale(0.015625)"/>
       </defs>
       <use xlink:href="#DejaVuSans-2212"/>
       <use xlink:href="#DejaVuSans-32" x="83.789062"/>
       <use xlink:href="#DejaVuSans-30" x="147.412109"/>
      </g>
     </g>
    </g>
    <g id="ytick_2">
     <g id="line2d_10">
      <path d="M 295.2 101.088 
C 289.375749 101.088 283.608131 102.235251 278.227224 104.464095 
C 272.846318 106.692939 267.956768 109.960032 263.8384 114.0784 
C 259.720032 118.196768 256.452939 123.086318 254.224095 128.467224 
C 251.995251 133.848131 250.848 139.615749 250.848 145.44 
C 250.848 151.264251 251.995251 157.031869 254.224095 162.412776 
C 256.452939 167.793682 259.720032 172.683232 263.8384 176.8016 
C 267.956768 180.919968 272.846318 184.187061 278.227224 186.415905 
C 283.608131 188.644749 289.375749 189.792 295.2 189.792 
C 301.024251 189.792 306.791869 188.644749 312.172776 186.415905 
C 317.553682 184.187061 322.443232 180.919968 326.5616 176.8016 
C 330.679968 172.683232 333.947061 167.793682 336.175905 162.412776 
C 338.404749 157.031869 339.552 151.264251 339.552 145.44 
C 339.552 139.615749 338.404749 133.848131 336.175905 128.467224 
C 333.947061 123.086318 330.679968 118.196768 326.5616 114.0784 
C 322.443232 109.960032 317.553682 106.692939 312.172776 104.464095 
C 306.791869 102.235251 301.024251 101.088 295.2 101.088 
" clip-path="url(#p20df5e5e2c)" style="fill: none; stroke-dasharray: 2.96,1.28; stroke-dashoffset: 0; stroke: #b0b0b0; stroke-width: 0.8"/>
     </g>
     <g id="text_10">
      <!-- −15 -->
      <g transform="translate(278.227224 101.96847) scale(0.12 -0.12)">
       <use xlink:href="#DejaVuSans-2212"/>
       <use xlink:href="#DejaVuSans-31" x="83.789062"/>
       <use xlink:href="#DejaVuSans-35" x="147.412109"/>
      </g>
     </g>
    </g>
    <g id="ytick_3">
     <g id="line2d_11">
      <path d="M 295.2 78.912 
C 286.463623 78.912 277.812196 80.632876 269.740837 83.976142 
C 261.669477 87.319409 254.335151 92.220049 248.1576 98.3976 
C 241.980049 104.575151 237.079409 111.909477 233.736142 119.980837 
C 230.392876 128.052196 228.672 136.703623 228.672 145.44 
C 228.672 154.176377 230.392876 162.827804 233.736142 170.899163 
C 237.079409 178.970523 241.980049 186.304849 248.1576 192.4824 
C 254.335151 198.659951 261.669477 203.560591 269.740837 206.903858 
C 277.812196 210.247124 286.463623 211.968 295.2 211.968 
C 303.936377 211.968 312.587804 210.247124 320.659163 206.903858 
C 328.730523 203.560591 336.064849 198.659951 342.2424 192.4824 
C 348.419951 186.304849 353.320591 178.970523 356.663858 170.899163 
C 360.007124 162.827804 361.728 154.176377 361.728 145.44 
C 361.728 136.703623 360.007124 128.052196 356.663858 119.980837 
C 353.320591 111.909477 348.419951 104.575151 342.2424 98.3976 
C 336.064849 92.220049 328.730523 87.319409 320.659163 83.976142 
C 312.587804 80.632876 303.936377 78.912 295.2 78.912 
" clip-path="url(#p20df5e5e2c)" style="fill: none; stroke-dasharray: 2.96,1.28; stroke-dashoffset: 0; stroke: #b0b0b0; stroke-width: 0.8"/>
     </g>
     <g id="text_11">
      <!-- −10 -->
      <g transform="translate(269.740837 81.480517) scale(0.12 -0.12)">
       <use xlink:href="#DejaVuSans-2212"/>
       <use xlink:href="#DejaVuSans-31" x="83.789062"/>
       <use xlink:href="#DejaVuSans-30" x="147.412109"/>
      </g>
     </g>
    </g>
    <g id="ytick_4">
     <g id="line2d_12">
      <path d="M 295.2 56.736 
C 283.551497 56.736 272.016262 59.030501 261.254449 63.48819 
C 250.492636 67.945879 240.713535 74.480065 232.4768 82.7168 
C 224.240065 90.953535 217.705879 100.732636 213.24819 111.494449 
C 208.790501 122.256262 206.496 133.791497 206.496 145.44 
C 206.496 157.088503 208.790501 168.623738 213.24819 179.385551 
C 217.705879 190.147364 224.240065 199.926465 232.4768 208.1632 
C 240.713535 216.399935 250.492636 222.934121 261.254449 227.39181 
C 272.016262 231.849499 283.551497 234.144 295.2 234.144 
C 306.848503 234.144 318.383738 231.849499 329.145551 227.39181 
C 339.907364 222.934121 349.686465 216.399935 357.9232 208.1632 
C 366.159935 199.926465 372.694121 190.147364 377.15181 179.385551 
C 381.609499 168.623738 383.904 157.088503 383.904 145.44 
C 383.904 133.791497 381.609499 122.256262 377.15181 111.494449 
C 372.694121 100.732636 366.159935 90.953535 357.9232 82.7168 
C 349.686465 74.480065 339.907364 67.945879 329.145551 63.48819 
C 318.383738 59.030501 306.848503 56.736 295.2 56.736 
" clip-path="url(#p20df5e5e2c)" style="fill: none; stroke-dasharray: 2.96,1.28; stroke-dashoffset: 0; stroke: #b0b0b0; stroke-width: 0.8"/>
     </g>
     <g id="text_12">
      <!-- −5 -->
      <g transform="translate(261.254449 60.992565) scale(0.12 -0.12)">
       <use xlink:href="#DejaVuSans-2212"/>
       <use xlink:href="#DejaVuSans-35" x="83.789062"/>
      </g>
     </g>
    </g>
    <g id="ytick_5">
     <g id="line2d_13">
      <path d="M 295.2 34.56 
C 280.639372 34.56 266.220327 37.428126 252.768061 43.000237 
C 239.315795 48.572349 227.091919 56.740081 216.796 67.036 
C 206.500081 77.331919 198.332349 89.555795 192.760237 103.008061 
C 187.188126 116.460327 184.32 130.879372 184.32 145.44 
C 184.32 160.000628 187.188126 174.419673 192.760237 187.871939 
C 198.332349 201.324205 206.500081 213.548081 216.796 223.844 
C 227.091919 234.139919 239.315795 242.307651 252.768061 247.879763 
C 266.220327 253.451874 280.639372 256.32 295.2 256.32 
C 309.760628 256.32 324.179673 253.451874 337.631939 247.879763 
C 351.084205 242.307651 363.308081 234.139919 373.604 223.844 
C 383.899919 213.548081 392.067651 201.324205 397.639763 187.871939 
C 403.211874 174.419673 406.08 160.000628 406.08 145.44 
C 406.08 130.879372 403.211874 116.460327 397.639763 103.008061 
C 392.067651 89.555795 383.899919 77.331919 373.604 67.036 
C 363.308081 56.740081 351.084205 48.572349 337.631939 43.000237 
C 324.179673 37.428126 309.760628 34.56 295.2 34.56 
" clip-path="url(#p20df5e5e2c)" style="fill: none; stroke-dasharray: 2.96,1.28; stroke-dashoffset: 0; stroke: #b0b0b0; stroke-width: 0.8"/>
     </g>
     <g id="text_13">
      <!-- 0 -->
      <g transform="translate(252.768061 40.504612) scale(0.12 -0.12)">
       <use xlink:href="#DejaVuSans-30"/>
      </g>
     </g>
    </g>
   </g>
   <g id="line2d_14">
    <path d="M 295.2 256.32 
L 296.59223 256.224286 
L 297.977665 255.936493 
L 299.349421 255.454649 
L 300.700429 254.775381 
L 302.023334 253.893781 
L 303.31037 252.803212 
L 304.553223 251.495015 
L 305.742848 249.958116 
L 306.869244 248.178476 
L 307.921158 246.138334 
L 308.885682 243.815145 
L 309.747698 241.180061 
L 310.489089 238.195733 
L 311.087572 234.813007 
L 311.514921 230.965809 
L 311.73413 226.56289 
L 311.694659 221.473793 
L 311.323904 215.503424 
L 310.510583 208.341949 
L 309.06851 199.454282 
L 306.643651 187.79327 
L 302.404774 170.833453 
M 299.526326 158.755062 
L 306.843886 179.80088 
L 311.88995 192.728284 
L 315.935143 201.918111 
L 319.417846 208.926758 
L 322.538943 214.490287 
L 325.405773 219.016121 
L 328.081515 222.75388 
L 330.605861 225.867858 
L 333.004922 228.472126 
L 335.296434 230.649261 
L 337.492707 232.461073 
L 339.602392 233.955127 
L 341.631592 235.168886 
L 343.584581 236.132447 
L 345.464293 236.870409 
L 347.272654 237.403189 
L 349.01082 237.747954 
L 350.679344 237.919316 
L 352.278303 237.929846 
L 353.807384 237.79046 
L 355.265954 237.51072 
L 356.653108 237.099067 
L 357.967705 236.563005 
L 359.208393 235.90924 
L 360.373628 235.143803 
L 361.461682 234.272135 
L 362.470647 233.299164 
L 363.398439 232.229365 
L 364.242785 231.066804 
L 365.001218 229.815179 
L 365.671059 228.477843 
L 366.249394 227.057829 
L 366.73305 225.55786 
L 367.118558 223.980357 
L 367.402114 222.327442 
L 367.579521 220.600923 
L 367.646134 218.802287 
L 367.596773 216.932677 
L 367.425632 214.992854 
L 367.126156 212.983157 
L 366.690892 210.903439 
L 366.1113 208.752994 
L 365.377511 206.530447 
L 364.478017 204.233618 
L 363.399266 201.85934 
L 362.125127 199.403209 
L 360.636161 196.85925 
L 358.908634 194.219442 
L 356.913121 191.473062 
L 354.612499 188.605707 
L 351.958982 185.597861 
L 348.889561 182.422654 
L 345.318737 179.042264 
L 341.126302 175.401829 
L 336.135499 171.418458 
L 330.070726 166.959788 
L 322.466269 161.79733 
L 312.436827 155.48819 
L 297.943455 146.993437 
M 300.368416 148.032664 
L 313.362169 154.266911 
L 322.704501 158.382636 
L 330.001977 161.285506 
L 335.986391 163.394939 
L 341.052688 164.941101 
L 345.438178 166.064667 
L 349.296513 166.858325 
L 352.732829 167.386643 
L 355.822192 167.696585 
L 358.620051 167.823504 
L 361.16851 167.794777 
L 363.500284 167.632108 
L 365.641293 167.353048 
L 367.612413 166.972043 
L 369.430703 166.501155 
L 372.662927 165.329099 
L 375.425833 163.902609 
L 377.782868 162.271697 
L 379.781074 160.475725 
L 381.45598 158.546592 
L 382.834677 156.510834 
L 383.937831 154.391075 
L 384.781016 152.207078 
L 385.375601 149.976541 
L 385.729345 147.71573 
L 385.846765 145.44 
L 385.729345 143.16427 
L 385.375601 140.903459 
L 384.781016 138.672922 
L 383.937831 136.488925 
L 382.834677 134.369166 
L 381.45598 132.333408 
L 379.781074 130.404275 
L 377.782868 128.608303 
L 375.425833 126.977391 
L 372.662927 125.550901 
L 371.110274 124.929407 
L 369.430703 124.378845 
L 367.612413 123.907957 
L 365.641293 123.526952 
L 363.500284 123.247892 
L 361.16851 123.085223 
L 358.620051 123.056496 
L 355.822192 123.183415 
L 352.732829 123.493357 
L 349.296513 124.021675 
L 345.438178 124.815333 
L 341.052688 125.938899 
L 335.986391 127.485061 
L 330.001977 129.594494 
L 322.704501 132.497364 
L 313.362169 136.613089 
L 300.368416 142.847336 
M 297.943455 143.886563 
L 312.436827 135.39181 
L 322.466269 129.08267 
L 330.070726 123.920212 
L 336.135499 119.461542 
L 341.126302 115.478171 
L 345.318737 111.837736 
L 348.889561 108.457346 
L 351.958982 105.282139 
L 354.612499 102.274293 
L 356.913121 99.406938 
L 358.908634 96.660558 
L 360.636161 94.02075 
L 362.125127 91.476791 
L 363.399266 89.02066 
L 364.478017 86.646382 
L 365.377511 84.349553 
L 366.1113 82.127006 
L 366.690892 79.976561 
L 367.126156 77.896843 
L 367.425632 75.887146 
L 367.596773 73.947323 
L 367.646134 72.077713 
L 367.579521 70.279077 
L 367.402114 68.552558 
L 367.118558 66.899643 
L 366.73305 65.32214 
L 366.249394 63.822171 
L 365.671059 62.402157 
L 365.001218 61.064821 
L 364.242785 59.813196 
L 363.398439 58.650635 
L 362.470647 57.580836 
L 361.461682 56.607865 
L 360.373628 55.736197 
L 359.208393 54.97076 
L 357.967705 54.316995 
L 356.653108 53.780933 
L 355.265954 53.36928 
L 353.807384 53.08954 
L 352.278303 52.950154 
L 350.679344 52.960684 
L 349.01082 53.132046 
L 347.272654 53.476811 
L 345.464293 54.009591 
L 343.584581 54.747553 
L 341.631592 55.711114 
L 339.602392 56.924873 
L 337.492707 58.418927 
L 335.296434 60.230739 
L 333.004922 62.407874 
L 330.605861 65.012142 
L 328.081515 68.12612 
L 325.405773 71.863879 
L 322.538943 76.389713 
L 319.417846 81.953242 
L 315.935143 88.961889 
L 311.88995 98.151716 
L 306.843886 111.07912 
L 299.526326 132.124938 
M 302.404774 120.046547 
L 306.643651 103.08673 
L 309.06851 91.425718 
L 310.510583 82.538051 
L 311.323904 75.376576 
L 311.694659 69.406207 
L 311.73413 64.31711 
L 311.514921 59.914191 
L 311.087572 56.066993 
L 310.489089 52.684267 
L 309.747698 49.699939 
L 308.885682 47.064855 
L 307.921158 44.741666 
L 306.869244 42.701524 
L 305.742848 40.921884 
L 304.553223 39.384985 
L 303.31037 38.076788 
L 302.023334 36.986219 
L 300.700429 36.104619 
L 299.349421 35.425351 
L 297.977665 34.943507 
L 296.59223 34.655714 
L 295.2 34.56 
L 293.80777 34.655714 
L 292.422335 34.943507 
L 291.050579 35.425351 
L 289.699571 36.104619 
L 288.376666 36.986219 
L 287.08963 38.076788 
L 285.846777 39.384985 
L 284.657152 40.921884 
L 283.530756 42.701524 
L 282.478842 44.741666 
L 281.514318 47.064855 
L 280.652302 49.699939 
L 279.910911 52.684267 
L 279.312428 56.066993 
L 278.885079 59.914191 
L 278.66587 64.31711 
L 278.705341 69.406207 
L 279.076096 75.376576 
L 279.889417 82.538051 
L 281.33149 91.425718 
L 283.756349 103.08673 
L 287.995226 120.046547 
M 290.873674 132.124938 
L 283.556114 111.07912 
L 278.51005 98.151716 
L 274.464857 88.961889 
L 270.982154 81.953242 
L 267.861057 76.389713 
L 264.994227 71.863879 
L 262.318485 68.12612 
L 259.794139 65.012142 
L 257.395078 62.407874 
L 255.103566 60.230739 
L 252.907293 58.418927 
L 250.797608 56.924873 
L 248.768408 55.711114 
L 246.815419 54.747553 
L 244.935707 54.009591 
L 243.127346 53.476811 
L 241.38918 53.132046 
L 239.720656 52.960684 
L 238.121697 52.950154 
L 236.592616 53.08954 
L 235.134046 53.36928 
L 233.746892 53.780933 
L 232.432295 54.316995 
L 231.191607 54.97076 
L 230.026372 55.736197 
L 228.938318 56.607865 
L 227.929353 57.580836 
L 227.001561 58.650635 
L 226.157215 59.813196 
L 225.398782 61.064821 
L 224.728941 62.402157 
L 224.150606 63.822171 
L 223.66695 65.32214 
L 223.281442 66.899643 
L 222.997886 68.552558 
L 222.820479 70.279077 
L 222.753866 72.077713 
L 222.803227 73.947323 
L 222.974368 75.887146 
L 223.273844 77.896843 
L 223.709108 79.976561 
L 224.2887 82.127006 
L 225.022489 84.349553 
L 225.921983 86.646382 
L 227.000734 89.02066 
L 228.274873 91.476791 
L 229.763839 94.02075 
L 231.491366 96.660558 
L 233.486879 99.406938 
L 235.787501 102.274293 
L 238.441018 105.282139 
L 241.510439 108.457346 
L 245.081263 111.837736 
L 249.273698 115.478171 
L 254.264501 119.461542 
L 260.329274 123.920212 
L 267.933731 129.08267 
L 277.963173 135.39181 
L 292.456545 143.886563 
M 290.031584 142.847336 
L 277.037831 136.613089 
L 267.695499 132.497364 
L 260.398023 129.594494 
L 254.413609 127.485061 
L 249.347312 125.938899 
L 244.961822 124.815333 
L 241.103487 124.021675 
L 237.667171 123.493357 
L 234.577808 123.183415 
L 231.779949 123.056496 
L 229.23149 123.085223 
L 226.899716 123.247892 
L 224.758707 123.526952 
L 222.787587 123.907957 
L 220.969297 124.378845 
L 217.737073 125.550901 
L 214.974167 126.977391 
L 212.617132 128.608303 
L 210.618926 130.404275 
L 208.94402 132.333408 
L 207.565323 134.369166 
L 206.462169 136.488925 
L 205.618984 138.672922 
L 205.024399 140.903459 
L 204.670655 143.16427 
L 204.553235 145.44 
L 204.670655 147.71573 
L 205.024399 149.976541 
L 205.618984 152.207078 
L 206.462169 154.391075 
L 207.565323 156.510834 
L 208.94402 158.546592 
L 210.618926 160.475725 
L 212.617132 162.271697 
L 214.974167 163.902609 
L 217.737073 165.329099 
L 219.289726 165.950593 
L 220.969297 166.501155 
L 222.787587 166.972043 
L 224.758707 167.353048 
L 226.899716 167.632108 
L 229.23149 167.794777 
L 231.779949 167.823504 
L 234.577808 167.696585 
L 237.667171 167.386643 
L 241.103487 166.858325 
L 244.961822 166.064667 
L 249.347312 164.941101 
L 254.413609 163.394939 
L 260.398023 161.285506 
L 267.695499 158.382636 
L 277.037831 154.266911 
L 290.031584 148.032664 
M 292.456545 146.993437 
L 277.963173 155.48819 
L 267.933731 161.79733 
L 260.329274 166.959788 
L 254.264501 171.418458 
L 249.273698 175.401829 
L 245.081263 179.042264 
L 241.510439 182.422654 
L 238.441018 185.597861 
L 235.787501 188.605707 
L 233.486879 191.473062 
L 231.491366 194.219442 
L 229.763839 196.85925 
L 228.274873 199.403209 
L 227.000734 201.85934 
L 225.921983 204.233618 
L 225.022489 206.530447 
L 224.2887 208.752994 
L 223.709108 210.903439 
L 223.273844 212.983157 
L 222.974368 214.992854 
L 222.803227 216.932677 
L 222.753866 218.802287 
L 222.820479 220.600923 
L 222.997886 222.327442 
L 223.281442 223.980357 
L 223.66695 225.55786 
L 224.150606 227.057829 
L 224.728941 228.477843 
L 225.398782 229.815179 
L 226.157215 231.066804 
L 227.001561 232.229365 
L 227.929353 233.299164 
L 228.938318 234.272135 
L 230.026372 235.143803 
L 231.191607 235.90924 
L 232.432295 236.563005 
L 233.746892 237.099067 
L 235.134046 237.51072 
L 236.592616 237.79046 
L 238.121697 237.929846 
L 239.720656 237.919316 
L 241.38918 237.747954 
L 243.127346 237.403189 
L 244.935707 236.870409 
L 246.815419 236.132447 
L 248.768408 235.168886 
L 250.797608 233.955127 
L 252.907293 232.461073 
L 255.103566 230.649261 
L 257.395078 228.472126 
L 259.794139 225.867858 
L 262.318485 222.75388 
L 264.994227 219.016121 
L 267.861057 214.490287 
L 270.982154 208.926758 
L 274.464857 201.918111 
L 278.51005 192.728284 
L 283.556114 179.80088 
L 290.873674 158.755062 
M 287.995226 170.833453 
L 283.756349 187.79327 
L 281.33149 199.454282 
L 279.889417 208.341949 
L 279.076096 215.503424 
L 278.705341 221.473793 
L 278.66587 226.56289 
L 278.885079 230.965809 
L 279.312428 234.813007 
L 279.910911 238.195733 
L 280.652302 241.180061 
L 281.514318 243.815145 
L 282.478842 246.138334 
L 283.530756 248.178476 
L 284.657152 249.958116 
L 285.846777 251.495015 
L 287.08963 252.803212 
L 288.376666 253.893781 
L 289.699571 254.775381 
L 291.050579 255.454649 
L 292.422335 255.936493 
L 293.80777 256.224286 
L 295.2 256.32 
L 295.2 256.32 
" clip-path="url(#p20df5e5e2c)" style="fill: none; stroke: #1f77b4; stroke-width: 2; stroke-linecap: square"/>
   </g>
   <g id="line2d_15">
    <path d="M 295.2 256.32 
L 296.591827 256.192275 
L 297.974446 255.808446 
L 299.338553 255.166526 
L 300.674658 254.263115 
L 301.97297 253.093274 
L 303.223279 251.650315 
L 304.414805 249.925514 
L 305.536022 247.907717 
L 306.57442 245.582781 
L 307.516207 242.932817 
L 308.345903 239.935121 
L 309.045779 236.560653 
L 309.595058 232.771828 
L 309.968742 228.519207 
L 310.135832 223.736373 
L 310.056476 218.331664 
L 309.677205 212.174134 
L 308.922392 205.068101 
L 307.677625 196.703035 
L 305.753463 186.543024 
L 302.792469 173.539938 
L 297.959845 155.167162 
M 299.368993 157.742617 
L 303.471688 168.876495 
L 306.489052 176.18897 
L 308.853587 181.232696 
L 310.759682 184.739271 
L 312.30743 187.110787 
L 313.551846 188.590458 
L 314.523337 189.33484 
L 315.237327 189.448603 
L 315.699101 189.002808 
L 315.906275 188.045035 
L 315.849893 186.605077 
L 315.514614 184.697919 
L 314.878107 182.324802 
L 313.909585 179.47261 
L 312.567166 176.111376 
L 310.793389 172.189153 
L 308.507541 167.622531 
L 305.591876 162.279025 
L 301.865133 155.942569 
L 297.026196 148.239243 
M 295.6501 145.984078 
L 298.927199 149.831854 
L 303.524924 154.764013 
L 306.295052 157.255031 
L 307.696668 158.0947 
L 307.957213 158.0379 
L 307.946091 157.71441 
L 307.672795 157.152734 
L 306.357494 155.401944 
L 304.013441 152.919632 
L 300.591768 149.787502 
L 295.985919 146.04175 
M 295.985919 144.83825 
L 300.591768 141.092498 
L 304.013441 137.960368 
L 306.357494 135.478056 
L 307.672795 133.727266 
L 307.946091 133.16559 
L 307.957213 132.8421 
L 307.696668 132.7853 
L 307.149777 133.031017 
L 306.295052 133.624969 
L 305.101604 134.62672 
L 303.524924 136.115987 
L 301.49974 138.203189 
L 298.927199 141.048146 
L 295.6501 144.895922 
M 297.026196 142.640757 
L 301.865133 134.937431 
L 305.591876 128.600975 
L 308.507541 123.257469 
L 310.793389 118.690847 
L 312.567166 114.768624 
L 313.909585 111.40739 
L 314.878107 108.555198 
L 315.514614 106.182081 
L 315.849893 104.274923 
L 315.906275 102.834965 
L 315.699101 101.877192 
L 315.237327 101.431397 
L 314.523337 101.54516 
L 313.551846 102.289542 
L 312.30743 103.769213 
L 310.759682 106.140729 
L 308.853587 109.647304 
L 306.489052 114.69103 
L 303.471688 122.003505 
L 299.368993 133.137383 
M 297.959845 135.712838 
L 302.792469 117.340062 
L 305.753463 104.336976 
L 307.677625 94.176965 
L 308.922392 85.811899 
L 309.677205 78.705866 
L 310.056476 72.548336 
L 310.135832 67.143627 
L 309.968742 62.360793 
L 309.595058 58.108172 
L 309.045779 54.319347 
L 308.345903 50.944879 
L 307.516207 47.947183 
L 306.57442 45.297219 
L 305.536022 42.972283 
L 304.414805 40.954486 
L 303.223279 39.229685 
L 301.97297 37.786726 
L 300.674658 36.616885 
L 299.338553 35.713474 
L 297.974446 35.071554 
L 296.591827 34.687725 
M 293.808173 34.687725 
L 292.425554 35.071554 
L 291.061447 35.713474 
L 289.725342 36.616885 
L 288.42703 37.786726 
L 287.176721 39.229685 
L 285.985195 40.954486 
L 284.863978 42.972283 
L 283.82558 45.297219 
L 282.883793 47.947183 
L 282.054097 50.944879 
L 281.354221 54.319347 
L 280.804942 58.108172 
L 280.431258 62.360793 
L 280.264168 67.143627 
L 280.343524 72.548336 
L 280.722795 78.705866 
L 281.477608 85.811899 
L 282.722375 94.176965 
L 284.646537 104.336976 
L 287.607531 117.340062 
L 292.440155 135.712838 
M 291.031007 133.137383 
L 286.928312 122.003505 
L 283.910948 114.69103 
L 281.546413 109.647304 
L 279.640318 106.140729 
L 278.09257 103.769213 
L 276.848154 102.289542 
L 275.876663 101.54516 
L 275.162673 101.431397 
L 274.700899 101.877192 
L 274.493725 102.834965 
L 274.550107 104.274923 
L 274.885386 106.182081 
L 275.521893 108.555198 
L 276.490415 111.40739 
L 277.832834 114.768624 
L 279.606611 118.690847 
L 281.892459 123.257469 
L 284.808124 128.600975 
L 288.534867 134.937431 
L 293.373804 142.640757 
M 294.7499 144.895922 
L 291.472801 141.048146 
L 286.875076 136.115987 
L 284.104948 133.624969 
L 282.703332 132.7853 
L 282.442787 132.8421 
L 282.453909 133.16559 
L 282.727205 133.727266 
L 284.042506 135.478056 
L 286.386559 137.960368 
L 289.808232 141.092498 
L 294.414081 144.83825 
M 294.414081 146.04175 
L 289.808232 149.787502 
L 286.386559 152.919632 
L 284.042506 155.401944 
L 282.727205 157.152734 
L 282.453909 157.71441 
L 282.442787 158.0379 
L 282.703332 158.0947 
L 283.250223 157.848983 
L 284.104948 157.255031 
L 285.298396 156.25328 
L 286.875076 154.764013 
L 288.90026 152.676811 
L 291.472801 149.831854 
L 294.7499 145.984078 
M 293.373804 148.239243 
L 288.534867 155.942569 
L 284.808124 162.279025 
L 281.892459 167.622531 
L 279.606611 172.189153 
L 277.832834 176.111376 
L 276.490415 179.47261 
L 275.521893 182.324802 
L 274.885386 184.697919 
L 274.550107 186.605077 
L 274.493725 188.045035 
L 274.700899 189.002808 
L 275.162673 189.448603 
L 275.876663 189.33484 
L 276.848154 188.590458 
L 278.09257 187.110787 
L 279.640318 184.739271 
L 281.546413 181.232696 
L 283.910948 176.18897 
L 286.928312 168.876495 
L 291.031007 157.742617 
M 292.440155 155.167162 
L 287.607531 173.539938 
L 284.646537 186.543024 
L 282.722375 196.703035 
L 281.477608 205.068101 
L 280.722795 212.174134 
L 280.343524 218.331664 
L 280.264168 223.736373 
L 280.431258 228.519207 
L 280.804942 232.771828 
L 281.354221 236.560653 
L 282.054097 239.935121 
L 282.883793 242.932817 
L 283.82558 245.582781 
L 284.863978 247.907717 
L 285.985195 249.925514 
L 287.176721 251.650315 
L 288.42703 253.093274 
L 289.725342 254.263115 
L 291.061447 255.166526 
L 292.425554 255.808446 
L 293.808173 256.192275 
L 295.2 256.32 
L 295.2 256.32 
" clip-path="url(#p20df5e5e2c)" style="fill: none; stroke: #ff7f0e; stroke-width: 2; stroke-linecap: square"/>
   </g>
   <g id="patch_3">
    <path d="M 295.2 34.56 
C 280.639372 34.56 266.220327 37.428126 252.768061 43.000237 
C 239.315795 48.572349 227.091919 56.740081 216.796 67.036 
C 206.500081 77.331919 198.332349 89.555795 192.760237 103.008061 
C 187.188126 116.460327 184.32 130.879372 184.32 145.44 
C 184.32 160.000628 187.188126 174.419673 192.760237 187.871939 
C 198.332349 201.324205 206.500081 213.548081 216.796 223.844 
C 227.091919 234.139919 239.315795 242.307651 252.768061 247.879763 
C 266.220327 253.451874 280.639372 256.32 295.2 256.32 
C 309.760628 256.32 324.179673 253.451874 337.631939 247.879763 
C 351.084205 242.307651 363.308081 234.139919 373.604 223.844 
C 383.899919 213.548081 392.067651 201.324205 397.639763 187.871939 
C 403.211874 174.419673 406.08 160.000628 406.08 145.44 
C 406.08 130.879372 403.211874 116.460327 397.639763 103.008061 
C 392.067651 89.555795 383.899919 77.331919 373.604 67.036 
C 363.308081 56.740081 351.084205 48.572349 337.631939 43.000237 
C 324.179673 37.428126 309.760628 34.56 295.2 34.56 
" style="fill: none; stroke: #000000; stroke-width: 0.8; stroke-linejoin: miter; stroke-linecap: square"/>
   </g>
   <g id="legend_1">
    <g id="patch_4">
     <path d="M 285.96 80.64 
L 397.68 80.64 
Q 400.08 80.64 400.08 78.24 
L 400.08 42.96 
Q 400.08 40.56 397.68 40.56 
L 285.96 40.56 
Q 283.56 40.56 283.56 42.96 
L 283.56 78.24 
Q 283.56 80.64 285.96 80.64 
z
" style="fill: #ffffff; opacity: 0.8; stroke: #cccccc; stroke-linejoin: miter"/>
    </g>
    <g id="line2d_16">
     <path d="M 288.36 50.28 
L 300.36 50.28 
L 312.36 50.28 
" style="fill: none; stroke: #1f77b4; stroke-width: 2; stroke-linecap: square"/>
    </g>
    <g id="text_14">
     <!-- $E_\theta$ ($E$-plane) -->
     <g transform="translate(321.96 54.48) scale(0.12 -0.12)">
      <defs>
       <path id="DejaVuSans-Oblique-45" d="M 1081 4666 
L 4031 4666 
L 3928 4134 
L 1606 4134 
L 1338 2753 
L 3566 2753 
L 3463 2222 
L 1234 2222 
L 909 531 
L 3284 531 
L 3181 0 
L 172 0 
L 1081 4666 
z
" transform="scale(0.015625)"/>
       <path id="DejaVuSans-Oblique-3b8" d="M 2913 2219 
L 925 2219 
Q 791 1284 928 888 
Q 1100 400 1566 400 
Q 2034 400 2391 891 
Q 2703 1322 2913 2219 
z
M 3009 2750 
Q 3094 3638 2984 3950 
Q 2813 4444 2353 4444 
Q 1875 4444 1525 3956 
Q 1250 3563 1034 2750 
L 3009 2750 
z
M 2444 4913 
Q 3194 4913 3494 4250 
Q 3794 3591 3566 2422 
Q 3341 1256 2781 594 
Q 2225 -72 1475 -72 
Q 722 -72 425 594 
Q 128 1256 353 2422 
Q 581 3591 1134 4250 
Q 1691 4913 2444 4913 
z
" transform="scale(0.015625)"/>
       <path id="DejaVuSans-20" transform="scale(0.015625)"/>
       <path id="DejaVuSans-28" d="M 1984 4856 
Q 1566 4138 1362 3434 
Q 1159 2731 1159 2009 
Q 1159 1288 1364 580 
Q 1569 -128 1984 -844 
L 1484 -844 
Q 1016 -109 783 600 
Q 550 1309 550 2009 
Q 550 2706 781 3412 
Q 1013 4119 1484 4856 
L 1984 4856 
z
" transform="scale(0.015625)"/>
       <path id="DejaVuSans-2d" d="M 313 2009 
L 1997 2009 
L 1997 1497 
L 313 1497 
L 313 2009 
z
" transform="scale(0.015625)"/>
       <path id="DejaVuSans-70" d="M 1159 525 
L 1159 -1331 
L 581 -1331 
L 581 3500 
L 1159 3500 
L 1159 2969 
Q 1341 3281 1617 3432 
Q 1894 3584 2278 3584 
Q 2916 3584 3314 3078 
Q 3713 2572 3713 1747 
Q 3713 922 3314 415 
Q 2916 -91 2278 -91 
Q 1894 -91 1617 61 
Q 1341 213 1159 525 
z
M 3116 1747 
Q 3116 2381 2855 2742 
Q 2594 3103 2138 3103 
Q 1681 3103 1420 2742 
Q 1159 2381 1159 1747 
Q 1159 1113 1420 752 
Q 1681 391 2138 391 
Q 2594 391 2855 752 
Q 3116 1113 3116 1747 
z
" transform="scale(0.015625)"/>
       <path id="DejaVuSans-6c" d="M 603 4863 
L 1178 4863 
L 1178 0 
L 603 0 
L 603 4863 
z
" transform="scale(0.015625)"/>
       <path id="DejaVuSans-61" d="M 2194 1759 
Q 1497 1759 1228 1600 
Q 959 1441 959 1056 
Q 959 750 1161 570 
Q 1363 391 1709 391 
Q 2188 391 2477 730 
Q 2766 1069 2766 1631 
L 2766 1759 
L 2194 1759 
z
M 3341 1997 
L 3341 0 
L 2766 0 
L 2766 531 
Q 2569 213 2275 61 
Q 1981 -91 1556 -91 
Q 1019 -91 701 211 
Q 384 513 384 1019 
Q 384 1609 779 1909 
Q 1175 2209 1959 2209 
L 2766 2209 
L 2766 2266 
Q 2766 2663 2505 2880 
Q 2244 3097 1772 3097 
Q 1472 3097 1187 3025 
Q 903 2953 641 2809 
L 641 3341 
Q 956 3463 1253 3523 
Q 1550 3584 1831 3584 
Q 2591 3584 2966 3190 
Q 3341 2797 3341 1997 
z
" transform="scale(0.015625)"/>
       <path id="DejaVuSans-6e" d="M 3513 2113 
L 3513 0 
L 2938 0 
L 2938 2094 
Q 2938 2591 2744 2837 
Q 2550 3084 2163 3084 
Q 1697 3084 1428 2787 
Q 1159 2491 1159 1978 
L 1159 0 
L 581 0 
L 581 3500 
L 1159 3500 
L 1159 2956 
Q 1366 3272 1645 3428 
Q 1925 3584 2291 3584 
Q 2894 3584 3203 3211 
Q 3513 2838 3513 2113 
z
" transform="scale(0.015625)"/>
       <path id="DejaVuSans-65" d="M 3597 1894 
L 3597 1613 
L 953 1613 
Q 991 1019 1311 708 
Q 1631 397 2203 397 
Q 2534 397 2845 478 
Q 3156 559 3463 722 
L 3463 178 
Q 3153 47 2828 -22 
Q 2503 -91 2169 -91 
Q 1331 -91 842 396 
Q 353 884 353 1716 
Q 353 2575 817 3079 
Q 1281 3584 2069 3584 
Q 2775 3584 3186 3129 
Q 3597 2675 3597 1894 
z
M 3022 2063 
Q 3016 2534 2758 2815 
Q 2500 3097 2075 3097 
Q 1594 3097 1305 2825 
Q 1016 2553 972 2059 
L 3022 2063 
z
" transform="scale(0.015625)"/>
       <path id="DejaVuSans-29" d="M 513 4856 
L 1013 4856 
Q 1481 4119 1714 3412 
Q 1947 2706 1947 2009 
Q 1947 1309 1714 600 
Q 1481 -109 1013 -844 
L 513 -844 
Q 928 -128 1133 580 
Q 1338 1288 1338 2009 
Q 1338 2731 1133 3434 
Q 928 4138 513 4856 
z
" transform="scale(0.015625)"/>
      </defs>
      <use xlink:href="#DejaVuSans-Oblique-45" transform="translate(0 0.015625)"/>
      <use xlink:href="#DejaVuSans-Oblique-3b8" transform="translate(63.183594 -16.390625) scale(0.7)"/>
      <use xlink:href="#DejaVuSans-20" transform="translate(108.745117 0.015625)"/>
      <use xlink:href="#DejaVuSans-28" transform="translate(140.532227 0.015625)"/>
      <use xlink:href="#DejaVuSans-Oblique-45" transform="translate(179.545898 0.015625)"/>
      <use xlink:href="#DejaVuSans-2d" transform="translate(242.729492 0.015625)"/>
      <use xlink:href="#DejaVuSans-70" transform="translate(278.813477 0.015625)"/>
      <use xlink:href="#DejaVuSans-6c" transform="translate(342.290039 0.015625)"/>
      <use xlink:href="#DejaVuSans-61" transform="translate(370.073242 0.015625)"/>
      <use xlink:href="#DejaVuSans-6e" transform="translate(431.352539 0.015625)"/>
      <use xlink:href="#DejaVuSans-65" transform="translate(494.731445 0.015625)"/>
      <use xlink:href="#DejaVuSans-29" transform="translate(556.254883 0.015625)"/>
     </g>
    </g>
    <g id="line2d_17">
     <path d="M 288.36 67.92 
L 300.36 67.92 
L 312.36 67.92 
" style="fill: none; stroke: #ff7f0e; stroke-width: 2; stroke-linecap: square"/>
    </g>
    <g id="text_15">
     <!-- $E_\phi$ ($H$-plane) -->
     <g transform="translate(321.96 72.12) scale(0.12 -0.12)">
      <defs>
       <path id="DejaVuSans-Oblique-3d5" d="M 2991 4863 
L 2738 3572 
Q 3363 3572 3684 3094 
Q 4016 2606 3850 1747 
Q 3681 888 3159 400 
Q 2653 -78 2028 -78 
L 1784 -1331 
L 1213 -1331 
L 1456 -78 
Q 834 -78 509 400 
Q 178 888 347 1747 
Q 513 2606 1034 3094 
Q 1544 3572 2166 3572 
L 2419 4863 
L 2991 4863 
z
M 2128 434 
Q 2481 434 2784 756 
Q 3116 1116 3244 1747 
Q 3369 2372 3169 2738 
Q 2991 3059 2638 3059 
L 2128 434 
z
M 1556 434 
L 2066 3059 
Q 1716 3059 1413 2738 
Q 1072 2372 953 1747 
Q 834 1116 1028 756 
Q 1203 434 1556 434 
z
" transform="scale(0.015625)"/>
       <path id="DejaVuSans-Oblique-48" d="M 1081 4666 
L 1716 4666 
L 1344 2753 
L 3634 2753 
L 4006 4666 
L 4641 4666 
L 3731 0 
L 3097 0 
L 3531 2222 
L 1241 2222 
L 806 0 
L 172 0 
L 1081 4666 
z
" transform="scale(0.015625)"/>
      </defs>
      <use xlink:href="#DejaVuSans-Oblique-45" transform="translate(0 0.015625)"/>
      <use xlink:href="#DejaVuSans-Oblique-3d5" transform="translate(63.183594 -16.390625) scale(0.7)"/>
      <use xlink:href="#DejaVuSans-20" transform="translate(112.094727 0.015625)"/>
      <use xlink:href="#DejaVuSans-28" transform="translate(143.881836 0.015625)"/>
      <use xlink:href="#DejaVuSans-Oblique-48" transform="translate(182.895508 0.015625)"/>
      <use xlink:href="#DejaVuSans-2d" transform="translate(258.09082 0.015625)"/>
      <use xlink:href="#DejaVuSans-70" transform="translate(294.174805 0.015625)"/>
      <use xlink:href="#DejaVuSans-6c" transform="translate(357.651367 0.015625)"/>
      <use xlink:href="#DejaVuSans-61" transform="translate(385.43457 0.015625)"/>
      <use xlink:href="#DejaVuSans-6e" transform="translate(446.713867 0.015625)"/>
      <use xlink:href="#DejaVuSans-65" transform="translate(510.092773 0.015625)"/>
      <use xlink:href="#DejaVuSans-29" transform="translate(571.616211 0.015625)"/>
     </g>
    </g>
   </g>
  </g>
 </g>
 <defs>
  <clipPath id="p20df5e5e2c">
   <path d="M 406.08 145.44 
C 406.08 130.879372 403.211874 116.460327 397.639763 103.008061 
C 392.067651 89.555795 383.899919 77.331919 373.604 67.036 
C 363.308081 56.740081 351.084205 48.572349 337.631939 43.000237 
C 324.179673 37.428126 309.760628 34.56 295.2 34.56 
C 280.639372 34.56 266.220327 37.428126 252.768061 43.000237 
C 239.315795 48.572349 227.091919 56.740081 216.796 67.036 
C 206.500081 77.331919 198.332349 89.555795 192.760237 103.008061 
C 187.188126 116.460327 184.32 130.879372 184.32 145.44 
C 184.32 160.000628 187.188126 174.419673 192.760237 187.871939 
C 198.332349 201.324205 206.500081 213.548081 216.796 223.844 
C 227.091919 234.139919 239.315795 242.307651 252.768061 247.879763 
C 266.220327 253.451874 280.639372 256.32 295.2 256.32 
C 309.760628 256.32 324.179673 253.451874 337.631939 247.879763 
C 351.084205 242.307651 363.308081 234.139919 373.604 223.844 
C 383.899919 213.548081 392.067651 201.324205 397.639763 187.871939 
C 403.211874 174.419673 406.08 160.000628 406.08 145.44 
M 295.2 145.44 
C 295.2 145.44 295.2 145.44 295.2 145.44 
C 295.2 145.44 295.2 145.44 295.2 145.44 
C 295.2 145.44 295.2 145.44 295.2 145.44 
C 295.2 145.44 295.2 145.44 295.2 145.44 
C 295.2 145.44 295.2 145.44 295.2 145.44 
C 295.2 145.44 295.2 145.44 295.2 145.44 
C 295.2 145.44 295.2 145.44 295.2 145.44 
C 295.2 145.44 295.2 145.44 295.2 145.44 
C 295.2 145.44 295.2 145.44 295.2 145.44 
C 295.2 145.44 295.2 145.44 295.2 145.44 
C 295.2 145.44 295.2 145.44 295.2 145.44 
C 295.2 145.44 295.2 145.44 295.2 145.44 
C 295.2 145.44 295.2 145.44 295.2 145.44 
C 295.2 145.44 295.2 145.44 295.2 145.44 
C 295.2 145.44 295.2 145.44 295.2 145.44 
C 295.2 145.44 295.2 145.44 295.2 145.44 
z
"/>
  </clipPath>
 </defs>
</svg>
