<?xml version="1.0" encoding="utf-8" standalone="no"?>
<!DOCTYPE svg PUBLIC "-//W3C//DTD SVG 1.1//EN"
  "http://www.w3.org/Graphics/SVG/1.1/DTD/svg11.dtd">
<svg xmlns:xlink="http://www.w3.org/1999/xlink" width="576pt" height="288pt" viewBox="0 0 576 288" xmlns="http://www.w3.org/2000/svg" version="1.1">
 <metadata>
  <rdf:RDF xmlns:dc="http://purl.org/dc/elements/1.1/" xmlns:cc="http://creativecommons.org/ns#" xmlns:rdf="http://www.w3.org/1999/02/22-rdf-syntax-ns#">
   <cc:Work>
    <dc:type rdf:resource="http://purl.org/dc/dcmitype/StillImage"/>
    <dc:date>2024-03-03T18:39:57.107353</dc:date>
    <dc:format>image/svg+xml</dc:format>
    <dc:creator>
     <cc:Agent>
      <dc:title>Matplotlib v3.7.2, https://matplotlib.org/</dc:title>
     </cc:Agent>
    </dc:creator>
   </cc:Work>
  </rdf:RDF>
 </metadata>
 <defs>
  <style type="text/css">*{stroke-linejoin: round; stroke-linecap: butt}</style>
 </defs>
 <g id="figure_1">
  <g id="patch_1">
   <path d="M 0 288 
L 576 288 
L 576 0 
L 0 0 
z
" style="fill: #ffffff"/>
  </g>
  <g id="axes_1">
   <g id="patch_2">
    <path d="M 406.08 145.44 
C 406.08 130.879372 403.211874 116.460327 397.639763 103.008061 
C 392.067651 89.555795 383.899919 77.331919 373.604 67.036 
C 363.308081 56.740081 351.084205 48.572349 337.631939 43.000237 
C 324.179673 37.428126 309.760628 34.56 295.2 34.56 
C 280.639372 34.56 266.220327 37.428126 252.768061 43.000237 
C 239.315795 48.572349 227.091919 56.740081 216.796 67.036 
C 206.500081 77.331919 198.332349 89.555795 192.760237 103.008061 
C 187.188126 116.460327 184.32 130.879372 184.32 145.44 
C 184.32 160.000628 187.188126 174.419673 192.760237 187.871939 
C 198.332349 201.324205 206.500081 213.548081 216.796 223.844 
C 227.091919 234.139919 239.315795 242.307651 252.768061 247.879763 
C 266.220327 253.451874 280.639372 256.32 295.2 256.32 
C 309.760628 256.32 324.179673 253.451874 337.631939 247.879763 
C 351.084205 242.307651 363.308081 234.139919 373.604 223.844 
C 383.899919 213.548081 392.067651 201.324205 397.639763 187.871939 
C 403.211874 174.419673 406.08 160.000628 406.08 145.44 
M 295.2 145.44 
C 295.2 145.44 295.2 145.44 295.2 145.44 
C 295.2 145.44 295.2 145.44 295.2 145.44 
C 295.2 145.44 295.2 145.44 295.2 145.44 
C 295.2 145.44 295.2 145.44 295.2 145.44 
C 295.2 145.44 295.2 145.44 295.2 145.44 
C 295.2 145.44 295.2 145.44 295.2 145.44 
C 295.2 145.44 295.2 145.44 295.2 145.44 
C 295.2 145.44 295.2 145.44 295.2 145.44 
C 295.2 145.44 295.2 145.44 295.2 145.44 
C 295.2 145.44 295.2 145.44 295.2 145.44 
C 295.2 145.44 295.2 145.44 295.2 145.44 
C 295.2 145.44 295.2 145.44 295.2 145.44 
C 295.2 145.44 295.2 145.44 295.2 145.44 
C 295.2 145.44 295.2 145.44 295.2 145.44 
C 295.2 145.44 295.2 145.44 295.2 145.44 
C 295.2 145.44 295.2 145.44 295.2 145.44 
z
" style="fill: #ffffff"/>
   </g>
   <g id="matplotlib.axis_1">
    <g id="xtick_1">
     <g id="line2d_1">
      <path d="M 295.2 145.44 
L 295.2 34.56 
" clip-path="url(#p08b0be9bb4)" style="fill: none; stroke-dasharray: 2.96,1.28; stroke-dashoffset: 0; stroke: #b0b0b0; stroke-width: 0.8"/>
     </g>
     <g id="text_1">
      <!-- 0° -->
      <g transform="translate(287.24625 24.423125) scale(0.14 -0.14)">
       <defs>
        <path id="DejaVuSans-30" d="M 2034 4250 
Q 1547 4250 1301 3770 
Q 1056 3291 1056 2328 
Q 1056 1369 1301 889 
Q 1547 409 2034 409 
Q 2525 409 2770 889 
Q 3016 1369 3016 2328 
Q 3016 3291 2770 3770 
Q 2525 4250 2034 4250 
z
M 2034 4750 
Q 2819 4750 3233 4129 
Q 3647 3509 3647 2328 
Q 3647 1150 3233 529 
Q 2819 -91 2034 -91 
Q 1250 -91 836 529 
Q 422 1150 422 2328 
Q 422 3509 836 4129 
Q 1250 4750 2034 4750 
z
" transform="scale(0.015625)"/>
        <path id="DejaVuSans-b0" d="M 1600 4347 
Q 1350 4347 1178 4173 
Q 1006 4000 1006 3750 
Q 1006 3503 1178 3333 
Q 1350 3163 1600 3163 
Q 1850 3163 2022 3333 
Q 2194 3503 2194 3750 
Q 2194 3997 2020 4172 
Q 1847 4347 1600 4347 
z
M 1600 4750 
Q 1800 4750 1984 4673 
Q 2169 4597 2303 4453 
Q 2447 4313 2519 4134 
Q 2591 3956 2591 3750 
Q 2591 3338 2302 3052 
Q 2013 2766 1594 2766 
Q 1172 2766 890 3047 
Q 609 3328 609 3750 
Q 609 4169 896 4459 
Q 1184 4750 1600 4750 
z
" transform="scale(0.015625)"/>
       </defs>
       <use xlink:href="#DejaVuSans-30"/>
       <use xlink:href="#DejaVuSans-b0" x="63.623047"/>
      </g>
     </g>
    </g>
    <g id="xtick_2">
     <g id="line2d_2">
      <path d="M 295.2 145.44 
L 216.796 67.036 
" clip-path="url(#p08b0be9bb4)" style="fill: none; stroke-dasharray: 2.96,1.28; stroke-dashoffset: 0; stroke: #b0b0b0; stroke-width: 0.8"/>
     </g>
     <g id="text_2">
      <!-- 45° -->
      <g transform="translate(194.489005 60.99963) scale(0.14 -0.14)">
       <defs>
        <path id="DejaVuSans-34" d="M 2419 4116 
L 825 1625 
L 2419 1625 
L 2419 4116 
z
M 2253 4666 
L 3047 4666 
L 3047 1625 
L 3713 1625 
L 3713 1100 
L 3047 1100 
L 3047 0 
L 2419 0 
L 2419 1100 
L 313 1100 
L 313 1709 
L 2253 4666 
z
" transform="scale(0.015625)"/>
        <path id="DejaVuSans-35" d="M 691 4666 
L 3169 4666 
L 3169 4134 
L 1269 4134 
L 1269 2991 
Q 1406 3038 1543 3061 
Q 1681 3084 1819 3084 
Q 2600 3084 3056 2656 
Q 3513 2228 3513 1497 
Q 3513 744 3044 326 
Q 2575 -91 1722 -91 
Q 1428 -91 1123 -41 
Q 819 9 494 109 
L 494 744 
Q 775 591 1075 516 
Q 1375 441 1709 441 
Q 2250 441 2565 725 
Q 2881 1009 2881 1497 
Q 2881 1984 2565 2268 
Q 2250 2553 1709 2553 
Q 1456 2553 1204 2497 
Q 953 2441 691 2322 
L 691 4666 
z
" transform="scale(0.015625)"/>
       </defs>
       <use xlink:href="#DejaVuSans-34"/>
       <use xlink:href="#DejaVuSans-35" x="63.623047"/>
       <use xlink:href="#DejaVuSans-b0" x="127.246094"/>
      </g>
     </g>
    </g>
    <g id="xtick_3">
     <g id="line2d_3">
      <path d="M 295.2 145.44 
L 184.32 145.44 
" clip-path="url(#p08b0be9bb4)" style="fill: none; stroke-dasharray: 2.96,1.28; stroke-dashoffset: 0; stroke: #b0b0b0; stroke-width: 0.8"/>
     </g>
     <g id="text_3">
      <!-- 90° -->
      <g transform="translate(157.9125 149.303125) scale(0.14 -0.14)">
       <defs>
        <path id="DejaVuSans-39" d="M 703 97 
L 703 672 
Q 941 559 1184 500 
Q 1428 441 1663 441 
Q 2288 441 2617 861 
Q 2947 1281 2994 2138 
Q 2813 1869 2534 1725 
Q 2256 1581 1919 1581 
Q 1219 1581 811 2004 
Q 403 2428 403 3163 
Q 403 3881 828 4315 
Q 1253 4750 1959 4750 
Q 2769 4750 3195 4129 
Q 3622 3509 3622 2328 
Q 3622 1225 3098 567 
Q 2575 -91 1691 -91 
Q 1453 -91 1209 -44 
Q 966 3 703 97 
z
M 1959 2075 
Q 2384 2075 2632 2365 
Q 2881 2656 2881 3163 
Q 2881 3666 2632 3958 
Q 2384 4250 1959 4250 
Q 1534 4250 1286 3958 
Q 1038 3666 1038 3163 
Q 1038 2656 1286 2365 
Q 1534 2075 1959 2075 
z
" transform="scale(0.015625)"/>
       </defs>
       <use xlink:href="#DejaVuSans-39"/>
       <use xlink:href="#DejaVuSans-30" x="63.623047"/>
       <use xlink:href="#DejaVuSans-b0" x="127.246094"/>
      </g>
     </g>
    </g>
    <g id="xtick_4">
     <g id="line2d_4">
      <path d="M 295.2 145.44 
L 216.796 223.844 
" clip-path="url(#p08b0be9bb4)" style="fill: none; stroke-dasharray: 2.96,1.28; stroke-dashoffset: 0; stroke: #b0b0b0; stroke-width: 0.8"/>
     </g>
     <g id="text_4">
      <!-- 135° -->
      <g transform="translate(190.035255 237.60662) scale(0.14 -0.14)">
       <defs>
        <path id="DejaVuSans-31" d="M 794 531 
L 1825 531 
L 1825 4091 
L 703 3866 
L 703 4441 
L 1819 4666 
L 2450 4666 
L 2450 531 
L 3481 531 
L 3481 0 
L 794 0 
L 794 531 
z
" transform="scale(0.015625)"/>
        <path id="DejaVuSans-33" d="M 2597 2516 
Q 3050 2419 3304 2112 
Q 3559 1806 3559 1356 
Q 3559 666 3084 287 
Q 2609 -91 1734 -91 
Q 1441 -91 1130 -33 
Q 819 25 488 141 
L 488 750 
Q 750 597 1062 519 
Q 1375 441 1716 441 
Q 2309 441 2620 675 
Q 2931 909 2931 1356 
Q 2931 1769 2642 2001 
Q 2353 2234 1838 2234 
L 1294 2234 
L 1294 2753 
L 1863 2753 
Q 2328 2753 2575 2939 
Q 2822 3125 2822 3475 
Q 2822 3834 2567 4026 
Q 2313 4219 1838 4219 
Q 1578 4219 1281 4162 
Q 984 4106 628 3988 
L 628 4550 
Q 988 4650 1302 4700 
Q 1616 4750 1894 4750 
Q 2613 4750 3031 4423 
Q 3450 4097 3450 3541 
Q 3450 3153 3228 2886 
Q 3006 2619 2597 2516 
z
" transform="scale(0.015625)"/>
       </defs>
       <use xlink:href="#DejaVuSans-31"/>
       <use xlink:href="#DejaVuSans-33" x="63.623047"/>
       <use xlink:href="#DejaVuSans-35" x="127.246094"/>
       <use xlink:href="#DejaVuSans-b0" x="190.869141"/>
      </g>
     </g>
    </g>
    <g id="xtick_5">
     <g id="line2d_5">
      <path d="M 295.2 145.44 
L 295.2 256.32 
" clip-path="url(#p08b0be9bb4)" style="fill: none; stroke-dasharray: 2.96,1.28; stroke-dashoffset: 0; stroke: #b0b0b0; stroke-width: 0.8"/>
     </g>
     <g id="text_5">
      <!-- 180° -->
      <g transform="translate(278.33875 274.183125) scale(0.14 -0.14)">
       <defs>
        <path id="DejaVuSans-38" d="M 2034 2216 
Q 1584 2216 1326 1975 
Q 1069 1734 1069 1313 
Q 1069 891 1326 650 
Q 1584 409 2034 409 
Q 2484 409 2743 651 
Q 3003 894 3003 1313 
Q 3003 1734 2745 1975 
Q 2488 2216 2034 2216 
z
M 1403 2484 
Q 997 2584 770 2862 
Q 544 3141 544 3541 
Q 544 4100 942 4425 
Q 1341 4750 2034 4750 
Q 2731 4750 3128 4425 
Q 3525 4100 3525 3541 
Q 3525 3141 3298 2862 
Q 3072 2584 2669 2484 
Q 3125 2378 3379 2068 
Q 3634 1759 3634 1313 
Q 3634 634 3220 271 
Q 2806 -91 2034 -91 
Q 1263 -91 848 271 
Q 434 634 434 1313 
Q 434 1759 690 2068 
Q 947 2378 1403 2484 
z
M 1172 3481 
Q 1172 3119 1398 2916 
Q 1625 2713 2034 2713 
Q 2441 2713 2670 2916 
Q 2900 3119 2900 3481 
Q 2900 3844 2670 4047 
Q 2441 4250 2034 4250 
Q 1625 4250 1398 4047 
Q 1172 3844 1172 3481 
z
" transform="scale(0.015625)"/>
       </defs>
       <use xlink:href="#DejaVuSans-31"/>
       <use xlink:href="#DejaVuSans-38" x="63.623047"/>
       <use xlink:href="#DejaVuSans-30" x="127.246094"/>
       <use xlink:href="#DejaVuSans-b0" x="190.869141"/>
      </g>
     </g>
    </g>
    <g id="xtick_6">
     <g id="line2d_6">
      <path d="M 295.2 145.44 
L 373.604 223.844 
" clip-path="url(#p08b0be9bb4)" style="fill: none; stroke-dasharray: 2.96,1.28; stroke-dashoffset: 0; stroke: #b0b0b0; stroke-width: 0.8"/>
     </g>
     <g id="text_6">
      <!-- 225° -->
      <g transform="translate(366.642245 237.60662) scale(0.14 -0.14)">
       <defs>
        <path id="DejaVuSans-32" d="M 1228 531 
L 3431 531 
L 3431 0 
L 469 0 
L 469 531 
Q 828 903 1448 1529 
Q 2069 2156 2228 2338 
Q 2531 2678 2651 2914 
Q 2772 3150 2772 3378 
Q 2772 3750 2511 3984 
Q 2250 4219 1831 4219 
Q 1534 4219 1204 4116 
Q 875 4013 500 3803 
L 500 4441 
Q 881 4594 1212 4672 
Q 1544 4750 1819 4750 
Q 2544 4750 2975 4387 
Q 3406 4025 3406 3419 
Q 3406 3131 3298 2873 
Q 3191 2616 2906 2266 
Q 2828 2175 2409 1742 
Q 1991 1309 1228 531 
z
" transform="scale(0.015625)"/>
       </defs>
       <use xlink:href="#DejaVuSans-32"/>
       <use xlink:href="#DejaVuSans-32" x="63.623047"/>
       <use xlink:href="#DejaVuSans-35" x="127.246094"/>
       <use xlink:href="#DejaVuSans-b0" x="190.869141"/>
      </g>
     </g>
    </g>
    <g id="xtick_7">
     <g id="line2d_7">
      <path d="M 295.2 145.44 
L 406.08 145.44 
" clip-path="url(#p08b0be9bb4)" style="fill: none; stroke-dasharray: 2.96,1.28; stroke-dashoffset: 0; stroke: #b0b0b0; stroke-width: 0.8"/>
     </g>
     <g id="text_7">
      <!-- 270° -->
      <g transform="translate(403.21875 149.303125) scale(0.14 -0.14)">
       <defs>
        <path id="DejaVuSans-37" d="M 525 4666 
L 3525 4666 
L 3525 4397 
L 1831 0 
L 1172 0 
L 2766 4134 
L 525 4134 
L 525 4666 
z
" transform="scale(0.015625)"/>
       </defs>
       <use xlink:href="#DejaVuSans-32"/>
       <use xlink:href="#DejaVuSans-37" x="63.623047"/>
       <use xlink:href="#DejaVuSans-30" x="127.246094"/>
       <use xlink:href="#DejaVuSans-b0" x="190.869141"/>
      </g>
     </g>
    </g>
    <g id="xtick_8">
     <g id="line2d_8">
      <path d="M 295.2 145.44 
L 373.604 67.036 
" clip-path="url(#p08b0be9bb4)" style="fill: none; stroke-dasharray: 2.96,1.28; stroke-dashoffset: 0; stroke: #b0b0b0; stroke-width: 0.8"/>
     </g>
     <g id="text_8">
      <!-- 315° -->
      <g transform="translate(366.642245 60.99963) scale(0.14 -0.14)">
       <use xlink:href="#DejaVuSans-33"/>
       <use xlink:href="#DejaVuSans-31" x="63.623047"/>
       <use xlink:href="#DejaVuSans-35" x="127.246094"/>
       <use xlink:href="#DejaVuSans-b0" x="190.869141"/>
      </g>
     </g>
    </g>
   </g>
   <g id="matplotlib.axis_2">
    <g id="ytick_1">
     <g id="line2d_9">
      <path d="M 295.2 123.264 
C 292.287874 123.264 289.404065 123.837625 286.713612 124.952047 
C 284.023159 126.06647 281.578384 127.700016 279.5192 129.7592 
C 277.460016 131.818384 275.82647 134.263159 274.712047 136.953612 
C 273.597625 139.644065 273.024 142.527874 273.024 145.44 
C 273.024 148.352126 273.597625 151.235935 274.712047 153.926388 
C 275.82647 156.616841 277.460016 159.061616 279.5192 161.1208 
C 281.578384 163.179984 284.023159 164.81353 286.713612 165.927953 
C 289.404065 167.042375 292.287874 167.616 295.2 167.616 
C 298.112126 167.616 300.995935 167.042375 303.686388 165.927953 
C 306.376841 164.81353 308.821616 163.179984 310.8808 161.1208 
C 312.939984 159.061616 314.57353 156.616841 315.687953 153.926388 
C 316.802375 151.235935 317.376 148.352126 317.376 145.44 
C 317.376 142.527874 316.802375 139.644065 315.687953 136.953612 
C 314.57353 134.263159 312.939984 131.818384 310.8808 129.7592 
C 308.821616 127.700016 306.376841 126.06647 303.686388 124.952047 
C 300.995935 123.837625 298.112126 123.264 295.2 123.264 
" clip-path="url(#p08b0be9bb4)" style="fill: none; stroke-dasharray: 2.96,1.28; stroke-dashoffset: 0; stroke: #b0b0b0; stroke-width: 0.8"/>
     </g>
     <g id="text_9">
      <!-- −20 -->
      <g transform="translate(286.713612 122.040485) scale(0.14 -0.14)">
       <defs>
        <path id="DejaVuSans-2212" d="M 678 2272 
L 4684 2272 
L 4684 1741 
L 678 1741 
L 678 2272 
z
" transform="scale(0.015625)"/>
       </defs>
       <use xlink:href="#DejaVuSans-2212"/>
       <use xlink:href="#DejaVuSans-32" x="83.789062"/>
       <use xlink:href="#DejaVuSans-30" x="147.412109"/>
      </g>
     </g>
    </g>
    <g id="ytick_2">
     <g id="line2d_10">
      <path d="M 295.2 101.088 
C 289.375749 101.088 283.608131 102.235251 278.227224 104.464095 
C 272.846318 106.692939 267.956768 109.960032 263.8384 114.0784 
C 259.720032 118.196768 256.452939 123.086318 254.224095 128.467224 
C 251.995251 133.848131 250.848 139.615749 250.848 145.44 
C 250.848 151.264251 251.995251 157.031869 254.224095 162.412776 
C 256.452939 167.793682 259.720032 172.683232 263.8384 176.8016 
C 267.956768 180.919968 272.846318 184.187061 278.227224 186.415905 
C 283.608131 188.644749 289.375749 189.792 295.2 189.792 
C 301.024251 189.792 306.791869 188.644749 312.172776 186.415905 
C 317.553682 184.187061 322.443232 180.919968 326.5616 176.8016 
C 330.679968 172.683232 333.947061 167.793682 336.175905 162.412776 
C 338.404749 157.031869 339.552 151.264251 339.552 145.44 
C 339.552 139.615749 338.404749 133.848131 336.175905 128.467224 
C 333.947061 123.086318 330.679968 118.196768 326.5616 114.0784 
C 322.443232 109.960032 317.553682 106.692939 312.172776 104.464095 
C 306.791869 102.235251 301.024251 101.088 295.2 101.088 
" clip-path="url(#p08b0be9bb4)" style="fill: none; stroke-dasharray: 2.96,1.28; stroke-dashoffset: 0; stroke: #b0b0b0; stroke-width: 0.8"/>
     </g>
     <g id="text_10">
      <!-- −15 -->
      <g transform="translate(278.227224 101.552532) scale(0.14 -0.14)">
       <use xlink:href="#DejaVuSans-2212"/>
       <use xlink:href="#DejaVuSans-31" x="83.789062"/>
       <use xlink:href="#DejaVuSans-35" x="147.412109"/>
      </g>
     </g>
    </g>
    <g id="ytick_3">
     <g id="line2d_11">
      <path d="M 295.2 78.912 
C 286.463623 78.912 277.812196 80.632876 269.740837 83.976142 
C 261.669477 87.319409 254.335151 92.220049 248.1576 98.3976 
C 241.980049 104.575151 237.079409 111.909477 233.736142 119.980837 
C 230.392876 128.052196 228.672 136.703623 228.672 145.44 
C 228.672 154.176377 230.392876 162.827804 233.736142 170.899163 
C 237.079409 178.970523 241.980049 186.304849 248.1576 192.4824 
C 254.335151 198.659951 261.669477 203.560591 269.740837 206.903858 
C 277.812196 210.247124 286.463623 211.968 295.2 211.968 
C 303.936377 211.968 312.587804 210.247124 320.659163 206.903858 
C 328.730523 203.560591 336.064849 198.659951 342.2424 192.4824 
C 348.419951 186.304849 353.320591 178.970523 356.663858 170.899163 
C 360.007124 162.827804 361.728 154.176377 361.728 145.44 
C 361.728 136.703623 360.007124 128.052196 356.663858 119.980837 
C 353.320591 111.909477 348.419951 104.575151 342.2424 98.3976 
C 336.064849 92.220049 328.730523 87.319409 320.659163 83.976142 
C 312.587804 80.632876 303.936377 78.912 295.2 78.912 
" clip-path="url(#p08b0be9bb4)" style="fill: none; stroke-dasharray: 2.96,1.28; stroke-dashoffset: 0; stroke: #b0b0b0; stroke-width: 0.8"/>
     </g>
     <g id="text_11">
      <!-- −10 -->
      <g transform="translate(269.740837 81.06458) scale(0.14 -0.14)">
       <use xlink:href="#DejaVuSans-2212"/>
       <use xlink:href="#DejaVuSans-31" x="83.789062"/>
       <use xlink:href="#DejaVuSans-30" x="147.412109"/>
      </g>
     </g>
    </g>
    <g id="ytick_4">
     <g id="line2d_12">
      <path d="M 295.2 56.736 
C 283.551497 56.736 272.016262 59.030501 261.254449 63.48819 
C 250.492636 67.945879 240.713535 74.480065 232.4768 82.7168 
C 224.240065 90.953535 217.705879 100.732636 213.24819 111.494449 
C 208.790501 122.256262 206.496 133.791497 206.496 145.44 
C 206.496 157.088503 208.790501 168.623738 213.24819 179.385551 
C 217.705879 190.147364 224.240065 199.926465 232.4768 208.1632 
C 240.713535 216.399935 250.492636 222.934121 261.254449 227.39181 
C 272.016262 231.849499 283.551497 234.144 295.2 234.144 
C 306.848503 234.144 318.383738 231.849499 329.145551 227.39181 
C 339.907364 222.934121 349.686465 216.399935 357.9232 208.1632 
C 366.159935 199.926465 372.694121 190.147364 377.15181 179.385551 
C 381.609499 168.623738 383.904 157.088503 383.904 145.44 
C 383.904 133.791497 381.609499 122.256262 377.15181 111.494449 
C 372.694121 100.732636 366.159935 90.953535 357.9232 82.7168 
C 349.686465 74.480065 339.907364 67.945879 329.145551 63.48819 
C 318.383738 59.030501 306.848503 56.736 295.2 56.736 
" clip-path="url(#p08b0be9bb4)" style="fill: none; stroke-dasharray: 2.96,1.28; stroke-dashoffset: 0; stroke: #b0b0b0; stroke-width: 0.8"/>
     </g>
     <g id="text_12">
      <!-- −5 -->
      <g transform="translate(261.254449 60.576627) scale(0.14 -0.14)">
       <use xlink:href="#DejaVuSans-2212"/>
       <use xlink:href="#DejaVuSans-35" x="83.789062"/>
      </g>
     </g>
    </g>
    <g id="ytick_5">
     <g id="line2d_13">
      <path d="M 295.2 34.56 
C 280.639372 34.56 266.220327 37.428126 252.768061 43.000237 
C 239.315795 48.572349 227.091919 56.740081 216.796 67.036 
C 206.500081 77.331919 198.332349 89.555795 192.760237 103.008061 
C 187.188126 116.460327 184.32 130.879372 184.32 145.44 
C 184.32 160.000628 187.188126 174.419673 192.760237 187.871939 
C 198.332349 201.324205 206.500081 213.548081 216.796 223.844 
C 227.091919 234.139919 239.315795 242.307651 252.768061 247.879763 
C 266.220327 253.451874 280.639372 256.32 295.2 256.32 
C 309.760628 256.32 324.179673 253.451874 337.631939 247.879763 
C 351.084205 242.307651 363.308081 234.139919 373.604 223.844 
C 383.899919 213.548081 392.067651 201.324205 397.639763 187.871939 
C 403.211874 174.419673 406.08 160.000628 406.08 145.44 
C 406.08 130.879372 403.211874 116.460327 397.639763 103.008061 
C 392.067651 89.555795 383.899919 77.331919 373.604 67.036 
C 363.308081 56.740081 351.084205 48.572349 337.631939 43.000237 
C 324.179673 37.428126 309.760628 34.56 295.2 34.56 
" clip-path="url(#p08b0be9bb4)" style="fill: none; stroke-dasharray: 2.96,1.28; stroke-dashoffset: 0; stroke: #b0b0b0; stroke-width: 0.8"/>
     </g>
     <g id="text_13">
      <!-- 0 -->
      <g transform="translate(252.768061 40.088675) scale(0.14 -0.14)">
       <use xlink:href="#DejaVuSans-30"/>
      </g>
     </g>
    </g>
   </g>
   <g id="line2d_14">
    <path d="M 295.2 256.32 
L 296.592212 256.222873 
L 297.977522 255.93082 
L 299.348936 255.441793 
L 300.699268 254.752296 
L 302.021034 253.857239 
L 303.30633 252.749725 
L 304.546674 251.420755 
L 305.73283 249.858801 
L 306.854564 248.049226 
L 307.900332 245.973476 
L 308.856856 243.607943 
L 309.708537 240.922337 
L 310.436603 237.877307 
L 311.01786 234.420849 
L 311.422764 230.482706 
L 311.61232 225.965242 
L 311.532812 220.727743 
L 311.106231 214.557568 
L 310.21125 207.112171 
L 308.640614 197.787736 
L 305.98727 185.363984 
L 301.237134 166.718068 
M 301.338679 164.332913 
L 307.966508 183.113716 
L 312.732965 195.116832 
L 316.625838 203.799416 
L 320.011869 210.48398 
L 323.065351 215.819842 
L 325.881468 220.174831 
L 328.517038 223.777921 
L 331.008098 226.781578 
L 333.378494 229.292613 
L 335.644481 231.388896 
L 337.817349 233.129052 
L 339.905021 234.558411 
L 341.913057 235.712818 
L 343.845316 236.621171 
L 345.704398 237.30716 
L 347.491958 237.790493 
L 349.208921 238.08778 
L 350.855639 238.213185 
L 352.432006 238.178907 
L 353.937541 237.995555 
L 355.371451 237.672429 
L 356.732674 237.217743 
L 358.019912 236.638796 
L 359.231652 235.942115 
L 360.366183 235.133557 
L 361.421601 234.218402 
L 362.395809 233.201422 
L 363.286516 232.086932 
L 364.091226 230.87884 
L 364.80722 229.580675 
L 365.43154 228.195611 
L 365.960959 226.726489 
L 366.391947 225.17582 
L 366.720626 223.545786 
L 366.942723 221.83824 
L 367.053497 220.054684 
L 367.047665 218.196251 
L 366.9193 216.263665 
L 366.661707 214.257198 
L 366.267267 212.176606 
L 365.727246 210.021039 
L 365.031541 207.788934 
L 364.168357 205.477863 
L 363.123788 203.084336 
L 361.881255 200.603532 
L 360.420746 198.028929 
L 358.717773 195.351794 
L 356.7419 192.560451 
L 354.454616 189.639213 
L 351.806165 186.566786 
L 348.730652 183.313768 
L 345.13817 179.838606 
L 340.901437 176.080671 
L 335.831612 171.947629 
L 329.630663 167.290363 
L 321.786242 161.84718 
L 311.298195 155.097482 
L 295.751459 145.761472 
M 304.221162 150.108139 
L 316.312236 156.030662 
L 325.178449 160.009687 
L 332.184125 162.843408 
L 337.973887 164.915154 
L 342.903401 166.439937 
L 347.189587 167.551118 
L 350.97442 168.337504 
L 354.355851 168.861458 
L 357.404278 169.168628 
L 360.171979 169.293548 
L 362.698828 169.26307 
L 365.015934 169.098556 
L 367.148024 168.81733 
L 369.115082 168.433683 
L 370.933482 167.959573 
L 374.176453 166.77906 
L 376.961851 165.341157 
L 379.351332 163.695666 
L 381.390903 161.881794 
L 383.115557 159.931275 
L 384.55222 157.870437 
L 385.721677 155.721635 
L 386.639852 153.50428 
L 387.318675 151.235616 
L 387.766667 148.931335 
L 387.989318 146.606086 
L 387.989318 144.273914 
L 387.766667 141.948665 
L 387.318675 139.644384 
L 386.639852 137.37572 
L 385.721677 135.158365 
L 384.55222 133.009563 
L 383.115557 130.948725 
L 381.390903 128.998206 
L 379.351332 127.184334 
L 376.961851 125.538843 
L 374.176453 124.10094 
L 372.616808 123.474865 
L 370.933482 122.920427 
L 369.115082 122.446317 
L 367.148024 122.06267 
L 365.015934 121.781444 
L 362.698828 121.61693 
L 360.171979 121.586452 
L 357.404278 121.711372 
L 354.355851 122.018542 
L 350.97442 122.542496 
L 347.189587 123.328882 
L 342.903401 124.440063 
L 337.973887 125.964846 
L 332.184125 128.036592 
L 325.178449 130.870313 
L 316.312236 134.849338 
L 304.221162 140.771861 
M 295.751459 145.118528 
L 311.298195 135.782518 
L 321.786242 129.03282 
L 329.630663 123.589637 
L 335.831612 118.932371 
L 340.901437 114.799329 
L 345.13817 111.041394 
L 348.730652 107.566232 
L 351.806165 104.313214 
L 354.454616 101.240787 
L 356.7419 98.319549 
L 358.717773 95.528206 
L 360.420746 92.851071 
L 361.881255 90.276468 
L 363.123788 87.795664 
L 364.168357 85.402137 
L 365.031541 83.091066 
L 365.727246 80.858961 
L 366.267267 78.703394 
L 366.661707 76.622802 
L 366.9193 74.616335 
L 367.047665 72.683749 
L 367.053497 70.825316 
L 366.942723 69.04176 
L 366.720626 67.334214 
L 366.391947 65.70418 
L 365.960959 64.153511 
L 365.43154 62.684389 
L 364.80722 61.299325 
L 364.091226 60.00116 
L 363.286516 58.793068 
L 362.395809 57.678578 
L 361.421601 56.661598 
L 360.366183 55.746443 
L 359.231652 54.937885 
L 358.019912 54.241204 
L 356.732674 53.662257 
L 355.371451 53.207571 
L 353.937541 52.884445 
L 352.432006 52.701093 
L 350.855639 52.666815 
L 349.208921 52.79222 
L 347.491958 53.089507 
L 345.704398 53.57284 
L 343.845316 54.258829 
L 341.913057 55.167182 
L 339.905021 56.321589 
L 337.817349 57.750948 
L 335.644481 59.491104 
L 333.378494 61.587387 
L 331.008098 64.098422 
L 328.517038 67.102079 
L 325.881468 70.705169 
L 323.065351 75.060158 
L 320.011869 80.39602 
L 316.625838 87.080584 
L 312.732965 95.763168 
L 307.966508 107.766284 
L 301.338679 126.547087 
M 301.237134 124.161932 
L 305.98727 105.516016 
L 308.640614 93.092264 
L 310.21125 83.767829 
L 311.106231 76.322432 
L 311.532812 70.152257 
L 311.61232 64.914758 
L 311.422764 60.397294 
L 311.01786 56.459151 
L 310.436603 53.002693 
L 309.708537 49.957663 
L 308.856856 47.272057 
L 307.900332 44.906524 
L 306.854564 42.830774 
L 305.73283 41.021199 
L 304.546674 39.459245 
L 303.30633 38.130275 
L 302.021034 37.022761 
L 300.699268 36.127704 
L 299.348936 35.438207 
L 297.977522 34.94918 
L 296.592212 34.657127 
L 295.2 34.56 
L 293.807788 34.657127 
L 292.422478 34.94918 
L 291.051064 35.438207 
L 289.700732 36.127704 
L 288.378966 37.022761 
L 287.09367 38.130275 
L 285.853326 39.459245 
L 284.66717 41.021199 
L 283.545436 42.830774 
L 282.499668 44.906524 
L 281.543144 47.272057 
L 280.691463 49.957663 
L 279.963397 53.002693 
L 279.38214 56.459151 
L 278.977236 60.397294 
L 278.78768 64.914758 
L 278.867188 70.152257 
L 279.293769 76.322432 
L 280.18875 83.767829 
L 281.759386 93.092264 
L 284.41273 105.516016 
L 289.162866 124.161932 
M 289.061321 126.547087 
L 282.433492 107.766284 
L 277.667035 95.763168 
L 273.774162 87.080584 
L 270.388131 80.39602 
L 267.334649 75.060158 
L 264.518532 70.705169 
L 261.882962 67.102079 
L 259.391902 64.098422 
L 257.021506 61.587387 
L 254.755519 59.491104 
L 252.582651 57.750948 
L 250.494979 56.321589 
L 248.486943 55.167182 
L 246.554684 54.258829 
L 244.695602 53.57284 
L 242.908042 53.089507 
L 241.191079 52.79222 
L 239.544361 52.666815 
L 237.967994 52.701093 
L 236.462459 52.884445 
L 235.028549 53.207571 
L 233.667326 53.662257 
L 232.380088 54.241204 
L 231.168348 54.937885 
L 230.033817 55.746443 
L 228.978399 56.661598 
L 228.004191 57.678578 
L 227.113484 58.793068 
L 226.308774 60.00116 
L 225.59278 61.299325 
L 224.96846 62.684389 
L 224.439041 64.153511 
L 224.008053 65.70418 
L 223.679374 67.334214 
L 223.457277 69.04176 
L 223.346503 70.825316 
L 223.352335 72.683749 
L 223.4807 74.616335 
L 223.738293 76.622802 
L 224.132733 78.703394 
L 224.672754 80.858961 
L 225.368459 83.091066 
L 226.231643 85.402137 
L 227.276212 87.795664 
L 228.518745 90.276468 
L 229.979254 92.851071 
L 231.682227 95.528206 
L 233.6581 98.319549 
L 235.945384 101.240787 
L 238.593835 104.313214 
L 241.669348 107.566232 
L 245.26183 111.041394 
L 249.498563 114.799329 
L 254.568388 118.932371 
L 260.769337 123.589637 
L 268.613758 129.03282 
L 279.101805 135.782518 
L 294.648541 145.118528 
M 286.178838 140.771861 
L 274.087764 134.849338 
L 265.221551 130.870313 
L 258.215875 128.036592 
L 252.426113 125.964846 
L 247.496599 124.440063 
L 243.210413 123.328882 
L 239.42558 122.542496 
L 236.044149 122.018542 
L 232.995722 121.711372 
L 230.228021 121.586452 
L 227.701172 121.61693 
L 225.384066 121.781444 
L 223.251976 122.06267 
L 221.284918 122.446317 
L 219.466518 122.920427 
L 216.223547 124.10094 
L 213.438149 125.538843 
L 211.048668 127.184334 
L 209.009097 128.998206 
L 207.284443 130.948725 
L 205.84778 133.009563 
L 204.678323 135.158365 
L 203.760148 137.37572 
L 203.081325 139.644384 
L 202.633333 141.948665 
L 202.410682 144.273914 
L 202.410682 146.606086 
L 202.633333 148.931335 
L 203.081325 151.235616 
L 203.760148 153.50428 
L 204.678323 155.721635 
L 205.84778 157.870437 
L 207.284443 159.931275 
L 209.009097 161.881794 
L 211.048668 163.695666 
L 213.438149 165.341157 
L 216.223547 166.77906 
L 217.783192 167.405135 
L 219.466518 167.959573 
L 221.284918 168.433683 
L 223.251976 168.81733 
L 225.384066 169.098556 
L 227.701172 169.26307 
L 230.228021 169.293548 
L 232.995722 169.168628 
L 236.044149 168.861458 
L 239.42558 168.337504 
L 243.210413 167.551118 
L 247.496599 166.439937 
L 252.426113 164.915154 
L 258.215875 162.843408 
L 265.221551 160.009687 
L 274.087764 156.030662 
L 286.178838 150.108139 
M 294.648541 145.761472 
L 279.101805 155.097482 
L 268.613758 161.84718 
L 260.769337 167.290363 
L 254.568388 171.947629 
L 249.498563 176.080671 
L 245.26183 179.838606 
L 241.669348 183.313768 
L 238.593835 186.566786 
L 235.945384 189.639213 
L 233.6581 192.560451 
L 231.682227 195.351794 
L 229.979254 198.028929 
L 228.518745 200.603532 
L 227.276212 203.084336 
L 226.231643 205.477863 
L 225.368459 207.788934 
L 224.672754 210.021039 
L 224.132733 212.176606 
L 223.738293 214.257198 
L 223.4807 216.263665 
L 223.352335 218.196251 
L 223.346503 220.054684 
L 223.457277 221.83824 
L 223.679374 223.545786 
L 224.008053 225.17582 
L 224.439041 226.726489 
L 224.96846 228.195611 
L 225.59278 229.580675 
L 226.308774 230.87884 
L 227.113484 232.086932 
L 228.004191 233.201422 
L 228.978399 234.218402 
L 230.033817 235.133557 
L 231.168348 235.942115 
L 232.380088 236.638796 
L 233.667326 237.217743 
L 235.028549 237.672429 
L 236.462459 237.995555 
L 237.967994 238.178907 
L 239.544361 238.213185 
L 241.191079 238.08778 
L 242.908042 237.790493 
L 244.695602 237.30716 
L 246.554684 236.621171 
L 248.486943 235.712818 
L 250.494979 234.558411 
L 252.582651 233.129052 
L 254.755519 231.388896 
L 257.021506 229.292613 
L 259.391902 226.781578 
L 261.882962 223.777921 
L 264.518532 220.174831 
L 267.334649 215.819842 
L 270.388131 210.48398 
L 273.774162 203.799416 
L 277.667035 195.116832 
L 282.433492 183.113716 
L 289.061321 164.332913 
M 289.162866 166.718068 
L 284.41273 185.363984 
L 281.759386 197.787736 
L 280.18875 207.112171 
L 279.293769 214.557568 
L 278.867188 220.727743 
L 278.78768 225.965242 
L 278.977236 230.482706 
L 279.38214 234.420849 
L 279.963397 237.877307 
L 280.691463 240.922337 
L 281.543144 243.607943 
L 282.499668 245.973476 
L 283.545436 248.049226 
L 284.66717 249.858801 
L 285.853326 251.420755 
L 287.09367 252.749725 
L 288.378966 253.857239 
L 289.700732 254.752296 
L 291.051064 255.441793 
L 292.422478 255.93082 
L 293.807788 256.222873 
L 295.2 256.32 
L 295.2 256.32 
" clip-path="url(#p08b0be9bb4)" style="fill: none; stroke: #1f77b4; stroke-width: 2; stroke-linecap: square"/>
   </g>
   <g id="line2d_15">
    <path d="M 295.2 256.32 
L 297.983159 256.155054 
L 300.74494 255.660145 
L 303.463858 254.835048 
L 306.118211 253.679337 
L 308.685951 252.192294 
L 311.144534 250.372795 
L 313.470737 248.219121 
L 315.640431 245.728725 
L 317.628275 242.897898 
L 319.407329 239.721321 
L 320.948514 236.191445 
L 322.219885 232.297637 
L 323.185599 228.024953 
L 323.804429 223.352368 
L 323.968887 220.85725 
L 324.027562 218.250111 
L 323.972616 215.525193 
L 323.79521 212.675549 
L 323.485274 209.692753 
L 323.031195 206.566519 
L 322.419405 203.28418 
L 321.63383 199.829998 
L 320.65512 196.184185 
L 319.459569 192.321531 
L 318.017545 188.20939 
L 316.291151 183.804662 
L 314.230586 179.049069 
L 311.768265 173.86147 
L 308.808752 168.124624 
L 305.210357 161.660812 
L 300.748335 154.182776 
M 298.688314 149.656648 
L 302.029879 153.48782 
L 304.834954 156.508131 
L 309.303167 160.841696 
L 312.687076 163.599069 
L 315.283327 165.272525 
L 317.2597 166.155437 
L 318.719443 166.439282 
L 319.730159 166.257813 
L 320.082234 166.024374 
L 320.338314 165.709579 
L 320.577156 164.870388 
L 320.471308 163.80068 
L 320.039572 162.550091 
L 319.296678 161.160415 
L 318.254418 159.667584 
L 316.922359 158.103025 
L 315.308281 156.494621 
L 313.418404 154.867393 
L 311.257444 153.244004 
L 308.828508 151.645125 
L 306.132826 150.08972 
L 303.169285 148.595263 
L 299.933719 147.177918 
L 296.417873 145.852701 
M 296.417873 145.027299 
L 299.933719 143.702082 
L 303.169285 142.284737 
L 306.132826 140.79028 
L 308.828508 139.234875 
L 311.257444 137.635996 
L 313.418404 136.012607 
L 315.308281 134.385379 
L 316.922359 132.776975 
L 318.254418 131.212416 
L 319.296678 129.719585 
L 320.039572 128.329909 
L 320.471308 127.07932 
L 320.577156 126.009612 
L 320.338314 125.170421 
L 320.082234 124.855626 
L 319.730159 124.622187 
L 319.277644 124.480094 
L 318.719443 124.440718 
L 318.049304 124.517139 
L 317.2597 124.724563 
L 315.283327 125.607475 
L 312.687076 127.280931 
L 311.107926 128.499779 
L 309.303167 130.038304 
L 307.231433 131.964654 
L 304.834954 134.371869 
L 302.029879 137.39218 
L 298.688314 141.223352 
M 300.748335 136.697224 
L 305.210357 129.219188 
L 308.808752 122.755376 
L 311.768265 117.01853 
L 314.230586 111.830931 
L 316.291151 107.075338 
L 318.017545 102.67061 
L 319.459569 98.558469 
L 320.65512 94.695815 
L 321.63383 91.050002 
L 322.419405 87.59582 
L 323.031195 84.313481 
L 323.485274 81.187247 
L 323.79521 78.204451 
L 323.972616 75.354807 
L 324.027562 72.629889 
L 323.804429 67.527632 
L 323.185599 62.855047 
L 322.219885 58.582363 
L 320.948514 54.688555 
L 319.407329 51.158679 
L 317.628275 47.982102 
L 315.640431 45.151275 
L 313.470737 42.660879 
L 311.144534 40.507205 
L 308.685951 38.687706 
L 306.118211 37.200663 
L 303.463858 36.044952 
L 300.74494 35.219855 
L 297.983159 34.724946 
L 296.592914 34.601236 
M 293.807086 34.601236 
L 291.03194 34.931145 
L 288.288894 35.591109 
L 285.599526 36.581444 
L 282.985697 37.902709 
L 280.46968 39.555807 
L 278.074334 41.542134 
L 275.823301 43.863787 
L 273.741275 46.523846 
L 271.854339 49.526761 
L 270.190426 52.878875 
L 268.77994 56.589152 
L 267.656622 60.6702 
L 266.858785 65.139735 
L 266.431113 70.02275 
L 266.372438 72.629889 
L 266.427384 75.354807 
L 266.60479 78.204451 
L 266.914726 81.187247 
L 267.368805 84.313481 
L 267.980595 87.59582 
L 268.76617 91.050002 
L 269.74488 94.695815 
L 270.940431 98.558469 
L 272.382455 102.67061 
L 274.108849 107.075338 
L 276.169414 111.830931 
L 278.631735 117.01853 
L 281.591248 122.755376 
L 285.189643 129.219188 
L 289.651665 136.697224 
M 291.711686 141.223352 
L 288.370121 137.39218 
L 285.565046 134.371869 
L 281.096833 130.038304 
L 277.712924 127.280931 
L 275.116673 125.607475 
L 273.1403 124.724563 
L 271.680557 124.440718 
L 270.669841 124.622187 
L 270.317766 124.855626 
L 270.061686 125.170421 
L 269.822844 126.009612 
L 269.928692 127.07932 
L 270.360428 128.329909 
L 271.103322 129.719585 
L 272.145582 131.212416 
L 273.477641 132.776975 
L 275.091719 134.385379 
L 276.981596 136.012607 
L 279.142556 137.635996 
L 281.571492 139.234875 
L 284.267174 140.79028 
L 287.230715 142.284737 
L 290.466281 143.702082 
L 293.982127 145.027299 
M 293.982127 145.852701 
L 290.466281 147.177918 
L 287.230715 148.595263 
L 284.267174 150.08972 
L 281.571492 151.645125 
L 279.142556 153.244004 
L 276.981596 154.867393 
L 275.091719 156.494621 
L 273.477641 158.103025 
L 272.145582 159.667584 
L 271.103322 161.160415 
L 270.360428 162.550091 
L 269.928692 163.80068 
L 269.822844 164.870388 
L 270.061686 165.709579 
L 270.317766 166.024374 
L 270.669841 166.257813 
L 271.122356 166.399906 
L 271.680557 166.439282 
L 272.350696 166.362861 
L 273.1403 166.155437 
L 275.116673 165.272525 
L 277.712924 163.599069 
L 279.292074 162.380221 
L 281.096833 160.841696 
L 283.168567 158.915346 
L 285.565046 156.508131 
L 288.370121 153.48782 
L 291.711686 149.656648 
M 289.651665 154.182776 
L 285.189643 161.660812 
L 281.591248 168.124624 
L 278.631735 173.86147 
L 276.169414 179.049069 
L 274.108849 183.804662 
L 272.382455 188.20939 
L 270.940431 192.321531 
L 269.74488 196.184185 
L 268.76617 199.829998 
L 267.980595 203.28418 
L 267.368805 206.566519 
L 266.914726 209.692753 
L 266.60479 212.675549 
L 266.427384 215.525193 
L 266.372438 218.250111 
L 266.595571 223.352368 
L 267.214401 228.024953 
L 268.180115 232.297637 
L 269.451486 236.191445 
L 270.992671 239.721321 
L 272.771725 242.897898 
L 274.759569 245.728725 
L 276.929263 248.219121 
L 279.255466 250.372795 
L 281.714049 252.192294 
L 284.281789 253.679337 
L 286.936142 254.835048 
L 289.65506 255.660145 
L 292.416841 256.155054 
L 295.2 256.32 
L 295.2 256.32 
" clip-path="url(#p08b0be9bb4)" style="fill: none; stroke: #ff7f0e; stroke-width: 2; stroke-linecap: square"/>
   </g>
   <g id="patch_3">
    <path d="M 295.2 34.56 
C 280.639372 34.56 266.220327 37.428126 252.768061 43.000237 
C 239.315795 48.572349 227.091919 56.740081 216.796 67.036 
C 206.500081 77.331919 198.332349 89.555795 192.760237 103.008061 
C 187.188126 116.460327 184.32 130.879372 184.32 145.44 
C 184.32 160.000628 187.188126 174.419673 192.760237 187.871939 
C 198.332349 201.324205 206.500081 213.548081 216.796 223.844 
C 227.091919 234.139919 239.315795 242.307651 252.768061 247.879763 
C 266.220327 253.451874 280.639372 256.32 295.2 256.32 
C 309.760628 256.32 324.179673 253.451874 337.631939 247.879763 
C 351.084205 242.307651 363.308081 234.139919 373.604 223.844 
C 383.899919 213.548081 392.067651 201.324205 397.639763 187.871939 
C 403.211874 174.419673 406.08 160.000628 406.08 145.44 
C 406.08 130.879372 403.211874 116.460327 397.639763 103.008061 
C 392.067651 89.555795 383.899919 77.331919 373.604 67.036 
C 363.308081 56.740081 351.084205 48.572349 337.631939 43.000237 
C 324.179673 37.428126 309.760628 34.56 295.2 34.56 
" style="fill: none; stroke: #000000; stroke-width: 0.8; stroke-linejoin: miter; stroke-linecap: square"/>
   </g>
   <g id="legend_1">
    <g id="patch_4">
     <path d="M 265.94 88.32 
L 396.28 88.32 
Q 399.08 88.32 399.08 85.52 
L 399.08 44.36 
Q 399.08 41.56 396.28 41.56 
L 265.94 41.56 
Q 263.14 41.56 263.14 44.36 
L 263.14 85.52 
Q 263.14 88.32 265.94 88.32 
z
" style="fill: #ffffff; opacity: 0.8; stroke: #cccccc; stroke-linejoin: miter"/>
    </g>
    <g id="line2d_16">
     <path d="M 268.74 52.9 
L 282.74 52.9 
L 296.74 52.9 
" style="fill: none; stroke: #1f77b4; stroke-width: 2; stroke-linecap: square"/>
    </g>
    <g id="text_14">
     <!-- $E_\theta$ ($E$-plane) -->
     <g transform="translate(307.94 57.8) scale(0.14 -0.14)">
      <defs>
       <path id="DejaVuSans-Oblique-45" d="M 1081 4666 
L 4031 4666 
L 3928 4134 
L 1606 4134 
L 1338 2753 
L 3566 2753 
L 3463 2222 
L 1234 2222 
L 909 531 
L 3284 531 
L 3181 0 
L 172 0 
L 1081 4666 
z
" transform="scale(0.015625)"/>
       <path id="DejaVuSans-Oblique-3b8" d="M 2913 2219 
L 925 2219 
Q 791 1284 928 888 
Q 1100 400 1566 400 
Q 2034 400 2391 891 
Q 2703 1322 2913 2219 
z
M 3009 2750 
Q 3094 3638 2984 3950 
Q 2813 4444 2353 4444 
Q 1875 4444 1525 3956 
Q 1250 3563 1034 2750 
L 3009 2750 
z
M 2444 4913 
Q 3194 4913 3494 4250 
Q 3794 3591 3566 2422 
Q 3341 1256 2781 594 
Q 2225 -72 1475 -72 
Q 722 -72 425 594 
Q 128 1256 353 2422 
Q 581 3591 1134 4250 
Q 1691 4913 2444 4913 
z
" transform="scale(0.015625)"/>
       <path id="DejaVuSans-20" transform="scale(0.015625)"/>
       <path id="DejaVuSans-28" d="M 1984 4856 
Q 1566 4138 1362 3434 
Q 1159 2731 1159 2009 
Q 1159 1288 1364 580 
Q 1569 -128 1984 -844 
L 1484 -844 
Q 1016 -109 783 600 
Q 550 1309 550 2009 
Q 550 2706 781 3412 
Q 1013 4119 1484 4856 
L 1984 4856 
z
" transform="scale(0.015625)"/>
       <path id="DejaVuSans-2d" d="M 313 2009 
L 1997 2009 
L 1997 1497 
L 313 1497 
L 313 2009 
z
" transform="scale(0.015625)"/>
       <path id="DejaVuSans-70" d="M 1159 525 
L 1159 -1331 
L 581 -1331 
L 581 3500 
L 1159 3500 
L 1159 2969 
Q 1341 3281 1617 3432 
Q 1894 3584 2278 3584 
Q 2916 3584 3314 3078 
Q 3713 2572 3713 1747 
Q 3713 922 3314 415 
Q 2916 -91 2278 -91 
Q 1894 -91 1617 61 
Q 1341 213 1159 525 
z
M 3116 1747 
Q 3116 2381 2855 2742 
Q 2594 3103 2138 3103 
Q 1681 3103 1420 2742 
Q 1159 2381 1159 1747 
Q 1159 1113 1420 752 
Q 1681 391 2138 391 
Q 2594 391 2855 752 
Q 3116 1113 3116 1747 
z
" transform="scale(0.015625)"/>
       <path id="DejaVuSans-6c" d="M 603 4863 
L 1178 4863 
L 1178 0 
L 603 0 
L 603 4863 
z
" transform="scale(0.015625)"/>
       <path id="DejaVuSans-61" d="M 2194 1759 
Q 1497 1759 1228 1600 
Q 959 1441 959 1056 
Q 959 750 1161 570 
Q 1363 391 1709 391 
Q 2188 391 2477 730 
Q 2766 1069 2766 1631 
L 2766 1759 
L 2194 1759 
z
M 3341 1997 
L 3341 0 
L 2766 0 
L 2766 531 
Q 2569 213 2275 61 
Q 1981 -91 1556 -91 
Q 1019 -91 701 211 
Q 384 513 384 1019 
Q 384 1609 779 1909 
Q 1175 2209 1959 2209 
L 2766 2209 
L 2766 2266 
Q 2766 2663 2505 2880 
Q 2244 3097 1772 3097 
Q 1472 3097 1187 3025 
Q 903 2953 641 2809 
L 641 3341 
Q 956 3463 1253 3523 
Q 1550 3584 1831 3584 
Q 2591 3584 2966 3190 
Q 3341 2797 3341 1997 
z
" transform="scale(0.015625)"/>
       <path id="DejaVuSans-6e" d="M 3513 2113 
L 3513 0 
L 2938 0 
L 2938 2094 
Q 2938 2591 2744 2837 
Q 2550 3084 2163 3084 
Q 1697 3084 1428 2787 
Q 1159 2491 1159 1978 
L 1159 0 
L 581 0 
L 581 3500 
L 1159 3500 
L 1159 2956 
Q 1366 3272 1645 3428 
Q 1925 3584 2291 3584 
Q 2894 3584 3203 3211 
Q 3513 2838 3513 2113 
z
" transform="scale(0.015625)"/>
       <path id="DejaVuSans-65" d="M 3597 1894 
L 3597 1613 
L 953 1613 
Q 991 1019 1311 708 
Q 1631 397 2203 397 
Q 2534 397 2845 478 
Q 3156 559 3463 722 
L 3463 178 
Q 3153 47 2828 -22 
Q 2503 -91 2169 -91 
Q 1331 -91 842 396 
Q 353 884 353 1716 
Q 353 2575 817 3079 
Q 1281 3584 2069 3584 
Q 2775 3584 3186 3129 
Q 3597 2675 3597 1894 
z
M 3022 2063 
Q 3016 2534 2758 2815 
Q 2500 3097 2075 3097 
Q 1594 3097 1305 2825 
Q 1016 2553 972 2059 
L 3022 2063 
z
" transform="scale(0.015625)"/>
       <path id="DejaVuSans-29" d="M 513 4856 
L 1013 4856 
Q 1481 4119 1714 3412 
Q 1947 2706 1947 2009 
Q 1947 1309 1714 600 
Q 1481 -109 1013 -844 
L 513 -844 
Q 928 -128 1133 580 
Q 1338 1288 1338 2009 
Q 1338 2731 1133 3434 
Q 928 4138 513 4856 
z
" transform="scale(0.015625)"/>
      </defs>
      <use xlink:href="#DejaVuSans-Oblique-45" transform="translate(0 0.015625)"/>
      <use xlink:href="#DejaVuSans-Oblique-3b8" transform="translate(63.183594 -16.390625) scale(0.7)"/>
      <use xlink:href="#DejaVuSans-20" transform="translate(108.745117 0.015625)"/>
      <use xlink:href="#DejaVuSans-28" transform="translate(140.532227 0.015625)"/>
      <use xlink:href="#DejaVuSans-Oblique-45" transform="translate(179.545898 0.015625)"/>
      <use xlink:href="#DejaVuSans-2d" transform="translate(242.729492 0.015625)"/>
      <use xlink:href="#DejaVuSans-70" transform="translate(278.813477 0.015625)"/>
      <use xlink:href="#DejaVuSans-6c" transform="translate(342.290039 0.015625)"/>
      <use xlink:href="#DejaVuSans-61" transform="translate(370.073242 0.015625)"/>
      <use xlink:href="#DejaVuSans-6e" transform="translate(431.352539 0.015625)"/>
      <use xlink:href="#DejaVuSans-65" transform="translate(494.731445 0.015625)"/>
      <use xlink:href="#DejaVuSans-29" transform="translate(556.254883 0.015625)"/>
     </g>
    </g>
    <g id="line2d_17">
     <path d="M 268.74 73.48 
L 282.74 73.48 
L 296.74 73.48 
" style="fill: none; stroke: #ff7f0e; stroke-width: 2; stroke-linecap: square"/>
    </g>
    <g id="text_15">
     <!-- $E_\phi$ ($H$-plane) -->
     <g transform="translate(307.94 78.38) scale(0.14 -0.14)">
      <defs>
       <path id="DejaVuSans-Oblique-3d5" d="M 2991 4863 
L 2738 3572 
Q 3363 3572 3684 3094 
Q 4016 2606 3850 1747 
Q 3681 888 3159 400 
Q 2653 -78 2028 -78 
L 1784 -1331 
L 1213 -1331 
L 1456 -78 
Q 834 -78 509 400 
Q 178 888 347 1747 
Q 513 2606 1034 3094 
Q 1544 3572 2166 3572 
L 2419 4863 
L 2991 4863 
z
M 2128 434 
Q 2481 434 2784 756 
Q 3116 1116 3244 1747 
Q 3369 2372 3169 2738 
Q 2991 3059 2638 3059 
L 2128 434 
z
M 1556 434 
L 2066 3059 
Q 1716 3059 1413 2738 
Q 1072 2372 953 1747 
Q 834 1116 1028 756 
Q 1203 434 1556 434 
z
" transform="scale(0.015625)"/>
       <path id="DejaVuSans-Oblique-48" d="M 1081 4666 
L 1716 4666 
L 1344 2753 
L 3634 2753 
L 4006 4666 
L 4641 4666 
L 3731 0 
L 3097 0 
L 3531 2222 
L 1241 2222 
L 806 0 
L 172 0 
L 1081 4666 
z
" transform="scale(0.015625)"/>
      </defs>
      <use xlink:href="#DejaVuSans-Oblique-45" transform="translate(0 0.015625)"/>
      <use xlink:href="#DejaVuSans-Oblique-3d5" transform="translate(63.183594 -16.390625) scale(0.7)"/>
      <use xlink:href="#DejaVuSans-20" transform="translate(112.094727 0.015625)"/>
      <use xlink:href="#DejaVuSans-28" transform="translate(143.881836 0.015625)"/>
      <use xlink:href="#DejaVuSans-Oblique-48" transform="translate(182.895508 0.015625)"/>
      <use xlink:href="#DejaVuSans-2d" transform="translate(258.09082 0.015625)"/>
      <use xlink:href="#DejaVuSans-70" transform="translate(294.174805 0.015625)"/>
      <use xlink:href="#DejaVuSans-6c" transform="translate(357.651367 0.015625)"/>
      <use xlink:href="#DejaVuSans-61" transform="translate(385.43457 0.015625)"/>
      <use xlink:href="#DejaVuSans-6e" transform="translate(446.713867 0.015625)"/>
      <use xlink:href="#DejaVuSans-65" transform="translate(510.092773 0.015625)"/>
      <use xlink:href="#DejaVuSans-29" transform="translate(571.616211 0.015625)"/>
     </g>
    </g>
   </g>
  </g>
 </g>
 <defs>
  <clipPath id="p08b0be9bb4">
   <path d="M 406.08 145.44 
C 406.08 130.879372 403.211874 116.460327 397.639763 103.008061 
C 392.067651 89.555795 383.899919 77.331919 373.604 67.036 
C 363.308081 56.740081 351.084205 48.572349 337.631939 43.000237 
C 324.179673 37.428126 309.760628 34.56 295.2 34.56 
C 280.639372 34.56 266.220327 37.428126 252.768061 43.000237 
C 239.315795 48.572349 227.091919 56.740081 216.796 67.036 
C 206.500081 77.331919 198.332349 89.555795 192.760237 103.008061 
C 187.188126 116.460327 184.32 130.879372 184.32 145.44 
C 184.32 160.000628 187.188126 174.419673 192.760237 187.871939 
C 198.332349 201.324205 206.500081 213.548081 216.796 223.844 
C 227.091919 234.139919 239.315795 242.307651 252.768061 247.879763 
C 266.220327 253.451874 280.639372 256.32 295.2 256.32 
C 309.760628 256.32 324.179673 253.451874 337.631939 247.879763 
C 351.084205 242.307651 363.308081 234.139919 373.604 223.844 
C 383.899919 213.548081 392.067651 201.324205 397.639763 187.871939 
C 403.211874 174.419673 406.08 160.000628 406.08 145.44 
M 295.2 145.44 
C 295.2 145.44 295.2 145.44 295.2 145.44 
C 295.2 145.44 295.2 145.44 295.2 145.44 
C 295.2 145.44 295.2 145.44 295.2 145.44 
C 295.2 145.44 295.2 145.44 295.2 145.44 
C 295.2 145.44 295.2 145.44 295.2 145.44 
C 295.2 145.44 295.2 145.44 295.2 145.44 
C 295.2 145.44 295.2 145.44 295.2 145.44 
C 295.2 145.44 295.2 145.44 295.2 145.44 
C 295.2 145.44 295.2 145.44 295.2 145.44 
C 295.2 145.44 295.2 145.44 295.2 145.44 
C 295.2 145.44 295.2 145.44 295.2 145.44 
C 295.2 145.44 295.2 145.44 295.2 145.44 
C 295.2 145.44 295.2 145.44 295.2 145.44 
C 295.2 145.44 295.2 145.44 295.2 145.44 
C 295.2 145.44 295.2 145.44 295.2 145.44 
C 295.2 145.44 295.2 145.44 295.2 145.44 
z
"/>
  </clipPath>
 </defs>
</svg>
