<?xml version="1.0" encoding="utf-8" standalone="no"?>
<!DOCTYPE svg PUBLIC "-//W3C//DTD SVG 1.1//EN"
  "http://www.w3.org/Graphics/SVG/1.1/DTD/svg11.dtd">
<svg xmlns:xlink="http://www.w3.org/1999/xlink" width="576pt" height="288pt" viewBox="0 0 576 288" xmlns="http://www.w3.org/2000/svg" version="1.1">
 <metadata>
  <rdf:RDF xmlns:dc="http://purl.org/dc/elements/1.1/" xmlns:cc="http://creativecommons.org/ns#" xmlns:rdf="http://www.w3.org/1999/02/22-rdf-syntax-ns#">
   <cc:Work>
    <dc:type rdf:resource="http://purl.org/dc/dcmitype/StillImage"/>
    <dc:date>2024-03-03T16:43:32.167713</dc:date>
    <dc:format>image/svg+xml</dc:format>
    <dc:creator>
     <cc:Agent>
      <dc:title>Matplotlib v3.7.2, https://matplotlib.org/</dc:title>
     </cc:Agent>
    </dc:creator>
   </cc:Work>
  </rdf:RDF>
 </metadata>
 <defs>
  <style type="text/css">*{stroke-linejoin: round; stroke-linecap: butt}</style>
 </defs>
 <g id="figure_1">
  <g id="patch_1">
   <path d="M 0 288 
L 576 288 
L 576 0 
L 0 0 
z
" style="fill: #ffffff"/>
  </g>
  <g id="axes_1">
   <g id="patch_2">
    <path d="M 406.08 145.44 
C 406.08 130.879372 403.211874 116.460327 397.639763 103.008061 
C 392.067651 89.555795 383.899919 77.331919 373.604 67.036 
C 363.308081 56.740081 351.084205 48.572349 337.631939 43.000237 
C 324.179673 37.428126 309.760628 34.56 295.2 34.56 
C 280.639372 34.56 266.220327 37.428126 252.768061 43.000237 
C 239.315795 48.572349 227.091919 56.740081 216.796 67.036 
C 206.500081 77.331919 198.332349 89.555795 192.760237 103.008061 
C 187.188126 116.460327 184.32 130.879372 184.32 145.44 
C 184.32 160.000628 187.188126 174.419673 192.760237 187.871939 
C 198.332349 201.324205 206.500081 213.548081 216.796 223.844 
C 227.091919 234.139919 239.315795 242.307651 252.768061 247.879763 
C 266.220327 253.451874 280.639372 256.32 295.2 256.32 
C 309.760628 256.32 324.179673 253.451874 337.631939 247.879763 
C 351.084205 242.307651 363.308081 234.139919 373.604 223.844 
C 383.899919 213.548081 392.067651 201.324205 397.639763 187.871939 
C 403.211874 174.419673 406.08 160.000628 406.08 145.44 
M 295.2 145.44 
C 295.2 145.44 295.2 145.44 295.2 145.44 
C 295.2 145.44 295.2 145.44 295.2 145.44 
C 295.2 145.44 295.2 145.44 295.2 145.44 
C 295.2 145.44 295.2 145.44 295.2 145.44 
C 295.2 145.44 295.2 145.44 295.2 145.44 
C 295.2 145.44 295.2 145.44 295.2 145.44 
C 295.2 145.44 295.2 145.44 295.2 145.44 
C 295.2 145.44 295.2 145.44 295.2 145.44 
C 295.2 145.44 295.2 145.44 295.2 145.44 
C 295.2 145.44 295.2 145.44 295.2 145.44 
C 295.2 145.44 295.2 145.44 295.2 145.44 
C 295.2 145.44 295.2 145.44 295.2 145.44 
C 295.2 145.44 295.2 145.44 295.2 145.44 
C 295.2 145.44 295.2 145.44 295.2 145.44 
C 295.2 145.44 295.2 145.44 295.2 145.44 
C 295.2 145.44 295.2 145.44 295.2 145.44 
z
" style="fill: #ffffff"/>
   </g>
   <g id="matplotlib.axis_1">
    <g id="xtick_1">
     <g id="line2d_1">
      <path d="M 295.2 145.44 
L 295.2 34.56 
" clip-path="url(#p7a6b63a9b3)" style="fill: none; stroke-dasharray: 2.96,1.28; stroke-dashoffset: 0; stroke: #b0b0b0; stroke-width: 0.8"/>
     </g>
     <g id="text_1">
      <!-- 0° -->
      <g transform="translate(288.3825 23.87125) scale(0.12 -0.12)">
       <defs>
        <path id="DejaVuSans-30" d="M 2034 4250 
Q 1547 4250 1301 3770 
Q 1056 3291 1056 2328 
Q 1056 1369 1301 889 
Q 1547 409 2034 409 
Q 2525 409 2770 889 
Q 3016 1369 3016 2328 
Q 3016 3291 2770 3770 
Q 2525 4250 2034 4250 
z
M 2034 4750 
Q 2819 4750 3233 4129 
Q 3647 3509 3647 2328 
Q 3647 1150 3233 529 
Q 2819 -91 2034 -91 
Q 1250 -91 836 529 
Q 422 1150 422 2328 
Q 422 3509 836 4129 
Q 1250 4750 2034 4750 
z
" transform="scale(0.015625)"/>
        <path id="DejaVuSans-b0" d="M 1600 4347 
Q 1350 4347 1178 4173 
Q 1006 4000 1006 3750 
Q 1006 3503 1178 3333 
Q 1350 3163 1600 3163 
Q 1850 3163 2022 3333 
Q 2194 3503 2194 3750 
Q 2194 3997 2020 4172 
Q 1847 4347 1600 4347 
z
M 1600 4750 
Q 1800 4750 1984 4673 
Q 2169 4597 2303 4453 
Q 2447 4313 2519 4134 
Q 2591 3956 2591 3750 
Q 2591 3338 2302 3052 
Q 2013 2766 1594 2766 
Q 1172 2766 890 3047 
Q 609 3328 609 3750 
Q 609 4169 896 4459 
Q 1184 4750 1600 4750 
z
" transform="scale(0.015625)"/>
       </defs>
       <use xlink:href="#DejaVuSans-30"/>
       <use xlink:href="#DejaVuSans-b0" x="63.623047"/>
      </g>
     </g>
    </g>
    <g id="xtick_2">
     <g id="line2d_2">
      <path d="M 295.2 145.44 
L 216.796 67.036 
" clip-path="url(#p7a6b63a9b3)" style="fill: none; stroke-dasharray: 2.96,1.28; stroke-dashoffset: 0; stroke: #b0b0b0; stroke-width: 0.8"/>
     </g>
     <g id="text_2">
      <!-- 45° -->
      <g transform="translate(196.261505 60.447755) scale(0.12 -0.12)">
       <defs>
        <path id="DejaVuSans-34" d="M 2419 4116 
L 825 1625 
L 2419 1625 
L 2419 4116 
z
M 2253 4666 
L 3047 4666 
L 3047 1625 
L 3713 1625 
L 3713 1100 
L 3047 1100 
L 3047 0 
L 2419 0 
L 2419 1100 
L 313 1100 
L 313 1709 
L 2253 4666 
z
" transform="scale(0.015625)"/>
        <path id="DejaVuSans-35" d="M 691 4666 
L 3169 4666 
L 3169 4134 
L 1269 4134 
L 1269 2991 
Q 1406 3038 1543 3061 
Q 1681 3084 1819 3084 
Q 2600 3084 3056 2656 
Q 3513 2228 3513 1497 
Q 3513 744 3044 326 
Q 2575 -91 1722 -91 
Q 1428 -91 1123 -41 
Q 819 9 494 109 
L 494 744 
Q 775 591 1075 516 
Q 1375 441 1709 441 
Q 2250 441 2565 725 
Q 2881 1009 2881 1497 
Q 2881 1984 2565 2268 
Q 2250 2553 1709 2553 
Q 1456 2553 1204 2497 
Q 953 2441 691 2322 
L 691 4666 
z
" transform="scale(0.015625)"/>
       </defs>
       <use xlink:href="#DejaVuSans-34"/>
       <use xlink:href="#DejaVuSans-35" x="63.623047"/>
       <use xlink:href="#DejaVuSans-b0" x="127.246094"/>
      </g>
     </g>
    </g>
    <g id="xtick_3">
     <g id="line2d_3">
      <path d="M 295.2 145.44 
L 184.32 145.44 
" clip-path="url(#p7a6b63a9b3)" style="fill: none; stroke-dasharray: 2.96,1.28; stroke-dashoffset: 0; stroke: #b0b0b0; stroke-width: 0.8"/>
     </g>
     <g id="text_3">
      <!-- 90° -->
      <g transform="translate(159.685 148.75125) scale(0.12 -0.12)">
       <defs>
        <path id="DejaVuSans-39" d="M 703 97 
L 703 672 
Q 941 559 1184 500 
Q 1428 441 1663 441 
Q 2288 441 2617 861 
Q 2947 1281 2994 2138 
Q 2813 1869 2534 1725 
Q 2256 1581 1919 1581 
Q 1219 1581 811 2004 
Q 403 2428 403 3163 
Q 403 3881 828 4315 
Q 1253 4750 1959 4750 
Q 2769 4750 3195 4129 
Q 3622 3509 3622 2328 
Q 3622 1225 3098 567 
Q 2575 -91 1691 -91 
Q 1453 -91 1209 -44 
Q 966 3 703 97 
z
M 1959 2075 
Q 2384 2075 2632 2365 
Q 2881 2656 2881 3163 
Q 2881 3666 2632 3958 
Q 2384 4250 1959 4250 
Q 1534 4250 1286 3958 
Q 1038 3666 1038 3163 
Q 1038 2656 1286 2365 
Q 1534 2075 1959 2075 
z
" transform="scale(0.015625)"/>
       </defs>
       <use xlink:href="#DejaVuSans-39"/>
       <use xlink:href="#DejaVuSans-30" x="63.623047"/>
       <use xlink:href="#DejaVuSans-b0" x="127.246094"/>
      </g>
     </g>
    </g>
    <g id="xtick_4">
     <g id="line2d_4">
      <path d="M 295.2 145.44 
L 216.796 223.844 
" clip-path="url(#p7a6b63a9b3)" style="fill: none; stroke-dasharray: 2.96,1.28; stroke-dashoffset: 0; stroke: #b0b0b0; stroke-width: 0.8"/>
     </g>
     <g id="text_4">
      <!-- 135° -->
      <g transform="translate(192.444005 237.054745) scale(0.12 -0.12)">
       <defs>
        <path id="DejaVuSans-31" d="M 794 531 
L 1825 531 
L 1825 4091 
L 703 3866 
L 703 4441 
L 1819 4666 
L 2450 4666 
L 2450 531 
L 3481 531 
L 3481 0 
L 794 0 
L 794 531 
z
" transform="scale(0.015625)"/>
        <path id="DejaVuSans-33" d="M 2597 2516 
Q 3050 2419 3304 2112 
Q 3559 1806 3559 1356 
Q 3559 666 3084 287 
Q 2609 -91 1734 -91 
Q 1441 -91 1130 -33 
Q 819 25 488 141 
L 488 750 
Q 750 597 1062 519 
Q 1375 441 1716 441 
Q 2309 441 2620 675 
Q 2931 909 2931 1356 
Q 2931 1769 2642 2001 
Q 2353 2234 1838 2234 
L 1294 2234 
L 1294 2753 
L 1863 2753 
Q 2328 2753 2575 2939 
Q 2822 3125 2822 3475 
Q 2822 3834 2567 4026 
Q 2313 4219 1838 4219 
Q 1578 4219 1281 4162 
Q 984 4106 628 3988 
L 628 4550 
Q 988 4650 1302 4700 
Q 1616 4750 1894 4750 
Q 2613 4750 3031 4423 
Q 3450 4097 3450 3541 
Q 3450 3153 3228 2886 
Q 3006 2619 2597 2516 
z
" transform="scale(0.015625)"/>
       </defs>
       <use xlink:href="#DejaVuSans-31"/>
       <use xlink:href="#DejaVuSans-33" x="63.623047"/>
       <use xlink:href="#DejaVuSans-35" x="127.246094"/>
       <use xlink:href="#DejaVuSans-b0" x="190.869141"/>
      </g>
     </g>
    </g>
    <g id="xtick_5">
     <g id="line2d_5">
      <path d="M 295.2 145.44 
L 295.2 256.32 
" clip-path="url(#p7a6b63a9b3)" style="fill: none; stroke-dasharray: 2.96,1.28; stroke-dashoffset: 0; stroke: #b0b0b0; stroke-width: 0.8"/>
     </g>
     <g id="text_5">
      <!-- 180° -->
      <g transform="translate(280.7475 273.63125) scale(0.12 -0.12)">
       <defs>
        <path id="DejaVuSans-38" d="M 2034 2216 
Q 1584 2216 1326 1975 
Q 1069 1734 1069 1313 
Q 1069 891 1326 650 
Q 1584 409 2034 409 
Q 2484 409 2743 651 
Q 3003 894 3003 1313 
Q 3003 1734 2745 1975 
Q 2488 2216 2034 2216 
z
M 1403 2484 
Q 997 2584 770 2862 
Q 544 3141 544 3541 
Q 544 4100 942 4425 
Q 1341 4750 2034 4750 
Q 2731 4750 3128 4425 
Q 3525 4100 3525 3541 
Q 3525 3141 3298 2862 
Q 3072 2584 2669 2484 
Q 3125 2378 3379 2068 
Q 3634 1759 3634 1313 
Q 3634 634 3220 271 
Q 2806 -91 2034 -91 
Q 1263 -91 848 271 
Q 434 634 434 1313 
Q 434 1759 690 2068 
Q 947 2378 1403 2484 
z
M 1172 3481 
Q 1172 3119 1398 2916 
Q 1625 2713 2034 2713 
Q 2441 2713 2670 2916 
Q 2900 3119 2900 3481 
Q 2900 3844 2670 4047 
Q 2441 4250 2034 4250 
Q 1625 4250 1398 4047 
Q 1172 3844 1172 3481 
z
" transform="scale(0.015625)"/>
       </defs>
       <use xlink:href="#DejaVuSans-31"/>
       <use xlink:href="#DejaVuSans-38" x="63.623047"/>
       <use xlink:href="#DejaVuSans-30" x="127.246094"/>
       <use xlink:href="#DejaVuSans-b0" x="190.869141"/>
      </g>
     </g>
    </g>
    <g id="xtick_6">
     <g id="line2d_6">
      <path d="M 295.2 145.44 
L 373.604 223.844 
" clip-path="url(#p7a6b63a9b3)" style="fill: none; stroke-dasharray: 2.96,1.28; stroke-dashoffset: 0; stroke: #b0b0b0; stroke-width: 0.8"/>
     </g>
     <g id="text_6">
      <!-- 225° -->
      <g transform="translate(369.050995 237.054745) scale(0.12 -0.12)">
       <defs>
        <path id="DejaVuSans-32" d="M 1228 531 
L 3431 531 
L 3431 0 
L 469 0 
L 469 531 
Q 828 903 1448 1529 
Q 2069 2156 2228 2338 
Q 2531 2678 2651 2914 
Q 2772 3150 2772 3378 
Q 2772 3750 2511 3984 
Q 2250 4219 1831 4219 
Q 1534 4219 1204 4116 
Q 875 4013 500 3803 
L 500 4441 
Q 881 4594 1212 4672 
Q 1544 4750 1819 4750 
Q 2544 4750 2975 4387 
Q 3406 4025 3406 3419 
Q 3406 3131 3298 2873 
Q 3191 2616 2906 2266 
Q 2828 2175 2409 1742 
Q 1991 1309 1228 531 
z
" transform="scale(0.015625)"/>
       </defs>
       <use xlink:href="#DejaVuSans-32"/>
       <use xlink:href="#DejaVuSans-32" x="63.623047"/>
       <use xlink:href="#DejaVuSans-35" x="127.246094"/>
       <use xlink:href="#DejaVuSans-b0" x="190.869141"/>
      </g>
     </g>
    </g>
    <g id="xtick_7">
     <g id="line2d_7">
      <path d="M 295.2 145.44 
L 406.08 145.44 
" clip-path="url(#p7a6b63a9b3)" style="fill: none; stroke-dasharray: 2.96,1.28; stroke-dashoffset: 0; stroke: #b0b0b0; stroke-width: 0.8"/>
     </g>
     <g id="text_7">
      <!-- 270° -->
      <g transform="translate(405.6275 148.75125) scale(0.12 -0.12)">
       <defs>
        <path id="DejaVuSans-37" d="M 525 4666 
L 3525 4666 
L 3525 4397 
L 1831 0 
L 1172 0 
L 2766 4134 
L 525 4134 
L 525 4666 
z
" transform="scale(0.015625)"/>
       </defs>
       <use xlink:href="#DejaVuSans-32"/>
       <use xlink:href="#DejaVuSans-37" x="63.623047"/>
       <use xlink:href="#DejaVuSans-30" x="127.246094"/>
       <use xlink:href="#DejaVuSans-b0" x="190.869141"/>
      </g>
     </g>
    </g>
    <g id="xtick_8">
     <g id="line2d_8">
      <path d="M 295.2 145.44 
L 373.604 67.036 
" clip-path="url(#p7a6b63a9b3)" style="fill: none; stroke-dasharray: 2.96,1.28; stroke-dashoffset: 0; stroke: #b0b0b0; stroke-width: 0.8"/>
     </g>
     <g id="text_8">
      <!-- 315° -->
      <g transform="translate(369.050995 60.447755) scale(0.12 -0.12)">
       <use xlink:href="#DejaVuSans-33"/>
       <use xlink:href="#DejaVuSans-31" x="63.623047"/>
       <use xlink:href="#DejaVuSans-35" x="127.246094"/>
       <use xlink:href="#DejaVuSans-b0" x="190.869141"/>
      </g>
     </g>
    </g>
   </g>
   <g id="matplotlib.axis_2">
    <g id="ytick_1">
     <g id="line2d_9">
      <path d="M 295.2 123.264 
C 292.287874 123.264 289.404065 123.837625 286.713612 124.952047 
C 284.023159 126.06647 281.578384 127.700016 279.5192 129.7592 
C 277.460016 131.818384 275.82647 134.263159 274.712047 136.953612 
C 273.597625 139.644065 273.024 142.527874 273.024 145.44 
C 273.024 148.352126 273.597625 151.235935 274.712047 153.926388 
C 275.82647 156.616841 277.460016 159.061616 279.5192 161.1208 
C 281.578384 163.179984 284.023159 164.81353 286.713612 165.927953 
C 289.404065 167.042375 292.287874 167.616 295.2 167.616 
C 298.112126 167.616 300.995935 167.042375 303.686388 165.927953 
C 306.376841 164.81353 308.821616 163.179984 310.8808 161.1208 
C 312.939984 159.061616 314.57353 156.616841 315.687953 153.926388 
C 316.802375 151.235935 317.376 148.352126 317.376 145.44 
C 317.376 142.527874 316.802375 139.644065 315.687953 136.953612 
C 314.57353 134.263159 312.939984 131.818384 310.8808 129.7592 
C 308.821616 127.700016 306.376841 126.06647 303.686388 124.952047 
C 300.995935 123.837625 298.112126 123.264 295.2 123.264 
" clip-path="url(#p7a6b63a9b3)" style="fill: none; stroke-dasharray: 2.96,1.28; stroke-dashoffset: 0; stroke: #b0b0b0; stroke-width: 0.8"/>
     </g>
     <g id="text_9">
      <!-- −20 -->
      <g transform="translate(286.713612 122.456422) scale(0.12 -0.12)">
       <defs>
        <path id="DejaVuSans-2212" d="M 678 2272 
L 4684 2272 
L 4684 1741 
L 678 1741 
L 678 2272 
z
" transform="scale(0.015625)"/>
       </defs>
       <use xlink:href="#DejaVuSans-2212"/>
       <use xlink:href="#DejaVuSans-32" x="83.789062"/>
       <use xlink:href="#DejaVuSans-30" x="147.412109"/>
      </g>
     </g>
    </g>
    <g id="ytick_2">
     <g id="line2d_10">
      <path d="M 295.2 101.088 
C 289.375749 101.088 283.608131 102.235251 278.227224 104.464095 
C 272.846318 106.692939 267.956768 109.960032 263.8384 114.0784 
C 259.720032 118.196768 256.452939 123.086318 254.224095 128.467224 
C 251.995251 133.848131 250.848 139.615749 250.848 145.44 
C 250.848 151.264251 251.995251 157.031869 254.224095 162.412776 
C 256.452939 167.793682 259.720032 172.683232 263.8384 176.8016 
C 267.956768 180.919968 272.846318 184.187061 278.227224 186.415905 
C 283.608131 188.644749 289.375749 189.792 295.2 189.792 
C 301.024251 189.792 306.791869 188.644749 312.172776 186.415905 
C 317.553682 184.187061 322.443232 180.919968 326.5616 176.8016 
C 330.679968 172.683232 333.947061 167.793682 336.175905 162.412776 
C 338.404749 157.031869 339.552 151.264251 339.552 145.44 
C 339.552 139.615749 338.404749 133.848131 336.175905 128.467224 
C 333.947061 123.086318 330.679968 118.196768 326.5616 114.0784 
C 322.443232 109.960032 317.553682 106.692939 312.172776 104.464095 
C 306.791869 102.235251 301.024251 101.088 295.2 101.088 
" clip-path="url(#p7a6b63a9b3)" style="fill: none; stroke-dasharray: 2.96,1.28; stroke-dashoffset: 0; stroke: #b0b0b0; stroke-width: 0.8"/>
     </g>
     <g id="text_10">
      <!-- −15 -->
      <g transform="translate(278.227224 101.96847) scale(0.12 -0.12)">
       <use xlink:href="#DejaVuSans-2212"/>
       <use xlink:href="#DejaVuSans-31" x="83.789062"/>
       <use xlink:href="#DejaVuSans-35" x="147.412109"/>
      </g>
     </g>
    </g>
    <g id="ytick_3">
     <g id="line2d_11">
      <path d="M 295.2 78.912 
C 286.463623 78.912 277.812196 80.632876 269.740837 83.976142 
C 261.669477 87.319409 254.335151 92.220049 248.1576 98.3976 
C 241.980049 104.575151 237.079409 111.909477 233.736142 119.980837 
C 230.392876 128.052196 228.672 136.703623 228.672 145.44 
C 228.672 154.176377 230.392876 162.827804 233.736142 170.899163 
C 237.079409 178.970523 241.980049 186.304849 248.1576 192.4824 
C 254.335151 198.659951 261.669477 203.560591 269.740837 206.903858 
C 277.812196 210.247124 286.463623 211.968 295.2 211.968 
C 303.936377 211.968 312.587804 210.247124 320.659163 206.903858 
C 328.730523 203.560591 336.064849 198.659951 342.2424 192.4824 
C 348.419951 186.304849 353.320591 178.970523 356.663858 170.899163 
C 360.007124 162.827804 361.728 154.176377 361.728 145.44 
C 361.728 136.703623 360.007124 128.052196 356.663858 119.980837 
C 353.320591 111.909477 348.419951 104.575151 342.2424 98.3976 
C 336.064849 92.220049 328.730523 87.319409 320.659163 83.976142 
C 312.587804 80.632876 303.936377 78.912 295.2 78.912 
" clip-path="url(#p7a6b63a9b3)" style="fill: none; stroke-dasharray: 2.96,1.28; stroke-dashoffset: 0; stroke: #b0b0b0; stroke-width: 0.8"/>
     </g>
     <g id="text_11">
      <!-- −10 -->
      <g transform="translate(269.740837 81.480517) scale(0.12 -0.12)">
       <use xlink:href="#DejaVuSans-2212"/>
       <use xlink:href="#DejaVuSans-31" x="83.789062"/>
       <use xlink:href="#DejaVuSans-30" x="147.412109"/>
      </g>
     </g>
    </g>
    <g id="ytick_4">
     <g id="line2d_12">
      <path d="M 295.2 56.736 
C 283.551497 56.736 272.016262 59.030501 261.254449 63.48819 
C 250.492636 67.945879 240.713535 74.480065 232.4768 82.7168 
C 224.240065 90.953535 217.705879 100.732636 213.24819 111.494449 
C 208.790501 122.256262 206.496 133.791497 206.496 145.44 
C 206.496 157.088503 208.790501 168.623738 213.24819 179.385551 
C 217.705879 190.147364 224.240065 199.926465 232.4768 208.1632 
C 240.713535 216.399935 250.492636 222.934121 261.254449 227.39181 
C 272.016262 231.849499 283.551497 234.144 295.2 234.144 
C 306.848503 234.144 318.383738 231.849499 329.145551 227.39181 
C 339.907364 222.934121 349.686465 216.399935 357.9232 208.1632 
C 366.159935 199.926465 372.694121 190.147364 377.15181 179.385551 
C 381.609499 168.623738 383.904 157.088503 383.904 145.44 
C 383.904 133.791497 381.609499 122.256262 377.15181 111.494449 
C 372.694121 100.732636 366.159935 90.953535 357.9232 82.7168 
C 349.686465 74.480065 339.907364 67.945879 329.145551 63.48819 
C 318.383738 59.030501 306.848503 56.736 295.2 56.736 
" clip-path="url(#p7a6b63a9b3)" style="fill: none; stroke-dasharray: 2.96,1.28; stroke-dashoffset: 0; stroke: #b0b0b0; stroke-width: 0.8"/>
     </g>
     <g id="text_12">
      <!-- −5 -->
      <g transform="translate(261.254449 60.992565) scale(0.12 -0.12)">
       <use xlink:href="#DejaVuSans-2212"/>
       <use xlink:href="#DejaVuSans-35" x="83.789062"/>
      </g>
     </g>
    </g>
    <g id="ytick_5">
     <g id="line2d_13">
      <path d="M 295.2 34.56 
C 280.639372 34.56 266.220327 37.428126 252.768061 43.000237 
C 239.315795 48.572349 227.091919 56.740081 216.796 67.036 
C 206.500081 77.331919 198.332349 89.555795 192.760237 103.008061 
C 187.188126 116.460327 184.32 130.879372 184.32 145.44 
C 184.32 160.000628 187.188126 174.419673 192.760237 187.871939 
C 198.332349 201.324205 206.500081 213.548081 216.796 223.844 
C 227.091919 234.139919 239.315795 242.307651 252.768061 247.879763 
C 266.220327 253.451874 280.639372 256.32 295.2 256.32 
C 309.760628 256.32 324.179673 253.451874 337.631939 247.879763 
C 351.084205 242.307651 363.308081 234.139919 373.604 223.844 
C 383.899919 213.548081 392.067651 201.324205 397.639763 187.871939 
C 403.211874 174.419673 406.08 160.000628 406.08 145.44 
C 406.08 130.879372 403.211874 116.460327 397.639763 103.008061 
C 392.067651 89.555795 383.899919 77.331919 373.604 67.036 
C 363.308081 56.740081 351.084205 48.572349 337.631939 43.000237 
C 324.179673 37.428126 309.760628 34.56 295.2 34.56 
" clip-path="url(#p7a6b63a9b3)" style="fill: none; stroke-dasharray: 2.96,1.28; stroke-dashoffset: 0; stroke: #b0b0b0; stroke-width: 0.8"/>
     </g>
     <g id="text_13">
      <!-- 0 -->
      <g transform="translate(252.768061 40.504612) scale(0.12 -0.12)">
       <use xlink:href="#DejaVuSans-30"/>
      </g>
     </g>
    </g>
   </g>
   <g id="line2d_14">
    <path d="M 295.2 256.32 
L 297.985027 256.229366 
L 300.7599 255.957515 
L 303.514437 255.504601 
L 306.238403 254.870871 
L 308.921474 254.056653 
L 311.55321 253.062342 
L 314.123008 251.888369 
L 316.620062 250.535177 
L 319.033301 249.003176 
L 321.351327 247.292694 
L 323.562329 245.403918 
L 325.653977 243.336809 
L 327.613298 241.091008 
L 329.426506 238.665705 
L 331.078792 236.059484 
L 332.554056 233.270109 
L 333.834544 230.29425 
L 334.900379 227.127123 
L 335.728918 223.761991 
L 336.293874 220.189479 
L 336.564079 216.396613 
L 336.50171 212.36541 
L 336.059655 208.070784 
L 335.177477 203.477295 
L 334.547304 201.053343 
L 333.774976 198.5339 
L 332.84562 195.908698 
L 331.741366 193.165033 
L 330.440446 190.287008 
L 328.915919 187.254455 
L 327.133823 184.041361 
L 325.05043 180.613522 
L 322.608006 176.924884 
L 319.727969 172.911615 
L 316.299283 168.481969 
L 312.157383 163.497779 
L 307.042574 157.73766 
L 300.507755 150.814877 
M 296.777617 146.778864 
L 304.355985 153.01449 
L 310.443473 157.731149 
L 315.560293 161.438967 
L 319.994015 164.423898 
L 323.920017 166.86284 
L 327.45293 168.873125 
L 330.671647 170.536741 
L 333.632683 171.913351 
L 336.377837 173.04781 
L 338.938842 173.974753 
L 343.601721 175.310177 
L 347.763885 176.082059 
L 351.51922 176.401753 
L 354.932522 176.349512 
L 358.050182 175.985525 
L 360.906412 175.356442 
L 363.527064 174.499431 
L 365.932074 173.444809 
L 368.137085 172.217824 
L 370.154548 170.83988 
L 371.994498 169.329419 
L 373.665101 167.702563 
L 375.173059 165.973592 
L 376.5239 164.155311 
L 377.722202 162.259332 
L 378.771752 160.296301 
L 379.67568 158.276076 
L 380.763995 155.158532 
L 381.536921 151.962014 
L 381.998944 148.713794 
L 382.152667 145.44 
L 381.998944 142.166206 
L 381.536921 138.917986 
L 380.763995 135.721468 
L 379.67568 132.603924 
L 378.771752 130.583699 
L 377.722202 128.620668 
L 376.5239 126.724689 
L 375.173059 124.906408 
L 373.665101 123.177437 
L 371.994498 121.550581 
L 370.154548 120.04012 
L 368.137085 118.662176 
L 365.932074 117.435191 
L 363.527064 116.380569 
L 360.906412 115.523558 
L 358.050182 114.894475 
L 354.932522 114.530488 
L 351.51922 114.478247 
L 347.763885 114.797941 
L 343.601721 115.569823 
L 341.340318 116.158464 
L 338.938842 116.905247 
L 336.377837 117.83219 
L 333.632683 118.966649 
L 330.671647 120.343259 
L 327.45293 122.006875 
L 323.920017 124.01716 
L 319.994015 126.456102 
L 315.560293 129.441033 
L 310.443473 133.148851 
L 304.355985 137.86551 
L 296.777617 144.101136 
M 300.507755 140.065123 
L 307.042574 133.14234 
L 312.157383 127.382221 
L 316.299283 122.398031 
L 319.727969 117.968385 
L 322.608006 113.955116 
L 325.05043 110.266478 
L 327.133823 106.838639 
L 328.915919 103.625545 
L 330.440446 100.592992 
L 331.741366 97.714967 
L 332.84562 94.971302 
L 333.774976 92.3461 
L 335.177477 87.402705 
L 336.059655 82.809216 
L 336.50171 78.51459 
L 336.564079 74.483387 
L 336.293874 70.690521 
L 335.728918 67.118009 
L 334.900379 63.752877 
L 333.834544 60.58575 
L 332.554056 57.609891 
L 331.078792 54.820516 
L 329.426506 52.214295 
L 327.613298 49.788992 
L 325.653977 47.543191 
L 323.562329 45.476082 
L 321.351327 43.587306 
L 319.033301 41.876824 
L 316.620062 40.344823 
L 314.123008 38.991631 
L 311.55321 37.817658 
L 308.921474 36.823347 
L 306.238403 36.009129 
L 303.514437 35.375399 
L 300.7599 34.922485 
L 297.985027 34.650634 
L 295.2 34.56 
L 292.414973 34.650634 
L 289.6401 34.922485 
L 286.885563 35.375399 
L 284.161597 36.009129 
L 281.478526 36.823347 
L 278.84679 37.817658 
L 276.276992 38.991631 
L 273.779938 40.344823 
L 271.366699 41.876824 
L 269.048673 43.587306 
L 266.837671 45.476082 
L 264.746023 47.543191 
L 262.786702 49.788992 
L 260.973494 52.214295 
L 259.321208 54.820516 
L 257.845944 57.609891 
L 256.565456 60.58575 
L 255.499621 63.752877 
L 254.671082 67.118009 
L 254.106126 70.690521 
L 253.835921 74.483387 
L 253.89829 78.51459 
L 254.340345 82.809216 
L 255.222523 87.402705 
L 255.852696 89.826657 
L 256.625024 92.3461 
L 257.55438 94.971302 
L 258.658634 97.714967 
L 259.959554 100.592992 
L 261.484081 103.625545 
L 263.266177 106.838639 
L 265.34957 110.266478 
L 267.791994 113.955116 
L 270.672031 117.968385 
L 274.100717 122.398031 
L 278.242617 127.382221 
L 283.357426 133.14234 
L 289.892245 140.065123 
M 293.622383 144.101136 
L 286.044015 137.86551 
L 279.956527 133.148851 
L 274.839707 129.441033 
L 270.405985 126.456102 
L 266.479983 124.01716 
L 262.94707 122.006875 
L 259.728353 120.343259 
L 256.767317 118.966649 
L 254.022163 117.83219 
L 251.461158 116.905247 
L 246.798279 115.569823 
L 242.636115 114.797941 
L 238.88078 114.478247 
L 235.467478 114.530488 
L 232.349818 114.894475 
L 229.493588 115.523558 
L 226.872936 116.380569 
L 224.467926 117.435191 
L 222.262915 118.662176 
L 220.245452 120.04012 
L 218.405502 121.550581 
L 216.734899 123.177437 
L 215.226941 124.906408 
L 213.8761 126.724689 
L 212.677798 128.620668 
L 211.628248 130.583699 
L 210.72432 132.603924 
L 209.636005 135.721468 
L 208.863079 138.917986 
L 208.401056 142.166206 
L 208.247333 145.44 
L 208.401056 148.713794 
L 208.863079 151.962014 
L 209.636005 155.158532 
L 210.72432 158.276076 
L 211.628248 160.296301 
L 212.677798 162.259332 
L 213.8761 164.155311 
L 215.226941 165.973592 
L 216.734899 167.702563 
L 218.405502 169.329419 
L 220.245452 170.83988 
L 222.262915 172.217824 
L 224.467926 173.444809 
L 226.872936 174.499431 
L 229.493588 175.356442 
L 232.349818 175.985525 
L 235.467478 176.349512 
L 238.88078 176.401753 
L 242.636115 176.082059 
L 246.798279 175.310177 
L 249.059682 174.721536 
L 251.461158 173.974753 
L 254.022163 173.04781 
L 256.767317 171.913351 
L 259.728353 170.536741 
L 262.94707 168.873125 
L 266.479983 166.86284 
L 270.405985 164.423898 
L 274.839707 161.438967 
L 279.956527 157.731149 
L 286.044015 153.01449 
L 293.622383 146.778864 
M 289.892245 150.814877 
L 283.357426 157.73766 
L 278.242617 163.497779 
L 274.100717 168.481969 
L 270.672031 172.911615 
L 267.791994 176.924884 
L 265.34957 180.613522 
L 263.266177 184.041361 
L 261.484081 187.254455 
L 259.959554 190.287008 
L 258.658634 193.165033 
L 257.55438 195.908698 
L 256.625024 198.5339 
L 255.222523 203.477295 
L 254.340345 208.070784 
L 253.89829 212.36541 
L 253.835921 216.396613 
L 254.106126 220.189479 
L 254.671082 223.761991 
L 255.499621 227.127123 
L 256.565456 230.29425 
L 257.845944 233.270109 
L 259.321208 236.059484 
L 260.973494 238.665705 
L 262.786702 241.091008 
L 264.746023 243.336809 
L 266.837671 245.403918 
L 269.048673 247.292694 
L 271.366699 249.003176 
L 273.779938 250.535177 
L 276.276992 251.888369 
L 278.84679 253.062342 
L 281.478526 254.056653 
L 284.161597 254.870871 
L 286.885563 255.504601 
L 289.6401 255.957515 
L 292.414973 256.229366 
L 295.2 256.32 
L 295.2 256.32 
" clip-path="url(#p7a6b63a9b3)" style="fill: none; stroke: #1f77b4; stroke-width: 2; stroke-linecap: square"/>
   </g>
   <g id="line2d_15">
    <path d="M 295.2 256.32 
L 297.984255 256.19867 
L 300.753729 255.834857 
L 303.493625 255.229093 
L 306.189116 254.382257 
L 308.825325 253.295557 
L 311.387307 251.970514 
L 313.860014 250.408933 
L 316.228265 248.612871 
L 318.476704 246.584587 
L 320.589736 244.326495 
L 322.551463 241.841089 
L 324.345581 239.130864 
L 325.955271 236.198204 
L 327.363036 233.045254 
L 328.550501 229.67375 
L 329.498151 226.084799 
L 330.184981 222.278601 
L 330.588027 218.254068 
L 330.681736 214.008328 
L 330.437088 209.536025 
L 329.820368 204.828341 
L 328.79139 199.871585 
L 327.300869 194.645081 
L 325.286386 189.117905 
L 324.058051 186.227869 
L 322.665943 183.243627 
L 321.094991 180.155499 
L 319.327143 176.951376 
L 317.340458 173.615957 
L 315.10783 170.129675 
L 312.595148 166.467121 
L 309.75854 162.594699 
L 306.540142 158.466962 
L 302.86125 154.02069 
L 298.610712 149.164748 
M 295.410812 145.589153 
L 298.592105 147.714247 
L 300.929907 149.07631 
L 303.225025 150.118179 
L 304.096437 150.330858 
L 304.516129 150.260774 
L 304.525378 149.972184 
L 304.151701 149.515752 
L 303.412218 148.932648 
L 301.633731 147.89423 
L 299.045988 146.743291 
L 295.604077 145.560154 
M 295.604077 145.319846 
L 299.045988 144.136709 
L 301.633731 142.98577 
L 303.412218 141.947352 
L 304.385119 141.117811 
L 304.570065 140.739636 
L 304.516129 140.619226 
L 304.096437 140.549142 
L 303.225025 140.761821 
L 301.84098 141.341649 
L 299.853349 142.404205 
L 297.121773 144.116237 
L 295.410812 145.290847 
M 298.610712 141.715252 
L 302.86125 136.85931 
L 306.540142 132.413038 
L 309.75854 128.285301 
L 312.595148 124.412879 
L 315.10783 120.750325 
L 317.340458 117.264043 
L 319.327143 113.928624 
L 321.094991 110.724501 
L 322.665943 107.636373 
L 325.286386 101.762095 
L 327.300869 96.234919 
L 328.79139 91.008415 
L 329.820368 86.051659 
L 330.437088 81.343975 
L 330.681736 76.871672 
L 330.588027 72.625932 
L 330.184981 68.601399 
L 329.498151 64.795201 
L 328.550501 61.20625 
L 327.363036 57.834746 
L 325.955271 54.681796 
L 324.345581 51.749136 
L 322.551463 49.038911 
L 320.589736 46.553505 
L 318.476704 44.295413 
L 316.228265 42.267129 
L 313.860014 40.471067 
L 311.387307 38.909486 
L 308.825325 37.584443 
L 306.189116 36.497743 
L 303.493625 35.650907 
L 300.753729 35.045143 
L 297.984255 34.68133 
L 296.593051 34.590335 
M 293.806949 34.590335 
L 291.028236 34.832951 
L 288.2717 35.317828 
L 285.552151 36.044259 
L 282.884437 37.011198 
L 280.283468 38.217278 
L 277.764235 39.660832 
L 275.341849 41.339925 
L 273.03157 43.252391 
L 270.848868 45.395888 
L 268.809479 47.767951 
L 266.92949 50.366074 
L 265.225444 53.187804 
L 263.71448 56.230855 
L 262.414505 59.493266 
L 261.344424 62.973582 
L 260.524449 66.671111 
L 259.976496 70.586243 
L 259.724731 74.720884 
L 259.796314 79.079047 
L 260.222429 83.667674 
L 261.039761 88.497806 
L 262.292645 93.586305 
L 264.03631 98.958466 
L 266.341949 104.652131 
L 267.734057 107.636373 
L 269.305009 110.724501 
L 271.072857 113.928624 
L 273.059542 117.264043 
L 275.29217 120.750325 
L 277.804852 124.412879 
L 280.64146 128.285301 
L 283.859858 132.413038 
L 287.53875 136.85931 
L 291.789288 141.715252 
M 294.989188 145.290847 
L 291.807895 143.165753 
L 289.470093 141.80369 
L 287.174975 140.761821 
L 286.303563 140.549142 
L 285.883871 140.619226 
L 285.874622 140.907816 
L 286.248299 141.364248 
L 286.987782 141.947352 
L 288.766269 142.98577 
L 291.354012 144.136709 
L 294.795923 145.319846 
M 294.795923 145.560154 
L 291.354012 146.743291 
L 288.766269 147.89423 
L 286.987782 148.932648 
L 286.014881 149.762189 
L 285.829935 150.140364 
L 285.883871 150.260774 
L 286.303563 150.330858 
L 287.174975 150.118179 
L 288.55902 149.538351 
L 290.546651 148.475795 
L 293.278227 146.763763 
L 294.989188 145.589153 
M 291.789288 149.164748 
L 287.53875 154.02069 
L 283.859858 158.466962 
L 280.64146 162.594699 
L 277.804852 166.467121 
L 275.29217 170.129675 
L 273.059542 173.615957 
L 271.072857 176.951376 
L 269.305009 180.155499 
L 267.734057 183.243627 
L 265.113614 189.117905 
L 263.099131 194.645081 
L 261.60861 199.871585 
L 260.579632 204.828341 
L 259.962912 209.536025 
L 259.718264 214.008328 
L 259.811973 218.254068 
L 260.215019 222.278601 
L 260.901849 226.084799 
L 261.849499 229.67375 
L 263.036964 233.045254 
L 264.444729 236.198204 
L 266.054419 239.130864 
L 267.848537 241.841089 
L 269.810264 244.326495 
L 271.923296 246.584587 
L 274.171735 248.612871 
L 276.539986 250.408933 
L 279.012693 251.970514 
L 281.574675 253.295557 
L 284.210884 254.382257 
L 286.906375 255.229093 
L 289.646271 255.834857 
L 292.415745 256.19867 
L 295.2 256.32 
L 295.2 256.32 
" clip-path="url(#p7a6b63a9b3)" style="fill: none; stroke: #ff7f0e; stroke-width: 2; stroke-linecap: square"/>
   </g>
   <g id="patch_3">
    <path d="M 295.2 34.56 
C 280.639372 34.56 266.220327 37.428126 252.768061 43.000237 
C 239.315795 48.572349 227.091919 56.740081 216.796 67.036 
C 206.500081 77.331919 198.332349 89.555795 192.760237 103.008061 
C 187.188126 116.460327 184.32 130.879372 184.32 145.44 
C 184.32 160.000628 187.188126 174.419673 192.760237 187.871939 
C 198.332349 201.324205 206.500081 213.548081 216.796 223.844 
C 227.091919 234.139919 239.315795 242.307651 252.768061 247.879763 
C 266.220327 253.451874 280.639372 256.32 295.2 256.32 
C 309.760628 256.32 324.179673 253.451874 337.631939 247.879763 
C 351.084205 242.307651 363.308081 234.139919 373.604 223.844 
C 383.899919 213.548081 392.067651 201.324205 397.639763 187.871939 
C 403.211874 174.419673 406.08 160.000628 406.08 145.44 
C 406.08 130.879372 403.211874 116.460327 397.639763 103.008061 
C 392.067651 89.555795 383.899919 77.331919 373.604 67.036 
C 363.308081 56.740081 351.084205 48.572349 337.631939 43.000237 
C 324.179673 37.428126 309.760628 34.56 295.2 34.56 
" style="fill: none; stroke: #000000; stroke-width: 0.8; stroke-linejoin: miter; stroke-linecap: square"/>
   </g>
   <g id="legend_1">
    <g id="patch_4">
     <path d="M 285.96 80.64 
L 397.68 80.64 
Q 400.08 80.64 400.08 78.24 
L 400.08 42.96 
Q 400.08 40.56 397.68 40.56 
L 285.96 40.56 
Q 283.56 40.56 283.56 42.96 
L 283.56 78.24 
Q 283.56 80.64 285.96 80.64 
z
" style="fill: #ffffff; opacity: 0.8; stroke: #cccccc; stroke-linejoin: miter"/>
    </g>
    <g id="line2d_16">
     <path d="M 288.36 50.28 
L 300.36 50.28 
L 312.36 50.28 
" style="fill: none; stroke: #1f77b4; stroke-width: 2; stroke-linecap: square"/>
    </g>
    <g id="text_14">
     <!-- $E_\theta$ ($E$-plane) -->
     <g transform="translate(321.96 54.48) scale(0.12 -0.12)">
      <defs>
       <path id="DejaVuSans-Oblique-45" d="M 1081 4666 
L 4031 4666 
L 3928 4134 
L 1606 4134 
L 1338 2753 
L 3566 2753 
L 3463 2222 
L 1234 2222 
L 909 531 
L 3284 531 
L 3181 0 
L 172 0 
L 1081 4666 
z
" transform="scale(0.015625)"/>
       <path id="DejaVuSans-Oblique-3b8" d="M 2913 2219 
L 925 2219 
Q 791 1284 928 888 
Q 1100 400 1566 400 
Q 2034 400 2391 891 
Q 2703 1322 2913 2219 
z
M 3009 2750 
Q 3094 3638 2984 3950 
Q 2813 4444 2353 4444 
Q 1875 4444 1525 3956 
Q 1250 3563 1034 2750 
L 3009 2750 
z
M 2444 4913 
Q 3194 4913 3494 4250 
Q 3794 3591 3566 2422 
Q 3341 1256 2781 594 
Q 2225 -72 1475 -72 
Q 722 -72 425 594 
Q 128 1256 353 2422 
Q 581 3591 1134 4250 
Q 1691 4913 2444 4913 
z
" transform="scale(0.015625)"/>
       <path id="DejaVuSans-20" transform="scale(0.015625)"/>
       <path id="DejaVuSans-28" d="M 1984 4856 
Q 1566 4138 1362 3434 
Q 1159 2731 1159 2009 
Q 1159 1288 1364 580 
Q 1569 -128 1984 -844 
L 1484 -844 
Q 1016 -109 783 600 
Q 550 1309 550 2009 
Q 550 2706 781 3412 
Q 1013 4119 1484 4856 
L 1984 4856 
z
" transform="scale(0.015625)"/>
       <path id="DejaVuSans-2d" d="M 313 2009 
L 1997 2009 
L 1997 1497 
L 313 1497 
L 313 2009 
z
" transform="scale(0.015625)"/>
       <path id="DejaVuSans-70" d="M 1159 525 
L 1159 -1331 
L 581 -1331 
L 581 3500 
L 1159 3500 
L 1159 2969 
Q 1341 3281 1617 3432 
Q 1894 3584 2278 3584 
Q 2916 3584 3314 3078 
Q 3713 2572 3713 1747 
Q 3713 922 3314 415 
Q 2916 -91 2278 -91 
Q 1894 -91 1617 61 
Q 1341 213 1159 525 
z
M 3116 1747 
Q 3116 2381 2855 2742 
Q 2594 3103 2138 3103 
Q 1681 3103 1420 2742 
Q 1159 2381 1159 1747 
Q 1159 1113 1420 752 
Q 1681 391 2138 391 
Q 2594 391 2855 752 
Q 3116 1113 3116 1747 
z
" transform="scale(0.015625)"/>
       <path id="DejaVuSans-6c" d="M 603 4863 
L 1178 4863 
L 1178 0 
L 603 0 
L 603 4863 
z
" transform="scale(0.015625)"/>
       <path id="DejaVuSans-61" d="M 2194 1759 
Q 1497 1759 1228 1600 
Q 959 1441 959 1056 
Q 959 750 1161 570 
Q 1363 391 1709 391 
Q 2188 391 2477 730 
Q 2766 1069 2766 1631 
L 2766 1759 
L 2194 1759 
z
M 3341 1997 
L 3341 0 
L 2766 0 
L 2766 531 
Q 2569 213 2275 61 
Q 1981 -91 1556 -91 
Q 1019 -91 701 211 
Q 384 513 384 1019 
Q 384 1609 779 1909 
Q 1175 2209 1959 2209 
L 2766 2209 
L 2766 2266 
Q 2766 2663 2505 2880 
Q 2244 3097 1772 3097 
Q 1472 3097 1187 3025 
Q 903 2953 641 2809 
L 641 3341 
Q 956 3463 1253 3523 
Q 1550 3584 1831 3584 
Q 2591 3584 2966 3190 
Q 3341 2797 3341 1997 
z
" transform="scale(0.015625)"/>
       <path id="DejaVuSans-6e" d="M 3513 2113 
L 3513 0 
L 2938 0 
L 2938 2094 
Q 2938 2591 2744 2837 
Q 2550 3084 2163 3084 
Q 1697 3084 1428 2787 
Q 1159 2491 1159 1978 
L 1159 0 
L 581 0 
L 581 3500 
L 1159 3500 
L 1159 2956 
Q 1366 3272 1645 3428 
Q 1925 3584 2291 3584 
Q 2894 3584 3203 3211 
Q 3513 2838 3513 2113 
z
" transform="scale(0.015625)"/>
       <path id="DejaVuSans-65" d="M 3597 1894 
L 3597 1613 
L 953 1613 
Q 991 1019 1311 708 
Q 1631 397 2203 397 
Q 2534 397 2845 478 
Q 3156 559 3463 722 
L 3463 178 
Q 3153 47 2828 -22 
Q 2503 -91 2169 -91 
Q 1331 -91 842 396 
Q 353 884 353 1716 
Q 353 2575 817 3079 
Q 1281 3584 2069 3584 
Q 2775 3584 3186 3129 
Q 3597 2675 3597 1894 
z
M 3022 2063 
Q 3016 2534 2758 2815 
Q 2500 3097 2075 3097 
Q 1594 3097 1305 2825 
Q 1016 2553 972 2059 
L 3022 2063 
z
" transform="scale(0.015625)"/>
       <path id="DejaVuSans-29" d="M 513 4856 
L 1013 4856 
Q 1481 4119 1714 3412 
Q 1947 2706 1947 2009 
Q 1947 1309 1714 600 
Q 1481 -109 1013 -844 
L 513 -844 
Q 928 -128 1133 580 
Q 1338 1288 1338 2009 
Q 1338 2731 1133 3434 
Q 928 4138 513 4856 
z
" transform="scale(0.015625)"/>
      </defs>
      <use xlink:href="#DejaVuSans-Oblique-45" transform="translate(0 0.015625)"/>
      <use xlink:href="#DejaVuSans-Oblique-3b8" transform="translate(63.183594 -16.390625) scale(0.7)"/>
      <use xlink:href="#DejaVuSans-20" transform="translate(108.745117 0.015625)"/>
      <use xlink:href="#DejaVuSans-28" transform="translate(140.532227 0.015625)"/>
      <use xlink:href="#DejaVuSans-Oblique-45" transform="translate(179.545898 0.015625)"/>
      <use xlink:href="#DejaVuSans-2d" transform="translate(242.729492 0.015625)"/>
      <use xlink:href="#DejaVuSans-70" transform="translate(278.813477 0.015625)"/>
      <use xlink:href="#DejaVuSans-6c" transform="translate(342.290039 0.015625)"/>
      <use xlink:href="#DejaVuSans-61" transform="translate(370.073242 0.015625)"/>
      <use xlink:href="#DejaVuSans-6e" transform="translate(431.352539 0.015625)"/>
      <use xlink:href="#DejaVuSans-65" transform="translate(494.731445 0.015625)"/>
      <use xlink:href="#DejaVuSans-29" transform="translate(556.254883 0.015625)"/>
     </g>
    </g>
    <g id="line2d_17">
     <path d="M 288.36 67.92 
L 300.36 67.92 
L 312.36 67.92 
" style="fill: none; stroke: #ff7f0e; stroke-width: 2; stroke-linecap: square"/>
    </g>
    <g id="text_15">
     <!-- $E_\phi$ ($H$-plane) -->
     <g transform="translate(321.96 72.12) scale(0.12 -0.12)">
      <defs>
       <path id="DejaVuSans-Oblique-3d5" d="M 2991 4863 
L 2738 3572 
Q 3363 3572 3684 3094 
Q 4016 2606 3850 1747 
Q 3681 888 3159 400 
Q 2653 -78 2028 -78 
L 1784 -1331 
L 1213 -1331 
L 1456 -78 
Q 834 -78 509 400 
Q 178 888 347 1747 
Q 513 2606 1034 3094 
Q 1544 3572 2166 3572 
L 2419 4863 
L 2991 4863 
z
M 2128 434 
Q 2481 434 2784 756 
Q 3116 1116 3244 1747 
Q 3369 2372 3169 2738 
Q 2991 3059 2638 3059 
L 2128 434 
z
M 1556 434 
L 2066 3059 
Q 1716 3059 1413 2738 
Q 1072 2372 953 1747 
Q 834 1116 1028 756 
Q 1203 434 1556 434 
z
" transform="scale(0.015625)"/>
       <path id="DejaVuSans-Oblique-48" d="M 1081 4666 
L 1716 4666 
L 1344 2753 
L 3634 2753 
L 4006 4666 
L 4641 4666 
L 3731 0 
L 3097 0 
L 3531 2222 
L 1241 2222 
L 806 0 
L 172 0 
L 1081 4666 
z
" transform="scale(0.015625)"/>
      </defs>
      <use xlink:href="#DejaVuSans-Oblique-45" transform="translate(0 0.015625)"/>
      <use xlink:href="#DejaVuSans-Oblique-3d5" transform="translate(63.183594 -16.390625) scale(0.7)"/>
      <use xlink:href="#DejaVuSans-20" transform="translate(112.094727 0.015625)"/>
      <use xlink:href="#DejaVuSans-28" transform="translate(143.881836 0.015625)"/>
      <use xlink:href="#DejaVuSans-Oblique-48" transform="translate(182.895508 0.015625)"/>
      <use xlink:href="#DejaVuSans-2d" transform="translate(258.09082 0.015625)"/>
      <use xlink:href="#DejaVuSans-70" transform="translate(294.174805 0.015625)"/>
      <use xlink:href="#DejaVuSans-6c" transform="translate(357.651367 0.015625)"/>
      <use xlink:href="#DejaVuSans-61" transform="translate(385.43457 0.015625)"/>
      <use xlink:href="#DejaVuSans-6e" transform="translate(446.713867 0.015625)"/>
      <use xlink:href="#DejaVuSans-65" transform="translate(510.092773 0.015625)"/>
      <use xlink:href="#DejaVuSans-29" transform="translate(571.616211 0.015625)"/>
     </g>
    </g>
   </g>
  </g>
 </g>
 <defs>
  <clipPath id="p7a6b63a9b3">
   <path d="M 406.08 145.44 
C 406.08 130.879372 403.211874 116.460327 397.639763 103.008061 
C 392.067651 89.555795 383.899919 77.331919 373.604 67.036 
C 363.308081 56.740081 351.084205 48.572349 337.631939 43.000237 
C 324.179673 37.428126 309.760628 34.56 295.2 34.56 
C 280.639372 34.56 266.220327 37.428126 252.768061 43.000237 
C 239.315795 48.572349 227.091919 56.740081 216.796 67.036 
C 206.500081 77.331919 198.332349 89.555795 192.760237 103.008061 
C 187.188126 116.460327 184.32 130.879372 184.32 145.44 
C 184.32 160.000628 187.188126 174.419673 192.760237 187.871939 
C 198.332349 201.324205 206.500081 213.548081 216.796 223.844 
C 227.091919 234.139919 239.315795 242.307651 252.768061 247.879763 
C 266.220327 253.451874 280.639372 256.32 295.2 256.32 
C 309.760628 256.32 324.179673 253.451874 337.631939 247.879763 
C 351.084205 242.307651 363.308081 234.139919 373.604 223.844 
C 383.899919 213.548081 392.067651 201.324205 397.639763 187.871939 
C 403.211874 174.419673 406.08 160.000628 406.08 145.44 
M 295.2 145.44 
C 295.2 145.44 295.2 145.44 295.2 145.44 
C 295.2 145.44 295.2 145.44 295.2 145.44 
C 295.2 145.44 295.2 145.44 295.2 145.44 
C 295.2 145.44 295.2 145.44 295.2 145.44 
C 295.2 145.44 295.2 145.44 295.2 145.44 
C 295.2 145.44 295.2 145.44 295.2 145.44 
C 295.2 145.44 295.2 145.44 295.2 145.44 
C 295.2 145.44 295.2 145.44 295.2 145.44 
C 295.2 145.44 295.2 145.44 295.2 145.44 
C 295.2 145.44 295.2 145.44 295.2 145.44 
C 295.2 145.44 295.2 145.44 295.2 145.44 
C 295.2 145.44 295.2 145.44 295.2 145.44 
C 295.2 145.44 295.2 145.44 295.2 145.44 
C 295.2 145.44 295.2 145.44 295.2 145.44 
C 295.2 145.44 295.2 145.44 295.2 145.44 
C 295.2 145.44 295.2 145.44 295.2 145.44 
z
"/>
  </clipPath>
 </defs>
</svg>
