<?xml version="1.0" encoding="utf-8" standalone="no"?>
<!DOCTYPE svg PUBLIC "-//W3C//DTD SVG 1.1//EN"
  "http://www.w3.org/Graphics/SVG/1.1/DTD/svg11.dtd">
<svg xmlns:xlink="http://www.w3.org/1999/xlink" width="576pt" height="288pt" viewBox="0 0 576 288" xmlns="http://www.w3.org/2000/svg" version="1.1">
 <metadata>
  <rdf:RDF xmlns:dc="http://purl.org/dc/elements/1.1/" xmlns:cc="http://creativecommons.org/ns#" xmlns:rdf="http://www.w3.org/1999/02/22-rdf-syntax-ns#">
   <cc:Work>
    <dc:type rdf:resource="http://purl.org/dc/dcmitype/StillImage"/>
    <dc:date>2024-03-03T16:59:04.254079</dc:date>
    <dc:format>image/svg+xml</dc:format>
    <dc:creator>
     <cc:Agent>
      <dc:title>Matplotlib v3.7.2, https://matplotlib.org/</dc:title>
     </cc:Agent>
    </dc:creator>
   </cc:Work>
  </rdf:RDF>
 </metadata>
 <defs>
  <style type="text/css">*{stroke-linejoin: round; stroke-linecap: butt}</style>
 </defs>
 <g id="figure_1">
  <g id="patch_1">
   <path d="M 0 288 
L 576 288 
L 576 0 
L 0 0 
z
" style="fill: #ffffff"/>
  </g>
  <g id="axes_1">
   <g id="patch_2">
    <path d="M 406.08 145.44 
C 406.08 130.879372 403.211874 116.460327 397.639763 103.008061 
C 392.067651 89.555795 383.899919 77.331919 373.604 67.036 
C 363.308081 56.740081 351.084205 48.572349 337.631939 43.000237 
C 324.179673 37.428126 309.760628 34.56 295.2 34.56 
C 280.639372 34.56 266.220327 37.428126 252.768061 43.000237 
C 239.315795 48.572349 227.091919 56.740081 216.796 67.036 
C 206.500081 77.331919 198.332349 89.555795 192.760237 103.008061 
C 187.188126 116.460327 184.32 130.879372 184.32 145.44 
C 184.32 160.000628 187.188126 174.419673 192.760237 187.871939 
C 198.332349 201.324205 206.500081 213.548081 216.796 223.844 
C 227.091919 234.139919 239.315795 242.307651 252.768061 247.879763 
C 266.220327 253.451874 280.639372 256.32 295.2 256.32 
C 309.760628 256.32 324.179673 253.451874 337.631939 247.879763 
C 351.084205 242.307651 363.308081 234.139919 373.604 223.844 
C 383.899919 213.548081 392.067651 201.324205 397.639763 187.871939 
C 403.211874 174.419673 406.08 160.000628 406.08 145.44 
M 295.2 145.44 
C 295.2 145.44 295.2 145.44 295.2 145.44 
C 295.2 145.44 295.2 145.44 295.2 145.44 
C 295.2 145.44 295.2 145.44 295.2 145.44 
C 295.2 145.44 295.2 145.44 295.2 145.44 
C 295.2 145.44 295.2 145.44 295.2 145.44 
C 295.2 145.44 295.2 145.44 295.2 145.44 
C 295.2 145.44 295.2 145.44 295.2 145.44 
C 295.2 145.44 295.2 145.44 295.2 145.44 
C 295.2 145.44 295.2 145.44 295.2 145.44 
C 295.2 145.44 295.2 145.44 295.2 145.44 
C 295.2 145.44 295.2 145.44 295.2 145.44 
C 295.2 145.44 295.2 145.44 295.2 145.44 
C 295.2 145.44 295.2 145.44 295.2 145.44 
C 295.2 145.44 295.2 145.44 295.2 145.44 
C 295.2 145.44 295.2 145.44 295.2 145.44 
C 295.2 145.44 295.2 145.44 295.2 145.44 
z
" style="fill: #ffffff"/>
   </g>
   <g id="matplotlib.axis_1">
    <g id="xtick_1">
     <g id="line2d_1">
      <path d="M 295.2 145.44 
L 295.2 34.56 
" clip-path="url(#p5bdde2528c)" style="fill: none; stroke-dasharray: 2.96,1.28; stroke-dashoffset: 0; stroke: #b0b0b0; stroke-width: 0.8"/>
     </g>
     <g id="text_1">
      <!-- 0° -->
      <g transform="translate(288.3825 23.87125) scale(0.12 -0.12)">
       <defs>
        <path id="DejaVuSans-30" d="M 2034 4250 
Q 1547 4250 1301 3770 
Q 1056 3291 1056 2328 
Q 1056 1369 1301 889 
Q 1547 409 2034 409 
Q 2525 409 2770 889 
Q 3016 1369 3016 2328 
Q 3016 3291 2770 3770 
Q 2525 4250 2034 4250 
z
M 2034 4750 
Q 2819 4750 3233 4129 
Q 3647 3509 3647 2328 
Q 3647 1150 3233 529 
Q 2819 -91 2034 -91 
Q 1250 -91 836 529 
Q 422 1150 422 2328 
Q 422 3509 836 4129 
Q 1250 4750 2034 4750 
z
" transform="scale(0.015625)"/>
        <path id="DejaVuSans-b0" d="M 1600 4347 
Q 1350 4347 1178 4173 
Q 1006 4000 1006 3750 
Q 1006 3503 1178 3333 
Q 1350 3163 1600 3163 
Q 1850 3163 2022 3333 
Q 2194 3503 2194 3750 
Q 2194 3997 2020 4172 
Q 1847 4347 1600 4347 
z
M 1600 4750 
Q 1800 4750 1984 4673 
Q 2169 4597 2303 4453 
Q 2447 4313 2519 4134 
Q 2591 3956 2591 3750 
Q 2591 3338 2302 3052 
Q 2013 2766 1594 2766 
Q 1172 2766 890 3047 
Q 609 3328 609 3750 
Q 609 4169 896 4459 
Q 1184 4750 1600 4750 
z
" transform="scale(0.015625)"/>
       </defs>
       <use xlink:href="#DejaVuSans-30"/>
       <use xlink:href="#DejaVuSans-b0" x="63.623047"/>
      </g>
     </g>
    </g>
    <g id="xtick_2">
     <g id="line2d_2">
      <path d="M 295.2 145.44 
L 216.796 67.036 
" clip-path="url(#p5bdde2528c)" style="fill: none; stroke-dasharray: 2.96,1.28; stroke-dashoffset: 0; stroke: #b0b0b0; stroke-width: 0.8"/>
     </g>
     <g id="text_2">
      <!-- 45° -->
      <g transform="translate(196.261505 60.447755) scale(0.12 -0.12)">
       <defs>
        <path id="DejaVuSans-34" d="M 2419 4116 
L 825 1625 
L 2419 1625 
L 2419 4116 
z
M 2253 4666 
L 3047 4666 
L 3047 1625 
L 3713 1625 
L 3713 1100 
L 3047 1100 
L 3047 0 
L 2419 0 
L 2419 1100 
L 313 1100 
L 313 1709 
L 2253 4666 
z
" transform="scale(0.015625)"/>
        <path id="DejaVuSans-35" d="M 691 4666 
L 3169 4666 
L 3169 4134 
L 1269 4134 
L 1269 2991 
Q 1406 3038 1543 3061 
Q 1681 3084 1819 3084 
Q 2600 3084 3056 2656 
Q 3513 2228 3513 1497 
Q 3513 744 3044 326 
Q 2575 -91 1722 -91 
Q 1428 -91 1123 -41 
Q 819 9 494 109 
L 494 744 
Q 775 591 1075 516 
Q 1375 441 1709 441 
Q 2250 441 2565 725 
Q 2881 1009 2881 1497 
Q 2881 1984 2565 2268 
Q 2250 2553 1709 2553 
Q 1456 2553 1204 2497 
Q 953 2441 691 2322 
L 691 4666 
z
" transform="scale(0.015625)"/>
       </defs>
       <use xlink:href="#DejaVuSans-34"/>
       <use xlink:href="#DejaVuSans-35" x="63.623047"/>
       <use xlink:href="#DejaVuSans-b0" x="127.246094"/>
      </g>
     </g>
    </g>
    <g id="xtick_3">
     <g id="line2d_3">
      <path d="M 295.2 145.44 
L 184.32 145.44 
" clip-path="url(#p5bdde2528c)" style="fill: none; stroke-dasharray: 2.96,1.28; stroke-dashoffset: 0; stroke: #b0b0b0; stroke-width: 0.8"/>
     </g>
     <g id="text_3">
      <!-- 90° -->
      <g transform="translate(159.685 148.75125) scale(0.12 -0.12)">
       <defs>
        <path id="DejaVuSans-39" d="M 703 97 
L 703 672 
Q 941 559 1184 500 
Q 1428 441 1663 441 
Q 2288 441 2617 861 
Q 2947 1281 2994 2138 
Q 2813 1869 2534 1725 
Q 2256 1581 1919 1581 
Q 1219 1581 811 2004 
Q 403 2428 403 3163 
Q 403 3881 828 4315 
Q 1253 4750 1959 4750 
Q 2769 4750 3195 4129 
Q 3622 3509 3622 2328 
Q 3622 1225 3098 567 
Q 2575 -91 1691 -91 
Q 1453 -91 1209 -44 
Q 966 3 703 97 
z
M 1959 2075 
Q 2384 2075 2632 2365 
Q 2881 2656 2881 3163 
Q 2881 3666 2632 3958 
Q 2384 4250 1959 4250 
Q 1534 4250 1286 3958 
Q 1038 3666 1038 3163 
Q 1038 2656 1286 2365 
Q 1534 2075 1959 2075 
z
" transform="scale(0.015625)"/>
       </defs>
       <use xlink:href="#DejaVuSans-39"/>
       <use xlink:href="#DejaVuSans-30" x="63.623047"/>
       <use xlink:href="#DejaVuSans-b0" x="127.246094"/>
      </g>
     </g>
    </g>
    <g id="xtick_4">
     <g id="line2d_4">
      <path d="M 295.2 145.44 
L 216.796 223.844 
" clip-path="url(#p5bdde2528c)" style="fill: none; stroke-dasharray: 2.96,1.28; stroke-dashoffset: 0; stroke: #b0b0b0; stroke-width: 0.8"/>
     </g>
     <g id="text_4">
      <!-- 135° -->
      <g transform="translate(192.444005 237.054745) scale(0.12 -0.12)">
       <defs>
        <path id="DejaVuSans-31" d="M 794 531 
L 1825 531 
L 1825 4091 
L 703 3866 
L 703 4441 
L 1819 4666 
L 2450 4666 
L 2450 531 
L 3481 531 
L 3481 0 
L 794 0 
L 794 531 
z
" transform="scale(0.015625)"/>
        <path id="DejaVuSans-33" d="M 2597 2516 
Q 3050 2419 3304 2112 
Q 3559 1806 3559 1356 
Q 3559 666 3084 287 
Q 2609 -91 1734 -91 
Q 1441 -91 1130 -33 
Q 819 25 488 141 
L 488 750 
Q 750 597 1062 519 
Q 1375 441 1716 441 
Q 2309 441 2620 675 
Q 2931 909 2931 1356 
Q 2931 1769 2642 2001 
Q 2353 2234 1838 2234 
L 1294 2234 
L 1294 2753 
L 1863 2753 
Q 2328 2753 2575 2939 
Q 2822 3125 2822 3475 
Q 2822 3834 2567 4026 
Q 2313 4219 1838 4219 
Q 1578 4219 1281 4162 
Q 984 4106 628 3988 
L 628 4550 
Q 988 4650 1302 4700 
Q 1616 4750 1894 4750 
Q 2613 4750 3031 4423 
Q 3450 4097 3450 3541 
Q 3450 3153 3228 2886 
Q 3006 2619 2597 2516 
z
" transform="scale(0.015625)"/>
       </defs>
       <use xlink:href="#DejaVuSans-31"/>
       <use xlink:href="#DejaVuSans-33" x="63.623047"/>
       <use xlink:href="#DejaVuSans-35" x="127.246094"/>
       <use xlink:href="#DejaVuSans-b0" x="190.869141"/>
      </g>
     </g>
    </g>
    <g id="xtick_5">
     <g id="line2d_5">
      <path d="M 295.2 145.44 
L 295.2 256.32 
" clip-path="url(#p5bdde2528c)" style="fill: none; stroke-dasharray: 2.96,1.28; stroke-dashoffset: 0; stroke: #b0b0b0; stroke-width: 0.8"/>
     </g>
     <g id="text_5">
      <!-- 180° -->
      <g transform="translate(280.7475 273.63125) scale(0.12 -0.12)">
       <defs>
        <path id="DejaVuSans-38" d="M 2034 2216 
Q 1584 2216 1326 1975 
Q 1069 1734 1069 1313 
Q 1069 891 1326 650 
Q 1584 409 2034 409 
Q 2484 409 2743 651 
Q 3003 894 3003 1313 
Q 3003 1734 2745 1975 
Q 2488 2216 2034 2216 
z
M 1403 2484 
Q 997 2584 770 2862 
Q 544 3141 544 3541 
Q 544 4100 942 4425 
Q 1341 4750 2034 4750 
Q 2731 4750 3128 4425 
Q 3525 4100 3525 3541 
Q 3525 3141 3298 2862 
Q 3072 2584 2669 2484 
Q 3125 2378 3379 2068 
Q 3634 1759 3634 1313 
Q 3634 634 3220 271 
Q 2806 -91 2034 -91 
Q 1263 -91 848 271 
Q 434 634 434 1313 
Q 434 1759 690 2068 
Q 947 2378 1403 2484 
z
M 1172 3481 
Q 1172 3119 1398 2916 
Q 1625 2713 2034 2713 
Q 2441 2713 2670 2916 
Q 2900 3119 2900 3481 
Q 2900 3844 2670 4047 
Q 2441 4250 2034 4250 
Q 1625 4250 1398 4047 
Q 1172 3844 1172 3481 
z
" transform="scale(0.015625)"/>
       </defs>
       <use xlink:href="#DejaVuSans-31"/>
       <use xlink:href="#DejaVuSans-38" x="63.623047"/>
       <use xlink:href="#DejaVuSans-30" x="127.246094"/>
       <use xlink:href="#DejaVuSans-b0" x="190.869141"/>
      </g>
     </g>
    </g>
    <g id="xtick_6">
     <g id="line2d_6">
      <path d="M 295.2 145.44 
L 373.604 223.844 
" clip-path="url(#p5bdde2528c)" style="fill: none; stroke-dasharray: 2.96,1.28; stroke-dashoffset: 0; stroke: #b0b0b0; stroke-width: 0.8"/>
     </g>
     <g id="text_6">
      <!-- 225° -->
      <g transform="translate(369.050995 237.054745) scale(0.12 -0.12)">
       <defs>
        <path id="DejaVuSans-32" d="M 1228 531 
L 3431 531 
L 3431 0 
L 469 0 
L 469 531 
Q 828 903 1448 1529 
Q 2069 2156 2228 2338 
Q 2531 2678 2651 2914 
Q 2772 3150 2772 3378 
Q 2772 3750 2511 3984 
Q 2250 4219 1831 4219 
Q 1534 4219 1204 4116 
Q 875 4013 500 3803 
L 500 4441 
Q 881 4594 1212 4672 
Q 1544 4750 1819 4750 
Q 2544 4750 2975 4387 
Q 3406 4025 3406 3419 
Q 3406 3131 3298 2873 
Q 3191 2616 2906 2266 
Q 2828 2175 2409 1742 
Q 1991 1309 1228 531 
z
" transform="scale(0.015625)"/>
       </defs>
       <use xlink:href="#DejaVuSans-32"/>
       <use xlink:href="#DejaVuSans-32" x="63.623047"/>
       <use xlink:href="#DejaVuSans-35" x="127.246094"/>
       <use xlink:href="#DejaVuSans-b0" x="190.869141"/>
      </g>
     </g>
    </g>
    <g id="xtick_7">
     <g id="line2d_7">
      <path d="M 295.2 145.44 
L 406.08 145.44 
" clip-path="url(#p5bdde2528c)" style="fill: none; stroke-dasharray: 2.96,1.28; stroke-dashoffset: 0; stroke: #b0b0b0; stroke-width: 0.8"/>
     </g>
     <g id="text_7">
      <!-- 270° -->
      <g transform="translate(405.6275 148.75125) scale(0.12 -0.12)">
       <defs>
        <path id="DejaVuSans-37" d="M 525 4666 
L 3525 4666 
L 3525 4397 
L 1831 0 
L 1172 0 
L 2766 4134 
L 525 4134 
L 525 4666 
z
" transform="scale(0.015625)"/>
       </defs>
       <use xlink:href="#DejaVuSans-32"/>
       <use xlink:href="#DejaVuSans-37" x="63.623047"/>
       <use xlink:href="#DejaVuSans-30" x="127.246094"/>
       <use xlink:href="#DejaVuSans-b0" x="190.869141"/>
      </g>
     </g>
    </g>
    <g id="xtick_8">
     <g id="line2d_8">
      <path d="M 295.2 145.44 
L 373.604 67.036 
" clip-path="url(#p5bdde2528c)" style="fill: none; stroke-dasharray: 2.96,1.28; stroke-dashoffset: 0; stroke: #b0b0b0; stroke-width: 0.8"/>
     </g>
     <g id="text_8">
      <!-- 315° -->
      <g transform="translate(369.050995 60.447755) scale(0.12 -0.12)">
       <use xlink:href="#DejaVuSans-33"/>
       <use xlink:href="#DejaVuSans-31" x="63.623047"/>
       <use xlink:href="#DejaVuSans-35" x="127.246094"/>
       <use xlink:href="#DejaVuSans-b0" x="190.869141"/>
      </g>
     </g>
    </g>
   </g>
   <g id="matplotlib.axis_2">
    <g id="ytick_1">
     <g id="line2d_9">
      <path d="M 295.2 123.264 
C 292.287874 123.264 289.404065 123.837625 286.713612 124.952047 
C 284.023159 126.06647 281.578384 127.700016 279.5192 129.7592 
C 277.460016 131.818384 275.82647 134.263159 274.712047 136.953612 
C 273.597625 139.644065 273.024 142.527874 273.024 145.44 
C 273.024 148.352126 273.597625 151.235935 274.712047 153.926388 
C 275.82647 156.616841 277.460016 159.061616 279.5192 161.1208 
C 281.578384 163.179984 284.023159 164.81353 286.713612 165.927953 
C 289.404065 167.042375 292.287874 167.616 295.2 167.616 
C 298.112126 167.616 300.995935 167.042375 303.686388 165.927953 
C 306.376841 164.81353 308.821616 163.179984 310.8808 161.1208 
C 312.939984 159.061616 314.57353 156.616841 315.687953 153.926388 
C 316.802375 151.235935 317.376 148.352126 317.376 145.44 
C 317.376 142.527874 316.802375 139.644065 315.687953 136.953612 
C 314.57353 134.263159 312.939984 131.818384 310.8808 129.7592 
C 308.821616 127.700016 306.376841 126.06647 303.686388 124.952047 
C 300.995935 123.837625 298.112126 123.264 295.2 123.264 
" clip-path="url(#p5bdde2528c)" style="fill: none; stroke-dasharray: 2.96,1.28; stroke-dashoffset: 0; stroke: #b0b0b0; stroke-width: 0.8"/>
     </g>
     <g id="text_9">
      <!-- −20 -->
      <g transform="translate(286.713612 122.456422) scale(0.12 -0.12)">
       <defs>
        <path id="DejaVuSans-2212" d="M 678 2272 
L 4684 2272 
L 4684 1741 
L 678 1741 
L 678 2272 
z
" transform="scale(0.015625)"/>
       </defs>
       <use xlink:href="#DejaVuSans-2212"/>
       <use xlink:href="#DejaVuSans-32" x="83.789062"/>
       <use xlink:href="#DejaVuSans-30" x="147.412109"/>
      </g>
     </g>
    </g>
    <g id="ytick_2">
     <g id="line2d_10">
      <path d="M 295.2 101.088 
C 289.375749 101.088 283.608131 102.235251 278.227224 104.464095 
C 272.846318 106.692939 267.956768 109.960032 263.8384 114.0784 
C 259.720032 118.196768 256.452939 123.086318 254.224095 128.467224 
C 251.995251 133.848131 250.848 139.615749 250.848 145.44 
C 250.848 151.264251 251.995251 157.031869 254.224095 162.412776 
C 256.452939 167.793682 259.720032 172.683232 263.8384 176.8016 
C 267.956768 180.919968 272.846318 184.187061 278.227224 186.415905 
C 283.608131 188.644749 289.375749 189.792 295.2 189.792 
C 301.024251 189.792 306.791869 188.644749 312.172776 186.415905 
C 317.553682 184.187061 322.443232 180.919968 326.5616 176.8016 
C 330.679968 172.683232 333.947061 167.793682 336.175905 162.412776 
C 338.404749 157.031869 339.552 151.264251 339.552 145.44 
C 339.552 139.615749 338.404749 133.848131 336.175905 128.467224 
C 333.947061 123.086318 330.679968 118.196768 326.5616 114.0784 
C 322.443232 109.960032 317.553682 106.692939 312.172776 104.464095 
C 306.791869 102.235251 301.024251 101.088 295.2 101.088 
" clip-path="url(#p5bdde2528c)" style="fill: none; stroke-dasharray: 2.96,1.28; stroke-dashoffset: 0; stroke: #b0b0b0; stroke-width: 0.8"/>
     </g>
     <g id="text_10">
      <!-- −15 -->
      <g transform="translate(278.227224 101.96847) scale(0.12 -0.12)">
       <use xlink:href="#DejaVuSans-2212"/>
       <use xlink:href="#DejaVuSans-31" x="83.789062"/>
       <use xlink:href="#DejaVuSans-35" x="147.412109"/>
      </g>
     </g>
    </g>
    <g id="ytick_3">
     <g id="line2d_11">
      <path d="M 295.2 78.912 
C 286.463623 78.912 277.812196 80.632876 269.740837 83.976142 
C 261.669477 87.319409 254.335151 92.220049 248.1576 98.3976 
C 241.980049 104.575151 237.079409 111.909477 233.736142 119.980837 
C 230.392876 128.052196 228.672 136.703623 228.672 145.44 
C 228.672 154.176377 230.392876 162.827804 233.736142 170.899163 
C 237.079409 178.970523 241.980049 186.304849 248.1576 192.4824 
C 254.335151 198.659951 261.669477 203.560591 269.740837 206.903858 
C 277.812196 210.247124 286.463623 211.968 295.2 211.968 
C 303.936377 211.968 312.587804 210.247124 320.659163 206.903858 
C 328.730523 203.560591 336.064849 198.659951 342.2424 192.4824 
C 348.419951 186.304849 353.320591 178.970523 356.663858 170.899163 
C 360.007124 162.827804 361.728 154.176377 361.728 145.44 
C 361.728 136.703623 360.007124 128.052196 356.663858 119.980837 
C 353.320591 111.909477 348.419951 104.575151 342.2424 98.3976 
C 336.064849 92.220049 328.730523 87.319409 320.659163 83.976142 
C 312.587804 80.632876 303.936377 78.912 295.2 78.912 
" clip-path="url(#p5bdde2528c)" style="fill: none; stroke-dasharray: 2.96,1.28; stroke-dashoffset: 0; stroke: #b0b0b0; stroke-width: 0.8"/>
     </g>
     <g id="text_11">
      <!-- −10 -->
      <g transform="translate(269.740837 81.480517) scale(0.12 -0.12)">
       <use xlink:href="#DejaVuSans-2212"/>
       <use xlink:href="#DejaVuSans-31" x="83.789062"/>
       <use xlink:href="#DejaVuSans-30" x="147.412109"/>
      </g>
     </g>
    </g>
    <g id="ytick_4">
     <g id="line2d_12">
      <path d="M 295.2 56.736 
C 283.551497 56.736 272.016262 59.030501 261.254449 63.48819 
C 250.492636 67.945879 240.713535 74.480065 232.4768 82.7168 
C 224.240065 90.953535 217.705879 100.732636 213.24819 111.494449 
C 208.790501 122.256262 206.496 133.791497 206.496 145.44 
C 206.496 157.088503 208.790501 168.623738 213.24819 179.385551 
C 217.705879 190.147364 224.240065 199.926465 232.4768 208.1632 
C 240.713535 216.399935 250.492636 222.934121 261.254449 227.39181 
C 272.016262 231.849499 283.551497 234.144 295.2 234.144 
C 306.848503 234.144 318.383738 231.849499 329.145551 227.39181 
C 339.907364 222.934121 349.686465 216.399935 357.9232 208.1632 
C 366.159935 199.926465 372.694121 190.147364 377.15181 179.385551 
C 381.609499 168.623738 383.904 157.088503 383.904 145.44 
C 383.904 133.791497 381.609499 122.256262 377.15181 111.494449 
C 372.694121 100.732636 366.159935 90.953535 357.9232 82.7168 
C 349.686465 74.480065 339.907364 67.945879 329.145551 63.48819 
C 318.383738 59.030501 306.848503 56.736 295.2 56.736 
" clip-path="url(#p5bdde2528c)" style="fill: none; stroke-dasharray: 2.96,1.28; stroke-dashoffset: 0; stroke: #b0b0b0; stroke-width: 0.8"/>
     </g>
     <g id="text_12">
      <!-- −5 -->
      <g transform="translate(261.254449 60.992565) scale(0.12 -0.12)">
       <use xlink:href="#DejaVuSans-2212"/>
       <use xlink:href="#DejaVuSans-35" x="83.789062"/>
      </g>
     </g>
    </g>
    <g id="ytick_5">
     <g id="line2d_13">
      <path d="M 295.2 34.56 
C 280.639372 34.56 266.220327 37.428126 252.768061 43.000237 
C 239.315795 48.572349 227.091919 56.740081 216.796 67.036 
C 206.500081 77.331919 198.332349 89.555795 192.760237 103.008061 
C 187.188126 116.460327 184.32 130.879372 184.32 145.44 
C 184.32 160.000628 187.188126 174.419673 192.760237 187.871939 
C 198.332349 201.324205 206.500081 213.548081 216.796 223.844 
C 227.091919 234.139919 239.315795 242.307651 252.768061 247.879763 
C 266.220327 253.451874 280.639372 256.32 295.2 256.32 
C 309.760628 256.32 324.179673 253.451874 337.631939 247.879763 
C 351.084205 242.307651 363.308081 234.139919 373.604 223.844 
C 383.899919 213.548081 392.067651 201.324205 397.639763 187.871939 
C 403.211874 174.419673 406.08 160.000628 406.08 145.44 
C 406.08 130.879372 403.211874 116.460327 397.639763 103.008061 
C 392.067651 89.555795 383.899919 77.331919 373.604 67.036 
C 363.308081 56.740081 351.084205 48.572349 337.631939 43.000237 
C 324.179673 37.428126 309.760628 34.56 295.2 34.56 
" clip-path="url(#p5bdde2528c)" style="fill: none; stroke-dasharray: 2.96,1.28; stroke-dashoffset: 0; stroke: #b0b0b0; stroke-width: 0.8"/>
     </g>
     <g id="text_13">
      <!-- 0 -->
      <g transform="translate(252.768061 40.504612) scale(0.12 -0.12)">
       <use xlink:href="#DejaVuSans-30"/>
      </g>
     </g>
    </g>
   </g>
   <g id="line2d_14">
    <path d="M 295.2 256.32 
L 296.59246 256.242634 
L 297.979516 256.010154 
L 299.35571 255.621408 
L 300.715474 255.074434 
L 302.053068 254.366401 
L 303.362517 253.49352 
L 304.637526 252.450913 
L 305.871391 251.232445 
L 307.056884 249.830496 
L 308.186111 248.235654 
L 309.250332 246.436319 
L 310.239726 244.41815 
L 311.143075 242.163329 
L 311.947347 239.649531 
L 312.637098 236.848469 
L 313.193635 233.723793 
L 313.593774 230.227952 
L 313.807944 226.297359 
L 313.797185 221.844618 
L 313.508115 216.745399 
L 312.863959 210.8148 
L 311.747221 203.7612 
L 309.962298 195.085712 
L 307.141206 183.825988 
L 302.439162 167.719849 
M 297.251911 151.028968 
L 305.750914 173.09908 
L 311.400866 186.358716 
L 315.83505 195.703469 
L 319.596775 202.803822 
L 322.931412 208.434602 
L 325.969362 213.019706 
L 328.787382 216.81682 
L 331.433929 219.994588 
L 333.94117 222.669614 
L 336.33127 224.926033 
L 338.619931 226.826667 
L 340.818512 228.419765 
L 342.935353 229.743276 
L 344.976642 230.82766 
L 346.946992 231.697805 
L 348.849844 232.374362 
L 350.687754 232.87471 
L 352.462598 233.213659 
L 354.17572 233.403972 
L 355.828051 233.456762 
L 357.420192 233.381802 
L 358.95248 233.187761 
L 360.425041 232.882388 
L 363.190656 231.96494 
L 365.715128 230.678147 
L 367.994997 229.063086 
L 370.025724 227.155196 
L 371.80199 224.985652 
L 373.317878 222.582336 
L 374.566974 219.97055 
L 375.542405 217.173535 
L 376.236819 214.212866 
L 376.642325 211.108747 
L 376.750388 207.880241 
L 376.551671 204.545449 
L 376.03582 201.121646 
L 375.191191 197.625398 
L 374.004482 194.072647 
L 372.460259 190.478783 
L 370.540335 186.8587 
L 368.222933 183.226839 
L 365.481567 179.597218 
L 362.283488 175.983431 
L 358.587488 172.398634 
L 354.340699 168.855459 
L 349.473778 165.365854 
L 346.77982 163.644607 
L 343.893352 161.940737 
L 340.796919 160.255337 
L 337.469563 158.589318 
L 333.885815 156.94334 
L 330.014294 155.317709 
L 325.815719 153.712221 
L 321.239985 152.125932 
L 316.221747 150.556776 
L 310.67346 149.000953 
L 304.473888 147.451864 
L 297.44801 145.89818 
M 297.44801 144.98182 
L 304.473888 143.428136 
L 310.67346 141.879047 
L 316.221747 140.323224 
L 321.239985 138.754068 
L 325.815719 137.167779 
L 330.014294 135.562291 
L 333.885815 133.93666 
L 337.469563 132.290682 
L 340.796919 130.624663 
L 343.893352 128.939263 
L 346.77982 127.235393 
L 351.989913 123.776752 
L 356.536818 120.258922 
L 360.500712 116.693394 
L 363.941962 113.092488 
L 366.907123 109.469111 
L 369.432848 105.836644 
L 371.548525 102.208894 
L 373.278123 98.600088 
L 374.641504 95.024888 
L 375.65539 91.498432 
L 376.334081 88.036377 
L 376.689998 84.654967 
L 376.7341 81.37111 
L 376.476202 78.202478 
L 375.925219 75.167635 
L 375.089346 72.286187 
L 373.976194 69.578994 
L 372.592871 67.068419 
L 370.946022 64.778679 
L 369.04182 62.736291 
L 366.8859 60.970679 
L 364.483221 59.515007 
L 361.837828 58.407332 
L 360.425041 57.997612 
L 358.95248 57.692239 
L 357.420192 57.498198 
L 355.828051 57.423238 
L 354.17572 57.476028 
L 352.462598 57.666341 
L 350.687754 58.00529 
L 348.849844 58.505638 
L 346.946992 59.182195 
L 344.976642 60.05234 
L 342.935353 61.136724 
L 340.818512 62.460235 
L 338.619931 64.053333 
L 336.33127 65.953967 
L 333.94117 68.210386 
L 331.433929 70.885412 
L 328.787382 74.06318 
L 325.969362 77.860294 
L 322.931412 82.445398 
L 319.596775 88.076178 
L 315.83505 95.176531 
L 311.400866 104.521284 
L 305.750914 117.78092 
L 297.251911 139.851032 
M 302.439162 123.160151 
L 307.141206 107.054012 
L 309.962298 95.794288 
L 311.747221 87.1188 
L 312.863959 80.0652 
L 313.508115 74.134601 
L 313.797185 69.035382 
L 313.807944 64.582641 
L 313.593774 60.652048 
L 313.193635 57.156207 
L 312.637098 54.031531 
L 311.947347 51.230469 
L 311.143075 48.716671 
L 310.239726 46.46185 
L 309.250332 44.443681 
L 308.186111 42.644346 
L 307.056884 41.049504 
L 305.871391 39.647555 
L 304.637526 38.429087 
L 303.362517 37.38648 
L 302.053068 36.513599 
L 300.715474 35.805566 
L 299.35571 35.258592 
L 297.979516 34.869846 
L 296.59246 34.637366 
L 295.2 34.56 
L 293.80754 34.637366 
L 292.420484 34.869846 
L 291.04429 35.258592 
L 289.684526 35.805566 
L 288.346932 36.513599 
L 287.037483 37.38648 
L 285.762474 38.429087 
L 284.528609 39.647555 
L 283.343116 41.049504 
L 282.213889 42.644346 
L 281.149668 44.443681 
L 280.160274 46.46185 
L 279.256925 48.716671 
L 278.452653 51.230469 
L 277.762902 54.031531 
L 277.206365 57.156207 
L 276.806226 60.652048 
L 276.592056 64.582641 
L 276.602815 69.035382 
L 276.891885 74.134601 
L 277.536041 80.0652 
L 278.652779 87.1188 
L 280.437702 95.794288 
L 283.258794 107.054012 
L 287.960838 123.160151 
M 293.148089 139.851032 
L 284.649086 117.78092 
L 278.999134 104.521284 
L 274.56495 95.176531 
L 270.803225 88.076178 
L 267.468588 82.445398 
L 264.430638 77.860294 
L 261.612618 74.06318 
L 258.966071 70.885412 
L 256.45883 68.210386 
L 254.06873 65.953967 
L 251.780069 64.053333 
L 249.581488 62.460235 
L 247.464647 61.136724 
L 245.423358 60.05234 
L 243.453008 59.182195 
L 241.550156 58.505638 
L 239.712246 58.00529 
L 237.937402 57.666341 
L 236.22428 57.476028 
L 234.571949 57.423238 
L 232.979808 57.498198 
L 231.44752 57.692239 
L 229.974959 57.997612 
L 227.209344 58.91506 
L 224.684872 60.201853 
L 222.405003 61.816914 
L 220.374276 63.724804 
L 218.59801 65.894348 
L 217.082122 68.297664 
L 215.833026 70.90945 
L 214.857595 73.706465 
L 214.163181 76.667134 
L 213.757675 79.771253 
L 213.649612 82.999759 
L 213.848329 86.334551 
L 214.36418 89.758354 
L 215.208809 93.254602 
L 216.395518 96.807353 
L 217.939741 100.401217 
L 219.859665 104.0213 
L 222.177067 107.653161 
L 224.918433 111.282782 
L 228.116512 114.896569 
L 231.812512 118.481366 
L 236.059301 122.024541 
L 240.926222 125.514146 
L 243.62018 127.235393 
L 246.506648 128.939263 
L 249.603081 130.624663 
L 252.930437 132.290682 
L 256.514185 133.93666 
L 260.385706 135.562291 
L 264.584281 137.167779 
L 269.160015 138.754068 
L 274.178253 140.323224 
L 279.72654 141.879047 
L 285.926112 143.428136 
L 292.95199 144.98182 
M 292.95199 145.89818 
L 285.926112 147.451864 
L 279.72654 149.000953 
L 274.178253 150.556776 
L 269.160015 152.125932 
L 264.584281 153.712221 
L 260.385706 155.317709 
L 256.514185 156.94334 
L 252.930437 158.589318 
L 249.603081 160.255337 
L 246.506648 161.940737 
L 243.62018 163.644607 
L 238.410087 167.103248 
L 233.863182 170.621078 
L 229.899288 174.186606 
L 226.458038 177.787512 
L 223.492877 181.410889 
L 220.967152 185.043356 
L 218.851475 188.671106 
L 217.121877 192.279912 
L 215.758496 195.855112 
L 214.74461 199.381568 
L 214.065919 202.843623 
L 213.710002 206.225033 
L 213.6659 209.50889 
L 213.923798 212.677522 
L 214.474781 215.712365 
L 215.310654 218.593813 
L 216.423806 221.301006 
L 217.807129 223.811581 
L 219.453978 226.101321 
L 221.35818 228.143709 
L 223.5141 229.909321 
L 225.916779 231.364993 
L 228.562172 232.472668 
L 229.974959 232.882388 
L 231.44752 233.187761 
L 232.979808 233.381802 
L 234.571949 233.456762 
L 236.22428 233.403972 
L 237.937402 233.213659 
L 239.712246 232.87471 
L 241.550156 232.374362 
L 243.453008 231.697805 
L 245.423358 230.82766 
L 247.464647 229.743276 
L 249.581488 228.419765 
L 251.780069 226.826667 
L 254.06873 224.926033 
L 256.45883 222.669614 
L 258.966071 219.994588 
L 261.612618 216.81682 
L 264.430638 213.019706 
L 267.468588 208.434602 
L 270.803225 202.803822 
L 274.56495 195.703469 
L 278.999134 186.358716 
L 284.649086 173.09908 
L 293.148089 151.028968 
M 287.960838 167.719849 
L 283.258794 183.825988 
L 280.437702 195.085712 
L 278.652779 203.7612 
L 277.536041 210.8148 
L 276.891885 216.745399 
L 276.602815 221.844618 
L 276.592056 226.297359 
L 276.806226 230.227952 
L 277.206365 233.723793 
L 277.762902 236.848469 
L 278.452653 239.649531 
L 279.256925 242.163329 
L 280.160274 244.41815 
L 281.149668 246.436319 
L 282.213889 248.235654 
L 283.343116 249.830496 
L 284.528609 251.232445 
L 285.762474 252.450913 
L 287.037483 253.49352 
L 288.346932 254.366401 
L 289.684526 255.074434 
L 291.04429 255.621408 
L 292.420484 256.010154 
L 293.80754 256.242634 
L 295.2 256.32 
L 295.2 256.32 
" clip-path="url(#p5bdde2528c)" style="fill: none; stroke: #1f77b4; stroke-width: 2; stroke-linecap: square"/>
   </g>
   <g id="line2d_15">
    <path d="M 295.2 256.32 
L 296.592135 256.216732 
L 297.976912 255.906554 
L 299.346919 255.388329 
L 300.69463 254.660122 
L 302.012346 253.719139 
L 303.292121 252.561636 
L 304.525688 251.182792 
L 305.704357 249.576532 
L 306.818908 247.735304 
L 307.859438 245.649772 
L 308.815186 243.308408 
L 309.674289 240.69695 
L 310.423473 237.797653 
L 311.04762 234.58826 
L 311.529178 231.04055 
L 311.847315 227.118221 
L 311.976672 222.773757 
L 311.885466 217.943587 
L 311.532479 212.540304 
L 310.862019 206.439536 
L 309.794946 199.4563 
L 308.211332 191.298848 
L 305.913064 181.468111 
L 302.529566 169.001491 
L 297.213359 151.636482 
M 297.492735 151.450375 
L 302.224758 163.182514 
L 305.670034 170.94322 
L 308.367913 176.401545 
L 310.559496 180.33059 
L 312.370538 183.152186 
L 313.872716 185.121541 
L 315.108882 186.404327 
L 316.104978 187.113584 
L 316.876191 187.329161 
L 317.430333 187.108714 
L 317.769759 186.494239 
L 317.892424 185.516076 
L 317.792401 184.195372 
L 317.460005 182.545523 
L 316.881568 180.572875 
L 316.038865 178.276797 
L 314.908107 175.649119 
L 313.458328 172.672819 
L 311.648867 169.31964 
L 309.425359 165.546073 
L 306.713179 161.286531 
L 303.406152 156.441381 
L 299.345829 150.854681 
M 296.557335 146.714623 
L 300.444461 150.122505 
L 302.894873 151.970346 
L 304.246812 152.734645 
L 304.573395 152.805544 
L 304.689358 152.705665 
L 304.606977 152.456854 
L 303.884069 151.584114 
L 302.460784 150.308016 
L 300.371853 148.722157 
L 297.637027 146.901999 
L 296.030374 145.924065 
M 296.030374 144.955935 
L 299.084418 143.042807 
L 301.49799 141.331259 
L 303.257396 139.889873 
L 304.335973 138.802327 
L 304.689358 138.174335 
L 304.573395 138.074456 
L 304.246812 138.145355 
L 302.894873 138.909654 
L 300.444461 140.757495 
L 296.557335 144.165377 
M 299.345829 140.025319 
L 303.406152 134.438619 
L 306.713179 129.593469 
L 309.425359 125.333927 
L 311.648867 121.56036 
L 313.458328 118.207181 
L 314.908107 115.230881 
L 316.038865 112.603203 
L 316.881568 110.307125 
L 317.460005 108.334477 
L 317.792401 106.684628 
L 317.892424 105.363924 
L 317.769759 104.385761 
L 317.430333 103.771286 
L 316.876191 103.550839 
L 316.104978 103.766416 
L 315.108882 104.475673 
L 313.872716 105.758459 
L 312.370538 107.727814 
L 310.559496 110.54941 
L 308.367913 114.478455 
L 305.670034 119.93678 
L 302.224758 127.697486 
L 297.492735 139.429625 
M 297.213359 139.243518 
L 302.529566 121.878509 
L 305.913064 109.411889 
L 308.211332 99.581152 
L 309.794946 91.4237 
L 310.862019 84.440464 
L 311.532479 78.339696 
L 311.885466 72.936413 
L 311.976672 68.106243 
L 311.847315 63.761779 
L 311.529178 59.83945 
L 311.04762 56.29174 
L 310.423473 53.082347 
L 309.674289 50.18305 
L 308.815186 47.571592 
L 307.859438 45.230228 
L 306.818908 43.144696 
L 305.704357 41.303468 
L 304.525688 39.697208 
L 303.292121 38.318364 
L 302.012346 37.160861 
L 300.69463 36.219878 
L 299.346919 35.491671 
L 297.976912 34.973446 
L 296.592135 34.663268 
M 293.807865 34.663268 
L 292.423088 34.973446 
L 291.053081 35.491671 
L 289.70537 36.219878 
L 288.387654 37.160861 
L 287.107879 38.318364 
L 285.874312 39.697208 
L 284.695643 41.303468 
L 283.581092 43.144696 
L 282.540562 45.230228 
L 281.584814 47.571592 
L 280.725711 50.18305 
L 279.976527 53.082347 
L 279.35238 56.29174 
L 278.870822 59.83945 
L 278.552685 63.761779 
L 278.423328 68.106243 
L 278.514534 72.936413 
L 278.867521 78.339696 
L 279.537981 84.440464 
L 280.605054 91.4237 
L 282.188668 99.581152 
L 284.486936 109.411889 
L 287.870434 121.878509 
L 293.186641 139.243518 
M 292.907265 139.429625 
L 288.175242 127.697486 
L 284.729966 119.93678 
L 282.032087 114.478455 
L 279.840504 110.54941 
L 278.029462 107.727814 
L 276.527284 105.758459 
L 275.291118 104.475673 
L 274.295022 103.766416 
L 273.523809 103.550839 
L 272.969667 103.771286 
L 272.630241 104.385761 
L 272.507576 105.363924 
L 272.607599 106.684628 
L 272.939995 108.334477 
L 273.518432 110.307125 
L 274.361135 112.603203 
L 275.491893 115.230881 
L 276.941672 118.207181 
L 278.751133 121.56036 
L 280.974641 125.333927 
L 283.686821 129.593469 
L 286.993848 134.438619 
L 291.054171 140.025319 
M 293.842665 144.165377 
L 289.955539 140.757495 
L 287.505127 138.909654 
L 286.153188 138.145355 
L 285.826605 138.074456 
L 285.710642 138.174335 
L 285.793023 138.423146 
L 286.515931 139.295886 
L 287.939216 140.571984 
L 290.028147 142.157843 
L 292.762973 143.978001 
L 294.369626 144.955935 
M 294.369626 145.924065 
L 291.315582 147.837193 
L 288.90201 149.548741 
L 287.142604 150.990127 
L 286.064027 152.077673 
L 285.710642 152.705665 
L 285.826605 152.805544 
L 286.153188 152.734645 
L 287.505127 151.970346 
L 289.955539 150.122505 
L 293.842665 146.714623 
M 291.054171 150.854681 
L 286.993848 156.441381 
L 283.686821 161.286531 
L 280.974641 165.546073 
L 278.751133 169.31964 
L 276.941672 172.672819 
L 275.491893 175.649119 
L 274.361135 178.276797 
L 273.518432 180.572875 
L 272.939995 182.545523 
L 272.607599 184.195372 
L 272.507576 185.516076 
L 272.630241 186.494239 
L 272.969667 187.108714 
L 273.523809 187.329161 
L 274.295022 187.113584 
L 275.291118 186.404327 
L 276.527284 185.121541 
L 278.029462 183.152186 
L 279.840504 180.33059 
L 282.032087 176.401545 
L 284.729966 170.94322 
L 288.175242 163.182514 
L 292.907265 151.450375 
M 293.186641 151.636482 
L 287.870434 169.001491 
L 284.486936 181.468111 
L 282.188668 191.298848 
L 280.605054 199.4563 
L 279.537981 206.439536 
L 278.867521 212.540304 
L 278.514534 217.943587 
L 278.423328 222.773757 
L 278.552685 227.118221 
L 278.870822 231.04055 
L 279.35238 234.58826 
L 279.976527 237.797653 
L 280.725711 240.69695 
L 281.584814 243.308408 
L 282.540562 245.649772 
L 283.581092 247.735304 
L 284.695643 249.576532 
L 285.874312 251.182792 
L 287.107879 252.561636 
L 288.387654 253.719139 
L 289.70537 254.660122 
L 291.053081 255.388329 
L 292.423088 255.906554 
L 293.807865 256.216732 
L 295.2 256.32 
L 295.2 256.32 
" clip-path="url(#p5bdde2528c)" style="fill: none; stroke: #ff7f0e; stroke-width: 2; stroke-linecap: square"/>
   </g>
   <g id="patch_3">
    <path d="M 295.2 34.56 
C 280.639372 34.56 266.220327 37.428126 252.768061 43.000237 
C 239.315795 48.572349 227.091919 56.740081 216.796 67.036 
C 206.500081 77.331919 198.332349 89.555795 192.760237 103.008061 
C 187.188126 116.460327 184.32 130.879372 184.32 145.44 
C 184.32 160.000628 187.188126 174.419673 192.760237 187.871939 
C 198.332349 201.324205 206.500081 213.548081 216.796 223.844 
C 227.091919 234.139919 239.315795 242.307651 252.768061 247.879763 
C 266.220327 253.451874 280.639372 256.32 295.2 256.32 
C 309.760628 256.32 324.179673 253.451874 337.631939 247.879763 
C 351.084205 242.307651 363.308081 234.139919 373.604 223.844 
C 383.899919 213.548081 392.067651 201.324205 397.639763 187.871939 
C 403.211874 174.419673 406.08 160.000628 406.08 145.44 
C 406.08 130.879372 403.211874 116.460327 397.639763 103.008061 
C 392.067651 89.555795 383.899919 77.331919 373.604 67.036 
C 363.308081 56.740081 351.084205 48.572349 337.631939 43.000237 
C 324.179673 37.428126 309.760628 34.56 295.2 34.56 
" style="fill: none; stroke: #000000; stroke-width: 0.8; stroke-linejoin: miter; stroke-linecap: square"/>
   </g>
   <g id="legend_1">
    <g id="patch_4">
     <path d="M 285.96 80.64 
L 397.68 80.64 
Q 400.08 80.64 400.08 78.24 
L 400.08 42.96 
Q 400.08 40.56 397.68 40.56 
L 285.96 40.56 
Q 283.56 40.56 283.56 42.96 
L 283.56 78.24 
Q 283.56 80.64 285.96 80.64 
z
" style="fill: #ffffff; opacity: 0.8; stroke: #cccccc; stroke-linejoin: miter"/>
    </g>
    <g id="line2d_16">
     <path d="M 288.36 50.28 
L 300.36 50.28 
L 312.36 50.28 
" style="fill: none; stroke: #1f77b4; stroke-width: 2; stroke-linecap: square"/>
    </g>
    <g id="text_14">
     <!-- $E_\theta$ ($E$-plane) -->
     <g transform="translate(321.96 54.48) scale(0.12 -0.12)">
      <defs>
       <path id="DejaVuSans-Oblique-45" d="M 1081 4666 
L 4031 4666 
L 3928 4134 
L 1606 4134 
L 1338 2753 
L 3566 2753 
L 3463 2222 
L 1234 2222 
L 909 531 
L 3284 531 
L 3181 0 
L 172 0 
L 1081 4666 
z
" transform="scale(0.015625)"/>
       <path id="DejaVuSans-Oblique-3b8" d="M 2913 2219 
L 925 2219 
Q 791 1284 928 888 
Q 1100 400 1566 400 
Q 2034 400 2391 891 
Q 2703 1322 2913 2219 
z
M 3009 2750 
Q 3094 3638 2984 3950 
Q 2813 4444 2353 4444 
Q 1875 4444 1525 3956 
Q 1250 3563 1034 2750 
L 3009 2750 
z
M 2444 4913 
Q 3194 4913 3494 4250 
Q 3794 3591 3566 2422 
Q 3341 1256 2781 594 
Q 2225 -72 1475 -72 
Q 722 -72 425 594 
Q 128 1256 353 2422 
Q 581 3591 1134 4250 
Q 1691 4913 2444 4913 
z
" transform="scale(0.015625)"/>
       <path id="DejaVuSans-20" transform="scale(0.015625)"/>
       <path id="DejaVuSans-28" d="M 1984 4856 
Q 1566 4138 1362 3434 
Q 1159 2731 1159 2009 
Q 1159 1288 1364 580 
Q 1569 -128 1984 -844 
L 1484 -844 
Q 1016 -109 783 600 
Q 550 1309 550 2009 
Q 550 2706 781 3412 
Q 1013 4119 1484 4856 
L 1984 4856 
z
" transform="scale(0.015625)"/>
       <path id="DejaVuSans-2d" d="M 313 2009 
L 1997 2009 
L 1997 1497 
L 313 1497 
L 313 2009 
z
" transform="scale(0.015625)"/>
       <path id="DejaVuSans-70" d="M 1159 525 
L 1159 -1331 
L 581 -1331 
L 581 3500 
L 1159 3500 
L 1159 2969 
Q 1341 3281 1617 3432 
Q 1894 3584 2278 3584 
Q 2916 3584 3314 3078 
Q 3713 2572 3713 1747 
Q 3713 922 3314 415 
Q 2916 -91 2278 -91 
Q 1894 -91 1617 61 
Q 1341 213 1159 525 
z
M 3116 1747 
Q 3116 2381 2855 2742 
Q 2594 3103 2138 3103 
Q 1681 3103 1420 2742 
Q 1159 2381 1159 1747 
Q 1159 1113 1420 752 
Q 1681 391 2138 391 
Q 2594 391 2855 752 
Q 3116 1113 3116 1747 
z
" transform="scale(0.015625)"/>
       <path id="DejaVuSans-6c" d="M 603 4863 
L 1178 4863 
L 1178 0 
L 603 0 
L 603 4863 
z
" transform="scale(0.015625)"/>
       <path id="DejaVuSans-61" d="M 2194 1759 
Q 1497 1759 1228 1600 
Q 959 1441 959 1056 
Q 959 750 1161 570 
Q 1363 391 1709 391 
Q 2188 391 2477 730 
Q 2766 1069 2766 1631 
L 2766 1759 
L 2194 1759 
z
M 3341 1997 
L 3341 0 
L 2766 0 
L 2766 531 
Q 2569 213 2275 61 
Q 1981 -91 1556 -91 
Q 1019 -91 701 211 
Q 384 513 384 1019 
Q 384 1609 779 1909 
Q 1175 2209 1959 2209 
L 2766 2209 
L 2766 2266 
Q 2766 2663 2505 2880 
Q 2244 3097 1772 3097 
Q 1472 3097 1187 3025 
Q 903 2953 641 2809 
L 641 3341 
Q 956 3463 1253 3523 
Q 1550 3584 1831 3584 
Q 2591 3584 2966 3190 
Q 3341 2797 3341 1997 
z
" transform="scale(0.015625)"/>
       <path id="DejaVuSans-6e" d="M 3513 2113 
L 3513 0 
L 2938 0 
L 2938 2094 
Q 2938 2591 2744 2837 
Q 2550 3084 2163 3084 
Q 1697 3084 1428 2787 
Q 1159 2491 1159 1978 
L 1159 0 
L 581 0 
L 581 3500 
L 1159 3500 
L 1159 2956 
Q 1366 3272 1645 3428 
Q 1925 3584 2291 3584 
Q 2894 3584 3203 3211 
Q 3513 2838 3513 2113 
z
" transform="scale(0.015625)"/>
       <path id="DejaVuSans-65" d="M 3597 1894 
L 3597 1613 
L 953 1613 
Q 991 1019 1311 708 
Q 1631 397 2203 397 
Q 2534 397 2845 478 
Q 3156 559 3463 722 
L 3463 178 
Q 3153 47 2828 -22 
Q 2503 -91 2169 -91 
Q 1331 -91 842 396 
Q 353 884 353 1716 
Q 353 2575 817 3079 
Q 1281 3584 2069 3584 
Q 2775 3584 3186 3129 
Q 3597 2675 3597 1894 
z
M 3022 2063 
Q 3016 2534 2758 2815 
Q 2500 3097 2075 3097 
Q 1594 3097 1305 2825 
Q 1016 2553 972 2059 
L 3022 2063 
z
" transform="scale(0.015625)"/>
       <path id="DejaVuSans-29" d="M 513 4856 
L 1013 4856 
Q 1481 4119 1714 3412 
Q 1947 2706 1947 2009 
Q 1947 1309 1714 600 
Q 1481 -109 1013 -844 
L 513 -844 
Q 928 -128 1133 580 
Q 1338 1288 1338 2009 
Q 1338 2731 1133 3434 
Q 928 4138 513 4856 
z
" transform="scale(0.015625)"/>
      </defs>
      <use xlink:href="#DejaVuSans-Oblique-45" transform="translate(0 0.015625)"/>
      <use xlink:href="#DejaVuSans-Oblique-3b8" transform="translate(63.183594 -16.390625) scale(0.7)"/>
      <use xlink:href="#DejaVuSans-20" transform="translate(108.745117 0.015625)"/>
      <use xlink:href="#DejaVuSans-28" transform="translate(140.532227 0.015625)"/>
      <use xlink:href="#DejaVuSans-Oblique-45" transform="translate(179.545898 0.015625)"/>
      <use xlink:href="#DejaVuSans-2d" transform="translate(242.729492 0.015625)"/>
      <use xlink:href="#DejaVuSans-70" transform="translate(278.813477 0.015625)"/>
      <use xlink:href="#DejaVuSans-6c" transform="translate(342.290039 0.015625)"/>
      <use xlink:href="#DejaVuSans-61" transform="translate(370.073242 0.015625)"/>
      <use xlink:href="#DejaVuSans-6e" transform="translate(431.352539 0.015625)"/>
      <use xlink:href="#DejaVuSans-65" transform="translate(494.731445 0.015625)"/>
      <use xlink:href="#DejaVuSans-29" transform="translate(556.254883 0.015625)"/>
     </g>
    </g>
    <g id="line2d_17">
     <path d="M 288.36 67.92 
L 300.36 67.92 
L 312.36 67.92 
" style="fill: none; stroke: #ff7f0e; stroke-width: 2; stroke-linecap: square"/>
    </g>
    <g id="text_15">
     <!-- $E_\phi$ ($H$-plane) -->
     <g transform="translate(321.96 72.12) scale(0.12 -0.12)">
      <defs>
       <path id="DejaVuSans-Oblique-3d5" d="M 2991 4863 
L 2738 3572 
Q 3363 3572 3684 3094 
Q 4016 2606 3850 1747 
Q 3681 888 3159 400 
Q 2653 -78 2028 -78 
L 1784 -1331 
L 1213 -1331 
L 1456 -78 
Q 834 -78 509 400 
Q 178 888 347 1747 
Q 513 2606 1034 3094 
Q 1544 3572 2166 3572 
L 2419 4863 
L 2991 4863 
z
M 2128 434 
Q 2481 434 2784 756 
Q 3116 1116 3244 1747 
Q 3369 2372 3169 2738 
Q 2991 3059 2638 3059 
L 2128 434 
z
M 1556 434 
L 2066 3059 
Q 1716 3059 1413 2738 
Q 1072 2372 953 1747 
Q 834 1116 1028 756 
Q 1203 434 1556 434 
z
" transform="scale(0.015625)"/>
       <path id="DejaVuSans-Oblique-48" d="M 1081 4666 
L 1716 4666 
L 1344 2753 
L 3634 2753 
L 4006 4666 
L 4641 4666 
L 3731 0 
L 3097 0 
L 3531 2222 
L 1241 2222 
L 806 0 
L 172 0 
L 1081 4666 
z
" transform="scale(0.015625)"/>
      </defs>
      <use xlink:href="#DejaVuSans-Oblique-45" transform="translate(0 0.015625)"/>
      <use xlink:href="#DejaVuSans-Oblique-3d5" transform="translate(63.183594 -16.390625) scale(0.7)"/>
      <use xlink:href="#DejaVuSans-20" transform="translate(112.094727 0.015625)"/>
      <use xlink:href="#DejaVuSans-28" transform="translate(143.881836 0.015625)"/>
      <use xlink:href="#DejaVuSans-Oblique-48" transform="translate(182.895508 0.015625)"/>
      <use xlink:href="#DejaVuSans-2d" transform="translate(258.09082 0.015625)"/>
      <use xlink:href="#DejaVuSans-70" transform="translate(294.174805 0.015625)"/>
      <use xlink:href="#DejaVuSans-6c" transform="translate(357.651367 0.015625)"/>
      <use xlink:href="#DejaVuSans-61" transform="translate(385.43457 0.015625)"/>
      <use xlink:href="#DejaVuSans-6e" transform="translate(446.713867 0.015625)"/>
      <use xlink:href="#DejaVuSans-65" transform="translate(510.092773 0.015625)"/>
      <use xlink:href="#DejaVuSans-29" transform="translate(571.616211 0.015625)"/>
     </g>
    </g>
   </g>
  </g>
 </g>
 <defs>
  <clipPath id="p5bdde2528c">
   <path d="M 406.08 145.44 
C 406.08 130.879372 403.211874 116.460327 397.639763 103.008061 
C 392.067651 89.555795 383.899919 77.331919 373.604 67.036 
C 363.308081 56.740081 351.084205 48.572349 337.631939 43.000237 
C 324.179673 37.428126 309.760628 34.56 295.2 34.56 
C 280.639372 34.56 266.220327 37.428126 252.768061 43.000237 
C 239.315795 48.572349 227.091919 56.740081 216.796 67.036 
C 206.500081 77.331919 198.332349 89.555795 192.760237 103.008061 
C 187.188126 116.460327 184.32 130.879372 184.32 145.44 
C 184.32 160.000628 187.188126 174.419673 192.760237 187.871939 
C 198.332349 201.324205 206.500081 213.548081 216.796 223.844 
C 227.091919 234.139919 239.315795 242.307651 252.768061 247.879763 
C 266.220327 253.451874 280.639372 256.32 295.2 256.32 
C 309.760628 256.32 324.179673 253.451874 337.631939 247.879763 
C 351.084205 242.307651 363.308081 234.139919 373.604 223.844 
C 383.899919 213.548081 392.067651 201.324205 397.639763 187.871939 
C 403.211874 174.419673 406.08 160.000628 406.08 145.44 
M 295.2 145.44 
C 295.2 145.44 295.2 145.44 295.2 145.44 
C 295.2 145.44 295.2 145.44 295.2 145.44 
C 295.2 145.44 295.2 145.44 295.2 145.44 
C 295.2 145.44 295.2 145.44 295.2 145.44 
C 295.2 145.44 295.2 145.44 295.2 145.44 
C 295.2 145.44 295.2 145.44 295.2 145.44 
C 295.2 145.44 295.2 145.44 295.2 145.44 
C 295.2 145.44 295.2 145.44 295.2 145.44 
C 295.2 145.44 295.2 145.44 295.2 145.44 
C 295.2 145.44 295.2 145.44 295.2 145.44 
C 295.2 145.44 295.2 145.44 295.2 145.44 
C 295.2 145.44 295.2 145.44 295.2 145.44 
C 295.2 145.44 295.2 145.44 295.2 145.44 
C 295.2 145.44 295.2 145.44 295.2 145.44 
C 295.2 145.44 295.2 145.44 295.2 145.44 
C 295.2 145.44 295.2 145.44 295.2 145.44 
z
"/>
  </clipPath>
 </defs>
</svg>
