<?xml version="1.0" encoding="utf-8" standalone="no"?>
<!DOCTYPE svg PUBLIC "-//W3C//DTD SVG 1.1//EN"
  "http://www.w3.org/Graphics/SVG/1.1/DTD/svg11.dtd">
<svg xmlns:xlink="http://www.w3.org/1999/xlink" width="327.160625pt" height="214.108813pt" viewBox="0 0 327.160625 214.108813" xmlns="http://www.w3.org/2000/svg" version="1.1">
 <metadata>
  <rdf:RDF xmlns:dc="http://purl.org/dc/elements/1.1/" xmlns:cc="http://creativecommons.org/ns#" xmlns:rdf="http://www.w3.org/1999/02/22-rdf-syntax-ns#">
   <cc:Work>
    <dc:type rdf:resource="http://purl.org/dc/dcmitype/StillImage"/>
    <dc:date>2024-03-03T16:45:34.937505</dc:date>
    <dc:format>image/svg+xml</dc:format>
    <dc:creator>
     <cc:Agent>
      <dc:title>Matplotlib v3.7.2, https://matplotlib.org/</dc:title>
     </cc:Agent>
    </dc:creator>
   </cc:Work>
  </rdf:RDF>
 </metadata>
 <defs>
  <style type="text/css">*{stroke-linejoin: round; stroke-linecap: butt}</style>
 </defs>
 <g id="figure_1">
  <g id="patch_1">
   <path d="M 0 214.108813 
L 327.160625 214.108813 
L 327.160625 0 
L 0 0 
z
" style="fill: #ffffff"/>
  </g>
  <g id="axes_1">
   <g id="patch_2">
    <path d="M 55.645625 172.535063 
L 312.325625 172.535063 
L 312.325625 11.759063 
L 55.645625 11.759063 
z
" style="fill: #ffffff"/>
   </g>
   <g id="matplotlib.axis_1">
    <g id="xtick_1">
     <g id="line2d_1">
      <defs>
       <path id="mbb692c4004" d="M 0 0 
L 0 3.5 
" style="stroke: #000000; stroke-width: 0.8"/>
      </defs>
      <g>
       <use xlink:href="#mbb692c4004" x="55.645625" y="172.535063" style="stroke: #000000; stroke-width: 0.8"/>
      </g>
     </g>
     <g id="text_1">
      <!-- −90 -->
      <g transform="translate(42.982812 188.653188) scale(0.12 -0.12)">
       <defs>
        <path id="DejaVuSans-2212" d="M 678 2272 
L 4684 2272 
L 4684 1741 
L 678 1741 
L 678 2272 
z
" transform="scale(0.015625)"/>
        <path id="DejaVuSans-39" d="M 703 97 
L 703 672 
Q 941 559 1184 500 
Q 1428 441 1663 441 
Q 2288 441 2617 861 
Q 2947 1281 2994 2138 
Q 2813 1869 2534 1725 
Q 2256 1581 1919 1581 
Q 1219 1581 811 2004 
Q 403 2428 403 3163 
Q 403 3881 828 4315 
Q 1253 4750 1959 4750 
Q 2769 4750 3195 4129 
Q 3622 3509 3622 2328 
Q 3622 1225 3098 567 
Q 2575 -91 1691 -91 
Q 1453 -91 1209 -44 
Q 966 3 703 97 
z
M 1959 2075 
Q 2384 2075 2632 2365 
Q 2881 2656 2881 3163 
Q 2881 3666 2632 3958 
Q 2384 4250 1959 4250 
Q 1534 4250 1286 3958 
Q 1038 3666 1038 3163 
Q 1038 2656 1286 2365 
Q 1534 2075 1959 2075 
z
" transform="scale(0.015625)"/>
        <path id="DejaVuSans-30" d="M 2034 4250 
Q 1547 4250 1301 3770 
Q 1056 3291 1056 2328 
Q 1056 1369 1301 889 
Q 1547 409 2034 409 
Q 2525 409 2770 889 
Q 3016 1369 3016 2328 
Q 3016 3291 2770 3770 
Q 2525 4250 2034 4250 
z
M 2034 4750 
Q 2819 4750 3233 4129 
Q 3647 3509 3647 2328 
Q 3647 1150 3233 529 
Q 2819 -91 2034 -91 
Q 1250 -91 836 529 
Q 422 1150 422 2328 
Q 422 3509 836 4129 
Q 1250 4750 2034 4750 
z
" transform="scale(0.015625)"/>
       </defs>
       <use xlink:href="#DejaVuSans-2212"/>
       <use xlink:href="#DejaVuSans-39" x="83.789062"/>
       <use xlink:href="#DejaVuSans-30" x="147.412109"/>
      </g>
     </g>
    </g>
    <g id="xtick_2">
     <g id="line2d_2">
      <g>
       <use xlink:href="#mbb692c4004" x="98.425625" y="172.535063" style="stroke: #000000; stroke-width: 0.8"/>
      </g>
     </g>
     <g id="text_2">
      <!-- −60 -->
      <g transform="translate(85.762812 188.653188) scale(0.12 -0.12)">
       <defs>
        <path id="DejaVuSans-36" d="M 2113 2584 
Q 1688 2584 1439 2293 
Q 1191 2003 1191 1497 
Q 1191 994 1439 701 
Q 1688 409 2113 409 
Q 2538 409 2786 701 
Q 3034 994 3034 1497 
Q 3034 2003 2786 2293 
Q 2538 2584 2113 2584 
z
M 3366 4563 
L 3366 3988 
Q 3128 4100 2886 4159 
Q 2644 4219 2406 4219 
Q 1781 4219 1451 3797 
Q 1122 3375 1075 2522 
Q 1259 2794 1537 2939 
Q 1816 3084 2150 3084 
Q 2853 3084 3261 2657 
Q 3669 2231 3669 1497 
Q 3669 778 3244 343 
Q 2819 -91 2113 -91 
Q 1303 -91 875 529 
Q 447 1150 447 2328 
Q 447 3434 972 4092 
Q 1497 4750 2381 4750 
Q 2619 4750 2861 4703 
Q 3103 4656 3366 4563 
z
" transform="scale(0.015625)"/>
       </defs>
       <use xlink:href="#DejaVuSans-2212"/>
       <use xlink:href="#DejaVuSans-36" x="83.789062"/>
       <use xlink:href="#DejaVuSans-30" x="147.412109"/>
      </g>
     </g>
    </g>
    <g id="xtick_3">
     <g id="line2d_3">
      <g>
       <use xlink:href="#mbb692c4004" x="141.205625" y="172.535063" style="stroke: #000000; stroke-width: 0.8"/>
      </g>
     </g>
     <g id="text_3">
      <!-- −30 -->
      <g transform="translate(128.542812 188.653188) scale(0.12 -0.12)">
       <defs>
        <path id="DejaVuSans-33" d="M 2597 2516 
Q 3050 2419 3304 2112 
Q 3559 1806 3559 1356 
Q 3559 666 3084 287 
Q 2609 -91 1734 -91 
Q 1441 -91 1130 -33 
Q 819 25 488 141 
L 488 750 
Q 750 597 1062 519 
Q 1375 441 1716 441 
Q 2309 441 2620 675 
Q 2931 909 2931 1356 
Q 2931 1769 2642 2001 
Q 2353 2234 1838 2234 
L 1294 2234 
L 1294 2753 
L 1863 2753 
Q 2328 2753 2575 2939 
Q 2822 3125 2822 3475 
Q 2822 3834 2567 4026 
Q 2313 4219 1838 4219 
Q 1578 4219 1281 4162 
Q 984 4106 628 3988 
L 628 4550 
Q 988 4650 1302 4700 
Q 1616 4750 1894 4750 
Q 2613 4750 3031 4423 
Q 3450 4097 3450 3541 
Q 3450 3153 3228 2886 
Q 3006 2619 2597 2516 
z
" transform="scale(0.015625)"/>
       </defs>
       <use xlink:href="#DejaVuSans-2212"/>
       <use xlink:href="#DejaVuSans-33" x="83.789062"/>
       <use xlink:href="#DejaVuSans-30" x="147.412109"/>
      </g>
     </g>
    </g>
    <g id="xtick_4">
     <g id="line2d_4">
      <g>
       <use xlink:href="#mbb692c4004" x="183.985625" y="172.535063" style="stroke: #000000; stroke-width: 0.8"/>
      </g>
     </g>
     <g id="text_4">
      <!-- 0 -->
      <g transform="translate(180.168125 188.653188) scale(0.12 -0.12)">
       <use xlink:href="#DejaVuSans-30"/>
      </g>
     </g>
    </g>
    <g id="xtick_5">
     <g id="line2d_5">
      <g>
       <use xlink:href="#mbb692c4004" x="226.765625" y="172.535063" style="stroke: #000000; stroke-width: 0.8"/>
      </g>
     </g>
     <g id="text_5">
      <!-- 30 -->
      <g transform="translate(219.130625 188.653188) scale(0.12 -0.12)">
       <use xlink:href="#DejaVuSans-33"/>
       <use xlink:href="#DejaVuSans-30" x="63.623047"/>
      </g>
     </g>
    </g>
    <g id="xtick_6">
     <g id="line2d_6">
      <g>
       <use xlink:href="#mbb692c4004" x="269.545625" y="172.535063" style="stroke: #000000; stroke-width: 0.8"/>
      </g>
     </g>
     <g id="text_6">
      <!-- 60 -->
      <g transform="translate(261.910625 188.653188) scale(0.12 -0.12)">
       <use xlink:href="#DejaVuSans-36"/>
       <use xlink:href="#DejaVuSans-30" x="63.623047"/>
      </g>
     </g>
    </g>
    <g id="xtick_7">
     <g id="line2d_7">
      <g>
       <use xlink:href="#mbb692c4004" x="312.325625" y="172.535063" style="stroke: #000000; stroke-width: 0.8"/>
      </g>
     </g>
     <g id="text_7">
      <!-- 90 -->
      <g transform="translate(304.690625 188.653188) scale(0.12 -0.12)">
       <use xlink:href="#DejaVuSans-39"/>
       <use xlink:href="#DejaVuSans-30" x="63.623047"/>
      </g>
     </g>
    </g>
    <g id="text_8">
     <!-- $\theta \,$ [deg] -->
     <g transform="translate(161.425625 204.388813) scale(0.12 -0.12)">
      <defs>
       <path id="DejaVuSans-Oblique-3b8" d="M 2913 2219 
L 925 2219 
Q 791 1284 928 888 
Q 1100 400 1566 400 
Q 2034 400 2391 891 
Q 2703 1322 2913 2219 
z
M 3009 2750 
Q 3094 3638 2984 3950 
Q 2813 4444 2353 4444 
Q 1875 4444 1525 3956 
Q 1250 3563 1034 2750 
L 3009 2750 
z
M 2444 4913 
Q 3194 4913 3494 4250 
Q 3794 3591 3566 2422 
Q 3341 1256 2781 594 
Q 2225 -72 1475 -72 
Q 722 -72 425 594 
Q 128 1256 353 2422 
Q 581 3591 1134 4250 
Q 1691 4913 2444 4913 
z
" transform="scale(0.015625)"/>
       <path id="DejaVuSans-20" transform="scale(0.015625)"/>
       <path id="DejaVuSans-5b" d="M 550 4863 
L 1875 4863 
L 1875 4416 
L 1125 4416 
L 1125 -397 
L 1875 -397 
L 1875 -844 
L 550 -844 
L 550 4863 
z
" transform="scale(0.015625)"/>
       <path id="DejaVuSans-64" d="M 2906 2969 
L 2906 4863 
L 3481 4863 
L 3481 0 
L 2906 0 
L 2906 525 
Q 2725 213 2448 61 
Q 2172 -91 1784 -91 
Q 1150 -91 751 415 
Q 353 922 353 1747 
Q 353 2572 751 3078 
Q 1150 3584 1784 3584 
Q 2172 3584 2448 3432 
Q 2725 3281 2906 2969 
z
M 947 1747 
Q 947 1113 1208 752 
Q 1469 391 1925 391 
Q 2381 391 2643 752 
Q 2906 1113 2906 1747 
Q 2906 2381 2643 2742 
Q 2381 3103 1925 3103 
Q 1469 3103 1208 2742 
Q 947 2381 947 1747 
z
" transform="scale(0.015625)"/>
       <path id="DejaVuSans-65" d="M 3597 1894 
L 3597 1613 
L 953 1613 
Q 991 1019 1311 708 
Q 1631 397 2203 397 
Q 2534 397 2845 478 
Q 3156 559 3463 722 
L 3463 178 
Q 3153 47 2828 -22 
Q 2503 -91 2169 -91 
Q 1331 -91 842 396 
Q 353 884 353 1716 
Q 353 2575 817 3079 
Q 1281 3584 2069 3584 
Q 2775 3584 3186 3129 
Q 3597 2675 3597 1894 
z
M 3022 2063 
Q 3016 2534 2758 2815 
Q 2500 3097 2075 3097 
Q 1594 3097 1305 2825 
Q 1016 2553 972 2059 
L 3022 2063 
z
" transform="scale(0.015625)"/>
       <path id="DejaVuSans-67" d="M 2906 1791 
Q 2906 2416 2648 2759 
Q 2391 3103 1925 3103 
Q 1463 3103 1205 2759 
Q 947 2416 947 1791 
Q 947 1169 1205 825 
Q 1463 481 1925 481 
Q 2391 481 2648 825 
Q 2906 1169 2906 1791 
z
M 3481 434 
Q 3481 -459 3084 -895 
Q 2688 -1331 1869 -1331 
Q 1566 -1331 1297 -1286 
Q 1028 -1241 775 -1147 
L 775 -588 
Q 1028 -725 1275 -790 
Q 1522 -856 1778 -856 
Q 2344 -856 2625 -561 
Q 2906 -266 2906 331 
L 2906 616 
Q 2728 306 2450 153 
Q 2172 0 1784 0 
Q 1141 0 747 490 
Q 353 981 353 1791 
Q 353 2603 747 3093 
Q 1141 3584 1784 3584 
Q 2172 3584 2450 3431 
Q 2728 3278 2906 2969 
L 2906 3500 
L 3481 3500 
L 3481 434 
z
" transform="scale(0.015625)"/>
       <path id="DejaVuSans-5d" d="M 1947 4863 
L 1947 -844 
L 622 -844 
L 622 -397 
L 1369 -397 
L 1369 4416 
L 622 4416 
L 622 4863 
L 1947 4863 
z
" transform="scale(0.015625)"/>
      </defs>
      <use xlink:href="#DejaVuSans-Oblique-3b8" transform="translate(0 0.234375)"/>
      <use xlink:href="#DejaVuSans-20" transform="translate(77.417317 0.234375)"/>
      <use xlink:href="#DejaVuSans-5b" transform="translate(109.204426 0.234375)"/>
      <use xlink:href="#DejaVuSans-64" transform="translate(148.218098 0.234375)"/>
      <use xlink:href="#DejaVuSans-65" transform="translate(211.694661 0.234375)"/>
      <use xlink:href="#DejaVuSans-67" transform="translate(273.218098 0.234375)"/>
      <use xlink:href="#DejaVuSans-5d" transform="translate(336.694661 0.234375)"/>
     </g>
    </g>
   </g>
   <g id="matplotlib.axis_2">
    <g id="ytick_1">
     <g id="line2d_8">
      <defs>
       <path id="m4e01fd364d" d="M 0 0 
L -3.5 0 
" style="stroke: #000000; stroke-width: 0.8"/>
      </defs>
      <g>
       <use xlink:href="#m4e01fd364d" x="55.645625" y="172.535063" style="stroke: #000000; stroke-width: 0.8"/>
      </g>
     </g>
     <g id="text_9">
      <!-- −50 -->
      <g transform="translate(23.32 177.094125) scale(0.12 -0.12)">
       <defs>
        <path id="DejaVuSans-35" d="M 691 4666 
L 3169 4666 
L 3169 4134 
L 1269 4134 
L 1269 2991 
Q 1406 3038 1543 3061 
Q 1681 3084 1819 3084 
Q 2600 3084 3056 2656 
Q 3513 2228 3513 1497 
Q 3513 744 3044 326 
Q 2575 -91 1722 -91 
Q 1428 -91 1123 -41 
Q 819 9 494 109 
L 494 744 
Q 775 591 1075 516 
Q 1375 441 1709 441 
Q 2250 441 2565 725 
Q 2881 1009 2881 1497 
Q 2881 1984 2565 2268 
Q 2250 2553 1709 2553 
Q 1456 2553 1204 2497 
Q 953 2441 691 2322 
L 691 4666 
z
" transform="scale(0.015625)"/>
       </defs>
       <use xlink:href="#DejaVuSans-2212"/>
       <use xlink:href="#DejaVuSans-35" x="83.789062"/>
       <use xlink:href="#DejaVuSans-30" x="147.412109"/>
      </g>
     </g>
    </g>
    <g id="ytick_2">
     <g id="line2d_9">
      <g>
       <use xlink:href="#m4e01fd364d" x="55.645625" y="140.379863" style="stroke: #000000; stroke-width: 0.8"/>
      </g>
     </g>
     <g id="text_10">
      <!-- −40 -->
      <g transform="translate(23.32 144.938925) scale(0.12 -0.12)">
       <defs>
        <path id="DejaVuSans-34" d="M 2419 4116 
L 825 1625 
L 2419 1625 
L 2419 4116 
z
M 2253 4666 
L 3047 4666 
L 3047 1625 
L 3713 1625 
L 3713 1100 
L 3047 1100 
L 3047 0 
L 2419 0 
L 2419 1100 
L 313 1100 
L 313 1709 
L 2253 4666 
z
" transform="scale(0.015625)"/>
       </defs>
       <use xlink:href="#DejaVuSans-2212"/>
       <use xlink:href="#DejaVuSans-34" x="83.789062"/>
       <use xlink:href="#DejaVuSans-30" x="147.412109"/>
      </g>
     </g>
    </g>
    <g id="ytick_3">
     <g id="line2d_10">
      <g>
       <use xlink:href="#m4e01fd364d" x="55.645625" y="108.224663" style="stroke: #000000; stroke-width: 0.8"/>
      </g>
     </g>
     <g id="text_11">
      <!-- −30 -->
      <g transform="translate(23.32 112.783725) scale(0.12 -0.12)">
       <use xlink:href="#DejaVuSans-2212"/>
       <use xlink:href="#DejaVuSans-33" x="83.789062"/>
       <use xlink:href="#DejaVuSans-30" x="147.412109"/>
      </g>
     </g>
    </g>
    <g id="ytick_4">
     <g id="line2d_11">
      <g>
       <use xlink:href="#m4e01fd364d" x="55.645625" y="76.069463" style="stroke: #000000; stroke-width: 0.8"/>
      </g>
     </g>
     <g id="text_12">
      <!-- −20 -->
      <g transform="translate(23.32 80.628525) scale(0.12 -0.12)">
       <defs>
        <path id="DejaVuSans-32" d="M 1228 531 
L 3431 531 
L 3431 0 
L 469 0 
L 469 531 
Q 828 903 1448 1529 
Q 2069 2156 2228 2338 
Q 2531 2678 2651 2914 
Q 2772 3150 2772 3378 
Q 2772 3750 2511 3984 
Q 2250 4219 1831 4219 
Q 1534 4219 1204 4116 
Q 875 4013 500 3803 
L 500 4441 
Q 881 4594 1212 4672 
Q 1544 4750 1819 4750 
Q 2544 4750 2975 4387 
Q 3406 4025 3406 3419 
Q 3406 3131 3298 2873 
Q 3191 2616 2906 2266 
Q 2828 2175 2409 1742 
Q 1991 1309 1228 531 
z
" transform="scale(0.015625)"/>
       </defs>
       <use xlink:href="#DejaVuSans-2212"/>
       <use xlink:href="#DejaVuSans-32" x="83.789062"/>
       <use xlink:href="#DejaVuSans-30" x="147.412109"/>
      </g>
     </g>
    </g>
    <g id="ytick_5">
     <g id="line2d_12">
      <g>
       <use xlink:href="#m4e01fd364d" x="55.645625" y="43.914262" style="stroke: #000000; stroke-width: 0.8"/>
      </g>
     </g>
     <g id="text_13">
      <!-- −10 -->
      <g transform="translate(23.32 48.473325) scale(0.12 -0.12)">
       <defs>
        <path id="DejaVuSans-31" d="M 794 531 
L 1825 531 
L 1825 4091 
L 703 3866 
L 703 4441 
L 1819 4666 
L 2450 4666 
L 2450 531 
L 3481 531 
L 3481 0 
L 794 0 
L 794 531 
z
" transform="scale(0.015625)"/>
       </defs>
       <use xlink:href="#DejaVuSans-2212"/>
       <use xlink:href="#DejaVuSans-31" x="83.789062"/>
       <use xlink:href="#DejaVuSans-30" x="147.412109"/>
      </g>
     </g>
    </g>
    <g id="ytick_6">
     <g id="line2d_13">
      <g>
       <use xlink:href="#m4e01fd364d" x="55.645625" y="11.759062" style="stroke: #000000; stroke-width: 0.8"/>
      </g>
     </g>
     <g id="text_14">
      <!-- 0 -->
      <g transform="translate(41.010625 16.318125) scale(0.12 -0.12)">
       <use xlink:href="#DejaVuSans-30"/>
      </g>
     </g>
    </g>
    <g id="text_15">
     <!-- Normalized $|E_\theta|$ [dB] -->
     <g transform="translate(16.44 153.287063) rotate(-90) scale(0.12 -0.12)">
      <defs>
       <path id="DejaVuSans-4e" d="M 628 4666 
L 1478 4666 
L 3547 763 
L 3547 4666 
L 4159 4666 
L 4159 0 
L 3309 0 
L 1241 3903 
L 1241 0 
L 628 0 
L 628 4666 
z
" transform="scale(0.015625)"/>
       <path id="DejaVuSans-6f" d="M 1959 3097 
Q 1497 3097 1228 2736 
Q 959 2375 959 1747 
Q 959 1119 1226 758 
Q 1494 397 1959 397 
Q 2419 397 2687 759 
Q 2956 1122 2956 1747 
Q 2956 2369 2687 2733 
Q 2419 3097 1959 3097 
z
M 1959 3584 
Q 2709 3584 3137 3096 
Q 3566 2609 3566 1747 
Q 3566 888 3137 398 
Q 2709 -91 1959 -91 
Q 1206 -91 779 398 
Q 353 888 353 1747 
Q 353 2609 779 3096 
Q 1206 3584 1959 3584 
z
" transform="scale(0.015625)"/>
       <path id="DejaVuSans-72" d="M 2631 2963 
Q 2534 3019 2420 3045 
Q 2306 3072 2169 3072 
Q 1681 3072 1420 2755 
Q 1159 2438 1159 1844 
L 1159 0 
L 581 0 
L 581 3500 
L 1159 3500 
L 1159 2956 
Q 1341 3275 1631 3429 
Q 1922 3584 2338 3584 
Q 2397 3584 2469 3576 
Q 2541 3569 2628 3553 
L 2631 2963 
z
" transform="scale(0.015625)"/>
       <path id="DejaVuSans-6d" d="M 3328 2828 
Q 3544 3216 3844 3400 
Q 4144 3584 4550 3584 
Q 5097 3584 5394 3201 
Q 5691 2819 5691 2113 
L 5691 0 
L 5113 0 
L 5113 2094 
Q 5113 2597 4934 2840 
Q 4756 3084 4391 3084 
Q 3944 3084 3684 2787 
Q 3425 2491 3425 1978 
L 3425 0 
L 2847 0 
L 2847 2094 
Q 2847 2600 2669 2842 
Q 2491 3084 2119 3084 
Q 1678 3084 1418 2786 
Q 1159 2488 1159 1978 
L 1159 0 
L 581 0 
L 581 3500 
L 1159 3500 
L 1159 2956 
Q 1356 3278 1631 3431 
Q 1906 3584 2284 3584 
Q 2666 3584 2933 3390 
Q 3200 3197 3328 2828 
z
" transform="scale(0.015625)"/>
       <path id="DejaVuSans-61" d="M 2194 1759 
Q 1497 1759 1228 1600 
Q 959 1441 959 1056 
Q 959 750 1161 570 
Q 1363 391 1709 391 
Q 2188 391 2477 730 
Q 2766 1069 2766 1631 
L 2766 1759 
L 2194 1759 
z
M 3341 1997 
L 3341 0 
L 2766 0 
L 2766 531 
Q 2569 213 2275 61 
Q 1981 -91 1556 -91 
Q 1019 -91 701 211 
Q 384 513 384 1019 
Q 384 1609 779 1909 
Q 1175 2209 1959 2209 
L 2766 2209 
L 2766 2266 
Q 2766 2663 2505 2880 
Q 2244 3097 1772 3097 
Q 1472 3097 1187 3025 
Q 903 2953 641 2809 
L 641 3341 
Q 956 3463 1253 3523 
Q 1550 3584 1831 3584 
Q 2591 3584 2966 3190 
Q 3341 2797 3341 1997 
z
" transform="scale(0.015625)"/>
       <path id="DejaVuSans-6c" d="M 603 4863 
L 1178 4863 
L 1178 0 
L 603 0 
L 603 4863 
z
" transform="scale(0.015625)"/>
       <path id="DejaVuSans-69" d="M 603 3500 
L 1178 3500 
L 1178 0 
L 603 0 
L 603 3500 
z
M 603 4863 
L 1178 4863 
L 1178 4134 
L 603 4134 
L 603 4863 
z
" transform="scale(0.015625)"/>
       <path id="DejaVuSans-7a" d="M 353 3500 
L 3084 3500 
L 3084 2975 
L 922 459 
L 3084 459 
L 3084 0 
L 275 0 
L 275 525 
L 2438 3041 
L 353 3041 
L 353 3500 
z
" transform="scale(0.015625)"/>
       <path id="DejaVuSans-7c" d="M 1344 4891 
L 1344 -1509 
L 813 -1509 
L 813 4891 
L 1344 4891 
z
" transform="scale(0.015625)"/>
       <path id="DejaVuSans-Oblique-45" d="M 1081 4666 
L 4031 4666 
L 3928 4134 
L 1606 4134 
L 1338 2753 
L 3566 2753 
L 3463 2222 
L 1234 2222 
L 909 531 
L 3284 531 
L 3181 0 
L 172 0 
L 1081 4666 
z
" transform="scale(0.015625)"/>
       <path id="DejaVuSans-42" d="M 1259 2228 
L 1259 519 
L 2272 519 
Q 2781 519 3026 730 
Q 3272 941 3272 1375 
Q 3272 1813 3026 2020 
Q 2781 2228 2272 2228 
L 1259 2228 
z
M 1259 4147 
L 1259 2741 
L 2194 2741 
Q 2656 2741 2882 2914 
Q 3109 3088 3109 3444 
Q 3109 3797 2882 3972 
Q 2656 4147 2194 4147 
L 1259 4147 
z
M 628 4666 
L 2241 4666 
Q 2963 4666 3353 4366 
Q 3744 4066 3744 3513 
Q 3744 3084 3544 2831 
Q 3344 2578 2956 2516 
Q 3422 2416 3680 2098 
Q 3938 1781 3938 1306 
Q 3938 681 3513 340 
Q 3088 0 2303 0 
L 628 0 
L 628 4666 
z
" transform="scale(0.015625)"/>
      </defs>
      <use xlink:href="#DejaVuSans-4e" transform="translate(0 0.578125)"/>
      <use xlink:href="#DejaVuSans-6f" transform="translate(74.804688 0.578125)"/>
      <use xlink:href="#DejaVuSans-72" transform="translate(135.986328 0.578125)"/>
      <use xlink:href="#DejaVuSans-6d" transform="translate(177.099609 0.578125)"/>
      <use xlink:href="#DejaVuSans-61" transform="translate(274.511719 0.578125)"/>
      <use xlink:href="#DejaVuSans-6c" transform="translate(335.791016 0.578125)"/>
      <use xlink:href="#DejaVuSans-69" transform="translate(363.574219 0.578125)"/>
      <use xlink:href="#DejaVuSans-7a" transform="translate(391.357422 0.578125)"/>
      <use xlink:href="#DejaVuSans-65" transform="translate(443.847656 0.578125)"/>
      <use xlink:href="#DejaVuSans-64" transform="translate(505.371094 0.578125)"/>
      <use xlink:href="#DejaVuSans-20" transform="translate(568.847656 0.578125)"/>
      <use xlink:href="#DejaVuSans-7c" transform="translate(600.634766 0.578125)"/>
      <use xlink:href="#DejaVuSans-Oblique-45" transform="translate(634.326172 0.578125)"/>
      <use xlink:href="#DejaVuSans-Oblique-3b8" transform="translate(697.509766 -15.828125) scale(0.7)"/>
      <use xlink:href="#DejaVuSans-7c" transform="translate(743.071289 0.578125)"/>
      <use xlink:href="#DejaVuSans-20" transform="translate(776.762695 0.578125)"/>
      <use xlink:href="#DejaVuSans-5b" transform="translate(808.549805 0.578125)"/>
      <use xlink:href="#DejaVuSans-64" transform="translate(847.563477 0.578125)"/>
      <use xlink:href="#DejaVuSans-42" transform="translate(911.040039 0.578125)"/>
      <use xlink:href="#DejaVuSans-5d" transform="translate(979.643555 0.578125)"/>
     </g>
    </g>
   </g>
   <g id="line2d_14">
    <path d="M 55.645625 20.945834 
L 60.522545 21.060242 
L 65.142785 21.384496 
L 69.763025 21.932859 
L 74.126585 22.678001 
L 78.233465 23.607933 
L 82.083665 24.711901 
L 85.677185 25.978594 
L 89.014025 27.394714 
L 92.094185 28.943761 
L 94.917665 30.60494 
L 97.484465 32.352142 
L 100.051265 34.368153 
L 102.361385 36.457689 
L 104.671505 38.863137 
L 106.724945 41.324811 
L 108.778385 44.16353 
L 110.575145 47.03332 
L 112.371905 50.360882 
L 113.911985 53.680105 
L 115.452065 57.564447 
L 116.735465 61.3724 
L 118.018865 65.885745 
L 119.045585 70.192107 
L 120.072305 75.372533 
L 121.099025 81.843581 
L 121.869065 88.004589 
L 122.639105 96.013333 
L 123.152465 103.066777 
L 123.665825 112.5964 
L 124.179185 127.289924 
L 124.435865 139.2218 
L 124.692545 160.578339 
L 124.949225 213.288448 
L 125.205905 153.118438 
L 125.719265 124.609822 
L 126.232625 110.741637 
L 127.002665 97.776791 
L 127.772705 88.902632 
L 128.799425 80.196993 
L 129.826145 73.522161 
L 131.109545 66.89351 
L 132.392945 61.502597 
L 133.933025 56.130395 
L 135.473105 51.603342 
L 137.269865 47.09392 
L 139.066625 43.20793 
L 141.120065 39.349738 
L 143.173505 35.980112 
L 145.226945 33.003541 
L 147.537065 30.041408 
L 149.847185 27.4225 
L 152.413985 24.854313 
L 154.980785 22.596941 
L 157.804265 20.427916 
L 160.627745 18.55158 
L 163.451225 16.939592 
L 166.274705 15.570418 
L 169.354865 14.334473 
L 172.435025 13.351846 
L 175.515185 12.610682 
L 178.595345 12.102577 
L 181.675505 11.822021 
L 184.755665 11.766055 
L 187.835825 11.934097 
L 190.915985 12.327905 
L 193.996145 12.95168 
L 197.076305 13.812324 
L 200.156465 14.919885 
L 202.979945 16.163822 
L 205.803425 17.641053 
L 208.626905 19.370169 
L 211.450385 21.375539 
L 214.017185 23.465255 
L 216.583985 25.841782 
L 219.150785 28.547661 
L 221.460905 31.311947 
L 223.771025 34.447429 
L 225.824465 37.610635 
L 227.877905 41.210298 
L 229.674665 44.807479 
L 231.471425 48.939584 
L 233.011505 53.034539 
L 234.551585 57.812632 
L 235.834985 62.503537 
L 237.118385 68.103381 
L 238.145105 73.522161 
L 239.171825 80.196993 
L 239.941865 86.466433 
L 240.711905 94.502482 
L 241.481945 105.732696 
L 241.995305 116.832395 
L 242.508665 135.391945 
L 242.765345 153.118438 
L 243.022025 213.288448 
L 243.278705 160.578339 
L 243.535385 139.2218 
L 244.048745 118.977212 
L 244.562105 107.419896 
L 245.332145 96.013333 
L 246.102185 88.004589 
L 247.128905 80.070797 
L 248.155625 73.976986 
L 249.182345 69.045096 
L 250.465745 63.980658 
L 251.749145 59.776298 
L 253.289225 55.541383 
L 254.829305 51.959084 
L 256.626065 48.396585 
L 258.422825 45.344182 
L 260.219585 42.691695 
L 262.273025 40.051759 
L 264.326465 37.750925 
L 266.636585 35.493552 
L 269.203385 33.323466 
L 271.770185 31.447817 
L 274.593665 29.667788 
L 277.673825 28.009609 
L 280.753985 26.601093 
L 284.090825 25.314372 
L 287.684345 24.166525 
L 291.534545 23.171782 
L 295.641425 22.342712 
L 300.004985 21.691685 
L 304.625225 21.232743 
L 309.245465 20.991363 
L 312.325625 20.945834 
L 312.325625 20.945834 
" clip-path="url(#p251b863c15)" style="fill: none; stroke: #1f77b4; stroke-width: 2; stroke-linecap: square"/>
   </g>
   <g id="line2d_15">
    <path d="M 55.917367 215.108813 
L 56.415665 185.560072 
L 56.929025 171.291047 
L 57.699065 158.159534 
L 58.469105 149.258733 
L 59.495825 140.58448 
L 60.522545 133.967124 
L 61.549265 128.612746 
L 62.832665 123.091766 
L 64.116065 118.471901 
L 65.656145 113.764684 
L 67.196225 109.723061 
L 68.992985 105.630453 
L 70.789745 102.049083 
L 72.843185 98.440819 
L 75.153305 94.869604 
L 77.463425 91.715453 
L 79.773545 88.909137 
L 82.340345 86.143507 
L 84.907145 83.710353 
L 87.473945 81.586513 
L 90.040745 79.762066 
L 92.350865 78.3768 
L 94.660985 77.242849 
L 96.714425 76.457785 
L 98.767865 75.898622 
L 100.821305 75.586792 
L 102.618065 75.539208 
L 104.414825 75.728074 
L 105.954905 76.102726 
L 107.494985 76.701545 
L 109.035065 77.558658 
L 110.318465 78.502086 
L 111.601865 79.689442 
L 112.885265 81.164795 
L 114.168665 82.98718 
L 115.452065 85.238219 
L 116.735465 88.035342 
L 117.762185 90.782633 
L 118.788905 94.129201 
L 119.815625 98.289375 
L 120.842345 103.623244 
L 121.612385 108.779411 
L 122.382425 115.506592 
L 123.152465 124.952338 
L 123.665825 134.119619 
L 124.179185 148.453736 
L 124.435865 160.20701 
L 124.692545 181.38568 
L 124.857319 215.108813 
M 125.029232 215.108813 
L 125.205905 173.572246 
L 125.719265 144.713032 
L 126.232625 130.497188 
L 127.002665 117.016363 
L 127.772705 107.63284 
L 128.799425 98.258348 
L 129.826145 90.926445 
L 131.109545 83.493045 
L 132.392945 77.315847 
L 133.933025 71.024526 
L 135.473105 65.605061 
L 137.269865 60.088348 
L 139.066625 55.231641 
L 141.120065 50.309012 
L 143.173505 45.923088 
L 145.483625 41.512948 
L 147.793745 37.567882 
L 150.360545 33.649712 
L 152.927345 30.158471 
L 155.494145 27.04656 
L 158.060945 24.278556 
L 160.627745 21.827589 
L 163.194545 19.672979 
L 165.761345 17.798656 
L 168.328145 16.192065 
L 170.894945 14.843395 
L 173.461745 13.745034 
L 176.028545 12.891176 
L 178.595345 12.277533 
L 181.162145 11.901143 
L 183.728945 11.760236 
M 184.242305 11.760236 
L 186.809105 11.901143 
L 189.375905 12.277533 
L 191.942705 12.891176 
L 194.509505 13.745034 
L 197.076305 14.843395 
L 199.643105 16.192065 
L 202.209905 17.798656 
L 204.776705 19.672979 
L 207.343505 21.827589 
L 209.910305 24.278556 
L 212.477105 27.04656 
L 215.043905 30.158471 
L 217.610705 33.649712 
L 219.920825 37.155161 
L 222.230945 41.053052 
L 224.541065 45.407481 
L 226.594505 49.733721 
L 228.647945 54.582724 
L 230.444705 59.358101 
L 232.241465 64.7693 
L 233.781545 70.068211 
L 235.321625 76.193298 
L 236.605025 82.17293 
L 237.888425 89.311275 
L 238.915145 96.273971 
L 239.941865 105.028324 
L 240.711905 113.57153 
L 241.481945 125.315519 
L 241.995305 136.761408 
L 242.508665 155.670087 
L 242.765345 173.572246 
L 242.942018 215.108813 
M 243.113931 215.108813 
L 243.278705 181.38568 
L 243.535385 160.20701 
L 244.048745 140.320361 
L 244.562105 129.123919 
L 245.332145 118.264174 
L 246.102185 110.808855 
L 246.872225 105.20788 
L 247.898945 99.493833 
L 248.925665 95.082178 
L 249.952385 91.556375 
L 251.235785 88.035342 
L 252.519185 85.238219 
L 253.802585 82.98718 
L 255.085985 81.164795 
L 256.369385 79.689442 
L 257.652785 78.502086 
L 259.192865 77.396129 
L 260.732945 76.584838 
L 262.273025 76.025515 
L 263.813105 75.685472 
L 265.609865 75.532189 
L 267.406625 75.611344 
L 269.203385 75.898622 
L 271.256825 76.457785 
L 273.310265 77.242849 
L 275.620385 78.3768 
L 277.930505 79.762066 
L 280.240625 81.390659 
L 282.807425 83.484308 
L 285.374225 85.885731 
L 287.941025 88.616621 
L 290.251145 91.387472 
L 292.561265 94.500063 
L 294.871385 98.020556 
L 296.924825 101.572176 
L 298.721585 105.090622 
L 300.518345 109.101498 
L 302.058425 113.050285 
L 303.598505 117.631507 
L 304.881905 122.105791 
L 306.165305 127.419034 
L 307.192025 132.530241 
L 308.218745 138.778475 
L 308.988785 144.587535 
L 309.758825 151.923102 
L 310.528865 161.890738 
L 311.042225 171.291047 
L 311.555585 185.560072 
L 311.812265 196.885147 
L 312.053883 215.108813 
L 312.053883 215.108813 
" clip-path="url(#p251b863c15)" style="fill: none; stroke: #ff7f0e; stroke-width: 2; stroke-linecap: square"/>
   </g>
   <g id="patch_3">
    <path d="M 55.645625 172.535063 
L 55.645625 11.759062 
" style="fill: none; stroke: #000000; stroke-width: 0.8; stroke-linejoin: miter; stroke-linecap: square"/>
   </g>
   <g id="patch_4">
    <path d="M 312.325625 172.535063 
L 312.325625 11.759062 
" style="fill: none; stroke: #000000; stroke-width: 0.8; stroke-linejoin: miter; stroke-linecap: square"/>
   </g>
   <g id="patch_5">
    <path d="M 55.645625 172.535063 
L 312.325625 172.535063 
" style="fill: none; stroke: #000000; stroke-width: 0.8; stroke-linejoin: miter; stroke-linecap: square"/>
   </g>
   <g id="patch_6">
    <path d="M 55.645625 11.759063 
L 312.325625 11.759063 
" style="fill: none; stroke: #000000; stroke-width: 0.8; stroke-linejoin: miter; stroke-linecap: square"/>
   </g>
   <g id="legend_1">
    <g id="patch_7">
     <path d="M 141.445625 166.535063 
L 226.525625 166.535063 
Q 228.925625 166.535063 228.925625 164.135063 
L 228.925625 130.055063 
Q 228.925625 127.655063 226.525625 127.655063 
L 141.445625 127.655063 
Q 139.045625 127.655063 139.045625 130.055063 
L 139.045625 164.135063 
Q 139.045625 166.535063 141.445625 166.535063 
z
" style="fill: #ffffff; opacity: 0.8; stroke: #cccccc; stroke-linejoin: miter"/>
    </g>
    <g id="line2d_16">
     <path d="M 143.845625 137.375063 
L 155.845625 137.375063 
L 167.845625 137.375063 
" style="fill: none; stroke: #1f77b4; stroke-width: 2; stroke-linecap: square"/>
    </g>
    <g id="text_16">
     <!-- $E$-plane -->
     <g transform="translate(177.445625 141.575063) scale(0.12 -0.12)">
      <defs>
       <path id="DejaVuSans-2d" d="M 313 2009 
L 1997 2009 
L 1997 1497 
L 313 1497 
L 313 2009 
z
" transform="scale(0.015625)"/>
       <path id="DejaVuSans-70" d="M 1159 525 
L 1159 -1331 
L 581 -1331 
L 581 3500 
L 1159 3500 
L 1159 2969 
Q 1341 3281 1617 3432 
Q 1894 3584 2278 3584 
Q 2916 3584 3314 3078 
Q 3713 2572 3713 1747 
Q 3713 922 3314 415 
Q 2916 -91 2278 -91 
Q 1894 -91 1617 61 
Q 1341 213 1159 525 
z
M 3116 1747 
Q 3116 2381 2855 2742 
Q 2594 3103 2138 3103 
Q 1681 3103 1420 2742 
Q 1159 2381 1159 1747 
Q 1159 1113 1420 752 
Q 1681 391 2138 391 
Q 2594 391 2855 752 
Q 3116 1113 3116 1747 
z
" transform="scale(0.015625)"/>
       <path id="DejaVuSans-6e" d="M 3513 2113 
L 3513 0 
L 2938 0 
L 2938 2094 
Q 2938 2591 2744 2837 
Q 2550 3084 2163 3084 
Q 1697 3084 1428 2787 
Q 1159 2491 1159 1978 
L 1159 0 
L 581 0 
L 581 3500 
L 1159 3500 
L 1159 2956 
Q 1366 3272 1645 3428 
Q 1925 3584 2291 3584 
Q 2894 3584 3203 3211 
Q 3513 2838 3513 2113 
z
" transform="scale(0.015625)"/>
      </defs>
      <use xlink:href="#DejaVuSans-Oblique-45" transform="translate(0 0.015625)"/>
      <use xlink:href="#DejaVuSans-2d" transform="translate(63.183594 0.015625)"/>
      <use xlink:href="#DejaVuSans-70" transform="translate(99.267578 0.015625)"/>
      <use xlink:href="#DejaVuSans-6c" transform="translate(162.744141 0.015625)"/>
      <use xlink:href="#DejaVuSans-61" transform="translate(190.527344 0.015625)"/>
      <use xlink:href="#DejaVuSans-6e" transform="translate(251.806641 0.015625)"/>
      <use xlink:href="#DejaVuSans-65" transform="translate(315.185547 0.015625)"/>
     </g>
    </g>
    <g id="line2d_17">
     <path d="M 143.845625 155.015063 
L 155.845625 155.015063 
L 167.845625 155.015063 
" style="fill: none; stroke: #ff7f0e; stroke-width: 2; stroke-linecap: square"/>
    </g>
    <g id="text_17">
     <!-- $H$-plane -->
     <g transform="translate(177.445625 159.215063) scale(0.12 -0.12)">
      <defs>
       <path id="DejaVuSans-Oblique-48" d="M 1081 4666 
L 1716 4666 
L 1344 2753 
L 3634 2753 
L 4006 4666 
L 4641 4666 
L 3731 0 
L 3097 0 
L 3531 2222 
L 1241 2222 
L 806 0 
L 172 0 
L 1081 4666 
z
" transform="scale(0.015625)"/>
      </defs>
      <use xlink:href="#DejaVuSans-Oblique-48" transform="translate(0 0.015625)"/>
      <use xlink:href="#DejaVuSans-2d" transform="translate(75.195312 0.015625)"/>
      <use xlink:href="#DejaVuSans-70" transform="translate(111.279297 0.015625)"/>
      <use xlink:href="#DejaVuSans-6c" transform="translate(174.755859 0.015625)"/>
      <use xlink:href="#DejaVuSans-61" transform="translate(202.539062 0.015625)"/>
      <use xlink:href="#DejaVuSans-6e" transform="translate(263.818359 0.015625)"/>
      <use xlink:href="#DejaVuSans-65" transform="translate(327.197266 0.015625)"/>
     </g>
    </g>
   </g>
  </g>
 </g>
 <defs>
  <clipPath id="p251b863c15">
   <rect x="55.645625" y="11.759062" width="256.68" height="160.776"/>
  </clipPath>
 </defs>
</svg>
