<?xml version="1.0" encoding="utf-8" standalone="no"?>
<!DOCTYPE svg PUBLIC "-//W3C//DTD SVG 1.1//EN"
  "http://www.w3.org/Graphics/SVG/1.1/DTD/svg11.dtd">
<svg xmlns:xlink="http://www.w3.org/1999/xlink" width="327.160625pt" height="214.108813pt" viewBox="0 0 327.160625 214.108813" xmlns="http://www.w3.org/2000/svg" version="1.1">
 <metadata>
  <rdf:RDF xmlns:dc="http://purl.org/dc/elements/1.1/" xmlns:cc="http://creativecommons.org/ns#" xmlns:rdf="http://www.w3.org/1999/02/22-rdf-syntax-ns#">
   <cc:Work>
    <dc:type rdf:resource="http://purl.org/dc/dcmitype/StillImage"/>
    <dc:date>2024-03-03T16:49:09.694650</dc:date>
    <dc:format>image/svg+xml</dc:format>
    <dc:creator>
     <cc:Agent>
      <dc:title>Matplotlib v3.7.2, https://matplotlib.org/</dc:title>
     </cc:Agent>
    </dc:creator>
   </cc:Work>
  </rdf:RDF>
 </metadata>
 <defs>
  <style type="text/css">*{stroke-linejoin: round; stroke-linecap: butt}</style>
 </defs>
 <g id="figure_1">
  <g id="patch_1">
   <path d="M 0 214.108813 
L 327.160625 214.108813 
L 327.160625 0 
L 0 0 
z
" style="fill: #ffffff"/>
  </g>
  <g id="axes_1">
   <g id="patch_2">
    <path d="M 55.645625 172.535063 
L 312.325625 172.535063 
L 312.325625 11.759063 
L 55.645625 11.759063 
z
" style="fill: #ffffff"/>
   </g>
   <g id="matplotlib.axis_1">
    <g id="xtick_1">
     <g id="line2d_1">
      <defs>
       <path id="m017d42c198" d="M 0 0 
L 0 3.5 
" style="stroke: #000000; stroke-width: 0.8"/>
      </defs>
      <g>
       <use xlink:href="#m017d42c198" x="55.645625" y="172.535063" style="stroke: #000000; stroke-width: 0.8"/>
      </g>
     </g>
     <g id="text_1">
      <!-- −90 -->
      <g transform="translate(42.982812 188.653188) scale(0.12 -0.12)">
       <defs>
        <path id="DejaVuSans-2212" d="M 678 2272 
L 4684 2272 
L 4684 1741 
L 678 1741 
L 678 2272 
z
" transform="scale(0.015625)"/>
        <path id="DejaVuSans-39" d="M 703 97 
L 703 672 
Q 941 559 1184 500 
Q 1428 441 1663 441 
Q 2288 441 2617 861 
Q 2947 1281 2994 2138 
Q 2813 1869 2534 1725 
Q 2256 1581 1919 1581 
Q 1219 1581 811 2004 
Q 403 2428 403 3163 
Q 403 3881 828 4315 
Q 1253 4750 1959 4750 
Q 2769 4750 3195 4129 
Q 3622 3509 3622 2328 
Q 3622 1225 3098 567 
Q 2575 -91 1691 -91 
Q 1453 -91 1209 -44 
Q 966 3 703 97 
z
M 1959 2075 
Q 2384 2075 2632 2365 
Q 2881 2656 2881 3163 
Q 2881 3666 2632 3958 
Q 2384 4250 1959 4250 
Q 1534 4250 1286 3958 
Q 1038 3666 1038 3163 
Q 1038 2656 1286 2365 
Q 1534 2075 1959 2075 
z
" transform="scale(0.015625)"/>
        <path id="DejaVuSans-30" d="M 2034 4250 
Q 1547 4250 1301 3770 
Q 1056 3291 1056 2328 
Q 1056 1369 1301 889 
Q 1547 409 2034 409 
Q 2525 409 2770 889 
Q 3016 1369 3016 2328 
Q 3016 3291 2770 3770 
Q 2525 4250 2034 4250 
z
M 2034 4750 
Q 2819 4750 3233 4129 
Q 3647 3509 3647 2328 
Q 3647 1150 3233 529 
Q 2819 -91 2034 -91 
Q 1250 -91 836 529 
Q 422 1150 422 2328 
Q 422 3509 836 4129 
Q 1250 4750 2034 4750 
z
" transform="scale(0.015625)"/>
       </defs>
       <use xlink:href="#DejaVuSans-2212"/>
       <use xlink:href="#DejaVuSans-39" x="83.789062"/>
       <use xlink:href="#DejaVuSans-30" x="147.412109"/>
      </g>
     </g>
    </g>
    <g id="xtick_2">
     <g id="line2d_2">
      <g>
       <use xlink:href="#m017d42c198" x="98.425625" y="172.535063" style="stroke: #000000; stroke-width: 0.8"/>
      </g>
     </g>
     <g id="text_2">
      <!-- −60 -->
      <g transform="translate(85.762812 188.653188) scale(0.12 -0.12)">
       <defs>
        <path id="DejaVuSans-36" d="M 2113 2584 
Q 1688 2584 1439 2293 
Q 1191 2003 1191 1497 
Q 1191 994 1439 701 
Q 1688 409 2113 409 
Q 2538 409 2786 701 
Q 3034 994 3034 1497 
Q 3034 2003 2786 2293 
Q 2538 2584 2113 2584 
z
M 3366 4563 
L 3366 3988 
Q 3128 4100 2886 4159 
Q 2644 4219 2406 4219 
Q 1781 4219 1451 3797 
Q 1122 3375 1075 2522 
Q 1259 2794 1537 2939 
Q 1816 3084 2150 3084 
Q 2853 3084 3261 2657 
Q 3669 2231 3669 1497 
Q 3669 778 3244 343 
Q 2819 -91 2113 -91 
Q 1303 -91 875 529 
Q 447 1150 447 2328 
Q 447 3434 972 4092 
Q 1497 4750 2381 4750 
Q 2619 4750 2861 4703 
Q 3103 4656 3366 4563 
z
" transform="scale(0.015625)"/>
       </defs>
       <use xlink:href="#DejaVuSans-2212"/>
       <use xlink:href="#DejaVuSans-36" x="83.789062"/>
       <use xlink:href="#DejaVuSans-30" x="147.412109"/>
      </g>
     </g>
    </g>
    <g id="xtick_3">
     <g id="line2d_3">
      <g>
       <use xlink:href="#m017d42c198" x="141.205625" y="172.535063" style="stroke: #000000; stroke-width: 0.8"/>
      </g>
     </g>
     <g id="text_3">
      <!-- −30 -->
      <g transform="translate(128.542812 188.653188) scale(0.12 -0.12)">
       <defs>
        <path id="DejaVuSans-33" d="M 2597 2516 
Q 3050 2419 3304 2112 
Q 3559 1806 3559 1356 
Q 3559 666 3084 287 
Q 2609 -91 1734 -91 
Q 1441 -91 1130 -33 
Q 819 25 488 141 
L 488 750 
Q 750 597 1062 519 
Q 1375 441 1716 441 
Q 2309 441 2620 675 
Q 2931 909 2931 1356 
Q 2931 1769 2642 2001 
Q 2353 2234 1838 2234 
L 1294 2234 
L 1294 2753 
L 1863 2753 
Q 2328 2753 2575 2939 
Q 2822 3125 2822 3475 
Q 2822 3834 2567 4026 
Q 2313 4219 1838 4219 
Q 1578 4219 1281 4162 
Q 984 4106 628 3988 
L 628 4550 
Q 988 4650 1302 4700 
Q 1616 4750 1894 4750 
Q 2613 4750 3031 4423 
Q 3450 4097 3450 3541 
Q 3450 3153 3228 2886 
Q 3006 2619 2597 2516 
z
" transform="scale(0.015625)"/>
       </defs>
       <use xlink:href="#DejaVuSans-2212"/>
       <use xlink:href="#DejaVuSans-33" x="83.789062"/>
       <use xlink:href="#DejaVuSans-30" x="147.412109"/>
      </g>
     </g>
    </g>
    <g id="xtick_4">
     <g id="line2d_4">
      <g>
       <use xlink:href="#m017d42c198" x="183.985625" y="172.535063" style="stroke: #000000; stroke-width: 0.8"/>
      </g>
     </g>
     <g id="text_4">
      <!-- 0 -->
      <g transform="translate(180.168125 188.653188) scale(0.12 -0.12)">
       <use xlink:href="#DejaVuSans-30"/>
      </g>
     </g>
    </g>
    <g id="xtick_5">
     <g id="line2d_5">
      <g>
       <use xlink:href="#m017d42c198" x="226.765625" y="172.535063" style="stroke: #000000; stroke-width: 0.8"/>
      </g>
     </g>
     <g id="text_5">
      <!-- 30 -->
      <g transform="translate(219.130625 188.653188) scale(0.12 -0.12)">
       <use xlink:href="#DejaVuSans-33"/>
       <use xlink:href="#DejaVuSans-30" x="63.623047"/>
      </g>
     </g>
    </g>
    <g id="xtick_6">
     <g id="line2d_6">
      <g>
       <use xlink:href="#m017d42c198" x="269.545625" y="172.535063" style="stroke: #000000; stroke-width: 0.8"/>
      </g>
     </g>
     <g id="text_6">
      <!-- 60 -->
      <g transform="translate(261.910625 188.653188) scale(0.12 -0.12)">
       <use xlink:href="#DejaVuSans-36"/>
       <use xlink:href="#DejaVuSans-30" x="63.623047"/>
      </g>
     </g>
    </g>
    <g id="xtick_7">
     <g id="line2d_7">
      <g>
       <use xlink:href="#m017d42c198" x="312.325625" y="172.535063" style="stroke: #000000; stroke-width: 0.8"/>
      </g>
     </g>
     <g id="text_7">
      <!-- 90 -->
      <g transform="translate(304.690625 188.653188) scale(0.12 -0.12)">
       <use xlink:href="#DejaVuSans-39"/>
       <use xlink:href="#DejaVuSans-30" x="63.623047"/>
      </g>
     </g>
    </g>
    <g id="text_8">
     <!-- $\theta \,$ [deg] -->
     <g transform="translate(161.425625 204.388813) scale(0.12 -0.12)">
      <defs>
       <path id="DejaVuSans-Oblique-3b8" d="M 2913 2219 
L 925 2219 
Q 791 1284 928 888 
Q 1100 400 1566 400 
Q 2034 400 2391 891 
Q 2703 1322 2913 2219 
z
M 3009 2750 
Q 3094 3638 2984 3950 
Q 2813 4444 2353 4444 
Q 1875 4444 1525 3956 
Q 1250 3563 1034 2750 
L 3009 2750 
z
M 2444 4913 
Q 3194 4913 3494 4250 
Q 3794 3591 3566 2422 
Q 3341 1256 2781 594 
Q 2225 -72 1475 -72 
Q 722 -72 425 594 
Q 128 1256 353 2422 
Q 581 3591 1134 4250 
Q 1691 4913 2444 4913 
z
" transform="scale(0.015625)"/>
       <path id="DejaVuSans-20" transform="scale(0.015625)"/>
       <path id="DejaVuSans-5b" d="M 550 4863 
L 1875 4863 
L 1875 4416 
L 1125 4416 
L 1125 -397 
L 1875 -397 
L 1875 -844 
L 550 -844 
L 550 4863 
z
" transform="scale(0.015625)"/>
       <path id="DejaVuSans-64" d="M 2906 2969 
L 2906 4863 
L 3481 4863 
L 3481 0 
L 2906 0 
L 2906 525 
Q 2725 213 2448 61 
Q 2172 -91 1784 -91 
Q 1150 -91 751 415 
Q 353 922 353 1747 
Q 353 2572 751 3078 
Q 1150 3584 1784 3584 
Q 2172 3584 2448 3432 
Q 2725 3281 2906 2969 
z
M 947 1747 
Q 947 1113 1208 752 
Q 1469 391 1925 391 
Q 2381 391 2643 752 
Q 2906 1113 2906 1747 
Q 2906 2381 2643 2742 
Q 2381 3103 1925 3103 
Q 1469 3103 1208 2742 
Q 947 2381 947 1747 
z
" transform="scale(0.015625)"/>
       <path id="DejaVuSans-65" d="M 3597 1894 
L 3597 1613 
L 953 1613 
Q 991 1019 1311 708 
Q 1631 397 2203 397 
Q 2534 397 2845 478 
Q 3156 559 3463 722 
L 3463 178 
Q 3153 47 2828 -22 
Q 2503 -91 2169 -91 
Q 1331 -91 842 396 
Q 353 884 353 1716 
Q 353 2575 817 3079 
Q 1281 3584 2069 3584 
Q 2775 3584 3186 3129 
Q 3597 2675 3597 1894 
z
M 3022 2063 
Q 3016 2534 2758 2815 
Q 2500 3097 2075 3097 
Q 1594 3097 1305 2825 
Q 1016 2553 972 2059 
L 3022 2063 
z
" transform="scale(0.015625)"/>
       <path id="DejaVuSans-67" d="M 2906 1791 
Q 2906 2416 2648 2759 
Q 2391 3103 1925 3103 
Q 1463 3103 1205 2759 
Q 947 2416 947 1791 
Q 947 1169 1205 825 
Q 1463 481 1925 481 
Q 2391 481 2648 825 
Q 2906 1169 2906 1791 
z
M 3481 434 
Q 3481 -459 3084 -895 
Q 2688 -1331 1869 -1331 
Q 1566 -1331 1297 -1286 
Q 1028 -1241 775 -1147 
L 775 -588 
Q 1028 -725 1275 -790 
Q 1522 -856 1778 -856 
Q 2344 -856 2625 -561 
Q 2906 -266 2906 331 
L 2906 616 
Q 2728 306 2450 153 
Q 2172 0 1784 0 
Q 1141 0 747 490 
Q 353 981 353 1791 
Q 353 2603 747 3093 
Q 1141 3584 1784 3584 
Q 2172 3584 2450 3431 
Q 2728 3278 2906 2969 
L 2906 3500 
L 3481 3500 
L 3481 434 
z
" transform="scale(0.015625)"/>
       <path id="DejaVuSans-5d" d="M 1947 4863 
L 1947 -844 
L 622 -844 
L 622 -397 
L 1369 -397 
L 1369 4416 
L 622 4416 
L 622 4863 
L 1947 4863 
z
" transform="scale(0.015625)"/>
      </defs>
      <use xlink:href="#DejaVuSans-Oblique-3b8" transform="translate(0 0.234375)"/>
      <use xlink:href="#DejaVuSans-20" transform="translate(77.417317 0.234375)"/>
      <use xlink:href="#DejaVuSans-5b" transform="translate(109.204426 0.234375)"/>
      <use xlink:href="#DejaVuSans-64" transform="translate(148.218098 0.234375)"/>
      <use xlink:href="#DejaVuSans-65" transform="translate(211.694661 0.234375)"/>
      <use xlink:href="#DejaVuSans-67" transform="translate(273.218098 0.234375)"/>
      <use xlink:href="#DejaVuSans-5d" transform="translate(336.694661 0.234375)"/>
     </g>
    </g>
   </g>
   <g id="matplotlib.axis_2">
    <g id="ytick_1">
     <g id="line2d_8">
      <defs>
       <path id="m28f3d9a759" d="M 0 0 
L -3.5 0 
" style="stroke: #000000; stroke-width: 0.8"/>
      </defs>
      <g>
       <use xlink:href="#m28f3d9a759" x="55.645625" y="172.535063" style="stroke: #000000; stroke-width: 0.8"/>
      </g>
     </g>
     <g id="text_9">
      <!-- −50 -->
      <g transform="translate(23.32 177.094125) scale(0.12 -0.12)">
       <defs>
        <path id="DejaVuSans-35" d="M 691 4666 
L 3169 4666 
L 3169 4134 
L 1269 4134 
L 1269 2991 
Q 1406 3038 1543 3061 
Q 1681 3084 1819 3084 
Q 2600 3084 3056 2656 
Q 3513 2228 3513 1497 
Q 3513 744 3044 326 
Q 2575 -91 1722 -91 
Q 1428 -91 1123 -41 
Q 819 9 494 109 
L 494 744 
Q 775 591 1075 516 
Q 1375 441 1709 441 
Q 2250 441 2565 725 
Q 2881 1009 2881 1497 
Q 2881 1984 2565 2268 
Q 2250 2553 1709 2553 
Q 1456 2553 1204 2497 
Q 953 2441 691 2322 
L 691 4666 
z
" transform="scale(0.015625)"/>
       </defs>
       <use xlink:href="#DejaVuSans-2212"/>
       <use xlink:href="#DejaVuSans-35" x="83.789062"/>
       <use xlink:href="#DejaVuSans-30" x="147.412109"/>
      </g>
     </g>
    </g>
    <g id="ytick_2">
     <g id="line2d_9">
      <g>
       <use xlink:href="#m28f3d9a759" x="55.645625" y="140.379863" style="stroke: #000000; stroke-width: 0.8"/>
      </g>
     </g>
     <g id="text_10">
      <!-- −40 -->
      <g transform="translate(23.32 144.938925) scale(0.12 -0.12)">
       <defs>
        <path id="DejaVuSans-34" d="M 2419 4116 
L 825 1625 
L 2419 1625 
L 2419 4116 
z
M 2253 4666 
L 3047 4666 
L 3047 1625 
L 3713 1625 
L 3713 1100 
L 3047 1100 
L 3047 0 
L 2419 0 
L 2419 1100 
L 313 1100 
L 313 1709 
L 2253 4666 
z
" transform="scale(0.015625)"/>
       </defs>
       <use xlink:href="#DejaVuSans-2212"/>
       <use xlink:href="#DejaVuSans-34" x="83.789062"/>
       <use xlink:href="#DejaVuSans-30" x="147.412109"/>
      </g>
     </g>
    </g>
    <g id="ytick_3">
     <g id="line2d_10">
      <g>
       <use xlink:href="#m28f3d9a759" x="55.645625" y="108.224663" style="stroke: #000000; stroke-width: 0.8"/>
      </g>
     </g>
     <g id="text_11">
      <!-- −30 -->
      <g transform="translate(23.32 112.783725) scale(0.12 -0.12)">
       <use xlink:href="#DejaVuSans-2212"/>
       <use xlink:href="#DejaVuSans-33" x="83.789062"/>
       <use xlink:href="#DejaVuSans-30" x="147.412109"/>
      </g>
     </g>
    </g>
    <g id="ytick_4">
     <g id="line2d_11">
      <g>
       <use xlink:href="#m28f3d9a759" x="55.645625" y="76.069463" style="stroke: #000000; stroke-width: 0.8"/>
      </g>
     </g>
     <g id="text_12">
      <!-- −20 -->
      <g transform="translate(23.32 80.628525) scale(0.12 -0.12)">
       <defs>
        <path id="DejaVuSans-32" d="M 1228 531 
L 3431 531 
L 3431 0 
L 469 0 
L 469 531 
Q 828 903 1448 1529 
Q 2069 2156 2228 2338 
Q 2531 2678 2651 2914 
Q 2772 3150 2772 3378 
Q 2772 3750 2511 3984 
Q 2250 4219 1831 4219 
Q 1534 4219 1204 4116 
Q 875 4013 500 3803 
L 500 4441 
Q 881 4594 1212 4672 
Q 1544 4750 1819 4750 
Q 2544 4750 2975 4387 
Q 3406 4025 3406 3419 
Q 3406 3131 3298 2873 
Q 3191 2616 2906 2266 
Q 2828 2175 2409 1742 
Q 1991 1309 1228 531 
z
" transform="scale(0.015625)"/>
       </defs>
       <use xlink:href="#DejaVuSans-2212"/>
       <use xlink:href="#DejaVuSans-32" x="83.789062"/>
       <use xlink:href="#DejaVuSans-30" x="147.412109"/>
      </g>
     </g>
    </g>
    <g id="ytick_5">
     <g id="line2d_12">
      <g>
       <use xlink:href="#m28f3d9a759" x="55.645625" y="43.914262" style="stroke: #000000; stroke-width: 0.8"/>
      </g>
     </g>
     <g id="text_13">
      <!-- −10 -->
      <g transform="translate(23.32 48.473325) scale(0.12 -0.12)">
       <defs>
        <path id="DejaVuSans-31" d="M 794 531 
L 1825 531 
L 1825 4091 
L 703 3866 
L 703 4441 
L 1819 4666 
L 2450 4666 
L 2450 531 
L 3481 531 
L 3481 0 
L 794 0 
L 794 531 
z
" transform="scale(0.015625)"/>
       </defs>
       <use xlink:href="#DejaVuSans-2212"/>
       <use xlink:href="#DejaVuSans-31" x="83.789062"/>
       <use xlink:href="#DejaVuSans-30" x="147.412109"/>
      </g>
     </g>
    </g>
    <g id="ytick_6">
     <g id="line2d_13">
      <g>
       <use xlink:href="#m28f3d9a759" x="55.645625" y="11.759062" style="stroke: #000000; stroke-width: 0.8"/>
      </g>
     </g>
     <g id="text_14">
      <!-- 0 -->
      <g transform="translate(41.010625 16.318125) scale(0.12 -0.12)">
       <use xlink:href="#DejaVuSans-30"/>
      </g>
     </g>
    </g>
    <g id="text_15">
     <!-- Normalized $|E_\theta|$ [dB] -->
     <g transform="translate(16.44 153.287063) rotate(-90) scale(0.12 -0.12)">
      <defs>
       <path id="DejaVuSans-4e" d="M 628 4666 
L 1478 4666 
L 3547 763 
L 3547 4666 
L 4159 4666 
L 4159 0 
L 3309 0 
L 1241 3903 
L 1241 0 
L 628 0 
L 628 4666 
z
" transform="scale(0.015625)"/>
       <path id="DejaVuSans-6f" d="M 1959 3097 
Q 1497 3097 1228 2736 
Q 959 2375 959 1747 
Q 959 1119 1226 758 
Q 1494 397 1959 397 
Q 2419 397 2687 759 
Q 2956 1122 2956 1747 
Q 2956 2369 2687 2733 
Q 2419 3097 1959 3097 
z
M 1959 3584 
Q 2709 3584 3137 3096 
Q 3566 2609 3566 1747 
Q 3566 888 3137 398 
Q 2709 -91 1959 -91 
Q 1206 -91 779 398 
Q 353 888 353 1747 
Q 353 2609 779 3096 
Q 1206 3584 1959 3584 
z
" transform="scale(0.015625)"/>
       <path id="DejaVuSans-72" d="M 2631 2963 
Q 2534 3019 2420 3045 
Q 2306 3072 2169 3072 
Q 1681 3072 1420 2755 
Q 1159 2438 1159 1844 
L 1159 0 
L 581 0 
L 581 3500 
L 1159 3500 
L 1159 2956 
Q 1341 3275 1631 3429 
Q 1922 3584 2338 3584 
Q 2397 3584 2469 3576 
Q 2541 3569 2628 3553 
L 2631 2963 
z
" transform="scale(0.015625)"/>
       <path id="DejaVuSans-6d" d="M 3328 2828 
Q 3544 3216 3844 3400 
Q 4144 3584 4550 3584 
Q 5097 3584 5394 3201 
Q 5691 2819 5691 2113 
L 5691 0 
L 5113 0 
L 5113 2094 
Q 5113 2597 4934 2840 
Q 4756 3084 4391 3084 
Q 3944 3084 3684 2787 
Q 3425 2491 3425 1978 
L 3425 0 
L 2847 0 
L 2847 2094 
Q 2847 2600 2669 2842 
Q 2491 3084 2119 3084 
Q 1678 3084 1418 2786 
Q 1159 2488 1159 1978 
L 1159 0 
L 581 0 
L 581 3500 
L 1159 3500 
L 1159 2956 
Q 1356 3278 1631 3431 
Q 1906 3584 2284 3584 
Q 2666 3584 2933 3390 
Q 3200 3197 3328 2828 
z
" transform="scale(0.015625)"/>
       <path id="DejaVuSans-61" d="M 2194 1759 
Q 1497 1759 1228 1600 
Q 959 1441 959 1056 
Q 959 750 1161 570 
Q 1363 391 1709 391 
Q 2188 391 2477 730 
Q 2766 1069 2766 1631 
L 2766 1759 
L 2194 1759 
z
M 3341 1997 
L 3341 0 
L 2766 0 
L 2766 531 
Q 2569 213 2275 61 
Q 1981 -91 1556 -91 
Q 1019 -91 701 211 
Q 384 513 384 1019 
Q 384 1609 779 1909 
Q 1175 2209 1959 2209 
L 2766 2209 
L 2766 2266 
Q 2766 2663 2505 2880 
Q 2244 3097 1772 3097 
Q 1472 3097 1187 3025 
Q 903 2953 641 2809 
L 641 3341 
Q 956 3463 1253 3523 
Q 1550 3584 1831 3584 
Q 2591 3584 2966 3190 
Q 3341 2797 3341 1997 
z
" transform="scale(0.015625)"/>
       <path id="DejaVuSans-6c" d="M 603 4863 
L 1178 4863 
L 1178 0 
L 603 0 
L 603 4863 
z
" transform="scale(0.015625)"/>
       <path id="DejaVuSans-69" d="M 603 3500 
L 1178 3500 
L 1178 0 
L 603 0 
L 603 3500 
z
M 603 4863 
L 1178 4863 
L 1178 4134 
L 603 4134 
L 603 4863 
z
" transform="scale(0.015625)"/>
       <path id="DejaVuSans-7a" d="M 353 3500 
L 3084 3500 
L 3084 2975 
L 922 459 
L 3084 459 
L 3084 0 
L 275 0 
L 275 525 
L 2438 3041 
L 353 3041 
L 353 3500 
z
" transform="scale(0.015625)"/>
       <path id="DejaVuSans-7c" d="M 1344 4891 
L 1344 -1509 
L 813 -1509 
L 813 4891 
L 1344 4891 
z
" transform="scale(0.015625)"/>
       <path id="DejaVuSans-Oblique-45" d="M 1081 4666 
L 4031 4666 
L 3928 4134 
L 1606 4134 
L 1338 2753 
L 3566 2753 
L 3463 2222 
L 1234 2222 
L 909 531 
L 3284 531 
L 3181 0 
L 172 0 
L 1081 4666 
z
" transform="scale(0.015625)"/>
       <path id="DejaVuSans-42" d="M 1259 2228 
L 1259 519 
L 2272 519 
Q 2781 519 3026 730 
Q 3272 941 3272 1375 
Q 3272 1813 3026 2020 
Q 2781 2228 2272 2228 
L 1259 2228 
z
M 1259 4147 
L 1259 2741 
L 2194 2741 
Q 2656 2741 2882 2914 
Q 3109 3088 3109 3444 
Q 3109 3797 2882 3972 
Q 2656 4147 2194 4147 
L 1259 4147 
z
M 628 4666 
L 2241 4666 
Q 2963 4666 3353 4366 
Q 3744 4066 3744 3513 
Q 3744 3084 3544 2831 
Q 3344 2578 2956 2516 
Q 3422 2416 3680 2098 
Q 3938 1781 3938 1306 
Q 3938 681 3513 340 
Q 3088 0 2303 0 
L 628 0 
L 628 4666 
z
" transform="scale(0.015625)"/>
      </defs>
      <use xlink:href="#DejaVuSans-4e" transform="translate(0 0.578125)"/>
      <use xlink:href="#DejaVuSans-6f" transform="translate(74.804688 0.578125)"/>
      <use xlink:href="#DejaVuSans-72" transform="translate(135.986328 0.578125)"/>
      <use xlink:href="#DejaVuSans-6d" transform="translate(177.099609 0.578125)"/>
      <use xlink:href="#DejaVuSans-61" transform="translate(274.511719 0.578125)"/>
      <use xlink:href="#DejaVuSans-6c" transform="translate(335.791016 0.578125)"/>
      <use xlink:href="#DejaVuSans-69" transform="translate(363.574219 0.578125)"/>
      <use xlink:href="#DejaVuSans-7a" transform="translate(391.357422 0.578125)"/>
      <use xlink:href="#DejaVuSans-65" transform="translate(443.847656 0.578125)"/>
      <use xlink:href="#DejaVuSans-64" transform="translate(505.371094 0.578125)"/>
      <use xlink:href="#DejaVuSans-20" transform="translate(568.847656 0.578125)"/>
      <use xlink:href="#DejaVuSans-7c" transform="translate(600.634766 0.578125)"/>
      <use xlink:href="#DejaVuSans-Oblique-45" transform="translate(634.326172 0.578125)"/>
      <use xlink:href="#DejaVuSans-Oblique-3b8" transform="translate(697.509766 -15.828125) scale(0.7)"/>
      <use xlink:href="#DejaVuSans-7c" transform="translate(743.071289 0.578125)"/>
      <use xlink:href="#DejaVuSans-20" transform="translate(776.762695 0.578125)"/>
      <use xlink:href="#DejaVuSans-5b" transform="translate(808.549805 0.578125)"/>
      <use xlink:href="#DejaVuSans-64" transform="translate(847.563477 0.578125)"/>
      <use xlink:href="#DejaVuSans-42" transform="translate(911.040039 0.578125)"/>
      <use xlink:href="#DejaVuSans-5d" transform="translate(979.643555 0.578125)"/>
     </g>
    </g>
   </g>
   <g id="line2d_14">
    <path d="M 55.645625 11.819087 
L 82.597025 11.920375 
L 88.243985 12.246898 
L 92.864225 12.725104 
L 96.971105 13.366524 
L 100.564625 14.139935 
L 103.901465 15.075842 
L 106.981625 16.163617 
L 109.805105 17.385254 
L 112.628585 18.861466 
L 115.195385 20.465099 
L 117.505505 22.160781 
L 119.815625 24.140455 
L 121.869065 26.184075 
L 123.922505 28.549309 
L 125.719265 30.93774 
L 127.516025 33.690626 
L 129.312785 36.897243 
L 130.852865 40.103231 
L 132.392945 43.855765 
L 133.676345 47.5279 
L 134.959745 51.863446 
L 136.243145 57.117371 
L 137.269865 62.268589 
L 138.296585 68.687834 
L 139.066625 74.77808 
L 139.836665 82.654548 
L 140.350025 89.54428 
L 140.863385 98.762546 
L 141.376745 112.69566 
L 141.633425 123.649663 
L 141.890105 141.976587 
L 142.144002 215.108813 
M 142.149736 215.108813 
L 142.403465 146.190931 
L 142.916825 113.966241 
L 143.430185 99.366768 
L 144.200225 86.020474 
L 144.970265 77.003108 
L 145.740305 70.183749 
L 146.767025 63.086961 
L 147.793745 57.431362 
L 149.077145 51.677419 
L 150.360545 46.926997 
L 151.900625 42.156732 
L 153.440705 38.129513 
L 154.980785 34.664258 
L 156.777545 31.175339 
L 158.574305 28.163419 
L 160.371065 25.541316 
L 162.424505 22.943184 
L 164.477945 20.706893 
L 166.531385 18.784071 
L 168.584825 17.138874 
L 170.894945 15.586536 
L 173.205065 14.322793 
L 175.515185 13.326459 
L 177.825305 12.582135 
L 180.135425 12.079017 
L 182.445545 11.810123 
L 184.755665 11.771823 
L 187.065785 11.963606 
L 189.375905 12.388046 
L 191.686025 13.050969 
L 193.996145 13.961835 
L 196.306265 15.134404 
L 198.359705 16.411677 
L 200.413145 17.928631 
L 202.466585 19.708781 
L 204.520025 21.783181 
L 206.573465 24.193366 
L 208.370225 26.621774 
L 210.166985 29.40213 
L 211.963745 32.6059 
L 213.503825 35.765172 
L 215.043905 39.402157 
L 216.583985 43.65275 
L 217.867385 47.812563 
L 219.150785 52.735913 
L 220.177505 57.431362 
L 221.204225 63.086961 
L 222.230945 70.183749 
L 223.000985 77.003108 
L 223.771025 86.020474 
L 224.284385 94.182581 
L 224.797745 105.728263 
L 225.311105 125.679615 
L 225.567785 146.190931 
L 225.821514 215.108813 
M 225.827248 215.108813 
L 226.081145 141.976587 
L 226.594505 112.69566 
L 227.107865 98.762546 
L 227.877905 85.883251 
L 228.647945 77.158231 
L 229.417985 70.568315 
L 230.444705 63.732998 
L 231.471425 58.3122 
L 232.754825 52.83017 
L 234.038225 48.335515 
L 235.578305 43.855765 
L 237.118385 40.103231 
L 238.658465 36.897243 
L 240.455225 33.690626 
L 242.251985 30.93774 
L 244.305425 28.233866 
L 246.358865 25.912258 
L 248.412305 23.904843 
L 250.722425 21.95924 
L 253.032545 20.29223 
L 255.599345 18.715551 
L 258.422825 17.26432 
L 261.246305 16.063779 
L 264.326465 14.995447 
L 267.663305 14.07716 
L 271.256825 13.319409 
L 275.363705 12.692369 
L 279.983945 12.226582 
L 285.374225 11.920375 
L 292.047905 11.774025 
L 303.341825 11.788841 
L 312.325625 11.819087 
L 312.325625 11.819087 
" clip-path="url(#pf3f9375ec3)" style="fill: none; stroke: #1f77b4; stroke-width: 2; stroke-linecap: square"/>
   </g>
   <g id="line2d_15">
    <path d="M 58.490576 215.108813 
L 59.239145 209.07954 
L 60.009185 204.310921 
L 61.035905 199.513516 
L 61.805945 196.804205 
L 62.575985 194.719195 
L 63.346025 193.189328 
L 64.116065 192.179326 
L 64.629425 191.789849 
L 65.142785 191.631435 
L 65.656145 191.713578 
L 66.169505 192.052048 
L 66.682865 192.67032 
L 67.196225 193.601921 
L 67.709585 194.894206 
L 68.222945 196.614582 
L 68.992985 200.225383 
L 69.506345 203.564686 
L 70.019705 207.990134 
L 70.600348 215.108813 
M 73.417228 215.108813 
L 74.126585 200.563275 
L 74.896625 189.433549 
L 75.923345 178.172396 
L 76.950065 169.204685 
L 78.233465 159.933702 
L 79.773545 150.634048 
L 81.313625 142.673993 
L 83.110385 134.578486 
L 84.907145 127.434404 
L 86.960585 120.159443 
L 89.270705 112.866505 
L 91.580825 106.334169 
L 93.890945 100.434466 
L 96.457745 94.514941 
L 99.024545 89.184477 
L 101.591345 84.386206 
L 104.158145 80.082542 
L 106.468265 76.613082 
L 108.778385 73.517722 
L 111.088505 70.795918 
L 113.141945 68.695482 
L 115.195385 66.905514 
L 116.992145 65.606156 
L 118.788905 64.57121 
L 120.328985 63.909406 
L 121.869065 63.472467 
L 123.409145 63.28101 
L 124.692545 63.327875 
L 125.975945 63.582904 
L 127.259345 64.070581 
L 128.542745 64.822219 
L 129.826145 65.878641 
L 131.109545 67.294328 
L 132.136265 68.734923 
L 133.162985 70.505005 
L 134.189705 72.67589 
L 135.216425 75.348532 
L 136.243145 78.672582 
L 137.269865 82.883763 
L 138.039905 86.856451 
L 138.809945 91.838825 
L 139.579985 98.351133 
L 140.350025 107.47567 
L 140.863385 116.266235 
L 141.376745 129.777181 
L 141.633425 140.522167 
L 141.890105 158.641448 
L 142.086694 215.108813 
M 142.210144 215.108813 
L 142.403465 162.44462 
L 142.916825 129.814222 
L 143.430185 114.814485 
L 144.200225 100.877957 
L 144.970265 91.282493 
L 145.996985 81.761709 
L 147.023705 74.358591 
L 148.307105 66.896909 
L 149.590505 60.738498 
L 151.130585 54.518611 
L 152.670665 49.216787 
L 154.467425 43.890706 
L 156.264185 39.279186 
L 158.060945 35.238283 
L 160.114385 31.195645 
L 162.167825 27.672063 
L 164.221265 24.597405 
L 166.274705 21.921019 
L 168.328145 19.605426 
L 170.381585 17.622423 
L 172.435025 15.95056 
L 174.488465 14.573483 
L 176.541905 13.478794 
L 178.595345 12.657275 
L 180.648785 12.102361 
L 182.445545 11.832097 
L 183.728945 11.761091 
M 184.242305 11.761091 
L 186.039065 11.888936 
L 187.835825 12.216366 
L 189.632585 12.745274 
L 191.686025 13.600529 
L 193.739465 14.729954 
L 195.792905 16.143129 
L 197.846345 17.852897 
L 199.899785 19.876182 
L 201.953225 22.235169 
L 204.006665 24.959065 
L 206.060105 28.086742 
L 208.113545 31.670879 
L 209.910305 35.238283 
L 211.707065 39.279186 
L 213.503825 43.890706 
L 215.043905 48.404823 
L 216.583985 53.57883 
L 218.124065 59.624389 
L 219.407465 65.577207 
L 220.690865 72.73321 
L 221.717585 79.754213 
L 222.744305 88.631152 
L 223.514345 97.346945 
L 224.284385 109.432201 
L 224.797745 121.375432 
L 225.311105 141.729768 
L 225.567785 162.44462 
L 225.761106 215.108813 
M 225.884556 215.108813 
L 226.081145 158.641448 
L 226.594505 129.777181 
L 227.107865 116.266235 
L 227.621225 107.47567 
L 228.391265 98.351133 
L 229.161305 91.838825 
L 229.931345 86.856451 
L 230.958065 81.729829 
L 231.984785 77.769609 
L 233.011505 74.626237 
L 234.038225 72.090716 
L 235.321625 69.574864 
L 236.605025 67.6267 
L 237.888425 66.130989 
L 239.171825 65.007607 
L 240.455225 64.198643 
L 241.738625 63.660938 
L 243.022025 63.361526 
L 244.305425 63.274724 
L 245.845505 63.422877 
L 247.385585 63.820472 
L 248.925665 64.446027 
L 250.722425 65.441716 
L 252.519185 66.70431 
L 254.572625 68.454494 
L 256.626065 70.516777 
L 258.679505 72.880471 
L 260.989625 75.893028 
L 263.299745 79.278934 
L 265.609865 83.044466 
L 267.919985 87.203783 
L 270.486785 92.315755 
L 272.796905 97.396585 
L 275.107025 102.984819 
L 277.417145 109.15285 
L 279.727265 116.004339 
L 281.780705 122.790172 
L 283.834145 130.395796 
L 285.630905 137.91496 
L 287.170985 145.206337 
L 288.711065 153.559324 
L 289.994465 161.656186 
L 291.277865 171.289787 
L 292.304585 180.722128 
L 293.074625 189.433549 
L 293.844665 200.563275 
L 294.554022 215.108813 
M 297.370902 215.108813 
L 297.694865 210.769038 
L 298.464905 203.564686 
L 299.234945 198.861192 
L 300.004985 195.695638 
L 300.775025 193.601921 
L 301.545065 192.324385 
L 302.058425 191.849508 
L 302.571785 191.641612 
L 303.085145 191.681301 
L 303.598505 191.95608 
L 304.111865 192.459249 
L 304.881905 193.640379 
L 305.651945 195.349894 
L 306.421985 197.633329 
L 307.192025 200.573842 
L 307.962065 204.310921 
L 308.732105 209.07954 
L 309.480674 215.108813 
L 309.480674 215.108813 
" clip-path="url(#pf3f9375ec3)" style="fill: none; stroke: #ff7f0e; stroke-width: 2; stroke-linecap: square"/>
   </g>
   <g id="patch_3">
    <path d="M 55.645625 172.535063 
L 55.645625 11.759062 
" style="fill: none; stroke: #000000; stroke-width: 0.8; stroke-linejoin: miter; stroke-linecap: square"/>
   </g>
   <g id="patch_4">
    <path d="M 312.325625 172.535063 
L 312.325625 11.759062 
" style="fill: none; stroke: #000000; stroke-width: 0.8; stroke-linejoin: miter; stroke-linecap: square"/>
   </g>
   <g id="patch_5">
    <path d="M 55.645625 172.535063 
L 312.325625 172.535063 
" style="fill: none; stroke: #000000; stroke-width: 0.8; stroke-linejoin: miter; stroke-linecap: square"/>
   </g>
   <g id="patch_6">
    <path d="M 55.645625 11.759063 
L 312.325625 11.759063 
" style="fill: none; stroke: #000000; stroke-width: 0.8; stroke-linejoin: miter; stroke-linecap: square"/>
   </g>
   <g id="legend_1">
    <g id="patch_7">
     <path d="M 141.445625 166.535063 
L 226.525625 166.535063 
Q 228.925625 166.535063 228.925625 164.135063 
L 228.925625 130.055063 
Q 228.925625 127.655063 226.525625 127.655063 
L 141.445625 127.655063 
Q 139.045625 127.655063 139.045625 130.055063 
L 139.045625 164.135063 
Q 139.045625 166.535063 141.445625 166.535063 
z
" style="fill: #ffffff; opacity: 0.8; stroke: #cccccc; stroke-linejoin: miter"/>
    </g>
    <g id="line2d_16">
     <path d="M 143.845625 137.375063 
L 155.845625 137.375063 
L 167.845625 137.375063 
" style="fill: none; stroke: #1f77b4; stroke-width: 2; stroke-linecap: square"/>
    </g>
    <g id="text_16">
     <!-- $E$-plane -->
     <g transform="translate(177.445625 141.575063) scale(0.12 -0.12)">
      <defs>
       <path id="DejaVuSans-2d" d="M 313 2009 
L 1997 2009 
L 1997 1497 
L 313 1497 
L 313 2009 
z
" transform="scale(0.015625)"/>
       <path id="DejaVuSans-70" d="M 1159 525 
L 1159 -1331 
L 581 -1331 
L 581 3500 
L 1159 3500 
L 1159 2969 
Q 1341 3281 1617 3432 
Q 1894 3584 2278 3584 
Q 2916 3584 3314 3078 
Q 3713 2572 3713 1747 
Q 3713 922 3314 415 
Q 2916 -91 2278 -91 
Q 1894 -91 1617 61 
Q 1341 213 1159 525 
z
M 3116 1747 
Q 3116 2381 2855 2742 
Q 2594 3103 2138 3103 
Q 1681 3103 1420 2742 
Q 1159 2381 1159 1747 
Q 1159 1113 1420 752 
Q 1681 391 2138 391 
Q 2594 391 2855 752 
Q 3116 1113 3116 1747 
z
" transform="scale(0.015625)"/>
       <path id="DejaVuSans-6e" d="M 3513 2113 
L 3513 0 
L 2938 0 
L 2938 2094 
Q 2938 2591 2744 2837 
Q 2550 3084 2163 3084 
Q 1697 3084 1428 2787 
Q 1159 2491 1159 1978 
L 1159 0 
L 581 0 
L 581 3500 
L 1159 3500 
L 1159 2956 
Q 1366 3272 1645 3428 
Q 1925 3584 2291 3584 
Q 2894 3584 3203 3211 
Q 3513 2838 3513 2113 
z
" transform="scale(0.015625)"/>
      </defs>
      <use xlink:href="#DejaVuSans-Oblique-45" transform="translate(0 0.015625)"/>
      <use xlink:href="#DejaVuSans-2d" transform="translate(63.183594 0.015625)"/>
      <use xlink:href="#DejaVuSans-70" transform="translate(99.267578 0.015625)"/>
      <use xlink:href="#DejaVuSans-6c" transform="translate(162.744141 0.015625)"/>
      <use xlink:href="#DejaVuSans-61" transform="translate(190.527344 0.015625)"/>
      <use xlink:href="#DejaVuSans-6e" transform="translate(251.806641 0.015625)"/>
      <use xlink:href="#DejaVuSans-65" transform="translate(315.185547 0.015625)"/>
     </g>
    </g>
    <g id="line2d_17">
     <path d="M 143.845625 155.015063 
L 155.845625 155.015063 
L 167.845625 155.015063 
" style="fill: none; stroke: #ff7f0e; stroke-width: 2; stroke-linecap: square"/>
    </g>
    <g id="text_17">
     <!-- $H$-plane -->
     <g transform="translate(177.445625 159.215063) scale(0.12 -0.12)">
      <defs>
       <path id="DejaVuSans-Oblique-48" d="M 1081 4666 
L 1716 4666 
L 1344 2753 
L 3634 2753 
L 4006 4666 
L 4641 4666 
L 3731 0 
L 3097 0 
L 3531 2222 
L 1241 2222 
L 806 0 
L 172 0 
L 1081 4666 
z
" transform="scale(0.015625)"/>
      </defs>
      <use xlink:href="#DejaVuSans-Oblique-48" transform="translate(0 0.015625)"/>
      <use xlink:href="#DejaVuSans-2d" transform="translate(75.195312 0.015625)"/>
      <use xlink:href="#DejaVuSans-70" transform="translate(111.279297 0.015625)"/>
      <use xlink:href="#DejaVuSans-6c" transform="translate(174.755859 0.015625)"/>
      <use xlink:href="#DejaVuSans-61" transform="translate(202.539062 0.015625)"/>
      <use xlink:href="#DejaVuSans-6e" transform="translate(263.818359 0.015625)"/>
      <use xlink:href="#DejaVuSans-65" transform="translate(327.197266 0.015625)"/>
     </g>
    </g>
   </g>
  </g>
 </g>
 <defs>
  <clipPath id="pf3f9375ec3">
   <rect x="55.645625" y="11.759062" width="256.68" height="160.776"/>
  </clipPath>
 </defs>
</svg>
