<?xml version="1.0" encoding="utf-8" standalone="no"?>
<!DOCTYPE svg PUBLIC "-//W3C//DTD SVG 1.1//EN"
  "http://www.w3.org/Graphics/SVG/1.1/DTD/svg11.dtd">
<svg xmlns:xlink="http://www.w3.org/1999/xlink" width="327.160625pt" height="214.108813pt" viewBox="0 0 327.160625 214.108813" xmlns="http://www.w3.org/2000/svg" version="1.1">
 <metadata>
  <rdf:RDF xmlns:dc="http://purl.org/dc/elements/1.1/" xmlns:cc="http://creativecommons.org/ns#" xmlns:rdf="http://www.w3.org/1999/02/22-rdf-syntax-ns#">
   <cc:Work>
    <dc:type rdf:resource="http://purl.org/dc/dcmitype/StillImage"/>
    <dc:date>2024-03-03T16:52:18.620091</dc:date>
    <dc:format>image/svg+xml</dc:format>
    <dc:creator>
     <cc:Agent>
      <dc:title>Matplotlib v3.7.2, https://matplotlib.org/</dc:title>
     </cc:Agent>
    </dc:creator>
   </cc:Work>
  </rdf:RDF>
 </metadata>
 <defs>
  <style type="text/css">*{stroke-linejoin: round; stroke-linecap: butt}</style>
 </defs>
 <g id="figure_1">
  <g id="patch_1">
   <path d="M 0 214.108813 
L 327.160625 214.108813 
L 327.160625 0 
L 0 0 
z
" style="fill: #ffffff"/>
  </g>
  <g id="axes_1">
   <g id="patch_2">
    <path d="M 55.645625 172.535063 
L 312.325625 172.535063 
L 312.325625 11.759063 
L 55.645625 11.759063 
z
" style="fill: #ffffff"/>
   </g>
   <g id="matplotlib.axis_1">
    <g id="xtick_1">
     <g id="line2d_1">
      <defs>
       <path id="m8a9387f612" d="M 0 0 
L 0 3.5 
" style="stroke: #000000; stroke-width: 0.8"/>
      </defs>
      <g>
       <use xlink:href="#m8a9387f612" x="55.645625" y="172.535063" style="stroke: #000000; stroke-width: 0.8"/>
      </g>
     </g>
     <g id="text_1">
      <!-- −90 -->
      <g transform="translate(42.982812 188.653188) scale(0.12 -0.12)">
       <defs>
        <path id="DejaVuSans-2212" d="M 678 2272 
L 4684 2272 
L 4684 1741 
L 678 1741 
L 678 2272 
z
" transform="scale(0.015625)"/>
        <path id="DejaVuSans-39" d="M 703 97 
L 703 672 
Q 941 559 1184 500 
Q 1428 441 1663 441 
Q 2288 441 2617 861 
Q 2947 1281 2994 2138 
Q 2813 1869 2534 1725 
Q 2256 1581 1919 1581 
Q 1219 1581 811 2004 
Q 403 2428 403 3163 
Q 403 3881 828 4315 
Q 1253 4750 1959 4750 
Q 2769 4750 3195 4129 
Q 3622 3509 3622 2328 
Q 3622 1225 3098 567 
Q 2575 -91 1691 -91 
Q 1453 -91 1209 -44 
Q 966 3 703 97 
z
M 1959 2075 
Q 2384 2075 2632 2365 
Q 2881 2656 2881 3163 
Q 2881 3666 2632 3958 
Q 2384 4250 1959 4250 
Q 1534 4250 1286 3958 
Q 1038 3666 1038 3163 
Q 1038 2656 1286 2365 
Q 1534 2075 1959 2075 
z
" transform="scale(0.015625)"/>
        <path id="DejaVuSans-30" d="M 2034 4250 
Q 1547 4250 1301 3770 
Q 1056 3291 1056 2328 
Q 1056 1369 1301 889 
Q 1547 409 2034 409 
Q 2525 409 2770 889 
Q 3016 1369 3016 2328 
Q 3016 3291 2770 3770 
Q 2525 4250 2034 4250 
z
M 2034 4750 
Q 2819 4750 3233 4129 
Q 3647 3509 3647 2328 
Q 3647 1150 3233 529 
Q 2819 -91 2034 -91 
Q 1250 -91 836 529 
Q 422 1150 422 2328 
Q 422 3509 836 4129 
Q 1250 4750 2034 4750 
z
" transform="scale(0.015625)"/>
       </defs>
       <use xlink:href="#DejaVuSans-2212"/>
       <use xlink:href="#DejaVuSans-39" x="83.789062"/>
       <use xlink:href="#DejaVuSans-30" x="147.412109"/>
      </g>
     </g>
    </g>
    <g id="xtick_2">
     <g id="line2d_2">
      <g>
       <use xlink:href="#m8a9387f612" x="98.425625" y="172.535063" style="stroke: #000000; stroke-width: 0.8"/>
      </g>
     </g>
     <g id="text_2">
      <!-- −60 -->
      <g transform="translate(85.762812 188.653188) scale(0.12 -0.12)">
       <defs>
        <path id="DejaVuSans-36" d="M 2113 2584 
Q 1688 2584 1439 2293 
Q 1191 2003 1191 1497 
Q 1191 994 1439 701 
Q 1688 409 2113 409 
Q 2538 409 2786 701 
Q 3034 994 3034 1497 
Q 3034 2003 2786 2293 
Q 2538 2584 2113 2584 
z
M 3366 4563 
L 3366 3988 
Q 3128 4100 2886 4159 
Q 2644 4219 2406 4219 
Q 1781 4219 1451 3797 
Q 1122 3375 1075 2522 
Q 1259 2794 1537 2939 
Q 1816 3084 2150 3084 
Q 2853 3084 3261 2657 
Q 3669 2231 3669 1497 
Q 3669 778 3244 343 
Q 2819 -91 2113 -91 
Q 1303 -91 875 529 
Q 447 1150 447 2328 
Q 447 3434 972 4092 
Q 1497 4750 2381 4750 
Q 2619 4750 2861 4703 
Q 3103 4656 3366 4563 
z
" transform="scale(0.015625)"/>
       </defs>
       <use xlink:href="#DejaVuSans-2212"/>
       <use xlink:href="#DejaVuSans-36" x="83.789062"/>
       <use xlink:href="#DejaVuSans-30" x="147.412109"/>
      </g>
     </g>
    </g>
    <g id="xtick_3">
     <g id="line2d_3">
      <g>
       <use xlink:href="#m8a9387f612" x="141.205625" y="172.535063" style="stroke: #000000; stroke-width: 0.8"/>
      </g>
     </g>
     <g id="text_3">
      <!-- −30 -->
      <g transform="translate(128.542812 188.653188) scale(0.12 -0.12)">
       <defs>
        <path id="DejaVuSans-33" d="M 2597 2516 
Q 3050 2419 3304 2112 
Q 3559 1806 3559 1356 
Q 3559 666 3084 287 
Q 2609 -91 1734 -91 
Q 1441 -91 1130 -33 
Q 819 25 488 141 
L 488 750 
Q 750 597 1062 519 
Q 1375 441 1716 441 
Q 2309 441 2620 675 
Q 2931 909 2931 1356 
Q 2931 1769 2642 2001 
Q 2353 2234 1838 2234 
L 1294 2234 
L 1294 2753 
L 1863 2753 
Q 2328 2753 2575 2939 
Q 2822 3125 2822 3475 
Q 2822 3834 2567 4026 
Q 2313 4219 1838 4219 
Q 1578 4219 1281 4162 
Q 984 4106 628 3988 
L 628 4550 
Q 988 4650 1302 4700 
Q 1616 4750 1894 4750 
Q 2613 4750 3031 4423 
Q 3450 4097 3450 3541 
Q 3450 3153 3228 2886 
Q 3006 2619 2597 2516 
z
" transform="scale(0.015625)"/>
       </defs>
       <use xlink:href="#DejaVuSans-2212"/>
       <use xlink:href="#DejaVuSans-33" x="83.789062"/>
       <use xlink:href="#DejaVuSans-30" x="147.412109"/>
      </g>
     </g>
    </g>
    <g id="xtick_4">
     <g id="line2d_4">
      <g>
       <use xlink:href="#m8a9387f612" x="183.985625" y="172.535063" style="stroke: #000000; stroke-width: 0.8"/>
      </g>
     </g>
     <g id="text_4">
      <!-- 0 -->
      <g transform="translate(180.168125 188.653188) scale(0.12 -0.12)">
       <use xlink:href="#DejaVuSans-30"/>
      </g>
     </g>
    </g>
    <g id="xtick_5">
     <g id="line2d_5">
      <g>
       <use xlink:href="#m8a9387f612" x="226.765625" y="172.535063" style="stroke: #000000; stroke-width: 0.8"/>
      </g>
     </g>
     <g id="text_5">
      <!-- 30 -->
      <g transform="translate(219.130625 188.653188) scale(0.12 -0.12)">
       <use xlink:href="#DejaVuSans-33"/>
       <use xlink:href="#DejaVuSans-30" x="63.623047"/>
      </g>
     </g>
    </g>
    <g id="xtick_6">
     <g id="line2d_6">
      <g>
       <use xlink:href="#m8a9387f612" x="269.545625" y="172.535063" style="stroke: #000000; stroke-width: 0.8"/>
      </g>
     </g>
     <g id="text_6">
      <!-- 60 -->
      <g transform="translate(261.910625 188.653188) scale(0.12 -0.12)">
       <use xlink:href="#DejaVuSans-36"/>
       <use xlink:href="#DejaVuSans-30" x="63.623047"/>
      </g>
     </g>
    </g>
    <g id="xtick_7">
     <g id="line2d_7">
      <g>
       <use xlink:href="#m8a9387f612" x="312.325625" y="172.535063" style="stroke: #000000; stroke-width: 0.8"/>
      </g>
     </g>
     <g id="text_7">
      <!-- 90 -->
      <g transform="translate(304.690625 188.653188) scale(0.12 -0.12)">
       <use xlink:href="#DejaVuSans-39"/>
       <use xlink:href="#DejaVuSans-30" x="63.623047"/>
      </g>
     </g>
    </g>
    <g id="text_8">
     <!-- $\theta \,$ [deg] -->
     <g transform="translate(161.425625 204.388813) scale(0.12 -0.12)">
      <defs>
       <path id="DejaVuSans-Oblique-3b8" d="M 2913 2219 
L 925 2219 
Q 791 1284 928 888 
Q 1100 400 1566 400 
Q 2034 400 2391 891 
Q 2703 1322 2913 2219 
z
M 3009 2750 
Q 3094 3638 2984 3950 
Q 2813 4444 2353 4444 
Q 1875 4444 1525 3956 
Q 1250 3563 1034 2750 
L 3009 2750 
z
M 2444 4913 
Q 3194 4913 3494 4250 
Q 3794 3591 3566 2422 
Q 3341 1256 2781 594 
Q 2225 -72 1475 -72 
Q 722 -72 425 594 
Q 128 1256 353 2422 
Q 581 3591 1134 4250 
Q 1691 4913 2444 4913 
z
" transform="scale(0.015625)"/>
       <path id="DejaVuSans-20" transform="scale(0.015625)"/>
       <path id="DejaVuSans-5b" d="M 550 4863 
L 1875 4863 
L 1875 4416 
L 1125 4416 
L 1125 -397 
L 1875 -397 
L 1875 -844 
L 550 -844 
L 550 4863 
z
" transform="scale(0.015625)"/>
       <path id="DejaVuSans-64" d="M 2906 2969 
L 2906 4863 
L 3481 4863 
L 3481 0 
L 2906 0 
L 2906 525 
Q 2725 213 2448 61 
Q 2172 -91 1784 -91 
Q 1150 -91 751 415 
Q 353 922 353 1747 
Q 353 2572 751 3078 
Q 1150 3584 1784 3584 
Q 2172 3584 2448 3432 
Q 2725 3281 2906 2969 
z
M 947 1747 
Q 947 1113 1208 752 
Q 1469 391 1925 391 
Q 2381 391 2643 752 
Q 2906 1113 2906 1747 
Q 2906 2381 2643 2742 
Q 2381 3103 1925 3103 
Q 1469 3103 1208 2742 
Q 947 2381 947 1747 
z
" transform="scale(0.015625)"/>
       <path id="DejaVuSans-65" d="M 3597 1894 
L 3597 1613 
L 953 1613 
Q 991 1019 1311 708 
Q 1631 397 2203 397 
Q 2534 397 2845 478 
Q 3156 559 3463 722 
L 3463 178 
Q 3153 47 2828 -22 
Q 2503 -91 2169 -91 
Q 1331 -91 842 396 
Q 353 884 353 1716 
Q 353 2575 817 3079 
Q 1281 3584 2069 3584 
Q 2775 3584 3186 3129 
Q 3597 2675 3597 1894 
z
M 3022 2063 
Q 3016 2534 2758 2815 
Q 2500 3097 2075 3097 
Q 1594 3097 1305 2825 
Q 1016 2553 972 2059 
L 3022 2063 
z
" transform="scale(0.015625)"/>
       <path id="DejaVuSans-67" d="M 2906 1791 
Q 2906 2416 2648 2759 
Q 2391 3103 1925 3103 
Q 1463 3103 1205 2759 
Q 947 2416 947 1791 
Q 947 1169 1205 825 
Q 1463 481 1925 481 
Q 2391 481 2648 825 
Q 2906 1169 2906 1791 
z
M 3481 434 
Q 3481 -459 3084 -895 
Q 2688 -1331 1869 -1331 
Q 1566 -1331 1297 -1286 
Q 1028 -1241 775 -1147 
L 775 -588 
Q 1028 -725 1275 -790 
Q 1522 -856 1778 -856 
Q 2344 -856 2625 -561 
Q 2906 -266 2906 331 
L 2906 616 
Q 2728 306 2450 153 
Q 2172 0 1784 0 
Q 1141 0 747 490 
Q 353 981 353 1791 
Q 353 2603 747 3093 
Q 1141 3584 1784 3584 
Q 2172 3584 2450 3431 
Q 2728 3278 2906 2969 
L 2906 3500 
L 3481 3500 
L 3481 434 
z
" transform="scale(0.015625)"/>
       <path id="DejaVuSans-5d" d="M 1947 4863 
L 1947 -844 
L 622 -844 
L 622 -397 
L 1369 -397 
L 1369 4416 
L 622 4416 
L 622 4863 
L 1947 4863 
z
" transform="scale(0.015625)"/>
      </defs>
      <use xlink:href="#DejaVuSans-Oblique-3b8" transform="translate(0 0.234375)"/>
      <use xlink:href="#DejaVuSans-20" transform="translate(77.417317 0.234375)"/>
      <use xlink:href="#DejaVuSans-5b" transform="translate(109.204426 0.234375)"/>
      <use xlink:href="#DejaVuSans-64" transform="translate(148.218098 0.234375)"/>
      <use xlink:href="#DejaVuSans-65" transform="translate(211.694661 0.234375)"/>
      <use xlink:href="#DejaVuSans-67" transform="translate(273.218098 0.234375)"/>
      <use xlink:href="#DejaVuSans-5d" transform="translate(336.694661 0.234375)"/>
     </g>
    </g>
   </g>
   <g id="matplotlib.axis_2">
    <g id="ytick_1">
     <g id="line2d_8">
      <defs>
       <path id="m055f645ba3" d="M 0 0 
L -3.5 0 
" style="stroke: #000000; stroke-width: 0.8"/>
      </defs>
      <g>
       <use xlink:href="#m055f645ba3" x="55.645625" y="172.535063" style="stroke: #000000; stroke-width: 0.8"/>
      </g>
     </g>
     <g id="text_9">
      <!-- −50 -->
      <g transform="translate(23.32 177.094125) scale(0.12 -0.12)">
       <defs>
        <path id="DejaVuSans-35" d="M 691 4666 
L 3169 4666 
L 3169 4134 
L 1269 4134 
L 1269 2991 
Q 1406 3038 1543 3061 
Q 1681 3084 1819 3084 
Q 2600 3084 3056 2656 
Q 3513 2228 3513 1497 
Q 3513 744 3044 326 
Q 2575 -91 1722 -91 
Q 1428 -91 1123 -41 
Q 819 9 494 109 
L 494 744 
Q 775 591 1075 516 
Q 1375 441 1709 441 
Q 2250 441 2565 725 
Q 2881 1009 2881 1497 
Q 2881 1984 2565 2268 
Q 2250 2553 1709 2553 
Q 1456 2553 1204 2497 
Q 953 2441 691 2322 
L 691 4666 
z
" transform="scale(0.015625)"/>
       </defs>
       <use xlink:href="#DejaVuSans-2212"/>
       <use xlink:href="#DejaVuSans-35" x="83.789062"/>
       <use xlink:href="#DejaVuSans-30" x="147.412109"/>
      </g>
     </g>
    </g>
    <g id="ytick_2">
     <g id="line2d_9">
      <g>
       <use xlink:href="#m055f645ba3" x="55.645625" y="140.379863" style="stroke: #000000; stroke-width: 0.8"/>
      </g>
     </g>
     <g id="text_10">
      <!-- −40 -->
      <g transform="translate(23.32 144.938925) scale(0.12 -0.12)">
       <defs>
        <path id="DejaVuSans-34" d="M 2419 4116 
L 825 1625 
L 2419 1625 
L 2419 4116 
z
M 2253 4666 
L 3047 4666 
L 3047 1625 
L 3713 1625 
L 3713 1100 
L 3047 1100 
L 3047 0 
L 2419 0 
L 2419 1100 
L 313 1100 
L 313 1709 
L 2253 4666 
z
" transform="scale(0.015625)"/>
       </defs>
       <use xlink:href="#DejaVuSans-2212"/>
       <use xlink:href="#DejaVuSans-34" x="83.789062"/>
       <use xlink:href="#DejaVuSans-30" x="147.412109"/>
      </g>
     </g>
    </g>
    <g id="ytick_3">
     <g id="line2d_10">
      <g>
       <use xlink:href="#m055f645ba3" x="55.645625" y="108.224663" style="stroke: #000000; stroke-width: 0.8"/>
      </g>
     </g>
     <g id="text_11">
      <!-- −30 -->
      <g transform="translate(23.32 112.783725) scale(0.12 -0.12)">
       <use xlink:href="#DejaVuSans-2212"/>
       <use xlink:href="#DejaVuSans-33" x="83.789062"/>
       <use xlink:href="#DejaVuSans-30" x="147.412109"/>
      </g>
     </g>
    </g>
    <g id="ytick_4">
     <g id="line2d_11">
      <g>
       <use xlink:href="#m055f645ba3" x="55.645625" y="76.069463" style="stroke: #000000; stroke-width: 0.8"/>
      </g>
     </g>
     <g id="text_12">
      <!-- −20 -->
      <g transform="translate(23.32 80.628525) scale(0.12 -0.12)">
       <defs>
        <path id="DejaVuSans-32" d="M 1228 531 
L 3431 531 
L 3431 0 
L 469 0 
L 469 531 
Q 828 903 1448 1529 
Q 2069 2156 2228 2338 
Q 2531 2678 2651 2914 
Q 2772 3150 2772 3378 
Q 2772 3750 2511 3984 
Q 2250 4219 1831 4219 
Q 1534 4219 1204 4116 
Q 875 4013 500 3803 
L 500 4441 
Q 881 4594 1212 4672 
Q 1544 4750 1819 4750 
Q 2544 4750 2975 4387 
Q 3406 4025 3406 3419 
Q 3406 3131 3298 2873 
Q 3191 2616 2906 2266 
Q 2828 2175 2409 1742 
Q 1991 1309 1228 531 
z
" transform="scale(0.015625)"/>
       </defs>
       <use xlink:href="#DejaVuSans-2212"/>
       <use xlink:href="#DejaVuSans-32" x="83.789062"/>
       <use xlink:href="#DejaVuSans-30" x="147.412109"/>
      </g>
     </g>
    </g>
    <g id="ytick_5">
     <g id="line2d_12">
      <g>
       <use xlink:href="#m055f645ba3" x="55.645625" y="43.914262" style="stroke: #000000; stroke-width: 0.8"/>
      </g>
     </g>
     <g id="text_13">
      <!-- −10 -->
      <g transform="translate(23.32 48.473325) scale(0.12 -0.12)">
       <defs>
        <path id="DejaVuSans-31" d="M 794 531 
L 1825 531 
L 1825 4091 
L 703 3866 
L 703 4441 
L 1819 4666 
L 2450 4666 
L 2450 531 
L 3481 531 
L 3481 0 
L 794 0 
L 794 531 
z
" transform="scale(0.015625)"/>
       </defs>
       <use xlink:href="#DejaVuSans-2212"/>
       <use xlink:href="#DejaVuSans-31" x="83.789062"/>
       <use xlink:href="#DejaVuSans-30" x="147.412109"/>
      </g>
     </g>
    </g>
    <g id="ytick_6">
     <g id="line2d_13">
      <g>
       <use xlink:href="#m055f645ba3" x="55.645625" y="11.759062" style="stroke: #000000; stroke-width: 0.8"/>
      </g>
     </g>
     <g id="text_14">
      <!-- 0 -->
      <g transform="translate(41.010625 16.318125) scale(0.12 -0.12)">
       <use xlink:href="#DejaVuSans-30"/>
      </g>
     </g>
    </g>
    <g id="text_15">
     <!-- Normalized $|E_\theta|$ [dB] -->
     <g transform="translate(16.44 153.287063) rotate(-90) scale(0.12 -0.12)">
      <defs>
       <path id="DejaVuSans-4e" d="M 628 4666 
L 1478 4666 
L 3547 763 
L 3547 4666 
L 4159 4666 
L 4159 0 
L 3309 0 
L 1241 3903 
L 1241 0 
L 628 0 
L 628 4666 
z
" transform="scale(0.015625)"/>
       <path id="DejaVuSans-6f" d="M 1959 3097 
Q 1497 3097 1228 2736 
Q 959 2375 959 1747 
Q 959 1119 1226 758 
Q 1494 397 1959 397 
Q 2419 397 2687 759 
Q 2956 1122 2956 1747 
Q 2956 2369 2687 2733 
Q 2419 3097 1959 3097 
z
M 1959 3584 
Q 2709 3584 3137 3096 
Q 3566 2609 3566 1747 
Q 3566 888 3137 398 
Q 2709 -91 1959 -91 
Q 1206 -91 779 398 
Q 353 888 353 1747 
Q 353 2609 779 3096 
Q 1206 3584 1959 3584 
z
" transform="scale(0.015625)"/>
       <path id="DejaVuSans-72" d="M 2631 2963 
Q 2534 3019 2420 3045 
Q 2306 3072 2169 3072 
Q 1681 3072 1420 2755 
Q 1159 2438 1159 1844 
L 1159 0 
L 581 0 
L 581 3500 
L 1159 3500 
L 1159 2956 
Q 1341 3275 1631 3429 
Q 1922 3584 2338 3584 
Q 2397 3584 2469 3576 
Q 2541 3569 2628 3553 
L 2631 2963 
z
" transform="scale(0.015625)"/>
       <path id="DejaVuSans-6d" d="M 3328 2828 
Q 3544 3216 3844 3400 
Q 4144 3584 4550 3584 
Q 5097 3584 5394 3201 
Q 5691 2819 5691 2113 
L 5691 0 
L 5113 0 
L 5113 2094 
Q 5113 2597 4934 2840 
Q 4756 3084 4391 3084 
Q 3944 3084 3684 2787 
Q 3425 2491 3425 1978 
L 3425 0 
L 2847 0 
L 2847 2094 
Q 2847 2600 2669 2842 
Q 2491 3084 2119 3084 
Q 1678 3084 1418 2786 
Q 1159 2488 1159 1978 
L 1159 0 
L 581 0 
L 581 3500 
L 1159 3500 
L 1159 2956 
Q 1356 3278 1631 3431 
Q 1906 3584 2284 3584 
Q 2666 3584 2933 3390 
Q 3200 3197 3328 2828 
z
" transform="scale(0.015625)"/>
       <path id="DejaVuSans-61" d="M 2194 1759 
Q 1497 1759 1228 1600 
Q 959 1441 959 1056 
Q 959 750 1161 570 
Q 1363 391 1709 391 
Q 2188 391 2477 730 
Q 2766 1069 2766 1631 
L 2766 1759 
L 2194 1759 
z
M 3341 1997 
L 3341 0 
L 2766 0 
L 2766 531 
Q 2569 213 2275 61 
Q 1981 -91 1556 -91 
Q 1019 -91 701 211 
Q 384 513 384 1019 
Q 384 1609 779 1909 
Q 1175 2209 1959 2209 
L 2766 2209 
L 2766 2266 
Q 2766 2663 2505 2880 
Q 2244 3097 1772 3097 
Q 1472 3097 1187 3025 
Q 903 2953 641 2809 
L 641 3341 
Q 956 3463 1253 3523 
Q 1550 3584 1831 3584 
Q 2591 3584 2966 3190 
Q 3341 2797 3341 1997 
z
" transform="scale(0.015625)"/>
       <path id="DejaVuSans-6c" d="M 603 4863 
L 1178 4863 
L 1178 0 
L 603 0 
L 603 4863 
z
" transform="scale(0.015625)"/>
       <path id="DejaVuSans-69" d="M 603 3500 
L 1178 3500 
L 1178 0 
L 603 0 
L 603 3500 
z
M 603 4863 
L 1178 4863 
L 1178 4134 
L 603 4134 
L 603 4863 
z
" transform="scale(0.015625)"/>
       <path id="DejaVuSans-7a" d="M 353 3500 
L 3084 3500 
L 3084 2975 
L 922 459 
L 3084 459 
L 3084 0 
L 275 0 
L 275 525 
L 2438 3041 
L 353 3041 
L 353 3500 
z
" transform="scale(0.015625)"/>
       <path id="DejaVuSans-7c" d="M 1344 4891 
L 1344 -1509 
L 813 -1509 
L 813 4891 
L 1344 4891 
z
" transform="scale(0.015625)"/>
       <path id="DejaVuSans-Oblique-45" d="M 1081 4666 
L 4031 4666 
L 3928 4134 
L 1606 4134 
L 1338 2753 
L 3566 2753 
L 3463 2222 
L 1234 2222 
L 909 531 
L 3284 531 
L 3181 0 
L 172 0 
L 1081 4666 
z
" transform="scale(0.015625)"/>
       <path id="DejaVuSans-42" d="M 1259 2228 
L 1259 519 
L 2272 519 
Q 2781 519 3026 730 
Q 3272 941 3272 1375 
Q 3272 1813 3026 2020 
Q 2781 2228 2272 2228 
L 1259 2228 
z
M 1259 4147 
L 1259 2741 
L 2194 2741 
Q 2656 2741 2882 2914 
Q 3109 3088 3109 3444 
Q 3109 3797 2882 3972 
Q 2656 4147 2194 4147 
L 1259 4147 
z
M 628 4666 
L 2241 4666 
Q 2963 4666 3353 4366 
Q 3744 4066 3744 3513 
Q 3744 3084 3544 2831 
Q 3344 2578 2956 2516 
Q 3422 2416 3680 2098 
Q 3938 1781 3938 1306 
Q 3938 681 3513 340 
Q 3088 0 2303 0 
L 628 0 
L 628 4666 
z
" transform="scale(0.015625)"/>
      </defs>
      <use xlink:href="#DejaVuSans-4e" transform="translate(0 0.578125)"/>
      <use xlink:href="#DejaVuSans-6f" transform="translate(74.804688 0.578125)"/>
      <use xlink:href="#DejaVuSans-72" transform="translate(135.986328 0.578125)"/>
      <use xlink:href="#DejaVuSans-6d" transform="translate(177.099609 0.578125)"/>
      <use xlink:href="#DejaVuSans-61" transform="translate(274.511719 0.578125)"/>
      <use xlink:href="#DejaVuSans-6c" transform="translate(335.791016 0.578125)"/>
      <use xlink:href="#DejaVuSans-69" transform="translate(363.574219 0.578125)"/>
      <use xlink:href="#DejaVuSans-7a" transform="translate(391.357422 0.578125)"/>
      <use xlink:href="#DejaVuSans-65" transform="translate(443.847656 0.578125)"/>
      <use xlink:href="#DejaVuSans-64" transform="translate(505.371094 0.578125)"/>
      <use xlink:href="#DejaVuSans-20" transform="translate(568.847656 0.578125)"/>
      <use xlink:href="#DejaVuSans-7c" transform="translate(600.634766 0.578125)"/>
      <use xlink:href="#DejaVuSans-Oblique-45" transform="translate(634.326172 0.578125)"/>
      <use xlink:href="#DejaVuSans-Oblique-3b8" transform="translate(697.509766 -15.828125) scale(0.7)"/>
      <use xlink:href="#DejaVuSans-7c" transform="translate(743.071289 0.578125)"/>
      <use xlink:href="#DejaVuSans-20" transform="translate(776.762695 0.578125)"/>
      <use xlink:href="#DejaVuSans-5b" transform="translate(808.549805 0.578125)"/>
      <use xlink:href="#DejaVuSans-64" transform="translate(847.563477 0.578125)"/>
      <use xlink:href="#DejaVuSans-42" transform="translate(911.040039 0.578125)"/>
      <use xlink:href="#DejaVuSans-5d" transform="translate(979.643555 0.578125)"/>
     </g>
    </g>
   </g>
   <g id="line2d_14">
    <path d="M 55.645625 26.428158 
L 58.469105 26.550091 
L 61.035905 26.876414 
L 63.602705 27.41889 
L 66.169505 28.195905 
L 68.479625 29.118253 
L 70.789745 30.280642 
L 72.843185 31.545683 
L 74.896625 33.065421 
L 76.950065 34.886763 
L 78.746825 36.777234 
L 80.543585 39.004649 
L 82.083665 41.241433 
L 83.623745 43.85267 
L 85.163825 46.935315 
L 86.447225 49.964912 
L 87.730625 53.541108 
L 89.014025 57.848933 
L 90.040745 62.018315 
L 91.067465 67.099734 
L 92.094185 73.5365 
L 92.864225 79.750831 
L 93.634265 87.95493 
L 94.147625 95.309914 
L 94.660985 105.481594 
L 95.174345 121.923857 
L 95.431025 136.403494 
L 95.687705 168.534483 
L 95.944385 164.093279 
L 96.201065 134.707287 
L 96.714425 111.290166 
L 97.227785 98.62297 
L 97.997825 86.308253 
L 98.767865 77.682007 
L 99.794585 69.094665 
L 100.821305 62.439142 
L 102.104705 55.777628 
L 103.388105 50.329111 
L 104.928185 44.881257 
L 106.468265 40.286607 
L 108.008345 36.32888 
L 109.805105 32.335417 
L 111.601865 28.879247 
L 113.398625 25.86488 
L 115.452065 22.877366 
L 117.505505 20.313394 
L 119.558945 18.126365 
L 121.612385 16.284495 
L 123.665825 14.766779 
L 125.462585 13.694537 
L 127.259345 12.856497 
L 129.056105 12.252087 
L 130.852865 11.884164 
L 132.649625 11.759063 
L 134.446385 11.886894 
L 135.986465 12.208586 
L 137.526545 12.738732 
L 139.066625 13.492885 
L 140.606705 14.490955 
L 142.146785 15.758532 
L 143.686865 17.32885 
L 145.226945 19.245771 
L 146.767025 21.56849 
L 148.050425 23.872453 
L 149.333825 26.580769 
L 150.617225 29.786075 
L 151.900625 33.623993 
L 153.184025 38.304597 
L 154.210745 42.884006 
L 155.237465 48.528065 
L 156.007505 53.776036 
L 156.777545 60.347752 
L 157.547585 69.077045 
L 158.060945 76.984356 
L 158.574305 88.125941 
L 159.087665 107.054198 
L 159.344345 125.634219 
L 159.601025 207.229732 
L 159.857705 128.788125 
L 160.371065 96.985881 
L 160.884425 82.496414 
L 161.654465 69.257358 
L 162.424505 60.339828 
L 163.194545 53.627673 
L 164.221265 46.6925 
L 165.247985 41.223385 
L 166.531385 35.740332 
L 167.814785 31.304827 
L 169.098185 27.632509 
L 170.381585 24.548694 
L 171.921665 21.466263 
L 173.461745 18.9354 
L 175.001825 16.86734 
L 176.541905 15.200718 
L 178.081985 13.892353 
L 179.622065 12.911809 
L 181.162145 12.238093 
L 182.445545 11.901051 
L 183.728945 11.763001 
L 185.012345 11.822113 
L 186.295745 12.079169 
L 187.579145 12.537603 
L 188.862545 13.203696 
L 190.145945 14.086957 
L 191.429345 15.200718 
L 192.969425 16.86734 
L 194.509505 18.9354 
L 195.792905 21.008975 
L 197.076305 23.452901 
L 198.359705 26.335791 
L 199.643105 29.755852 
L 200.926505 33.859677 
L 201.953225 37.786306 
L 202.979945 42.484201 
L 204.006665 48.262861 
L 204.776705 53.627673 
L 205.546745 60.339828 
L 206.316785 69.257358 
L 206.830145 77.350926 
L 207.343505 88.811532 
L 207.856865 108.588989 
L 208.113545 128.788125 
L 208.370225 207.229732 
L 208.626905 125.634219 
L 209.140265 96.00823 
L 209.653625 81.996856 
L 210.423665 69.077045 
L 211.193705 60.347752 
L 211.963745 53.776036 
L 212.990465 46.993229 
L 214.017185 41.654116 
L 215.300585 36.313111 
L 216.583985 32.00167 
L 217.867385 28.436864 
L 219.150785 25.443732 
L 220.690865 22.446245 
L 222.230945 19.971432 
L 223.771025 17.926762 
L 225.311105 16.246422 
L 226.851185 14.882075 
L 228.391265 13.797342 
L 229.931345 12.964344 
L 231.471425 12.36145 
L 233.011505 11.971773 
L 234.551585 11.782142 
L 236.348345 11.800318 
L 238.145105 12.065161 
L 239.941865 12.568768 
L 241.738625 13.306812 
L 243.535385 14.278388 
L 245.332145 15.486085 
L 247.128905 16.936282 
L 249.182345 18.904613 
L 251.235785 21.228585 
L 253.032545 23.582311 
L 254.829305 26.271195 
L 256.626065 29.344093 
L 258.422825 32.870301 
L 260.219585 36.950799 
L 261.759665 41.003531 
L 263.299745 45.722502 
L 264.583145 50.329111 
L 265.866545 55.777628 
L 266.893265 60.983313 
L 267.919985 67.286638 
L 268.946705 75.290459 
L 269.716745 83.141869 
L 270.486785 93.911181 
L 271.000145 104.261248 
L 271.513505 120.644178 
L 271.770185 134.707287 
L 272.026865 164.093279 
L 272.283545 168.534483 
L 272.540225 136.403494 
L 273.053585 112.484949 
L 273.566945 99.919033 
L 274.336985 87.95493 
L 275.107025 79.750831 
L 275.877065 73.5365 
L 276.903785 67.099734 
L 277.930505 62.018315 
L 279.213905 56.916708 
L 280.497305 52.77448 
L 281.780705 49.319856 
L 283.320785 45.847809 
L 284.860865 42.935386 
L 286.400945 40.458101 
L 288.197705 38.004298 
L 289.994465 35.929541 
L 291.791225 34.164822 
L 293.844665 32.462993 
L 295.898105 31.043557 
L 298.208225 29.732232 
L 300.518345 28.680544 
L 303.085145 27.776598 
L 305.651945 27.119676 
L 308.218745 26.687073 
L 310.785545 26.464353 
L 312.325625 26.428158 
L 312.325625 26.428158 
" clip-path="url(#pd8e5c65334)" style="fill: none; stroke: #1f77b4; stroke-width: 2; stroke-linecap: square"/>
   </g>
   <g id="line2d_15">
    <path d="M 56.289284 215.108813 
L 56.672345 201.501669 
L 57.185705 190.184657 
L 57.955745 178.87713 
L 58.725785 170.866317 
L 59.752505 162.875038 
L 60.779225 156.700314 
L 62.062625 150.561531 
L 63.346025 145.589588 
L 64.629425 141.434764 
L 66.169505 137.242496 
L 67.709585 133.713884 
L 69.249665 130.714065 
L 70.789745 128.157281 
L 72.329825 125.988909 
L 73.869905 124.175747 
L 75.409985 122.700638 
L 76.950065 121.559653 
L 78.233465 120.869633 
L 79.516865 120.428487 
L 80.800265 120.254307 
L 81.826985 120.324462 
L 82.853705 120.600127 
L 83.880425 121.104784 
L 84.907145 121.869056 
L 85.933865 122.933342 
L 86.960585 124.351937 
L 87.987305 126.199738 
L 89.014025 128.583727 
L 90.040745 131.663963 
L 90.810785 134.578763 
L 91.580825 138.19426 
L 92.350865 142.782475 
L 93.120905 148.823227 
L 93.890945 157.291023 
L 94.404305 165.37597 
L 94.917665 177.496904 
L 95.174345 186.717197 
L 95.431025 200.980822 
L 95.544642 215.108813 
M 96.058332 215.108813 
L 96.201065 198.65233 
L 96.714425 174.826968 
L 97.227785 161.762309 
L 97.997825 148.871928 
L 98.767865 139.695125 
L 99.794585 130.413774 
L 100.821305 123.11145 
L 102.104705 115.710471 
L 103.388105 109.602801 
L 104.928185 103.476242 
L 106.468265 98.333877 
L 108.008345 93.970057 
L 109.548425 90.259743 
L 111.088505 87.125584 
L 112.628585 84.521379 
L 113.911985 82.738398 
L 115.195385 81.302798 
L 116.478785 80.218854 
L 117.505505 79.61309 
L 118.532225 79.251052 
L 119.558945 79.147988 
L 120.585665 79.324686 
L 121.355705 79.657267 
L 122.125745 80.17788 
L 122.895785 80.905523 
L 123.922505 82.24023 
L 124.949225 84.063367 
L 125.975945 86.485808 
L 127.002665 89.674963 
L 127.772705 92.725905 
L 128.542745 96.536343 
L 129.312785 101.40007 
L 130.082825 107.84429 
L 130.852865 116.969512 
L 131.366225 125.826841 
L 131.879585 139.541142 
L 132.136265 150.548615 
L 132.392945 169.430878 
L 132.497456 215.108813 
M 132.802589 215.108813 
L 132.906305 170.014394 
L 133.419665 138.581198 
L 133.933025 123.866547 
L 134.703065 110.183623 
L 135.473105 100.817223 
L 136.499825 91.636622 
L 137.526545 84.640339 
L 138.553265 79.036507 
L 139.836665 73.392736 
L 141.120065 68.871541 
L 142.403465 65.232764 
L 143.686865 62.336139 
L 144.713585 60.497022 
L 145.740305 59.056946 
L 146.767025 58.005757 
L 147.537065 57.473031 
L 148.307105 57.164575 
L 149.077145 57.089346 
L 149.847185 57.260958 
L 150.617225 57.69872 
L 151.387265 58.429236 
L 152.157305 59.488901 
L 152.927345 60.927845 
L 153.697385 62.816358 
L 154.467425 65.255894 
L 155.237465 68.399114 
L 156.007505 72.489558 
L 156.777545 77.949698 
L 157.547585 85.611538 
L 158.060945 92.830905 
L 158.574305 103.302971 
L 159.087665 121.579709 
L 159.344345 139.840597 
L 159.582038 215.108813 
M 159.620622 215.108813 
L 159.857705 142.369252 
L 160.371065 109.958814 
L 160.884425 94.87787 
L 161.654465 80.782251 
L 162.424505 71.044056 
L 163.451225 61.380791 
L 164.477945 53.896253 
L 165.761345 46.421093 
L 167.044745 40.347522 
L 168.328145 35.275299 
L 169.611545 30.970334 
L 171.151625 26.611633 
L 172.691705 22.978329 
L 174.231785 19.959983 
L 175.771865 17.48098 
L 177.055265 15.788346 
L 178.338665 14.410807 
L 179.622065 13.331686 
L 180.905465 12.538768 
L 182.188865 12.023528 
L 183.472265 11.780619 
L 183.728945 11.764451 
M 184.242305 11.764451 
L 185.525705 11.953278 
L 186.809105 12.41372 
L 188.092505 13.150528 
L 189.375905 14.171559 
L 190.659305 15.488237 
L 191.942705 17.116268 
L 193.226105 19.076723 
L 194.509505 21.39765 
L 195.792905 24.116522 
L 197.076305 27.28405 
L 198.359705 30.970334 
L 199.643105 35.275299 
L 200.926505 40.347522 
L 202.209905 46.421093 
L 203.236625 52.260304 
L 204.263345 59.347103 
L 205.290065 68.351601 
L 206.060105 77.200754 
L 206.830145 89.442812 
L 207.343505 101.486658 
L 207.856865 121.863909 
L 208.113545 142.369252 
L 208.350628 215.108813 
M 208.389212 215.108813 
L 208.626905 139.840597 
L 209.140265 110.857275 
L 209.653625 97.506369 
L 210.166985 88.934391 
L 210.937025 80.197181 
L 211.707065 74.128367 
L 212.477105 69.641446 
L 213.247145 66.215836 
L 214.017185 63.562091 
L 214.787225 61.503169 
L 215.557265 59.923431 
L 216.327305 58.74374 
L 217.097345 57.908131 
L 217.867385 57.376163 
L 218.637425 57.118299 
L 219.407465 57.113016 
L 220.177505 57.344939 
L 220.947545 57.803645 
L 221.717585 58.482916 
L 222.744305 59.728019 
L 223.771025 61.365587 
L 224.797745 63.411973 
L 225.824465 65.897679 
L 226.851185 68.871541 
L 227.877905 72.408331 
L 228.904625 76.622593 
L 229.931345 81.695139 
L 230.958065 87.928276 
L 231.984785 95.876892 
L 232.754825 103.628328 
L 233.524865 114.087839 
L 234.038225 123.866547 
L 234.551585 138.581198 
L 234.808265 150.190877 
L 235.064945 170.014394 
L 235.168661 215.108813 
M 235.473794 215.108813 
L 235.578305 169.430878 
L 236.091665 139.541142 
L 236.605025 125.826841 
L 237.118385 116.969512 
L 237.888425 107.84429 
L 238.658465 101.40007 
L 239.428505 96.536343 
L 240.455225 91.635123 
L 241.481945 87.970887 
L 242.508665 85.190909 
L 243.535385 83.084807 
L 244.562105 81.517248 
L 245.588825 80.396355 
L 246.615545 79.657267 
L 247.642265 79.252898 
L 248.668985 79.148445 
L 249.695705 79.317963 
L 250.722425 79.742172 
L 251.749145 80.407029 
L 252.775865 81.302798 
L 254.059265 82.738398 
L 255.342665 84.521379 
L 256.626065 86.655634 
L 258.166145 89.698945 
L 259.706225 93.308852 
L 261.246305 97.556645 
L 262.786385 102.557738 
L 264.069785 107.433539 
L 265.353185 113.13748 
L 266.636585 119.962019 
L 267.663305 126.571675 
L 268.690025 134.73846 
L 269.460065 142.478945 
L 270.230105 152.614133 
L 270.743465 161.762309 
L 271.256825 174.826968 
L 271.513505 184.383762 
L 271.770185 198.65233 
L 271.912918 215.108813 
M 272.426608 215.108813 
L 272.540225 200.980822 
L 273.053585 177.496904 
L 273.566945 165.37597 
L 274.336985 154.098535 
L 275.107025 146.603879 
L 275.877065 141.121514 
L 276.647105 136.897328 
L 277.673825 132.569625 
L 278.700545 129.280633 
L 279.727265 126.740342 
L 280.753985 124.770135 
L 281.780705 123.252267 
L 282.807425 122.105158 
L 283.834145 121.270127 
L 284.860865 120.703765 
L 285.887585 120.373298 
L 286.914305 120.253647 
L 287.941025 120.325513 
L 289.224425 120.662459 
L 290.507825 121.254646 
L 291.791225 122.088148 
L 293.331305 123.396471 
L 294.871385 125.039332 
L 296.411465 127.027042 
L 297.951545 129.384296 
L 299.491625 132.154121 
L 301.031705 135.405109 
L 302.571785 139.244547 
L 303.855185 143.014038 
L 305.138585 147.465022 
L 306.421985 152.849911 
L 307.448705 158.117144 
L 308.475425 164.665407 
L 309.245465 170.866317 
L 310.015505 178.87713 
L 310.528865 185.884168 
L 311.042225 195.272712 
L 311.555585 209.533916 
L 311.681966 215.108813 
L 311.681966 215.108813 
" clip-path="url(#pd8e5c65334)" style="fill: none; stroke: #ff7f0e; stroke-width: 2; stroke-linecap: square"/>
   </g>
   <g id="patch_3">
    <path d="M 55.645625 172.535063 
L 55.645625 11.759062 
" style="fill: none; stroke: #000000; stroke-width: 0.8; stroke-linejoin: miter; stroke-linecap: square"/>
   </g>
   <g id="patch_4">
    <path d="M 312.325625 172.535063 
L 312.325625 11.759062 
" style="fill: none; stroke: #000000; stroke-width: 0.8; stroke-linejoin: miter; stroke-linecap: square"/>
   </g>
   <g id="patch_5">
    <path d="M 55.645625 172.535063 
L 312.325625 172.535063 
" style="fill: none; stroke: #000000; stroke-width: 0.8; stroke-linejoin: miter; stroke-linecap: square"/>
   </g>
   <g id="patch_6">
    <path d="M 55.645625 11.759063 
L 312.325625 11.759063 
" style="fill: none; stroke: #000000; stroke-width: 0.8; stroke-linejoin: miter; stroke-linecap: square"/>
   </g>
   <g id="legend_1">
    <g id="patch_7">
     <path d="M 141.445625 166.535063 
L 226.525625 166.535063 
Q 228.925625 166.535063 228.925625 164.135063 
L 228.925625 130.055063 
Q 228.925625 127.655063 226.525625 127.655063 
L 141.445625 127.655063 
Q 139.045625 127.655063 139.045625 130.055063 
L 139.045625 164.135063 
Q 139.045625 166.535063 141.445625 166.535063 
z
" style="fill: #ffffff; opacity: 0.8; stroke: #cccccc; stroke-linejoin: miter"/>
    </g>
    <g id="line2d_16">
     <path d="M 143.845625 137.375063 
L 155.845625 137.375063 
L 167.845625 137.375063 
" style="fill: none; stroke: #1f77b4; stroke-width: 2; stroke-linecap: square"/>
    </g>
    <g id="text_16">
     <!-- $E$-plane -->
     <g transform="translate(177.445625 141.575063) scale(0.12 -0.12)">
      <defs>
       <path id="DejaVuSans-2d" d="M 313 2009 
L 1997 2009 
L 1997 1497 
L 313 1497 
L 313 2009 
z
" transform="scale(0.015625)"/>
       <path id="DejaVuSans-70" d="M 1159 525 
L 1159 -1331 
L 581 -1331 
L 581 3500 
L 1159 3500 
L 1159 2969 
Q 1341 3281 1617 3432 
Q 1894 3584 2278 3584 
Q 2916 3584 3314 3078 
Q 3713 2572 3713 1747 
Q 3713 922 3314 415 
Q 2916 -91 2278 -91 
Q 1894 -91 1617 61 
Q 1341 213 1159 525 
z
M 3116 1747 
Q 3116 2381 2855 2742 
Q 2594 3103 2138 3103 
Q 1681 3103 1420 2742 
Q 1159 2381 1159 1747 
Q 1159 1113 1420 752 
Q 1681 391 2138 391 
Q 2594 391 2855 752 
Q 3116 1113 3116 1747 
z
" transform="scale(0.015625)"/>
       <path id="DejaVuSans-6e" d="M 3513 2113 
L 3513 0 
L 2938 0 
L 2938 2094 
Q 2938 2591 2744 2837 
Q 2550 3084 2163 3084 
Q 1697 3084 1428 2787 
Q 1159 2491 1159 1978 
L 1159 0 
L 581 0 
L 581 3500 
L 1159 3500 
L 1159 2956 
Q 1366 3272 1645 3428 
Q 1925 3584 2291 3584 
Q 2894 3584 3203 3211 
Q 3513 2838 3513 2113 
z
" transform="scale(0.015625)"/>
      </defs>
      <use xlink:href="#DejaVuSans-Oblique-45" transform="translate(0 0.015625)"/>
      <use xlink:href="#DejaVuSans-2d" transform="translate(63.183594 0.015625)"/>
      <use xlink:href="#DejaVuSans-70" transform="translate(99.267578 0.015625)"/>
      <use xlink:href="#DejaVuSans-6c" transform="translate(162.744141 0.015625)"/>
      <use xlink:href="#DejaVuSans-61" transform="translate(190.527344 0.015625)"/>
      <use xlink:href="#DejaVuSans-6e" transform="translate(251.806641 0.015625)"/>
      <use xlink:href="#DejaVuSans-65" transform="translate(315.185547 0.015625)"/>
     </g>
    </g>
    <g id="line2d_17">
     <path d="M 143.845625 155.015063 
L 155.845625 155.015063 
L 167.845625 155.015063 
" style="fill: none; stroke: #ff7f0e; stroke-width: 2; stroke-linecap: square"/>
    </g>
    <g id="text_17">
     <!-- $H$-plane -->
     <g transform="translate(177.445625 159.215063) scale(0.12 -0.12)">
      <defs>
       <path id="DejaVuSans-Oblique-48" d="M 1081 4666 
L 1716 4666 
L 1344 2753 
L 3634 2753 
L 4006 4666 
L 4641 4666 
L 3731 0 
L 3097 0 
L 3531 2222 
L 1241 2222 
L 806 0 
L 172 0 
L 1081 4666 
z
" transform="scale(0.015625)"/>
      </defs>
      <use xlink:href="#DejaVuSans-Oblique-48" transform="translate(0 0.015625)"/>
      <use xlink:href="#DejaVuSans-2d" transform="translate(75.195312 0.015625)"/>
      <use xlink:href="#DejaVuSans-70" transform="translate(111.279297 0.015625)"/>
      <use xlink:href="#DejaVuSans-6c" transform="translate(174.755859 0.015625)"/>
      <use xlink:href="#DejaVuSans-61" transform="translate(202.539062 0.015625)"/>
      <use xlink:href="#DejaVuSans-6e" transform="translate(263.818359 0.015625)"/>
      <use xlink:href="#DejaVuSans-65" transform="translate(327.197266 0.015625)"/>
     </g>
    </g>
   </g>
  </g>
 </g>
 <defs>
  <clipPath id="pd8e5c65334">
   <rect x="55.645625" y="11.759062" width="256.68" height="160.776"/>
  </clipPath>
 </defs>
</svg>
